<?xml version="1.0" standalone="no"?>
<!DOCTYPE svg PUBLIC "-//W3C//DTD SVG 20010904//EN"
 "http://www.w3.org/TR/2001/REC-SVG-20010904/DTD/svg10.dtd">
<svg version="1.0" xmlns="http://www.w3.org/2000/svg"
 width="722.000000pt" height="508.000000pt" viewBox="0 0 722.000000 508.000000"
 preserveAspectRatio="xMidYMid meet">

<g transform="translate(0.000000,508.000000) scale(0.100000,-0.100000)"
fill="#000000" stroke="none">
<path d="M0 3075 l0 -2005 55 31 c30 17 55 29 55 26 0 -3 -25 -19 -55 -36
l-55 -31 0 -530 0 -530 3610 0 3610 0 0 2540 0 2540 -3610 0 -3610 0 0 -2005z
m1058 1520 c23 -10 42 -18 42 -19 0 -13 -34 -96 -38 -96 -4 1 -18 7 -32 15
-14 8 -50 14 -80 15 -73 0 -115 -25 -131 -79 -35 -117 61 -198 191 -160 62 18
60 19 76 -26 10 -31 11 -42 1 -51 -42 -39 -204 -47 -274 -13 -79 38 -123 115
-123 213 0 101 63 182 170 217 37 12 150 3 198 -16z m3445 -1 c20 -10 37 -23
37 -29 0 -11 -20 -76 -25 -83 -1 -1 -18 5 -38 13 -20 8 -61 15 -91 15 -67 0
-110 -31 -126 -90 -31 -115 77 -191 205 -145 22 8 43 15 46 15 4 0 12 -21 19
-46 11 -39 11 -47 -1 -55 -52 -34 -201 -39 -264 -10 -47 22 -99 74 -114 114
-20 52 -14 159 12 208 26 49 86 96 138 110 50 12 160 3 202 -17z m1816 -12
c124 -76 146 -255 43 -355 -51 -49 -98 -67 -179 -67 -83 0 -135 22 -181 75
-43 49 -53 77 -53 151 0 88 27 142 96 191 73 51 196 54 274 5z m-4689 -22 l0
-50 -115 0 -115 0 0 -40 0 -40 105 0 105 0 0 -45 0 -45 -105 0 -105 0 0 -40 0
-40 115 0 115 0 0 -50 0 -50 -172 2 -173 3 -3 223 -2 222 175 0 175 0 0 -50z
m504 36 c93 -39 113 -158 40 -231 -19 -19 -34 -37 -34 -39 0 -3 29 -38 65 -78
36 -40 65 -76 65 -80 0 -5 -29 -8 -64 -8 l-64 0 -68 80 c-61 72 -71 81 -98 78
l-31 -3 -3 -77 -3 -78 -54 0 -55 0 0 225 0 225 135 0 c93 0 146 -4 169 -14z
m646 -36 l0 -50 -70 0 -70 0 -2 -172 -3 -173 -55 0 -55 0 -3 172 -2 172 -68 3
-67 3 -3 48 -3 47 200 0 201 0 0 -50z m300 -175 l0 -225 -55 0 -55 0 0 225 0
225 55 0 55 0 0 -225z m560 175 l0 -50 -115 0 -115 0 0 -45 0 -45 105 0 105 0
0 -45 0 -45 -105 0 -104 0 -3 -82 -3 -83 -57 -3 -58 -3 0 226 0 225 175 0 175
0 0 -50z m308 -172 l-3 -223 -55 0 -55 0 -3 210 c-1 115 0 215 2 222 4 8 25
13 61 13 l55 0 -2 -222z m1070 150 c17 -40 60 -139 95 -220 36 -81 62 -149 59
-152 -3 -4 -30 -6 -59 -6 -54 0 -55 0 -71 40 l-17 40 -96 0 -97 0 -7 -27 c-4
-16 -11 -34 -17 -40 -10 -13 -109 -18 -120 -7 -4 3 4 29 17 57 13 29 53 124
90 212 37 88 69 163 72 168 2 4 30 7 62 7 l58 0 31 -72z m647 41 c67 -34 107
-91 113 -163 7 -81 -5 -122 -46 -168 -58 -65 -106 -81 -254 -86 l-128 -5 0
228 0 227 133 -4 c119 -3 138 -6 182 -29z m-4748 -661 c-2 -18 -4 -6 -4 27 0
33 2 48 4 33 2 -15 2 -42 0 -60z m616 75 c-7 -2 -19 -2 -25 0 -7 3 -2 5 12 5
14 0 19 -2 13 -5z m640 0 c-7 -2 -19 -2 -25 0 -7 3 -2 5 12 5 14 0 19 -2 13
-5z m350 0 c-7 -2 -19 -2 -25 0 -7 3 -2 5 12 5 14 0 19 -2 13 -5z m134 1 c-3
-3 -12 -4 -19 -1 -8 3 -5 6 6 6 11 1 17 -2 13 -5z m220 0 c-3 -3 -12 -4 -19
-1 -8 3 -5 6 6 6 11 1 17 -2 13 -5z m-1740 -81 c-2 -16 -4 -3 -4 27 0 30 2 43
4 28 2 -16 2 -40 0 -55z m350 45 c-3 -7 -5 -2 -5 12 0 14 2 19 5 13 2 -7 2
-19 0 -25z m790 -45 c-2 -16 -4 -3 -4 27 0 30 2 43 4 28 2 -16 2 -40 0 -55z
m724 60 c13 -16 12 -17 -3 -4 -17 13 -22 21 -14 21 2 0 10 -8 17 -17z m-496
-31 c-3 -3 -11 0 -18 7 -9 10 -8 11 6 5 10 -3 15 -9 12 -12z m130 0 c-3 -3
-11 0 -18 7 -9 10 -8 11 6 5 10 -3 15 -9 12 -12z m516 -9 c-12 -20 -14 -14 -5
12 4 9 9 14 11 11 3 -2 0 -13 -6 -23z m-1117 2 c-4 -8 -11 -12 -16 -9 -6 4 -5
10 3 15 19 12 19 11 13 -6z m2389 -925 c24 -57 25 -60 6 -60 -10 0 -19 5 -19
10 0 6 -13 10 -30 10 -16 0 -30 -4 -30 -10 0 -5 -7 -10 -16 -10 -11 0 -14 5
-10 18 46 123 61 130 99 42z m67 0 c0 -47 -3 -60 -15 -60 -12 0 -15 13 -15 60
0 47 3 60 15 60 12 0 15 -13 15 -60z m630 1 l0 -59 -37 0 c-45 0 -63 12 -63
43 0 29 24 49 50 42 15 -4 20 0 20 14 0 10 7 19 15 19 12 0 15 -13 15 -59z
m332 16 c31 -76 31 -77 14 -77 -9 0 -16 5 -16 10 0 6 -13 10 -30 10 -16 0 -30
-4 -30 -10 0 -5 -9 -10 -19 -10 -19 0 -18 3 6 60 32 72 51 77 75 17z m188 28
c0 -8 7 -15 15 -15 20 0 19 -10 -2 -26 -17 -13 -17 -15 0 -28 24 -19 21 -38
-5 -34 -16 2 -24 11 -26 28 -2 14 -9 31 -15 39 -9 11 -9 15 1 18 6 3 12 11 12
19 0 8 5 14 10 14 6 0 10 -7 10 -15z m299 -45 c1 -48 -1 -60 -14 -60 -13 0
-15 12 -14 60 1 39 6 60 14 60 8 0 13 -21 14 -60z m266 0 c22 -52 18 -77 -8
-51 -14 14 -42 14 -67 -1 -31 -19 -32 -5 -5 56 32 71 49 70 80 -4z m387 12
c-18 -6 -15 -33 6 -48 16 -12 16 -13 0 -19 -27 -11 -48 2 -48 28 0 13 -5 28
-11 34 -8 8 -6 17 7 32 l18 20 20 -21 c14 -15 16 -23 8 -26z m-2014 6 c22 -22
13 -38 -19 -38 -18 0 -28 -4 -24 -10 4 -6 14 -10 23 -8 10 1 19 -2 22 -7 7
-14 -35 -18 -59 -5 -39 20 -21 80 24 80 12 0 26 -5 33 -12z m66 0 c5 -10 7
-10 12 0 3 6 15 12 26 12 20 0 20 -1 3 -20 -17 -18 -17 -21 -1 -45 13 -19 13
-25 3 -25 -7 0 -18 5 -25 12 -9 9 -15 9 -24 0 -7 -7 -18 -12 -25 -12 -11 0
-10 5 2 23 13 21 13 25 -1 45 -14 20 -14 22 5 22 10 0 22 -6 25 -12z m136 2
c0 -5 -10 -10 -22 -10 -22 -1 -21 -2 5 -16 31 -17 33 -26 13 -44 -18 -14 -58
-10 -64 8 -3 9 4 11 25 7 l28 -6 -27 16 c-29 16 -37 40 -15 48 22 9 57 7 57
-3z m110 -35 c0 -40 -1 -42 -32 -42 -40 0 -58 12 -58 41 0 31 17 44 56 43 33
-1 34 -2 34 -42z m110 25 c15 -28 12 -70 -4 -70 -9 0 -16 12 -18 33 -2 20 -8
32 -18 32 -10 0 -16 -12 -18 -32 -5 -52 -32 -43 -32 11 l0 44 40 0 c29 1 43
-4 50 -18z m200 5 c0 -7 -9 -15 -20 -18 -14 -3 -20 -14 -20 -31 0 -14 -4 -26
-10 -26 -5 0 -10 20 -10 43 0 42 1 44 30 45 19 0 30 -4 30 -13z m92 -2 c22
-20 23 -31 1 -55 -31 -34 -83 -17 -83 27 0 43 47 60 82 28z m285 5 c19 -15 17
-78 -2 -78 -10 0 -15 10 -15 29 0 17 -5 33 -11 37 -14 8 -29 -14 -29 -43 0
-13 -4 -23 -10 -23 -5 0 -10 20 -10 43 0 43 1 44 32 45 18 0 38 -4 45 -10z
m184 2 c28 -16 25 -58 -6 -72 -35 -16 -75 3 -75 36 0 38 41 57 81 36z m117 -3
c17 -14 16 -77 -2 -77 -9 0 -16 12 -18 33 -2 17 -7 32 -13 32 -5 0 -11 -15
-13 -32 -5 -53 -32 -43 -32 11 0 44 1 45 33 44 17 0 38 -5 45 -11z m160 1 c29
-29 7 -78 -34 -78 -25 0 -54 24 -54 45 0 36 62 59 88 33z m272 1 c0 -4 -9 -13
-20 -19 -12 -6 -20 -21 -20 -35 0 -16 -6 -25 -15 -25 -11 0 -15 12 -15 44 0
44 0 44 35 44 19 0 35 -4 35 -9z m100 -34 l0 -43 -40 0 c-33 -1 -43 4 -52 22
-17 39 4 65 52 64 l40 0 0 -43z m98 32 c17 -14 16 -77 -2 -77 -9 0 -16 12 -18
33 -2 17 -7 32 -13 32 -5 0 -11 -15 -13 -32 -5 -53 -32 -43 -32 11 0 44 1 45
33 44 17 0 38 -5 45 -11z m176 7 c9 -3 16 -15 16 -25 0 -14 -7 -19 -26 -19
-15 0 -23 -4 -19 -10 4 -6 16 -8 27 -4 15 4 19 2 16 -7 -7 -20 -53 -23 -72 -4
-38 39 5 89 58 69z m101 -4 c3 -6 -4 -10 -17 -11 l-23 0 23 -11 c35 -17 26
-52 -15 -56 -23 -2 -33 1 -33 11 0 10 9 13 28 11 l27 -4 -27 12 c-26 11 -36
36 -21 51 10 11 51 8 58 -3z m-2238 -267 c-2 -16 -4 -5 -4 22 0 28 2 40 4 28
2 -13 2 -35 0 -50z m1096 60 c-15 -3 -23 -12 -23 -25 0 -16 5 -19 25 -16 13 3
22 1 19 -3 -3 -5 -14 -9 -24 -9 -10 0 -21 -8 -23 -17 -3 -10 -5 3 -6 30 -1 45
0 47 27 46 23 -2 24 -2 5 -6z m510 0 c-7 -2 -19 -2 -25 0 -7 3 -2 5 12 5 14 0
19 -2 13 -5z m634 -60 c-2 -16 -4 -5 -4 22 0 28 2 40 4 28 2 -13 2 -35 0 -50z
m-2497 43 c0 -2 -9 -6 -20 -9 -11 -3 -18 -1 -14 4 5 9 34 13 34 5z m53 -6
c-13 -5 -23 -17 -24 -27 0 -11 -3 -13 -6 -5 -7 17 15 42 36 41 11 0 9 -3 -6
-9z m102 0 c3 -6 -1 -7 -9 -4 -18 7 -21 14 -7 14 6 0 13 -4 16 -10z m72 4 c-3
-3 -12 -4 -19 -1 -8 3 -5 6 6 6 11 1 17 -2 13 -5z m185 -51 c15 4 18 3 10 -5
-20 -20 -42 -1 -40 34 l1 33 4 -33 c4 -29 8 -33 25 -29z m118 53 c0 -2 -9 -6
-20 -9 -11 -3 -18 -1 -14 4 5 9 34 13 34 5z m117 -2 c-3 -3 -12 -4 -19 -1 -8
3 -5 6 6 6 11 1 17 -2 13 -5z m55 -51 c15 4 18 3 10 -5 -20 -20 -42 -1 -40 34
l1 33 4 -33 c4 -29 8 -33 25 -29z m78 53 c0 -2 -7 -7 -16 -10 -8 -3 -12 -2 -9
4 6 10 25 14 25 6z m38 -3 c-10 -2 -18 -9 -18 -15 0 -6 -3 -9 -6 -5 -10 10 6
27 24 26 15 -1 15 -2 0 -6z m79 1 c-3 -3 -12 -4 -19 -1 -8 3 -5 6 6 6 11 1 17
-2 13 -5z m217 -3 c4 -5 -3 -7 -14 -4 -23 6 -26 13 -6 13 8 0 17 -4 20 -9z
m136 5 c0 -2 -9 -6 -20 -9 -11 -3 -18 -1 -14 4 5 9 34 13 34 5z m190 0 c0 -2
-9 -6 -20 -9 -11 -3 -18 -1 -14 4 5 9 34 13 34 5z m83 -3 c3 -5 -5 -8 -18 -8
-13 0 -21 3 -18 8 2 4 10 7 18 7 8 0 16 -3 18 -7z m54 1 c-3 -3 -12 -4 -19 -1
-8 3 -5 6 6 6 11 1 17 -2 13 -5z m133 2 c0 -2 -9 -6 -20 -9 -11 -3 -18 -1 -14
4 5 9 34 13 34 5z m57 -2 c-3 -3 -12 -4 -19 -1 -8 3 -5 6 6 6 11 1 17 -2 13
-5z m154 -8 c-5 -6 -11 -22 -14 -36 -3 -19 -5 -17 -6 11 -1 25 3 36 14 36 9 0
11 -4 6 -11z m69 10 c0 -2 -9 -6 -20 -9 -11 -3 -18 -1 -14 4 5 9 34 13 34 5z
m67 -2 c-3 -3 -12 -4 -19 -1 -8 3 -5 6 6 6 11 1 17 -2 13 -5z m83 2 c0 -2 -9
-6 -20 -9 -11 -3 -18 -1 -14 4 5 9 34 13 34 5z m57 -2 c-3 -3 -12 -4 -19 -1
-8 3 -5 6 6 6 11 1 17 -2 13 -5z m40 -46 c-2 -13 -4 -5 -4 17 -1 22 1 32 4 23
2 -10 2 -28 0 -40z m63 48 c0 -2 -9 -6 -20 -9 -11 -3 -18 -1 -14 4 5 9 34 13
34 5z m85 -6 c3 -6 -1 -7 -9 -4 -18 7 -21 14 -7 14 6 0 13 -4 16 -10z m-2298
-32 c-3 -8 -6 -5 -6 6 -1 11 2 17 5 13 3 -3 4 -12 1 -19z m100 0 c-3 -8 -6 -5
-6 6 -1 11 2 17 5 13 3 -3 4 -12 1 -19z m420 0 c-3 -8 -6 -5 -6 6 -1 11 2 17
5 13 3 -3 4 -12 1 -19z m250 0 c-3 -8 -6 -5 -6 6 -1 11 2 17 5 13 3 -3 4 -12
1 -19z m60 0 c-3 -8 -6 -5 -6 6 -1 11 2 17 5 13 3 -3 4 -12 1 -19z m150 0 c-3
-8 -6 -5 -6 6 -1 11 2 17 5 13 3 -3 4 -12 1 -19z m593 7 c0 -2 -13 -5 -30 -7
-19 -3 -30 0 -30 7 0 7 11 10 30 7 17 -2 30 -5 30 -7z m757 -7 c-3 -8 -6 -5
-6 6 -1 11 2 17 5 13 3 -3 4 -12 1 -19z m-974 5 c-7 -2 -21 -2 -30 0 -10 3 -4
5 12 5 17 0 24 -2 18 -5z m420 0 c-7 -2 -19 -2 -25 0 -7 3 -2 5 12 5 14 0 19
-2 13 -5z m342 -3 c3 -6 -1 -7 -9 -4 -18 7 -21 14 -7 14 6 0 13 -4 16 -10z
m-490 -19 c-3 -6 -14 -10 -23 -10 -15 1 -15 2 1 6 9 2 17 9 17 15 0 6 3 9 6 5
3 -3 3 -10 -1 -16z m430 0 c-3 -6 -14 -10 -23 -10 -15 1 -15 2 1 6 9 2 17 9
17 15 0 6 3 9 6 5 3 -3 3 -10 -1 -16z m-2154 -9 c-7 -2 -18 1 -23 6 -8 8 -4 9
13 5 13 -4 18 -8 10 -11z m314 0 c-3 -3 -11 0 -18 7 -9 10 -8 11 6 5 10 -3 15
-9 12 -12z m216 0 c-7 -2 -18 1 -23 6 -8 8 -4 9 13 5 13 -4 18 -8 10 -11z
m314 8 c-3 -5 -14 -10 -23 -9 -14 0 -13 2 3 9 27 11 27 11 20 0z m205 0 c0 -5
-2 -10 -4 -10 -3 0 -8 5 -11 10 -3 6 -1 10 4 10 6 0 11 -4 11 -10z m75 0 c-3
-5 -14 -10 -23 -9 -14 0 -13 2 3 9 27 11 27 11 20 0z m126 -8 c-7 -2 -18 1
-23 6 -8 8 -4 9 13 5 13 -4 18 -8 10 -11z m195 0 c-10 -2 -22 0 -28 6 -6 6 0
7 19 4 21 -5 23 -7 9 -10z m545 0 c-7 -2 -18 1 -23 6 -8 8 -4 9 13 5 13 -4 18
-8 10 -11z m310 0 c-7 -2 -18 1 -23 6 -8 8 -4 9 13 5 13 -4 18 -8 10 -11z
m-2224 2 c-3 -3 -12 -4 -19 -1 -8 3 -5 6 6 6 11 1 17 -2 13 -5z m160 0 c-3 -3
-12 -4 -19 -1 -8 3 -5 6 6 6 11 1 17 -2 13 -5z m420 0 c-3 -3 -12 -4 -19 -1
-8 3 -5 6 6 6 11 1 17 -2 13 -5z m250 0 c-3 -3 -12 -4 -19 -1 -8 3 -5 6 6 6
11 1 17 -2 13 -5z m750 0 c-3 -3 -12 -4 -19 -1 -8 3 -5 6 6 6 11 1 17 -2 13
-5z m550 0 c-3 -3 -12 -4 -19 -1 -8 3 -5 6 6 6 11 1 17 -2 13 -5z m-460 -171
c-2 -16 -4 -5 -4 22 0 28 2 40 4 28 2 -13 2 -35 0 -50z m160 61 c-3 -3 -12 -4
-19 -1 -8 3 -5 6 6 6 11 1 17 -2 13 -5z m90 0 c-3 -3 -12 -4 -19 -1 -8 3 -5 6
6 6 11 1 17 -2 13 -5z m97 -3 c4 -5 -3 -7 -14 -4 -23 6 -26 13 -6 13 8 0 17
-4 20 -9z m73 -58 c-2 -16 -4 -5 -4 22 0 28 2 40 4 28 2 -13 2 -35 0 -50z
m-1290 41 c-3 -3 -12 -4 -19 -1 -8 3 -5 6 6 6 11 1 17 -2 13 -5z m76 -1 c3 -5
-8 -8 -23 -8 -15 0 -26 3 -23 8 2 4 13 7 23 7 10 0 21 -3 23 -7z m34 -45 c-2
-13 -4 -5 -4 17 -1 22 1 32 4 23 2 -10 2 -28 0 -40z m86 45 c3 -5 -5 -8 -18
-8 -13 0 -21 3 -18 8 2 4 10 7 18 7 8 0 16 -3 18 -7z m64 -30 c-3 -10 -5 -4
-5 12 0 17 2 24 5 18 2 -7 2 -21 0 -30z m50 -15 c-2 -13 -4 -5 -4 17 -1 22 1
32 4 23 2 -10 2 -28 0 -40z m68 41 c11 -16 1 -19 -13 -3 -7 8 -8 14 -3 14 5 0
13 -5 16 -11z m42 5 c-3 -3 -12 -4 -19 -1 -8 3 -5 6 6 6 11 1 17 -2 13 -5z
m90 0 c-3 -3 -12 -4 -19 -1 -8 3 -5 6 6 6 11 1 17 -2 13 -5z m70 0 c-3 -3 -12
-4 -19 -1 -8 3 -5 6 6 6 11 1 17 -2 13 -5z m66 -1 c-7 -2 -19 -2 -25 0 -7 3
-2 5 12 5 14 0 19 -2 13 -5z m67 3 c0 -2 -9 -6 -20 -9 -11 -3 -18 -1 -14 4 5
9 34 13 34 5z m17 -48 c-2 -13 -4 -5 -4 17 -1 22 1 32 4 23 2 -10 2 -28 0 -40z
m123 48 c0 -2 -9 -6 -20 -9 -11 -3 -18 -1 -14 4 5 9 34 13 34 5z m84 -5 c4 -5
-3 -7 -14 -4 -23 6 -26 13 -6 13 8 0 17 -4 20 -9z m203 -28 c-3 -10 -5 -4 -5
12 0 17 2 24 5 18 2 -7 2 -21 0 -30z m260 31 c-3 -3 -12 -4 -19 -1 -8 3 -5 6
6 6 11 1 17 -2 13 -5z m73 2 c0 -2 -7 -7 -16 -10 -8 -3 -12 -2 -9 4 6 10 25
14 25 6z m50 0 c0 -2 -9 -6 -20 -9 -11 -3 -18 -1 -14 4 5 9 34 13 34 5z m17
-48 c-2 -13 -4 -5 -4 17 -1 22 1 32 4 23 2 -10 2 -28 0 -40z m60 46 c-3 -3
-12 -4 -19 -1 -8 3 -5 6 6 6 11 1 17 -2 13 -5z m-370 -26 c-3 -8 -6 -5 -6 6
-1 11 2 17 5 13 3 -3 4 -12 1 -19z m-1270 -10 c-3 -8 -6 -5 -6 6 -1 11 2 17 5
13 3 -3 4 -12 1 -19z m470 -15 c-3 -10 -5 -4 -5 12 0 17 2 24 5 18 2 -7 2 -21
0 -30z m110 15 c-3 -8 -6 -5 -6 6 -1 11 2 17 5 13 3 -3 4 -12 1 -19z m60 0
c-3 -8 -6 -5 -6 6 -1 11 2 17 5 13 3 -3 4 -12 1 -19z m343 6 c0 -2 -13 -4 -30
-4 -16 0 -30 4 -30 8 0 5 14 7 30 4 17 -2 30 -6 30 -8z m86 -3 c-17 -18 -17
-19 1 -24 11 -3 7 -5 -11 -6 l-29 -1 23 25 c27 29 42 34 16 6z m331 -3 c-3 -8
-6 -5 -6 6 -1 11 2 17 5 13 3 -3 4 -12 1 -19z m60 0 c-3 -8 -6 -5 -6 6 -1 11
2 17 5 13 3 -3 4 -12 1 -19z m-1344 -20 c-2 -5 -13 -8 -23 -8 -10 0 -21 3 -23
8 -3 4 8 7 23 7 15 0 26 -3 23 -7z m572 -6 c-3 -3 -11 0 -18 7 -9 10 -8 11 6
5 10 -3 15 -9 12 -12z m56 0 c-7 -2 -18 1 -23 6 -8 8 -4 9 13 5 13 -4 18 -8
10 -11z m140 0 c-7 -2 -18 1 -23 6 -8 8 -4 9 13 5 13 -4 18 -8 10 -11z m374 8
c-3 -5 -14 -10 -23 -9 -14 0 -13 2 3 9 27 11 27 11 20 0z m296 -8 c-7 -2 -18
1 -23 6 -8 8 -4 9 13 5 13 -4 18 -8 10 -11z m-1514 2 c-3 -3 -12 -4 -19 -1 -8
3 -5 6 6 6 11 1 17 -2 13 -5z m290 0 c-3 -3 -12 -4 -19 -1 -8 3 -5 6 6 6 11 1
17 -2 13 -5z m230 0 c-3 -3 -12 -4 -19 -1 -8 3 -5 6 6 6 11 1 17 -2 13 -5z
m60 0 c-3 -3 -12 -4 -19 -1 -8 3 -5 6 6 6 11 1 17 -2 13 -5z m350 0 c-3 -3
-12 -4 -19 -1 -8 3 -5 6 6 6 11 1 17 -2 13 -5z m190 0 c-3 -3 -12 -4 -19 -1
-8 3 -5 6 6 6 11 1 17 -2 13 -5z m280 0 c-3 -3 -12 -4 -19 -1 -8 3 -5 6 6 6
11 1 17 -2 13 -5z m196 -1 c-7 -2 -19 -2 -25 0 -7 3 -2 5 12 5 14 0 19 -2 13
-5z m-4138 -23 c-3 -5 -12 -10 -18 -10 -7 0 -6 4 3 10 19 12 23 12 15 0z m-85
-45 c0 -2 -10 -9 -22 -15 -22 -11 -22 -10 -4 4 21 17 26 19 26 11z m-70 -40
c0 -2 -10 -9 -22 -15 -22 -11 -22 -10 -4 4 21 17 26 19 26 11z m-90 -50 c0 -2
-10 -9 -22 -15 -22 -11 -22 -10 -4 4 21 17 26 19 26 11z m-90 -50 c0 -2 -10
-9 -22 -15 -22 -11 -22 -10 -4 4 21 17 26 19 26 11z m-70 -40 c0 -2 -13 -11
-30 -20 -38 -19 -40 -11 -2 9 31 17 32 18 32 11z m-75 -44 c-8 -7 -814 -460
-870 -489 -7 -3 -7 -2 0 5 6 6 145 86 310 178 165 93 359 201 430 242 128 72
148 82 130 64z m3204 -318 c-1 -53 -6 -49 -11 10 -2 20 0 37 4 37 4 0 8 -21 7
-47z m67 15 c1 -20 -3 -25 -14 -20 -11 4 -12 7 -4 10 20 6 13 30 -10 35 -20 5
-20 5 2 4 20 -2 25 -8 26 -29z m661 -35 c-2 -16 -4 -5 -4 22 0 28 2 40 4 28 2
-13 2 -35 0 -50z m467 58 c4 -5 -3 -7 -14 -4 -23 6 -26 13 -6 13 8 0 17 -4 20
-9z m89 2 c3 -5 -8 -8 -23 -8 -15 0 -26 3 -23 8 2 4 13 7 23 7 10 0 21 -3 23
-7z m70 0 c-7 -2 -19 -2 -25 0 -7 3 -2 5 12 5 14 0 19 -2 13 -5z m87 -6 c0 -8
-7 -14 -15 -14 -11 0 -12 4 -4 14 6 7 13 13 15 13 2 0 4 -6 4 -13z m-1283 -13
c-3 -3 -12 -4 -19 -1 -8 3 -5 6 6 6 11 1 17 -2 13 -5z m83 2 c0 -2 -9 -6 -20
-9 -11 -3 -18 -1 -14 4 5 9 34 13 34 5z m115 -6 c3 -6 -1 -7 -9 -4 -18 7 -21
14 -7 14 6 0 13 -4 16 -10z m79 1 c4 -5 -3 -7 -14 -4 -23 6 -26 13 -6 13 8 0
17 -4 20 -9z m136 5 c0 -2 -9 -6 -20 -9 -11 -3 -18 -1 -14 4 5 9 34 13 34 5z
m86 -36 l2 -35 -5 33 c-4 28 -8 33 -24 29 -11 -3 -16 -1 -13 4 14 23 39 3 40
-31z m118 31 c4 -5 -3 -7 -14 -4 -23 6 -26 13 -6 13 8 0 17 -4 20 -9z m47 -5
c-5 -6 -11 -22 -14 -36 -3 -19 -5 -17 -6 11 -1 25 3 36 14 36 9 0 11 -4 6 -11z
m69 10 c0 -2 -9 -6 -20 -9 -11 -3 -18 -1 -14 4 5 9 34 13 34 5z m107 -2 c-3
-3 -12 -4 -19 -1 -8 3 -5 6 6 6 11 1 17 -2 13 -5z m90 0 c-3 -3 -12 -4 -19 -1
-8 3 -5 6 6 6 11 1 17 -2 13 -5z m140 -26 c-3 -8 -6 -5 -6 6 -1 11 2 17 5 13
3 -3 4 -12 1 -19z m-1100 -10 c-3 -8 -6 -5 -6 6 -1 11 2 17 5 13 3 -3 4 -12 1
-19z m260 0 c-3 -8 -6 -5 -6 6 -1 11 2 17 5 13 3 -3 4 -12 1 -19z m580 0 c-3
-8 -6 -5 -6 6 -1 11 2 17 5 13 3 -3 4 -12 1 -19z m133 11 c0 -4 -13 -9 -30
-11 -17 -3 -30 0 -30 6 0 6 14 11 30 11 17 0 30 -3 30 -6z m-857 -6 c-7 -2
-21 -2 -30 0 -10 3 -4 5 12 5 17 0 24 -2 18 -5z m330 0 c-7 -2 -21 -2 -30 0
-10 3 -4 5 12 5 17 0 24 -2 18 -5z m608 -7 c-10 -11 -8 -15 6 -19 11 -3 7 -5
-11 -6 -28 -1 -29 -1 -11 19 20 23 34 28 16 6z m269 -2 c0 -2 -13 -4 -30 -4
-16 0 -30 4 -30 8 0 5 14 7 30 4 17 -2 30 -6 30 -8z m-115 -3 c-3 -5 5 -12 17
-14 16 -3 13 -5 -11 -6 -29 -1 -32 1 -21 14 14 16 25 21 15 6z m-1270 -11 c-3
-5 -16 -10 -28 -9 -20 1 -20 2 3 9 14 4 26 8 28 9 2 1 0 -3 -3 -9z m171 -8
c-10 -2 -22 0 -28 6 -6 6 0 7 19 4 21 -5 23 -7 9 -10z m199 8 c-3 -5 -14 -10
-23 -9 -14 0 -13 2 3 9 27 11 27 11 20 0z m131 -8 c-10 -2 -22 0 -28 6 -6 6 0
7 19 4 21 -5 23 -7 9 -10z m209 8 c-3 -5 -12 -10 -18 -10 -7 0 -6 4 3 10 19
12 23 12 15 0z m106 -8 c-7 -2 -18 1 -23 6 -8 8 -4 9 13 5 13 -4 18 -8 10 -11z
m402 6 c-2 -5 -13 -8 -23 -8 -10 0 -21 3 -23 8 -3 4 8 7 23 7 15 0 26 -3 23
-7z m-1126 -4 c-3 -3 -12 -4 -19 -1 -8 3 -5 6 6 6 11 1 17 -2 13 -5z m840 0
c-3 -3 -12 -4 -19 -1 -8 3 -5 6 6 6 11 1 17 -2 13 -5z m90 0 c-3 -3 -12 -4
-19 -1 -8 3 -5 6 6 6 11 1 17 -2 13 -5z m-5177 -139 c0 -2 -18 -14 -40 -25
-22 -11 -40 -18 -40 -15 0 2 17 13 38 24 42 23 42 23 42 16z m-90 -50 c0 -2
-13 -11 -30 -20 -38 -19 -40 -11 -2 9 31 17 32 18 32 11z m-70 -39 c0 -2 -44
-29 -97 -59 -54 -30 -242 -135 -418 -234 -355 -199 -374 -210 -360 -195 6 5
145 85 310 178 165 92 359 201 430 241 135 76 135 76 135 69z m5581 -383 c-32
-170 -34 -157 24 -164 l50 -6 -51 -1 c-49 -2 -52 -3 -58 -33 -8 -44 -8 -89 2
-89 4 0 14 6 22 13 12 10 12 9 1 -5 -7 -10 -19 -18 -26 -18 -7 0 -16 -12 -19
-26 -4 -15 -9 -24 -11 -22 -4 4 8 91 21 151 5 26 4 27 -35 27 l-41 0 -2 -57
-2 -58 -3 57 -4 57 -97 3 c-53 2 -102 2 -109 0 -6 -2 -17 -18 -24 -35 -19 -44
-9 -100 11 -67 5 8 12 11 17 7 8 -9 -15 -27 -34 -27 -7 0 -13 7 -13 15 0 22
-9 19 -32 -11 -11 -14 -23 -23 -25 -20 -3 3 8 22 24 43 30 37 53 76 53 87 0 3
-38 6 -85 6 l-85 0 0 -43 c0 -45 -30 -91 -45 -68 -3 6 0 11 8 11 18 0 27 21
27 66 0 27 -4 34 -20 34 -15 0 -20 -7 -20 -29 0 -24 -7 -32 -41 -49 -39 -19
-39 -40 0 -27 11 3 22 2 25 -3 10 -16 -43 -20 -64 -5 -12 8 -24 12 -28 8 -3
-3 0 -10 7 -14 10 -7 11 -10 1 -16 -8 -5 -18 -1 -25 8 -7 10 -21 17 -31 18
-10 0 7 7 38 15 74 18 110 41 106 68 -3 20 -10 21 -178 28 -96 4 -186 10 -200
13 l-25 7 30 12 c17 7 48 16 70 19 42 7 23 -3 -40 -19 -25 -7 -18 -9 45 -15
41 -3 119 -7 173 -8 105 -1 114 6 49 36 -59 27 -269 24 -342 -5 -30 -12 -56
-22 -57 -22 -2 0 -2 33 -1 73 1 63 2 65 5 19 2 -30 9 -55 17 -58 7 -2 41 2 77
11 128 30 290 14 352 -35 27 -22 67 -27 67 -9 0 8 5 7 15 -1 19 -16 185 -7
195 11 5 7 9 7 11 1 2 -5 66 -11 146 -14 160 -5 146 -11 158 77 9 73 36 197
42 191 3 -3 -4 -53 -16 -113z m-304 -86 c3 -3 2 -14 -2 -24 -7 -17 -8 -17 -12
-1 -3 11 -18 19 -46 22 -84 11 -90 15 -19 12 40 -2 75 -6 79 -9z m-1882 -17
c3 -5 -1 -10 -9 -10 -9 0 -16 5 -16 10 0 6 4 10 9 10 6 0 13 -4 16 -10z m1955
-6 c23 -9 39 -18 37 -20 -2 -2 -25 5 -53 16 -27 10 -43 19 -37 20 7 0 31 -7
53 -16z m-2003 -6 c10 -17 12 -78 3 -78 -4 0 -13 7 -20 15 -7 8 -16 15 -21 15
-5 0 -9 -7 -9 -15 0 -8 -4 -15 -10 -15 -5 0 -10 20 -10 45 0 43 1 45 29 45 17
0 33 -6 38 -12z m333 -15 c0 -25 1 -25 13 -9 24 33 79 1 64 -38 -8 -21 -53
-21 -66 2 -10 16 -10 16 -11 0 0 -14 -8 -18 -35 -18 -29 0 -36 4 -41 25 -7 28
-24 24 -24 -6 0 -10 -7 -19 -15 -19 -10 0 -15 11 -15 35 l0 35 47 -2 c29 -2
48 2 51 10 8 24 32 13 32 -15z m140 -8 c0 -30 3 -35 23 -35 13 0 26 9 32 22
12 28 45 36 61 14 10 -15 12 -15 18 -1 7 18 62 20 69 3 4 -10 7 -10 18 0 20
19 69 16 69 -5 1 -17 1 -17 10 -1 6 10 22 16 41 16 16 -1 35 4 41 10 8 8 16 7
29 -1 14 -9 21 -9 30 0 19 19 45 -12 28 -33 -10 -13 -10 -17 1 -24 18 -11 6
-24 -15 -17 -8 4 -15 16 -15 27 0 11 -7 20 -15 20 -8 0 -15 -7 -15 -15 0 -8 5
-15 10 -15 6 0 10 -4 10 -10 0 -23 -39 -9 -48 18 l-10 27 -1 -27 c-1 -25 -5
-28 -36 -28 -21 0 -35 5 -36 13 0 6 -4 2 -9 -11 -11 -27 -33 -37 -57 -27 -16
7 -15 8 4 14 l22 6 -24 12 c-14 6 -25 7 -25 2 0 -5 -7 -9 -15 -9 -9 0 -15 9
-15 25 0 14 -4 25 -10 25 -5 0 -10 -11 -10 -25 0 -26 -14 -33 -25 -15 -4 7
-11 8 -18 1 -7 -5 -40 -9 -74 -10 l-63 -1 0 45 c0 25 5 45 10 45 6 0 10 -16
10 -35z m-4710 20 c0 -2 -18 -14 -40 -25 -22 -11 -40 -18 -40 -15 0 2 17 13
38 24 42 23 42 23 42 16z m4286 -16 c4 -8 9 -8 17 0 14 14 47 14 47 1 0 -5 -7
-10 -15 -10 -8 0 -15 -7 -15 -15 0 -8 7 -15 15 -15 8 0 15 -4 15 -10 0 -15
-50 -12 -51 3 0 10 -2 10 -6 0 -11 -28 -33 -13 -33 22 0 34 12 46 26 24z m144
-26 c0 -33 -2 -34 -32 -31 -55 5 -53 67 1 66 28 -1 31 -4 31 -35z m835 2 c0
-27 -3 -30 -30 -30 -24 0 -31 5 -33 24 -4 27 13 42 43 39 15 -2 20 -11 20 -33z
m174 -155 c12 -149 14 -216 5 -207 -3 3 -12 81 -20 174 -16 205 -16 189 -5
178 4 -6 13 -71 20 -145z m823 68 c-7 -7 -12 -8 -12 -2 0 14 12 26 19 19 2 -3
-1 -11 -7 -17z m-18 -22 c21 -44 20 -58 -5 -90 -25 -32 -49 -34 -48 -3 1 18 2
18 6 4 5 -18 6 -18 24 -1 26 23 25 80 -1 96 -23 15 -26 28 -6 28 7 0 21 -15
30 -34z m145 -15 c0 -14 -1 -14 -6 -1 -3 8 -10 24 -15 35 -9 20 -9 20 6 1 9
-11 16 -27 15 -35z m-819 21 c0 -4 -19 -9 -42 -9 l-43 -1 35 8 c51 11 50 11
50 2z m410 -7 c0 -8 -4 -15 -8 -15 -5 0 -9 7 -9 15 0 8 4 15 9 15 4 0 8 -7 8
-15z m204 3 c-3 -4 -9 -8 -15 -8 -5 0 -9 4 -9 8 0 5 7 9 15 9 8 0 12 -4 9 -9z
m283 6 c-3 -3 -12 -4 -19 -1 -8 3 -5 6 6 6 11 1 17 -2 13 -5z m-837 -20 c0 -8
-4 -12 -10 -9 -5 3 -10 10 -10 16 0 5 5 9 10 9 6 0 10 -7 10 -16z m-145 -4 c3
-5 1 -10 -4 -10 -6 0 -11 5 -11 10 0 6 2 10 4 10 3 0 8 -4 11 -10z m-528 -42
c-3 -7 -5 -2 -5 12 0 14 2 19 5 13 2 -7 2 -19 0 -25z m157 -11 c7 -6 6 -7 -4
-4 -8 2 -16 14 -17 28 -1 19 -1 20 4 4 3 -11 10 -24 17 -28z m626 32 c0 -5
-11 -9 -25 -9 -33 0 -33 15 0 16 14 1 25 -2 25 -7z m-735 -29 c-3 -5 -12 -10
-18 -10 -7 0 -6 4 3 10 19 12 23 12 15 0z m-1128 -6 c-3 -3 -12 -4 -19 -1 -8
3 -5 6 6 6 11 1 17 -2 13 -5z m420 0 c-3 -3 -12 -4 -19 -1 -8 3 -5 6 6 6 11 1
17 -2 13 -5z m430 0 c-3 -3 -12 -4 -19 -1 -8 3 -5 6 6 6 11 1 17 -2 13 -5z
m-2139 -234 c7 0 12 -5 12 -11 0 -5 4 -8 9 -4 5 3 12 1 16 -5 4 -6 -6 -10 -24
-10 -17 0 -31 5 -31 11 0 5 -6 7 -12 3 -18 -11 -98 -17 -98 -7 1 4 20 17 43
28 35 17 45 18 58 8 8 -7 21 -13 27 -13z m610 23 c-11 -3 -18 -14 -18 -29 0
-30 -20 -32 -21 -1 0 22 0 22 -10 -2 -5 -13 -7 -26 -4 -30 3 -3 42 -5 86 -4
76 2 79 1 79 -21 0 -19 -7 -24 -37 -30 -21 -3 -58 -6 -83 -6 -25 0 -62 3 -82
6 -31 5 -38 11 -38 30 0 17 6 23 27 26 17 2 32 12 39 27 15 29 33 41 59 40 17
-1 17 -2 3 -6z m652 -12 c0 -5 9 -7 20 -4 37 10 50 -14 50 -93 0 -71 -1 -74
-30 -89 -16 -8 -38 -15 -50 -15 -28 0 -80 27 -81 43 -4 49 0 128 7 140 5 8 23
17 39 20 17 2 33 5 38 6 4 0 7 -3 7 -8z m-314 -9 c16 -10 3 -37 -18 -38 -10
-1 -16 2 -13 6 3 5 0 12 -6 16 -8 4 -7 9 2 15 17 11 21 11 35 1z m696 -21 c27
-24 33 -36 33 -71 0 -101 -144 -138 -191 -49 -53 104 71 198 158 120z m1638
14 c14 -8 13 -78 -2 -110 -11 -24 -38 -35 -38 -15 0 6 -18 10 -40 10 -22 0
-40 -4 -40 -10 0 -5 -7 -10 -15 -10 -17 0 -38 64 -33 105 2 21 10 31 28 37 27
8 123 3 140 -7z m-1060 -21 c0 -16 -38 -49 -58 -51 -19 -2 -21 -1 -10 16 16
25 68 52 68 35z m60 -19 c22 -23 22 -25 4 -25 -16 0 -16 -2 -4 -10 17 -10 11
-19 -16 -24 -11 -3 -28 -8 -38 -12 -14 -5 -17 -4 -12 4 4 8 0 12 -11 12 -15 0
-16 2 -3 10 8 5 25 7 38 3 20 -5 23 -2 20 13 -2 11 -9 18 -14 17 -5 -1 -11 7
-11 18 -2 26 19 24 47 -6z m324 15 c15 -6 26 -17 25 -27 -1 -17 -2 -17 -6 0
-3 10 -14 17 -28 17 -13 0 -30 3 -39 6 -11 4 -16 0 -16 -14 0 -44 -62 -57 -68
-14 -2 16 3 25 20 31 31 13 81 13 112 1z m-2300 -32 c-6 -9 -34 -11 -34 -3 0
3 6 12 13 19 12 14 31 0 21 -16z m2633 26 c-3 -3 -12 -4 -19 -1 -8 3 -5 6 6 6
11 1 17 -2 13 -5z m-102 -24 c3 -6 -4 -10 -17 -10 -18 0 -20 2 -8 10 19 12 18
12 25 0z m105 -6 c0 -2 -7 -4 -15 -4 -8 0 -15 4 -15 10 0 5 7 7 15 4 8 -4 15
-8 15 -10z m-2030 -4 c0 -5 -4 -10 -10 -10 -5 0 -10 5 -10 10 0 6 5 10 10 10
6 0 10 -4 10 -10z m85 0 c3 -5 1 -10 -4 -10 -6 0 -11 5 -11 10 0 6 2 10 4 10
3 0 8 -4 11 -10z m1615 -11 c0 -14 -27 -10 -33 5 -4 10 0 12 14 9 10 -3 19 -9
19 -14z m204 -14 c-4 -8 -8 -15 -10 -15 -2 0 -4 7 -4 15 0 8 4 15 10 15 5 0 7
-7 4 -15z m124 -10 c-3 -3 -9 2 -12 12 -6 14 -5 15 5 6 7 -7 10 -15 7 -18z
m-1005 -2 c-7 -2 -19 -2 -25 0 -7 3 -2 5 12 5 14 0 19 -2 13 -5z m587 -3 c0
-5 -4 -10 -10 -10 -5 0 -10 5 -10 10 0 6 5 10 10 10 6 0 10 -4 10 -10z m80 0
c0 -5 -4 -10 -10 -10 -5 0 -10 5 -10 10 0 6 5 10 10 10 6 0 10 -4 10 -10z
m940 0 c0 -5 -4 -10 -10 -10 -5 0 -10 5 -10 10 0 6 5 10 10 10 6 0 10 -4 10
-10z m680 -170 l0 -180 -175 0 -175 0 0 180 0 180 175 0 175 0 0 -180z m-3630
160 c12 -8 11 -10 -7 -10 -12 0 -25 5 -28 10 -8 13 15 13 35 0z m2300 3 c-14
-3 -28 -10 -32 -16 -4 -6 -10 -8 -13 -5 -14 13 7 28 38 27 28 -2 29 -2 7 -6z
m-4778 -30 c14 -13 18 -31 18 -91 0 -106 -7 -112 -127 -112 l-93 0 0 110 0
110 92 0 c71 0 95 -4 110 -17z m216 -5 c-12 -18 -26 -24 -67 -26 -43 -3 -51
-6 -51 -23 0 -16 7 -19 40 -19 33 0 40 -3 40 -20 0 -17 -7 -20 -40 -20 -33 0
-40 -3 -40 -19 0 -17 8 -20 51 -23 41 -2 55 -8 67 -25 l14 -23 -82 0 c-111 0
-120 8 -120 108 0 104 8 112 118 112 l84 0 -14 -22z m4202 12 c12 -7 27 -7 45
0 22 9 26 7 23 -7 -5 -27 -108 -21 -108 8 0 12 17 12 40 -1z m-3996 -15 c-5
-11 -22 -15 -70 -15 -62 0 -64 -1 -64 -25 0 -24 3 -25 53 -25 68 0 97 -19 97
-65 0 -47 -29 -65 -106 -65 -48 0 -65 4 -79 20 -17 19 -16 19 56 22 68 3 74 5
77 25 4 25 -12 31 -93 35 l-50 3 -3 44 c-2 28 1 47 10 52 7 5 50 9 95 9 69 0
81 -2 77 -15z m210 0 c-5 -11 -21 -15 -60 -15 -51 0 -54 -1 -54 -25 0 -22 4
-25 40 -25 29 0 40 -4 40 -15 0 -11 -11 -15 -40 -15 -38 0 -40 -2 -40 -30 0
-30 1 -30 55 -30 30 0 55 -2 55 -4 0 -2 3 -11 6 -20 5 -12 -6 -15 -63 -15 -95
0 -103 10 -103 115 0 56 4 84 13 87 6 3 44 6 84 6 60 1 71 -1 67 -14z m180 0
c-4 -9 -24 -15 -57 -17 l-52 -3 0 -65 0 -65 52 -3 c40 -2 55 -8 63 -23 10 -18
7 -19 -57 -18 -96 2 -113 19 -113 110 0 89 10 99 100 99 57 0 68 -3 64 -15z
m3266 -5 c0 -5 12 -10 26 -10 17 0 23 4 18 13 -5 8 -2 8 9 -2 12 -9 17 -10 17
-2 0 7 5 9 11 5 27 -16 -48 -32 -85 -18 -18 7 -22 24 -6 24 6 0 10 -4 10 -10z
m1040 0 c0 -5 -20 -10 -45 -10 -25 0 -45 5 -45 10 0 6 20 10 45 10 25 0 45 -4
45 -10z m30 0 c0 -5 -4 -10 -10 -10 -5 0 -10 5 -10 10 0 6 5 10 10 10 6 0 10
-4 10 -10z m-697 -17 c-7 -2 -19 -2 -25 0 -7 3 -2 5 12 5 14 0 19 -2 13 -5z
m-2383 -228 c0 -8 -2 -15 -4 -15 -2 0 -6 7 -10 15 -3 8 -1 15 4 15 6 0 10 -7
10 -15z m237 -32 c-3 -10 -5 -2 -5 17 0 19 2 27 5 18 2 -10 2 -26 0 -35z m77
5 c18 -12 26 -9 20 7 -4 8 -11 12 -18 8 -6 -3 -7 -2 -3 3 5 5 21 9 36 9 24 0
26 -2 16 -22 -8 -18 -18 -22 -52 -21 -43 1 -74 20 -53 33 5 3 10 -1 10 -9 0
-9 5 -16 11 -16 5 0 9 8 8 18 -2 27 3 39 8 17 3 -11 10 -23 17 -27z m398 17
l5 30 2 -32 c1 -22 -4 -33 -13 -33 -14 0 -28 45 -17 56 3 3 9 -7 12 -23 l6
-28 5 30z m25 -22 c-3 -10 -5 -2 -5 17 0 19 2 27 5 18 2 -10 2 -26 0 -35z
m171 31 c12 7 36 -20 28 -33 -8 -13 -80 -11 -88 2 -6 9 -8 8 -8 -1 0 -9 -14
-12 -45 -11 -37 2 -45 6 -45 23 0 10 3 16 7 13 3 -4 12 -2 19 4 8 7 14 7 19
-1 4 -6 1 -9 -6 -8 -6 2 -14 -3 -16 -9 -8 -22 26 -14 37 8 8 14 15 17 23 10 8
-6 18 -5 31 5 14 10 22 11 27 3 4 -6 11 -9 17 -5z m385 -7 c9 14 70 9 75 -6 3
-8 8 -6 17 6 10 14 16 15 27 5 8 -6 18 -9 22 -5 11 11 65 12 72 2 3 -5 10 -6
16 -3 18 11 68 13 74 3 3 -5 0 -8 -7 -7 -6 2 -14 -3 -16 -9 -7 -18 12 -16 31
3 15 14 16 14 17 -3 1 -14 2 -14 5 -3 3 9 18 21 34 27 29 11 30 11 29 -20 0
-27 -2 -29 -9 -12 -7 15 -9 16 -9 4 -1 -15 -21 -17 -166 -17 -145 1 -165 3
-166 17 -1 14 -2 14 -6 -1 -3 -12 -15 -17 -44 -16 -47 0 -63 23 -33 45 16 12
19 11 25 -4 3 -10 8 -13 12 -6z m447 -10 c0 -8 3 -8 9 1 6 10 10 8 14 -8 3
-12 3 -19 0 -16 -3 3 -12 -2 -19 -12 -12 -15 -13 -14 -14 11 0 15 -5 27 -11
27 -6 0 -9 -7 -5 -15 3 -8 1 -15 -4 -15 -6 0 -10 14 -10 30 0 28 2 30 20 20
11 -6 20 -16 20 -23z m388 15 c12 9 11 5 -3 -12 -11 -14 -21 -27 -22 -29 -2
-2 -2 11 -2 30 1 19 3 26 6 16 4 -15 7 -16 21 -5z m-3611 -24 c-3 -7 -5 -2 -5
12 0 14 2 19 5 13 2 -7 2 -19 0 -25z m1536 19 c4 3 7 -3 7 -15 0 -17 -6 -22
-27 -22 -20 0 -24 3 -14 9 8 5 11 16 7 26 -5 14 -4 16 7 7 8 -7 17 -9 20 -5z
m60 -17 c4 -15 0 -20 -14 -20 -12 0 -19 7 -19 18 0 37 23 38 33 2z m107 -1 c0
-11 -7 -19 -17 -19 -15 0 -15 2 -4 9 8 5 11 16 8 26 -4 9 -3 14 3 10 6 -3 10
-15 10 -26z m260 11 c6 -10 9 -8 13 6 4 15 5 13 6 -6 1 -21 -4 -26 -26 -28
-22 -1 -24 0 -13 8 13 9 13 10 0 11 -8 1 -18 1 -22 1 -3 -1 -8 4 -11 11 -6 17
42 14 53 -3z m66 2 c1 -7 0 -8 -3 -2 -7 15 -23 12 -23 -4 0 -8 8 -17 18 -19
13 -4 11 -5 -5 -6 -16 -1 -23 5 -23 17 0 32 30 43 36 14z m79 8 c8 12 25 4 25
-13 0 -7 -4 -6 -10 3 -8 13 -10 13 -10 -2 0 -9 6 -18 13 -21 6 -2 -5 -5 -25
-5 -30 0 -38 4 -38 17 0 24 11 33 26 20 8 -7 14 -7 19 1z m48 -20 c-7 -28 -13
-25 -13 6 0 14 4 23 9 20 5 -3 7 -15 4 -26z m325 2 c3 -17 -2 -22 -17 -22 -25
0 -28 18 -5 27 13 5 13 8 2 15 -10 8 -10 9 2 5 8 -2 16 -13 18 -25z m38 16 c4
-7 3 -8 -4 -4 -7 4 -12 1 -12 -8 0 -21 17 -20 28 0 5 9 23 18 41 19 18 2 28
-1 25 -7 -4 -6 4 -5 16 2 17 9 25 9 34 -1 8 -9 8 -10 -4 -4 -8 5 -12 5 -8 0 9
-10 -21 -34 -42 -35 -12 0 -12 2 -2 9 11 7 11 9 -2 14 -10 4 -16 1 -16 -8 0
-10 -12 -14 -40 -13 -31 0 -40 4 -40 18 0 27 14 37 26 18z m175 -5 c13 -16 12
-17 -3 -4 -16 12 -18 11 -18 -2 0 -8 6 -17 13 -20 6 -2 -5 -5 -25 -5 l-37 0
27 24 c15 13 28 24 28 24 1 0 8 -8 15 -17z m623 5 c3 5 27 9 53 8 44 -1 48 -3
50 -26 1 -14 0 -18 -3 -7 -3 9 -10 17 -15 17 -5 0 -9 -8 -10 -17 -1 -12 -4
-10 -9 7 -8 24 -8 24 -9 3 -1 -20 -6 -23 -51 -22 -55 2 -69 11 -50 35 9 10 16
11 25 4 8 -7 16 -7 19 -2z m149 -4 c-3 -9 0 -20 8 -25 11 -7 11 -9 -3 -9 -18
0 -25 30 -11 43 11 11 13 8 6 -9z m106 -17 c-1 -21 -2 -20 -9 3 l-8 25 -7 -22
c-9 -28 -25 -30 -25 -4 0 11 8 21 18 24 24 5 32 -1 31 -26z m110 0 c-1 -21 -2
-20 -9 3 -8 24 -9 24 -15 5 -6 -21 -55 -34 -55 -14 0 5 4 8 10 4 5 -3 19 4 30
15 24 24 40 18 39 -13z m73 11 c-2 -10 3 -18 15 -21 15 -4 15 -5 -3 -6 -12 0
-29 9 -37 22 l-16 22 -1 -25 c-1 -23 -2 -23 -10 -5 -13 30 -13 31 23 30 27 0
33 -4 29 -17z m88 -9 c0 -10 -7 -19 -15 -19 -15 0 -21 31 -9 43 11 10 24 -3
24 -24z m107 0 c1 -22 1 -23 -4 -1 -2 12 -9 20 -14 17 -5 -4 -9 -1 -9 5 0 23
25 3 27 -21z m61 15 c12 -8 22 -21 22 -27 0 -7 -7 -3 -15 7 -13 17 -15 18 -15
3 0 -10 -8 -17 -20 -17 -11 0 -20 4 -20 10 0 5 7 7 15 4 11 -5 13 -2 9 10 -3
9 -11 13 -17 9 -6 -3 -7 -1 -3 5 9 16 17 15 44 -4z m72 -7 c0 -8 -3 -8 -9 1
-7 11 -9 11 -14 -2 -4 -9 1 -16 11 -19 16 -4 16 -5 0 -6 -10 0 -22 8 -28 18
-8 16 -6 20 8 24 21 4 32 -1 32 -16z m190 -4 c0 -23 -2 -25 -11 -13 -8 11 -12
12 -16 3 -2 -7 -21 -13 -40 -13 -35 0 -36 1 -19 19 17 18 17 19 -1 24 -10 3 6
5 35 6 50 1 52 0 52 -26z m50 12 c0 -8 -6 -15 -14 -15 -8 0 -17 -6 -19 -12 -3
-7 -6 -1 -6 15 -1 21 4 27 19 27 11 0 20 -7 20 -15z m60 5 c0 -5 8 -11 18 -11
16 -1 16 -2 0 -6 -10 -2 -18 -10 -18 -16 0 -7 -5 -6 -11 3 -8 11 -12 12 -16 3
-8 -22 -23 -14 -23 12 0 20 5 25 25 25 14 0 25 -4 25 -10z m75 -15 c0 -16 -3
-20 -12 -14 -7 7 -13 5 -16 -3 -3 -7 -6 -2 -6 12 -1 18 5 26 17 27 12 1 17 -6
17 -22z m46 10 c5 13 8 15 8 5 1 -17 -16 -47 -22 -40 -3 3 -8 16 -11 30 -6 23
-6 23 5 5 12 -19 12 -19 20 0z m55 -1 c-2 -6 0 -16 6 -22 6 -6 2 -9 -14 -9
-17 0 -23 5 -23 22 0 16 6 23 18 22 10 -1 15 -7 13 -13z m64 6 c0 -5 -7 -7
-15 -4 -10 4 -15 0 -15 -11 0 -11 5 -15 15 -11 8 3 15 1 15 -4 0 -15 -38 -12
-43 3 -2 6 -2 18 1 25 5 14 42 17 42 2z m35 0 c-17 -7 -14 -9 15 -11 34 -2 34
-2 5 -6 -16 -3 -33 -10 -37 -16 -5 -7 -8 0 -8 16 0 22 4 27 23 26 21 0 21 -1
2 -9z m95 -15 c0 -18 -5 -25 -20 -25 -15 0 -20 7 -20 25 0 18 5 25 20 25 15 0
20 -7 20 -25z m50 0 c0 -18 -5 -25 -19 -25 -13 0 -18 7 -18 25 0 18 5 25 18
25 14 0 19 -7 19 -25z m42 14 c-22 -8 -22 -29 -1 -29 6 0 7 5 4 10 -3 6 -1 10
4 10 6 0 11 -7 11 -15 0 -17 -35 -21 -45 -5 -12 19 4 40 27 39 l23 0 -23 -10z
m72 3 c5 -8 -28 -42 -39 -42 -3 0 -5 11 -5 25 0 18 5 25 19 25 11 0 22 -4 25
-8z m-3464 -11 c0 -6 -4 -13 -10 -16 -5 -3 -10 1 -10 9 0 9 5 16 10 16 6 0 10
-4 10 -9z m458 -25 c12 -3 12 -4 -3 -3 -11 1 -20 9 -21 17 0 8 1 10 3 3 2 -6
12 -14 21 -17z m1988 8 c8 3 14 1 14 -5 0 -16 -35 -6 -36 11 -1 10 0 11 3 2 3
-8 11 -11 19 -8z m-2246 -4 c0 -5 -4 -10 -10 -10 -5 0 -10 5 -10 10 0 6 5 10
10 10 6 0 10 -4 10 -10z"/>
<path d="M6111 4484 c-58 -48 -60 -143 -5 -195 37 -34 121 -35 158 0 56 52 58
138 5 191 -41 41 -112 43 -158 4z"/>
<path d="M1942 4463 l3 -48 61 -3 c50 -2 63 0 79 18 15 16 17 26 9 48 -9 26
-13 27 -82 30 l-73 3 3 -48z"/>
<path d="M4901 4404 c-11 -31 -21 -58 -21 -60 0 -2 23 -4 51 -4 28 0 49 4 47
8 -1 4 -12 31 -22 60 -11 29 -23 52 -27 52 -3 0 -16 -25 -28 -56z"/>
<path d="M5462 4389 l3 -124 40 -3 c98 -8 155 38 155 127 0 42 -5 56 -29 83
-26 30 -35 33 -100 36 l-72 4 3 -123z"/>
<path d="M4370 3005 c0 -8 5 -15 10 -15 6 0 10 7 10 15 0 8 -4 15 -10 15 -5 0
-10 -7 -10 -15z"/>
<path d="M5050 2995 c0 -8 9 -15 20 -15 11 0 20 7 20 15 0 8 -9 15 -20 15 -11
0 -20 -7 -20 -15z"/>
<path d="M5410 3005 c0 -8 5 -15 10 -15 6 0 10 7 10 15 0 8 -4 15 -10 15 -5 0
-10 -7 -10 -15z"/>
<path d="M6157 3015 c-4 -8 -2 -17 3 -20 6 -4 10 3 10 14 0 25 -6 27 -13 6z"/>
<path d="M4830 2995 c0 -10 7 -15 18 -13 21 4 19 22 -2 26 -10 2 -16 -3 -16
-13z"/>
<path d="M5240 2996 c0 -8 4 -17 9 -20 11 -7 33 18 24 27 -12 12 -33 7 -33 -7z"/>
<path d="M5710 2995 c0 -8 9 -15 20 -15 11 0 20 7 20 15 0 8 -9 15 -20 15 -11
0 -20 -7 -20 -15z"/>
<path d="M5986 3001 c-7 -11 18 -33 27 -24 4 3 7 12 7 20 0 15 -26 18 -34 4z"/>
<path d="M6347 3003 c-13 -12 -7 -23 13 -23 11 0 20 7 20 15 0 15 -21 21 -33
8z"/>
<path d="M4390 1160 c0 -5 7 -10 15 -10 8 0 15 5 15 10 0 6 -7 10 -15 10 -8 0
-15 -4 -15 -10z"/>
<path d="M4720 1135 c0 -8 5 -15 10 -15 6 0 10 7 10 15 0 8 -4 15 -10 15 -5 0
-10 -7 -10 -15z"/>
<path d="M4800 1136 c0 -9 7 -16 16 -16 17 0 14 22 -4 28 -7 2 -12 -3 -12 -12z"/>
<path d="M4987 1143 c-12 -11 -8 -23 8 -23 8 0 15 7 15 15 0 16 -12 20 -23 8z"/>
<path d="M5150 1135 c0 -8 5 -15 10 -15 6 0 10 7 10 15 0 8 -4 15 -10 15 -5 0
-10 -7 -10 -15z"/>
<path d="M5230 1135 c0 -9 5 -15 11 -13 6 2 11 8 11 13 0 5 -5 11 -11 13 -6 2
-11 -4 -11 -13z"/>
<path d="M4586 1143 c-11 -11 -6 -23 9 -23 8 0 15 4 15 9 0 13 -16 22 -24 14z"/>
<path d="M5427 1143 c-12 -11 -8 -23 8 -23 8 0 15 7 15 15 0 16 -12 20 -23 8z"/>
<path d="M4030 690 c0 -5 5 -10 10 -10 6 0 10 5 10 10 0 6 -4 10 -10 10 -5 0
-10 -4 -10 -10z"/>
<path d="M3980 662 c0 -5 7 -9 15 -9 8 0 15 4 15 9 0 4 -7 8 -15 8 -8 0 -15
-4 -15 -8z"/>
<path d="M4040 660 c0 -5 5 -10 10 -10 6 0 10 5 10 10 0 6 -4 10 -10 10 -5 0
-10 -4 -10 -10z"/>
<path d="M3986 588 c3 -4 9 -8 15 -8 5 0 9 4 9 8 0 5 -7 9 -15 9 -8 0 -12 -4
-9 -9z"/>
<path d="M4355 666 c20 -15 20 -15 -2 -16 -12 0 -23 4 -25 10 -2 6 -8 6 -18 0
-13 -9 -13 -10 0 -10 8 0 26 -6 40 -13 25 -13 26 -12 25 12 0 18 -6 27 -20 29
l-20 4 20 -16z"/>
<path d="M4296 578 c7 -12 44 -10 44 2 0 5 -11 9 -24 8 -14 -1 -22 -6 -20 -10z"/>
<path d="M4360 579 c0 -5 5 -7 10 -4 6 3 10 8 10 11 0 2 -4 4 -10 4 -5 0 -10
-5 -10 -11z"/>
<path d="M4395 580 c-3 -5 3 -10 14 -10 12 0 21 5 21 10 0 6 -6 10 -14 10 -8
0 -18 -4 -21 -10z"/>
<path d="M5931 667 l3 -42 47 1 c61 3 69 8 69 50 l0 34 -60 0 -61 0 2 -43z
m78 -14 c0 -12 -2 -13 -6 -5 -4 10 -8 10 -19 1 -11 -9 -14 -8 -14 5 0 9 8 16
20 16 13 0 20 -6 19 -17z"/>
<path d="M5270 663 c0 -15 2 -16 10 -3 6 10 10 11 10 3 0 -7 7 -13 15 -13 8 0
15 7 15 15 0 9 -9 15 -25 15 -17 0 -25 -5 -25 -17z"/>
<path d="M6672 563 l3 -48 43 -3 42 -3 0 50 0 51 -46 0 -45 0 3 -47z m78 -3
c0 -28 -3 -30 -35 -30 -32 0 -35 2 -35 30 0 28 3 30 35 30 32 0 35 -2 35 -30z"/>
<path d="M6700 559 c0 -14 5 -19 17 -17 26 5 29 38 4 38 -15 0 -21 -6 -21 -21z"/>
<path d="M6815 599 c-4 -6 -14 -8 -22 -4 -14 5 -14 3 -2 -11 8 -10 15 -12 17
-5 2 6 13 11 25 11 17 0 19 -2 8 -9 -18 -12 -7 -41 16 -41 13 0 14 3 5 12 -17
17 -15 31 3 25 8 -4 17 -1 21 5 4 6 3 8 -4 4 -6 -3 -17 1 -25 9 -18 18 -33 19
-42 4z"/>
<path d="M6910 560 l0 -51 43 3 42 3 0 45 0 45 -42 3 -43 3 0 -51z m75 0 c0
-21 -5 -26 -32 -28 -31 -3 -33 -1 -33 28 0 29 2 31 33 28 27 -2 32 -7 32 -28z"/>
<path d="M6932 563 c5 -26 38 -29 38 -4 0 15 -6 21 -21 21 -14 0 -19 -5 -17
-17z"/>
<path d="M6797 521 c3 -23 2 -24 -7 -6 -9 18 -9 18 -7 -5 1 -17 -4 -26 -17
-28 -10 -2 -16 0 -13 5 3 5 -14 10 -39 10 -48 2 -55 -5 -25 -24 16 -10 20 -9
25 3 7 19 31 13 31 -7 0 -8 4 -20 9 -27 11 -18 -1 -29 -16 -14 -15 15 -28 16
-28 2 0 -5 8 -10 18 -11 12 0 13 -2 3 -6 -7 -3 -23 7 -35 22 l-22 27 -1 -38
c-1 -22 0 -33 3 -27 6 15 55 6 66 -11 4 -6 10 -7 15 -3 4 5 1 13 -7 18 -12 8
-9 10 11 6 22 -3 25 0 21 15 -4 18 5 22 39 19 12 -1 17 5 15 22 -1 26 -22 26
-42 -1 -6 -8 -19 -13 -29 -11 -14 3 -9 9 21 24 21 11 41 22 44 25 3 3 14 6 25
8 16 2 17 1 5 -7 -10 -7 -11 -11 -2 -11 6 0 12 -7 12 -15 0 -8 4 -15 8 -15 5
0 9 15 9 34 0 29 -3 34 -23 31 -13 -1 -25 4 -28 11 -3 7 -13 12 -24 11 -14 -1
-18 -7 -15 -26z"/>
<path d="M6912 490 c3 -38 -3 -51 -22 -45 -16 5 -20 2 -20 -18 0 -19 -6 -26
-27 -30 -26 -5 -26 -4 -8 9 18 13 17 14 -8 14 -15 0 -26 -3 -26 -7 3 -20 -2
-44 -8 -40 -5 3 -9 -8 -10 -24 -1 -17 2 -27 7 -24 6 4 10 -6 10 -22 l0 -28 20
30 20 30 -23 8 c-21 8 -20 9 12 23 24 10 38 11 45 4 7 -7 3 -10 -11 -10 -17 0
-21 -5 -19 -25 4 -38 22 -52 31 -25 l7 22 17 -23 c15 -22 67 -37 54 -16 -3 5
4 4 15 -2 29 -16 32 -14 32 15 0 24 -2 25 -32 19 -18 -4 -36 -12 -40 -18 -4
-6 -11 -8 -15 -3 -4 4 2 15 15 23 14 10 22 26 23 47 1 17 3 23 6 14 2 -10 9
-18 14 -18 5 0 9 -7 9 -17 0 -9 3 -13 7 -9 4 3 8 34 9 67 1 54 0 59 -17 54
-11 -4 -19 -2 -19 4 0 6 6 11 14 11 8 0 17 3 19 8 3 4 -14 7 -38 7 -24 0 -43
-2 -43 -5z m54 -40 c17 0 19 -16 2 -26 -6 -4 -19 3 -30 16 -22 27 -24 48 -2
26 8 -9 22 -16 30 -16z m-33 -29 c4 -16 0 -18 -21 -15 -32 6 -42 14 -19 14 10
0 17 5 17 10 0 18 17 11 23 -9z m-5 -58 c-2 -10 -10 -18 -18 -18 -8 0 -16 8
-18 18 -2 12 3 17 18 17 15 0 20 -5 18 -17z"/>
<path d="M6670 325 l0 -45 45 0 45 0 0 45 0 45 -45 0 -45 0 0 -45z m80 -1 c0
-34 -1 -35 -32 -32 -54 5 -53 68 2 68 28 0 30 -3 30 -36z"/>
<path d="M6700 319 c0 -14 5 -19 17 -17 26 5 29 38 4 38 -15 0 -21 -6 -21 -21z"/>
<path d="M770 480 l0 -60 40 0 40 0 0 60 0 60 -40 0 -40 0 0 -60z"/>
<path d="M3786 295 c-3 -8 -1 -15 4 -15 6 0 10 7 10 15 0 8 -2 15 -4 15 -2 0
-6 -7 -10 -15z"/>
<path d="M3830 295 c0 -8 5 -15 10 -15 6 0 10 7 10 15 0 8 -4 15 -10 15 -5 0
-10 -7 -10 -15z"/>
<path d="M3876 303 c-11 -11 -6 -23 9 -23 8 0 15 4 15 9 0 13 -16 22 -24 14z"/>
<path d="M4226 301 c-4 -7 -5 -15 -2 -18 9 -9 19 4 14 18 -4 11 -6 11 -12 0z"/>
<path d="M4410 295 c0 -16 16 -20 24 -6 3 5 -1 11 -9 15 -9 3 -15 0 -15 -9z"/>
<path d="M3061 294 c0 -11 3 -14 6 -6 3 7 2 16 -1 19 -3 4 -6 -2 -5 -13z"/>
<path d="M3560 296 c0 -9 5 -16 10 -16 6 0 10 4 10 9 0 6 -4 13 -10 16 -5 3
-10 -1 -10 -9z"/>
<path d="M4766 302 c-3 -6 -1 -14 5 -17 15 -10 25 3 12 16 -7 7 -13 7 -17 1z"/>
<path d="M4810 296 c0 -9 5 -16 10 -16 6 0 10 4 10 9 0 6 -4 13 -10 16 -5 3
-10 -1 -10 -9z"/>
<path d="M5311 294 c0 -11 3 -14 6 -6 3 7 2 16 -1 19 -3 4 -6 -2 -5 -13z"/>
<path d="M5690 295 c-10 -12 -10 -15 4 -15 9 0 16 7 16 15 0 8 -2 15 -4 15 -2
0 -9 -7 -16 -15z"/>
<path d="M6210 295 c0 -8 5 -15 10 -15 6 0 10 7 10 15 0 8 -4 15 -10 15 -5 0
-10 -7 -10 -15z"/>
</g>
</svg>
