<?xml version="1.0" standalone="no"?>
<!DOCTYPE svg PUBLIC "-//W3C//DTD SVG 20010904//EN"
 "http://www.w3.org/TR/2001/REC-SVG-20010904/DTD/svg10.dtd">
<svg version="1.0" xmlns="http://www.w3.org/2000/svg"
 width="785.000000pt" height="546.000000pt" viewBox="0 0 785.000000 546.000000"
 preserveAspectRatio="xMidYMid meet">

<g transform="translate(0.000000,546.000000) scale(0.100000,-0.100000)"
fill="#000000" stroke="none">
<path d="M6012 5438 c-1 -13 -3 -32 -5 -43 -1 -14 4 -20 16 -19 26 3 20 -21
-10 -35 -19 -9 -28 -9 -33 -1 -5 7 -10 3 -13 -11 -4 -16 -1 -26 9 -32 8 -4 12
-12 9 -18 -4 -5 1 -9 9 -9 9 0 16 -7 16 -15 0 -8 4 -15 10 -15 9 0 18 27 39
115 l9 40 1 -44 1 -44 18 24 c30 39 33 56 11 62 -22 6 -27 52 -6 60 6 3 -8 6
-33 6 -40 1 -46 -2 -48 -21z"/>
<path d="M6998 5453 c7 -3 16 -2 19 1 4 3 -2 6 -13 5 -11 0 -14 -3 -6 -6z"/>
<path d="M7840 4385 c0 -788 -3 -1075 -11 -1075 -8 0 -8 -4 -1 -13 8 -9 11
-87 9 -233 l-2 -219 -27 0 c-16 1 -28 -5 -28 -11 0 -7 12 -14 28 -16 23 -3 28
-8 30 -37 3 -29 1 -33 -15 -26 -10 4 -29 10 -43 13 -22 5 -24 3 -11 -11 7 -10
27 -17 43 -17 l29 0 -2 -95 c-1 -91 -2 -95 -23 -95 -12 0 -31 7 -42 16 -10 8
-14 13 -9 10 6 -2 17 -1 25 5 11 6 7 9 -15 9 -35 0 -60 14 -52 27 4 6 -15 22
-41 37 -26 15 -36 24 -22 21 22 -6 21 -4 -9 19 -20 15 -48 26 -65 26 l-31 -1
33 -30 c18 -16 30 -33 28 -38 -3 -5 4 -11 15 -14 12 -3 18 -10 15 -15 -3 -6
18 -27 46 -48 54 -39 68 -53 68 -67 0 -5 -13 4 -28 20 -16 15 -45 39 -65 53
-21 14 -35 31 -32 38 2 7 -4 12 -15 12 -11 0 -20 6 -20 14 0 14 -76 62 -114
72 -12 3 -30 -2 -41 -10 -19 -14 -19 -15 -1 -34 10 -12 15 -25 12 -30 -7 -12
18 -34 68 -61 22 -11 70 -44 108 -73 59 -47 65 -54 51 -65 -27 -20 -81 -16
-93 7 -11 21 -40 17 -40 -5 0 -13 -12 -17 -92 -31 -36 -6 -52 6 -28 21 14 9
12 26 -3 23 -16 -4 -77 58 -77 77 0 8 4 14 9 13 5 -2 9 1 9 6 0 5 6 12 12 16
18 11 -26 33 -52 27 -15 -4 -18 -2 -14 11 5 14 3 13 -9 -2 -10 -13 -11 -24 -4
-37 7 -15 6 -17 -6 -13 -10 4 -18 -3 -25 -20 -5 -14 -15 -26 -22 -26 -9 0 -8
-3 2 -10 13 -9 13 -11 0 -20 -10 -6 -11 -10 -2 -10 6 0 12 -7 12 -16 0 -8 -4
-12 -10 -9 -5 3 -10 1 -10 -4 0 -6 9 -11 19 -11 10 0 36 -16 57 -36 22 -19 53
-42 69 -49 27 -13 27 -14 8 -15 -13 0 -23 -4 -23 -9 0 -18 51 3 86 36 53 50
75 55 163 42 122 -18 171 -21 171 -11 0 5 8 9 17 8 24 -2 28 28 7 49 -16 16
-17 18 -2 29 15 11 15 13 0 23 -15 10 -14 11 6 6 20 -5 22 -11 22 -74 0 -61
-2 -68 -17 -63 -17 5 -17 5 -1 -6 17 -10 18 -79 18 -1182 0 -644 2 -1174 5
-1176 3 -3 5 1224 5 2726 0 1503 -2 2732 -5 2732 -3 0 -5 -484 -5 -1075z
m-364 -1703 c-22 -5 -30 3 -21 18 5 8 11 7 22 -2 15 -12 14 -13 -1 -16z m34
-46 c12 -14 36 -28 52 -31 21 -5 27 -10 19 -18 -11 -11 -101 38 -109 61 -6 20
13 14 38 -12z m176 -118 l19 -23 -25 20 c-14 11 -27 21 -29 22 -2 2 0 3 6 3 5
0 18 -10 29 -22z m-346 -28 c-6 -11 -13 -20 -16 -20 -3 0 -2 5 2 11 3 6 0 15
-7 20 -10 6 -8 9 9 9 20 0 21 -3 12 -20z m450 -41 c0 -10 -12 -11 -34 -3 -25
10 -19 22 9 16 14 -2 25 -8 25 -13z"/>
<path d="M6995 5429 c-4 -6 -5 -12 -2 -15 2 -3 7 2 10 11 7 17 1 20 -8 4z"/>
<path d="M6793 5242 c-8 -5 -9 -13 -3 -22 6 -10 13 -11 19 -5 13 13 -1 36 -16
27z"/>
<path d="M6665 5099 c-9 -14 13 -36 40 -41 14 -2 20 3 20 17 0 11 -7 20 -15
20 -8 0 -20 4 -27 8 -6 4 -15 2 -18 -4z"/>
<path d="M6750 5100 c0 -5 5 -10 10 -10 6 0 10 5 10 10 0 6 -4 10 -10 10 -5 0
-10 -4 -10 -10z"/>
<path d="M6570 5063 c0 -13 5 -23 10 -23 6 0 10 -7 10 -15 0 -19 14 -19 30 -1
6 8 19 12 28 9 13 -5 12 -2 -4 19 -10 15 -31 28 -46 30 -24 4 -28 1 -28 -19z"/>
<path d="M274 5041 c-68 -31 -104 -100 -104 -201 0 -120 53 -197 151 -220 111
-27 222 29 245 123 6 26 5 27 -40 27 -32 0 -46 -4 -46 -13 0 -24 -47 -59 -87
-63 -77 -9 -133 51 -133 143 0 112 71 174 165 143 21 -7 41 -22 47 -36 9 -20
18 -24 56 -24 43 0 44 1 38 26 -19 76 -81 114 -183 114 -45 0 -82 -7 -109 -19z"/>
<path d="M2705 5046 c-104 -45 -145 -207 -84 -332 59 -123 268 -135 347 -20
12 18 22 42 22 54 0 19 -6 22 -40 22 -33 0 -42 -4 -54 -29 -31 -60 -128 -67
-177 -12 -48 53 -50 165 -3 221 45 53 151 50 176 -5 9 -21 18 -25 55 -25 35 0
43 3 43 19 0 29 -43 85 -80 103 -42 22 -160 24 -205 4z"/>
<path d="M4051 5050 c-83 -35 -121 -102 -121 -213 0 -120 49 -190 153 -218 70
-19 175 9 219 58 52 57 66 201 27 281 -33 67 -85 96 -178 99 -42 2 -87 -2
-100 -7z m176 -94 c80 -94 40 -251 -67 -263 -94 -10 -140 38 -140 145 0 109
42 156 134 148 39 -3 55 -9 73 -30z"/>
<path d="M5760 5045 c-19 -7 -28 -14 -20 -15 12 0 11 -4 -4 -15 -27 -21 -17
-26 29 -14 22 6 53 13 69 17 28 7 28 8 12 25 -20 20 -38 20 -86 2z"/>
<path d="M650 4840 l0 -210 165 0 165 0 0 35 0 34 -122 3 -123 3 0 55 0 55
108 3 108 3 -3 32 -3 32 -105 5 -105 5 0 40 0 40 118 3 117 3 0 34 0 35 -160
0 -160 0 0 -210z"/>
<path d="M1050 4841 l0 -211 45 0 45 0 0 80 0 80 69 0 c84 0 94 -9 99 -96 l4
-64 49 0 48 0 -4 33 c-2 17 -7 54 -10 81 -3 30 -13 58 -26 72 -17 18 -18 22
-5 27 8 3 22 20 31 38 23 43 13 108 -21 140 -24 23 -33 24 -175 27 l-149 3 0
-210z m254 123 c17 -17 21 -51 8 -72 -16 -24 -116 -41 -156 -26 -12 5 -16 20
-16 60 l0 54 74 0 c54 0 79 -4 90 -16z"/>
<path d="M1452 5018 c3 -33 3 -33 68 -38 l65 -5 3 -172 2 -173 40 0 40 0 2
173 3 172 63 3 62 3 0 34 0 35 -176 0 -175 0 3 -32z"/>
<path d="M1860 4840 l0 -210 45 0 45 0 0 210 0 210 -45 0 -45 0 0 -210z"/>
<path d="M2050 4840 l0 -210 45 0 45 0 0 90 0 90 95 0 95 0 0 35 0 35 -95 0
-95 0 0 50 0 49 108 3 107 3 3 33 3 32 -155 0 -156 0 0 -210z"/>
<path d="M2420 4840 l0 -210 45 0 45 0 0 210 0 210 -45 0 -45 0 0 -210z"/>
<path d="M3175 5033 c-19 -48 -145 -395 -145 -399 0 -2 20 -4 45 -4 43 0 45 1
56 40 l12 40 92 0 91 0 10 -37 c9 -37 11 -38 57 -41 26 -2 47 -2 47 0 0 2 -27
78 -61 168 -33 91 -68 184 -76 208 l-15 42 -53 0 c-41 0 -54 -4 -60 -17z m90
-153 c14 -40 25 -79 25 -87 0 -9 -16 -13 -55 -13 -65 0 -66 4 -35 96 29 86 30
87 35 82 3 -3 16 -38 30 -78z"/>
<path d="M3490 4840 l0 -210 123 0 c108 0 127 3 161 23 129 73 122 328 -11
383 -21 9 -74 14 -153 14 l-120 0 0 -210z m243 119 c46 -35 60 -148 26 -210
-15 -29 -69 -49 -129 -49 l-50 0 0 140 0 140 64 0 c49 0 69 -5 89 -21z"/>
<path d="M6084 4976 c-22 -17 -11 -35 13 -20 19 12 29 34 16 34 -5 0 -18 -6
-29 -14z"/>
<path d="M5975 4940 c-3 -6 1 -13 10 -16 19 -8 30 0 20 15 -8 14 -22 14 -30 1z"/>
<path d="M5770 4930 c-8 -5 -25 -10 -38 -10 -13 0 -21 -4 -18 -9 3 -5 -13 -12
-37 -16 l-42 -8 43 -10 c34 -8 43 -14 39 -28 -4 -14 -1 -16 17 -10 11 5 21 14
21 22 0 8 8 29 18 47 19 35 19 36 -3 22z"/>
<path d="M5888 4933 c12 -2 32 -2 45 0 12 2 2 4 -23 4 -25 0 -35 -2 -22 -4z"/>
<path d="M6046 4810 c-76 -27 -141 -52 -144 -55 -17 -16 15 -14 74 5 55 19 68
20 75 9 7 -11 9 -11 9 2 0 9 7 20 16 23 23 9 36 7 29 -4 -9 -15 4 -30 20 -23
18 6 20 33 3 33 -7 0 11 11 40 25 28 13 52 27 52 30 0 12 -43 1 -174 -45z"/>
<path d="M5791 4696 c-20 -7 -30 -15 -24 -19 14 -9 63 9 63 23 0 5 -1 10 -2 9
-2 0 -19 -6 -37 -13z"/>
<path d="M5070 4570 c-23 -7 -23 -8 -3 -9 12 -1 25 4 28 9 3 6 5 10 3 9 -2 -1
-14 -5 -28 -9z"/>
<path d="M5228 4563 c7 -3 16 -2 19 1 4 3 -2 6 -13 5 -11 0 -14 -3 -6 -6z"/>
<path d="M4948 4533 c7 -3 16 -2 19 1 4 3 -2 6 -13 5 -11 0 -14 -3 -6 -6z"/>
<path d="M227 4513 c-11 -10 -8 -131 3 -138 6 -4 10 6 10 23 0 27 4 30 40 36
32 5 41 11 46 33 5 19 2 30 -11 40 -20 14 -77 18 -88 6z m78 -38 c0 -15 -8
-21 -32 -23 -30 -3 -33 -1 -33 23 0 24 3 26 33 23 24 -2 32 -8 32 -23z"/>
<path d="M354 4506 c-3 -7 -4 -40 -2 -72 l3 -59 53 -3 c31 -2 52 1 52 7 0 6
-20 11 -45 11 -41 0 -45 2 -45 25 0 23 4 25 43 26 l42 2 -40 6 c-32 5 -41 11
-43 29 -3 20 1 22 37 22 23 0 41 5 41 10 0 16 -90 12 -96 -4z"/>
<path d="M488 4514 c-11 -11 -10 -132 1 -139 6 -3 11 17 13 47 l3 53 38 -52
c22 -29 43 -53 48 -53 5 0 9 34 9 75 0 43 -4 75 -10 75 -5 0 -10 -24 -10 -52
-1 -59 2 -60 -60 21 -14 18 -28 29 -32 25z"/>
<path d="M625 4510 c3 -5 13 -10 21 -10 11 0 14 -14 14 -59 0 -33 5 -63 10
-66 6 -4 10 18 10 59 0 59 2 66 20 66 11 0 20 5 20 10 0 6 -23 10 -51 10 -31
0 -48 -4 -44 -10z"/>
<path d="M750 4445 l0 -75 50 0 c28 0 50 5 50 10 0 6 -18 10 -40 10 -36 0 -40
3 -40 24 0 21 5 25 38 29 l37 4 -37 1 c-33 2 -38 5 -38 27 0 22 4 25 34 25 19
0 38 5 41 10 4 6 -13 10 -44 10 l-51 0 0 -75z"/>
<path d="M880 4499 c-15 -26 8 -54 51 -63 20 -4 29 -11 29 -25 0 -27 -28 -34
-57 -15 -29 18 -42 12 -23 -11 9 -10 26 -15 48 -13 65 6 69 61 6 83 -36 12
-46 25 -32 42 14 17 33 16 48 -2 18 -22 32 -18 20 5 -15 28 -75 28 -90 -1z"/>
<path d="M995 4510 c3 -5 15 -10 26 -10 17 0 19 -7 19 -66 0 -41 4 -63 10 -59
6 3 10 33 10 66 0 45 3 59 14 59 8 0 18 5 21 10 4 6 -15 10 -50 10 -35 0 -54
-4 -50 -10z"/>
<path d="M1187 4513 c-11 -10 -8 -143 2 -143 6 0 11 19 13 43 l4 42 19 -42
c11 -24 24 -41 29 -40 6 2 17 23 25 48 l16 44 3 -47 c5 -77 22 -55 22 28 0 90
-14 94 -46 14 l-21 -53 -26 57 c-27 58 -29 61 -40 49z"/>
<path d="M1367 4502 c-23 -26 -22 -94 1 -115 39 -36 100 -15 116 39 7 24 -9
74 -27 86 -22 14 -74 8 -90 -10z m83 -12 c22 -22 24 -37 11 -73 -13 -32 -39
-41 -67 -22 -32 21 -33 77 -2 99 29 20 34 20 58 -4z"/>
<path d="M1520 4445 l0 -75 39 0 c40 0 71 20 71 45 0 8 -5 17 -10 20 -6 3 -7
17 -4 31 9 35 -12 54 -57 54 l-39 0 0 -75z m78 32 c3 -15 -2 -18 -30 -15 -22
2 -34 9 -36 21 -3 15 2 18 30 15 22 -2 34 -9 36 -21z m2 -52 c17 -20 4 -35
-30 -35 -32 0 -45 13 -36 35 7 19 50 19 66 0z"/>
<path d="M1712 4448 l-2 -78 45 0 c54 0 60 18 8 22 l-38 3 -6 65 -6 65 -1 -77z"/>
<path d="M1820 4445 l0 -75 50 0 c28 0 50 5 50 10 0 6 -18 10 -40 10 -36 0
-40 3 -40 25 0 22 5 25 38 26 l37 2 -35 6 c-26 4 -36 12 -38 29 -3 19 1 22 32
22 19 0 38 5 41 10 4 6 -13 10 -44 10 l-51 0 0 -75z"/>
<path d="M2010 4445 l0 -75 50 0 c28 0 50 5 50 10 0 6 -18 10 -40 10 -36 0
-40 3 -40 25 0 22 5 25 38 26 l37 2 -35 6 c-26 4 -36 12 -38 29 -3 19 1 22 32
22 19 0 38 5 41 10 4 6 -13 10 -44 10 l-51 0 0 -75z"/>
<path d="M2140 4445 c0 -48 4 -74 10 -70 6 3 10 23 11 43 l1 37 19 -42 c11
-24 24 -43 29 -43 4 0 17 24 27 53 l18 52 5 -55 c4 -36 9 -49 13 -39 12 24 4
132 -10 136 -6 2 -18 -18 -28 -46 -9 -28 -20 -53 -24 -56 -5 -2 -17 19 -28 47
-30 78 -43 73 -43 -17z"/>
<path d="M2384 4450 c-15 -38 -24 -73 -21 -76 3 -4 12 5 18 20 17 37 61 36 79
-1 9 -19 15 -23 17 -13 4 19 -41 133 -55 138 -5 1 -22 -29 -38 -68z m46 21 c0
-5 3 -16 6 -25 4 -12 0 -16 -16 -16 -16 0 -20 4 -16 16 3 9 6 20 6 25 0 5 5 9
10 9 6 0 10 -4 10 -9z"/>
<path d="M2507 4513 c-11 -10 -8 -143 3 -143 6 0 10 14 10 30 0 25 4 30 23 30
28 0 67 26 67 45 0 24 -30 45 -64 45 -18 0 -36 -3 -39 -7z m77 -22 c12 -19 -7
-41 -35 -41 -24 0 -29 4 -29 25 0 21 5 25 29 25 17 0 32 -4 35 -9z"/>
<path d="M2637 4509 c-5 -9 -7 -43 -5 -75 l3 -59 48 -3 c28 -2 47 1 47 7 0 6
-18 11 -40 11 l-39 0 -3 68 c-2 42 -6 61 -11 51z"/>
<path d="M2747 4513 c-11 -10 -8 -131 3 -138 6 -4 10 22 10 69 0 76 -1 82 -13
69z"/>
<path d="M2816 4504 c-24 -23 -30 -61 -16 -94 14 -33 45 -46 84 -36 24 6 42
34 30 45 -4 3 -9 0 -11 -7 -15 -42 -76 -33 -87 14 -15 58 26 98 71 69 28 -19
42 -13 23 10 -16 20 -74 19 -94 -1z"/>
<path d="M2965 4468 c-13 -29 -26 -64 -30 -78 l-6 -25 23 28 c30 34 65 35 80
2 14 -31 32 -33 22 -2 -12 40 -53 127 -59 127 -3 0 -17 -24 -30 -52z m48 -18
c4 -15 0 -20 -14 -20 -12 0 -19 7 -19 18 0 37 23 38 33 2z"/>
<path d="M3060 4510 c0 -5 9 -10 20 -10 18 0 20 -7 20 -59 0 -33 5 -63 10 -66
6 -4 10 18 10 59 0 59 2 66 19 66 11 0 23 5 26 10 4 6 -15 10 -49 10 -31 0
-56 -4 -56 -10z"/>
<path d="M3193 4445 c0 -44 2 -61 4 -37 2 23 2 59 0 80 -2 20 -4 1 -4 -43z"/>
<path d="M3231 4508 c1 -24 44 -131 54 -135 10 -3 55 108 55 135 0 27 -18 1
-30 -43 -7 -25 -16 -48 -21 -50 -4 -3 -15 17 -24 45 -16 48 -36 75 -34 48z"/>
<path d="M3377 4502 c-23 -26 -22 -94 1 -115 29 -26 77 -22 101 9 12 15 21 37
21 49 0 12 -9 34 -21 49 -25 32 -77 36 -102 8z m73 -2 c38 -20 32 -102 -9
-113 -54 -14 -86 74 -39 107 26 19 24 19 48 6z"/>
<path d="M3532 4508 c-25 -25 -13 -48 33 -68 49 -21 56 -34 26 -50 -26 -13
-27 -13 -51 12 l-20 22 0 -22 c0 -41 92 -42 105 -1 9 26 -9 46 -46 54 -34 8
-49 32 -28 46 20 12 25 11 44 -7 20 -20 33 -11 15 11 -15 18 -61 20 -78 3z"/>
<path d="M3739 4493 c-45 -115 -49 -141 -16 -99 19 24 28 28 50 22 15 -3 27
-13 27 -21 0 -14 18 -30 26 -23 7 8 -51 141 -64 146 -7 2 -17 -9 -23 -25z m41
-50 c0 -7 -9 -13 -20 -13 -23 0 -24 4 -9 32 9 17 13 18 20 7 5 -8 9 -20 9 -26z"/>
<path d="M3847 4513 c-11 -10 -8 -131 2 -138 6 -3 11 19 13 52 l3 58 38 -57
c22 -32 43 -58 48 -58 5 0 9 35 9 77 0 82 -16 93 -22 14 l-3 -44 -35 51 c-35
52 -41 57 -53 45z"/>
<path d="M3998 4465 c-1 -30 -2 -63 -2 -72 -1 -14 8 -19 36 -21 20 -2 46 2 57
8 38 20 36 106 -3 132 -6 4 -28 8 -48 8 l-38 0 -2 -55z m92 11 c5 -13 5 -37 1
-53 -6 -22 -14 -29 -39 -31 l-32 -3 0 55 c0 56 0 56 30 56 23 0 33 -6 40 -24z"/>
<path d="M4147 4513 c-11 -10 -8 -143 3 -143 6 0 10 14 10 30 0 17 6 33 14 36
24 9 56 -15 56 -41 0 -14 4 -25 9 -25 13 0 11 122 -1 138 -11 13 -80 17 -91 5z
m78 -38 c0 -15 -8 -21 -32 -23 -30 -3 -33 -1 -33 23 0 24 3 26 33 23 24 -2 32
-8 32 -23z"/>
<path d="M4297 4502 c-23 -26 -22 -94 1 -115 29 -26 77 -22 101 9 25 32 26 55
6 94 -13 25 -22 30 -54 30 -24 0 -44 -7 -54 -18z m89 -27 c33 -50 -18 -112
-65 -79 -24 17 -29 72 -9 92 20 20 56 14 74 -13z"/>
<path d="M4440 4445 c0 -43 4 -75 10 -75 6 0 10 32 10 75 0 43 -4 75 -10 75
-6 0 -10 -32 -10 -75z"/>
<path d="M4498 4508 c-2 -7 -4 -40 -4 -73 l1 -60 40 -3 c58 -4 80 15 80 73 0
35 -5 50 -19 61 -24 17 -92 19 -98 2z m94 -33 c18 -41 0 -79 -40 -83 l-32 -3
0 55 c0 56 0 56 30 56 23 0 33 -6 42 -25z"/>
<path d="M1650 4440 c0 -40 4 -70 10 -70 6 0 10 30 10 70 0 40 -4 70 -10 70
-6 0 -10 -30 -10 -70z"/>
<path d="M5252 4465 c4 -4 31 -11 60 -15 51 -7 52 -8 13 -9 -36 -2 -38 -3 -16
-12 33 -13 18 -23 -31 -20 -25 1 -47 9 -55 19 -12 16 -13 16 -7 -1 8 -21 40
-40 54 -32 5 3 18 2 27 -4 15 -8 12 -10 -15 -9 -18 1 -35 -1 -38 -5 -3 -3 42
-29 101 -57 112 -56 141 -82 102 -95 -12 -4 -109 -9 -214 -11 -106 -2 -193 -7
-193 -12 0 -4 21 -8 47 -10 46 -3 67 -16 59 -38 -2 -6 11 -11 30 -11 30 -1 32
1 24 17 -6 10 -10 21 -10 23 0 3 98 3 218 0 158 -4 224 -9 242 -19 19 -11 20
-14 6 -12 -28 4 -31 -20 -4 -25 21 -4 -6 -6 -162 -11 -30 -2 -91 -4 -135 -6
l-80 -3 55 -7 c30 -5 82 -8 116 -9 47 -1 61 -4 61 -16 0 -10 -10 -15 -29 -15
-15 0 -28 -4 -28 -9 0 -5 -10 -7 -22 -5 -16 4 -14 1 7 -9 l30 -14 -40 -11
c-22 -7 -55 -12 -72 -12 -36 0 -43 -13 -15 -29 13 -8 7 -11 -28 -11 -25 0 -63
-5 -85 -10 -31 -7 -45 -6 -63 6 -13 8 -32 12 -42 9 -23 -7 -25 -16 -8 -33 17
-17 -3 -14 -26 3 -36 27 -40 16 -8 -18 33 -33 42 -67 20 -67 -9 0 -8 -4 2 -10
12 -8 11 -10 -7 -10 -13 0 -23 3 -23 8 0 9 -147 8 -156 -1 -4 -4 -17 -7 -28
-8 -52 -2 72 -41 145 -46 l78 -6 -20 -28 c-11 -16 -27 -29 -34 -29 -31 0 -23
-20 13 -31 33 -10 43 -8 77 10 22 12 44 21 50 21 6 0 16 9 23 21 12 19 12 20
-10 14 -19 -5 -18 -3 7 14 17 12 38 21 47 21 13 0 11 -7 -12 -32 -16 -17 -27
-34 -25 -37 8 -7 95 -7 95 0 0 4 -10 10 -22 13 -22 7 -22 7 -3 16 l20 9 -20 1
c-48 4 44 21 113 22 39 0 72 2 72 5 0 2 -7 11 -15 19 -23 23 -18 34 16 34 16
0 28 4 25 9 -4 5 29 21 71 35 90 30 97 31 90 12 -7 -16 13 -26 51 -26 24 0 27
-4 29 -34 1 -22 -4 -36 -13 -40 -8 -3 -14 -12 -14 -21 0 -8 -7 -15 -15 -15 -8
0 -12 -6 -9 -14 3 -8 -3 -17 -14 -20 -26 -9 -36 -35 -19 -50 7 -6 19 -19 26
-28 12 -17 9 -18 -36 -18 -36 0 -57 6 -73 20 -13 11 -29 20 -36 20 -7 0 -11 6
-9 13 4 9 -27 12 -137 10 -182 -2 -176 -1 -160 -12 7 -4 24 -6 38 -3 17 3 25
-1 30 -14 13 -42 20 -47 79 -51 57 -4 112 -19 182 -49 17 -8 42 -14 56 -14 14
0 27 -7 31 -15 7 -18 36 -20 36 -2 0 30 80 77 131 77 41 0 42 0 24 -20 -10
-11 -24 -20 -31 -20 -15 0 -64 -46 -64 -60 0 -13 17 -13 41 0 11 6 25 8 31 4
8 -5 5 -10 -8 -15 -15 -6 -12 -8 14 -8 17 -1 32 4 32 9 0 6 11 -1 25 -15 14
-14 36 -26 48 -27 24 -1 52 -3 137 -7 40 -2 49 -5 35 -11 -17 -6 -15 -8 15
-14 68 -11 113 -11 117 1 2 6 -8 13 -24 16 -27 4 -27 4 4 6 28 1 32 4 31 30
-1 15 2 33 6 40 7 10 -14 16 -39 11 -5 -1 -19 -1 -30 -1 -11 0 -29 1 -41 1
-15 0 -23 11 -31 40 -12 45 -6 50 62 47 38 -2 40 -3 37 -33 -3 -29 -1 -31 30
-32 31 -1 32 0 14 14 -17 12 -17 14 -4 14 9 0 20 5 24 11 5 8 -1 10 -19 7 -15
-3 -24 -1 -21 3 3 5 14 9 25 9 27 0 24 17 -4 24 -13 3 -24 12 -24 21 0 18 14
20 20 3 2 -7 8 -10 12 -6 11 11 -28 68 -47 68 -10 0 -23 9 -30 20 -7 11 -16
20 -21 20 -4 0 -5 -4 -2 -10 3 -5 0 -10 -7 -10 -7 0 -37 -10 -66 -22 -40 -17
-52 -26 -49 -39 3 -10 -2 -20 -12 -23 -98 -35 -115 -44 -99 -51 14 -5 15 -10
5 -19 -6 -7 -21 -15 -32 -20 -15 -5 -16 -9 -6 -15 9 -6 2 -10 -20 -14 -19 -2
-35 -3 -37 -2 -2 2 14 19 35 39 l38 36 -22 17 c-19 15 -20 21 -9 36 8 9 26 17
43 17 17 0 36 7 43 15 7 8 21 15 31 15 11 0 19 5 19 11 0 5 14 15 31 21 16 6
27 13 24 16 -3 3 5 12 17 19 20 11 21 12 4 13 -15 0 -16 3 -6 15 9 10 9 15 1
16 -26 3 -30 4 -37 12 -4 4 -1 7 7 7 10 1 10 4 -4 14 -11 9 -18 29 -19 60 -1
25 -6 46 -10 46 -4 0 -8 5 -8 10 0 6 36 10 89 10 95 0 101 3 101 56 0 32 25
41 50 19 18 -16 20 -17 20 -2 0 15 12 17 88 16 94 0 117 -6 117 -29 0 -12 44
-44 51 -37 8 8 -12 57 -25 60 -9 3 25 5 74 6 85 1 115 10 115 34 0 4 -17 15
-37 24 -27 11 -74 15 -173 16 -87 0 -138 4 -142 11 -5 8 -8 7 -8 -1 0 -10 -26
-13 -96 -13 -74 0 -99 -4 -111 -16 -11 -10 -28 -14 -50 -12 -18 2 -33 1 -33
-2 0 -12 36 -40 51 -40 11 0 11 -2 1 -8 -7 -5 -10 -16 -6 -26 5 -13 14 -15 34
-11 16 3 31 2 34 -3 6 -10 -145 -22 -175 -15 -9 3 -26 22 -38 43 l-21 38 30 7
c16 4 33 4 37 2 5 -2 17 -1 28 4 24 9 -82 14 -235 11 l-105 -3 40 26 c73 46
102 50 400 50 154 0 300 -1 325 -2 44 -3 241 1 270 5 37 5 -13 22 -89 31 -46
5 -88 14 -94 20 -14 14 -47 15 -47 1 0 -5 -7 -7 -16 -3 -9 3 -20 0 -25 -8 -7
-12 -65 -14 -326 -14 -292 0 -321 2 -358 19 -22 11 -55 18 -72 17 -37 -3 -37
-3 -23 33 9 24 8 26 -21 26 -18 0 -28 -4 -24 -10 4 -6 12 -7 18 -3 9 5 9 3 0
-8 -8 -9 -9 -20 -3 -29 19 -29 10 -38 -42 -42 -29 -3 -56 -3 -61 -1 -9 5 11
26 41 42 24 13 21 34 -3 24 -9 -3 -15 1 -15 10 0 8 -16 25 -35 38 -19 13 -35
28 -35 32 0 11 43 -2 51 -15 4 -6 17 -7 29 -3 12 4 25 3 29 -3 6 -10 31 -15
64 -13 10 0 15 6 12 11 -4 6 7 13 24 16 17 4 31 10 31 14 0 15 -38 40 -61 40
-19 0 -21 2 -9 10 20 12 14 15 -57 26 -52 8 -65 7 -78 -5 -13 -13 -17 -13 -35
4 -16 15 -41 19 -132 22 -62 3 -110 2 -106 -2z m176 -22 c-10 -2 -28 -2 -40 0
-13 2 -5 4 17 4 22 1 32 -1 23 -4z m147 -53 c18 -8 17 -9 -7 -9 -16 -1 -28 4
-28 9 0 12 8 12 35 0z m-170 -20 c27 -30 12 -34 -15 -5 -13 14 -19 25 -13 25
5 0 18 -9 28 -20z m263 3 c-10 -2 -26 -2 -35 0 -10 3 -2 5 17 5 19 0 27 -2 18
-5z m-200 -25 c-6 -18 -28 -21 -28 -4 0 9 7 16 16 16 9 0 14 -5 12 -12z m297
-269 c-18 -7 -18 -8 -2 -8 10 -1 27 4 38 9 10 6 19 7 19 2 0 -5 -12 -14 -27
-22 -16 -7 -41 -19 -57 -28 -16 -8 -45 -17 -65 -19 -33 -4 -36 -2 -37 22 -2
33 -10 41 -26 27 -7 -5 -22 -11 -33 -12 -42 -5 -55 0 -55 20 0 15 7 20 25 20
16 0 25 -6 25 -15 0 -8 4 -15 10 -15 5 0 7 6 4 14 -7 17 44 23 141 17 43 -2
54 -6 40 -12z m-358 -105 c-3 -3 -12 -4 -19 -1 -8 3 -5 6 6 6 11 1 17 -2 13
-5z m183 -38 c0 -2 -7 -7 -16 -10 -8 -3 -12 -2 -9 4 6 10 25 14 25 6z m-190
-46 c-20 -5 -39 -5 -44 1 -6 5 7 9 35 8 l44 -1 -35 -8z m60 0 c0 -5 -2 -10 -4
-10 -3 0 -8 5 -11 10 -3 6 -1 10 4 10 6 0 11 -4 11 -10z m-20 -23 c0 -19 -76
-35 -165 -35 -73 -1 -76 0 -36 8 25 5 48 15 52 21 3 6 15 9 25 6 11 -4 35 -3
54 1 54 12 70 12 70 -1z m-80 -211 c0 -8 10 -17 23 -19 13 -3 8 -5 -15 -6 -32
-1 -38 2 -38 19 0 11 7 20 15 20 8 0 15 -6 15 -14z m850 -16 c0 -5 -9 -10 -20
-10 -11 0 -20 5 -20 10 0 6 9 10 20 10 11 0 20 -4 20 -10z m-203 -36 c-3 -3
-12 -4 -19 -1 -8 3 -5 6 6 6 11 1 17 -2 13 -5z m13 -59 c11 -4 18 -11 15 -16
-4 -5 2 -10 12 -10 10 -1 23 -2 28 -4 6 -1 22 -3 37 -3 19 -2 26 -6 22 -16 -4
-11 4 -16 33 -19 24 -2 13 -4 -29 -5 -71 -2 -83 3 -45 18 17 7 9 9 -37 9 -46
1 -57 4 -53 15 4 10 -5 16 -28 20 -19 4 -37 11 -40 15 -5 10 51 7 85 -4z m193
-42 c-7 -2 -19 -2 -25 0 -7 3 -2 5 12 5 14 0 19 -2 13 -5z m-268 -23 c3 -5 -3
-10 -15 -10 -12 0 -18 5 -15 10 3 6 10 10 15 10 5 0 12 -4 15 -10z m65 0 c12
-8 11 -10 -7 -10 -13 0 -23 5 -23 10 0 13 11 13 30 0z"/>
<path d="M6770 4410 c73 -38 90 -38 21 0 -30 17 -59 30 -65 30 -6 -1 14 -14
44 -30z"/>
<path d="M5931 4401 c-19 -12 4 -24 30 -16 17 6 19 9 8 16 -17 11 -21 11 -38
0z"/>
<path d="M6113 4394 c-7 -3 -13 -12 -13 -20 0 -12 31 -14 183 -13 184 1 244 7
219 23 -16 9 -371 19 -389 10z"/>
<path d="M7330 4250 c0 -5 18 -10 40 -10 22 0 40 5 40 10 0 6 -18 10 -40 10
-22 0 -40 -4 -40 -10z"/>
<path d="M7248 4213 c-35 -5 -36 -21 -3 -29 34 -8 75 3 75 21 0 15 -15 17 -72
8z"/>
<path d="M4825 4200 c3 -5 11 -10 16 -10 6 0 7 5 4 10 -3 6 -11 10 -16 10 -6
0 -7 -4 -4 -10z"/>
<path d="M7160 4200 c0 -5 4 -10 9 -10 6 0 13 5 16 10 3 6 -1 10 -9 10 -9 0
-16 -4 -16 -10z"/>
<path d="M7423 4203 c15 -2 37 -2 50 0 12 2 0 4 -28 4 -27 0 -38 -2 -22 -4z"/>
<path d="M4907 4181 c19 -18 21 -25 11 -41 -7 -10 -28 -22 -47 -26 l-36 -7 30
-7 c17 -4 40 -12 53 -18 74 -39 70 -39 65 -8 -5 23 -2 25 43 29 l49 3 -56 2
c-39 1 -61 7 -70 19 -12 14 -12 16 0 8 11 -6 13 -4 8 9 -4 10 -7 19 -7 22 0 2
-15 11 -32 20 l-33 16 22 -21z"/>
<path d="M7140 4150 c0 -5 5 -10 11 -10 5 0 7 5 4 10 -3 6 -8 10 -11 10 -2 0
-4 -4 -4 -10z"/>
<path d="M5171 4106 c10 -10 67 -13 80 -5 9 6 -3 9 -35 9 -27 0 -47 -2 -45 -4z"/>
<path d="M7070 4100 c0 -5 5 -10 10 -10 6 0 10 5 10 10 0 6 -4 10 -10 10 -5 0
-10 -4 -10 -10z"/>
<path d="M7118 4103 c7 -3 16 -2 19 1 4 3 -2 6 -13 5 -11 0 -14 -3 -6 -6z"/>
<path d="M7160 4100 c-10 -7 6 -8 50 -4 36 4 67 8 69 10 10 9 -105 3 -119 -6z"/>
<path d="M7383 4103 c15 -2 39 -2 55 0 15 2 2 4 -28 4 -30 0 -43 -2 -27 -4z"/>
<path d="M4860 4065 c0 -2 10 -10 23 -16 20 -11 21 -11 8 4 -13 16 -31 23 -31
12z"/>
<path d="M7193 4053 c-91 -2 -153 -8 -153 -13 0 -6 9 -10 19 -10 10 0 21 -7
25 -15 3 -8 16 -14 28 -14 l23 2 -22 4 c-13 2 -23 9 -23 14 0 5 41 9 91 9 57
0 88 -4 84 -10 -6 -9 31 -15 82 -13 l21 2 -24 -36 c-29 -44 -30 -56 -4 -48 11
4 20 2 20 -4 0 -26 37 -8 58 29 27 48 27 46 1 53 -27 7 -15 27 17 27 13 0 24
5 24 10 0 6 -17 10 -37 10 -21 0 -47 2 -58 3 -11 2 -89 1 -172 0z"/>
<path d="M6221 4034 c0 -11 3 -14 6 -6 3 7 2 16 -1 19 -3 4 -6 -2 -5 -13z"/>
<path d="M6770 4040 c0 -5 12 -10 26 -10 14 0 23 4 19 10 -3 6 -15 10 -26 10
-10 0 -19 -4 -19 -10z"/>
<path d="M6856 4023 c-10 -14 -15 -24 -10 -22 43 20 64 34 64 41 0 18 -36 6
-54 -19z"/>
<path d="M4956 4002 c-7 -11 52 -28 61 -18 9 8 2 13 -28 21 -15 4 -30 2 -33
-3z"/>
<path d="M4773 3993 c9 -2 25 -2 35 0 9 3 1 5 -18 5 -19 0 -27 -2 -17 -5z"/>
<path d="M4873 3993 c15 -2 37 -2 50 0 12 2 0 4 -28 4 -27 0 -38 -2 -22 -4z"/>
<path d="M6738 3943 c7 -3 16 -2 19 1 4 3 -2 6 -13 5 -11 0 -14 -3 -6 -6z"/>
<path d="M7447 3944 c-4 -4 -7 -14 -7 -23 0 -11 3 -12 11 -4 6 6 10 16 7 23
-2 6 -7 8 -11 4z"/>
<path d="M6565 3920 l-20 -9 20 -1 c19 -1 19 -1 2 -14 -32 -24 -45 -116 -17
-116 5 0 22 14 40 31 23 23 28 34 20 44 -8 9 -5 14 11 18 12 3 18 10 14 16 -3
6 -10 9 -15 6 -5 -3 -11 -1 -15 5 -3 5 3 10 14 10 11 0 23 5 26 10 8 12 -52
12 -80 0z"/>
<path d="M6415 3880 c-13 -6 -15 -9 -5 -9 8 0 22 4 30 9 18 12 2 12 -25 0z"/>
<path d="M6520 3879 c0 -5 5 -7 10 -4 6 3 10 8 10 11 0 2 -4 4 -10 4 -5 0 -10
-5 -10 -11z"/>
<path d="M4795 3819 c-4 -6 -5 -13 -2 -16 7 -7 27 6 27 18 0 12 -17 12 -25 -2z"/>
<path d="M7340 3794 c-39 -11 -41 -12 -15 -13 17 0 41 6 55 14 30 17 21 17
-40 -1z"/>
<path d="M7328 3753 c-32 -8 -55 -19 -52 -24 3 -5 -2 -9 -11 -9 -10 0 -13 5
-9 13 4 6 3 8 -1 4 -23 -21 -11 -33 30 -32 43 2 101 29 109 52 6 15 7 15 -66
-4z"/>
<path d="M6415 3751 c3 -5 1 -13 -5 -16 -6 -4 -8 -15 -5 -25 5 -15 2 -18 -14
-15 -17 3 -19 -1 -17 -36 2 -22 -1 -42 -6 -45 -5 -3 -8 0 -7 7 3 25 -13 79
-25 79 -53 -1 -69 -27 -41 -67 8 -12 12 -28 9 -37 -4 -11 -1 -16 11 -16 19 0
17 -7 -20 -97 -20 -50 -22 -60 -9 -69 8 -6 14 -16 14 -23 0 -10 27 -16 57 -12
8 1 10 -5 7 -14 -5 -12 3 -15 40 -15 25 0 46 5 46 10 0 6 -7 10 -16 10 -8 0
-13 4 -9 9 3 5 -4 11 -15 13 -19 3 -19 5 -7 22 13 18 14 18 32 0 13 -13 20
-15 23 -6 2 6 12 12 22 12 10 0 22 5 25 10 4 6 -12 10 -41 10 -64 0 -49 11 20
16 39 2 60 -2 70 -12 11 -11 21 -12 41 -4 14 5 49 10 77 10 38 0 49 3 45 14
-3 7 0 19 6 25 8 8 6 11 -7 11 -12 0 -16 5 -12 15 4 11 -2 15 -24 15 -16 0
-32 5 -35 10 -4 6 6 10 22 10 24 1 25 2 10 11 -9 5 -22 7 -27 4 -6 -3 -10 -1
-10 4 0 6 4 11 10 11 5 0 -2 11 -15 25 -14 13 -25 33 -25 45 0 18 -3 19 -20
10 -22 -12 -60 -5 -60 10 0 5 7 7 15 4 32 -13 13 7 -21 21 -46 19 -43 20 -60
-17 l-15 -33 6 31 c7 38 -9 84 -30 84 -9 0 -14 -4 -10 -9z m169 -153 c-3 -5
-16 -8 -29 -8 -26 0 -79 -55 -69 -72 3 -5 17 -7 31 -3 16 4 22 2 18 -5 -9 -14
-27 -13 -63 6 -41 20 -49 34 -21 34 26 0 89 45 89 65 0 10 5 11 24 2 13 -7 22
-15 20 -19z m-138 -35 c-1 -1 -12 0 -23 3 -17 5 -19 9 -10 19 9 10 14 9 24 -4
6 -9 10 -17 9 -18z m24 22 c0 -8 -2 -15 -4 -15 -2 0 -6 7 -10 15 -3 8 -1 15 4
15 6 0 10 -7 10 -15z m215 -75 c3 -5 1 -10 -4 -10 -6 0 -11 5 -11 10 0 6 2 10
4 10 3 0 8 -4 11 -10z m-176 -36 c2 -2 -12 -4 -33 -4 -22 0 -35 4 -31 10 5 9
52 4 64 -6z m48 0 c-3 -3 -12 -4 -19 -1 -8 3 -5 6 6 6 11 1 17 -2 13 -5z
m-197 -68 c0 -22 -16 -28 -29 -12 -9 11 -9 15 1 19 22 9 28 8 28 -7z"/>
<path d="M6718 3753 c7 -3 16 -2 19 1 4 3 -2 6 -13 5 -11 0 -14 -3 -6 -6z"/>
<path d="M5610 3720 c0 -5 4 -10 9 -10 6 0 13 5 16 10 3 6 -1 10 -9 10 -9 0
-16 -4 -16 -10z"/>
<path d="M6645 3680 c3 -5 11 -10 16 -10 6 0 7 5 4 10 -3 6 -11 10 -16 10 -6
0 -7 -4 -4 -10z"/>
<path d="M5920 3660 c0 -5 5 -10 11 -10 5 0 7 5 4 10 -3 6 -8 10 -11 10 -2 0
-4 -4 -4 -10z"/>
<path d="M6680 3665 c0 -3 16 -13 35 -21 20 -8 38 -21 42 -29 6 -17 33 -20 33
-5 0 6 -8 14 -17 17 -10 4 -22 12 -28 19 -11 12 -65 28 -65 19z"/>
<path d="M6893 3634 c1 -21 11 -33 36 -46 39 -20 51 -12 43 28 -5 28 -7 29
-49 39 -30 6 -32 5 -30 -21z"/>
<path d="M6640 3640 c0 -5 0 -13 0 -17 0 -5 8 -8 17 -9 10 -1 28 -4 41 -8 35
-11 26 10 -12 28 -40 19 -46 20 -46 6z"/>
<path d="M6810 3595 c7 -8 20 -15 29 -15 13 1 13 3 -3 15 -26 19 -42 19 -26 0z"/>
<path d="M5415 3590 c3 -5 8 -10 11 -10 2 0 4 5 4 10 0 6 -5 10 -11 10 -5 0
-7 -4 -4 -10z"/>
<path d="M6670 3590 c0 -5 5 -10 10 -10 6 0 10 5 10 10 0 6 -4 10 -10 10 -5 0
-10 -4 -10 -10z"/>
<path d="M5453 3553 c9 -2 25 -2 35 0 9 3 1 5 -18 5 -19 0 -27 -2 -17 -5z"/>
<path d="M6950 3526 c0 -2 7 -7 16 -10 8 -3 12 -2 9 4 -6 10 -25 14 -25 6z"/>
<path d="M7044 3508 l-19 -23 23 19 c12 11 22 21 22 23 0 8 -8 2 -26 -19z"/>
<path d="M7090 3520 c0 -5 6 -10 14 -10 8 0 18 5 21 10 3 6 -3 10 -14 10 -12
0 -21 -4 -21 -10z"/>
<path d="M5655 3500 c3 -5 11 -10 16 -10 6 0 7 5 4 10 -3 6 -11 10 -16 10 -6
0 -7 -4 -4 -10z"/>
<path d="M6870 3490 c0 -6 7 -10 15 -10 8 0 15 2 15 4 0 2 -7 6 -15 10 -8 3
-15 1 -15 -4z"/>
<path d="M5706 3481 c-10 -15 18 -19 32 -5 11 12 9 14 -7 14 -11 0 -22 -4 -25
-9z"/>
<path d="M5766 3471 c-7 -11 28 -21 69 -20 l30 1 -35 13 c-43 16 -57 18 -64 6z"/>
<path d="M5890 3440 c0 -5 5 -10 11 -10 5 0 7 5 4 10 -3 6 -8 10 -11 10 -2 0
-4 -4 -4 -10z"/>
<path d="M4569 3430 c-8 -5 -28 -11 -45 -14 -16 -2 -31 -5 -34 -5 -3 -1 3 -6
12 -11 9 -6 40 -11 67 -11 28 -1 51 -6 51 -11 0 -6 7 -7 16 -4 14 5 15 4 5 -8
-8 -10 -9 -16 -1 -21 16 -10 97 41 103 65 5 20 -8 29 -15 10 -1 -5 -23 -12
-48 -16 -37 -5 -49 -2 -69 15 -13 12 -24 21 -25 21 -1 0 -8 -5 -17 -10z"/>
<path d="M5858 3433 c7 -3 16 -2 19 1 4 3 -2 6 -13 5 -11 0 -14 -3 -6 -6z"/>
<path d="M6678 3421 c-10 -10 -15 -21 -11 -24 11 -12 23 -8 23 8 0 8 7 15 15
15 8 0 15 5 15 10 0 16 -23 11 -42 -9z"/>
<path d="M5025 3300 c11 -5 27 -9 35 -9 13 -1 13 0 0 9 -8 5 -24 9 -35 9 l-20
0 20 -9z"/>
<path d="M7640 3291 c0 -5 5 -13 10 -16 6 -3 10 -2 10 4 0 5 -4 13 -10 16 -5
3 -10 2 -10 -4z"/>
<path d="M5480 3286 c0 -2 7 -7 16 -10 8 -3 12 -2 9 4 -6 10 -25 14 -25 6z"/>
<path d="M4474 3265 c-18 -14 -18 -14 3 -15 23 0 39 15 25 24 -5 3 -18 -1 -28
-9z"/>
<path d="M5109 3275 c0 0 -2 -10 -5 -23 -5 -27 13 -65 27 -57 5 4 9 1 9 -6 0
-10 3 -10 12 -1 9 9 10 15 2 20 -6 4 -13 17 -16 30 -5 17 -2 22 14 22 10 0 16
4 13 10 -4 7 -43 11 -56 5z"/>
<path d="M5280 3268 c0 -4 6 -8 13 -8 6 0 22 -3 35 -6 12 -4 22 -2 22 4 0 5
-16 12 -35 14 -19 2 -35 0 -35 -4z"/>
<path d="M5410 3270 c0 -5 9 -10 21 -10 11 0 17 5 14 10 -3 6 -13 10 -21 10
-8 0 -14 -4 -14 -10z"/>
<path d="M5240 3263 c1 -23 22 -33 75 -36 33 -2 61 -9 63 -15 2 -8 8 -7 19 3
19 20 35 19 31 -2 -3 -18 43 -35 92 -34 14 0 32 -3 40 -6 8 -3 26 -7 39 -9 29
-4 53 -23 31 -25 -8 -1 -4 -4 10 -8 27 -8 36 -46 10 -46 -23 0 -23 -20 0 -23
11 -2 20 -8 20 -13 0 -6 -9 -7 -20 -4 -25 8 -27 -13 -2 -22 9 -3 24 -12 32
-18 8 -7 24 -15 35 -18 11 -2 -8 -5 -42 -6 -34 0 -64 -5 -68 -11 -3 -5 -12 -7
-20 -3 -10 3 -15 -1 -15 -15 0 -13 8 -22 23 -25 12 -2 0 -5 -26 -6 -27 0 -46
2 -44 7 3 4 1 16 -4 27 -8 19 -8 19 -15 -3 -6 -23 -31 -33 -84 -36 -34 -2 -53
-16 -22 -16 12 0 22 -4 22 -10 0 -5 -6 -7 -14 -4 -7 3 -21 -2 -29 -11 -20 -20
-117 -33 -117 -16 0 6 10 11 23 12 21 1 21 1 -3 8 -19 6 -29 3 -41 -12 l-17
-20 -11 21 c-17 31 -16 32 47 33 36 1 48 3 34 7 -34 10 -22 27 16 25 l33 -3
-20 27 c-12 14 -21 31 -21 38 0 27 -45 50 -95 50 -64 -1 -79 3 -65 20 12 15
-14 30 -32 18 -7 -4 -9 2 -5 16 4 18 2 21 -10 16 -9 -3 -20 0 -24 7 -5 8 -10
3 -14 -14 -4 -15 -13 -29 -22 -32 -8 -3 -12 -10 -9 -14 3 -5 -3 -26 -14 -48
-18 -34 -18 -39 -4 -47 8 -5 22 -6 30 -3 12 4 14 1 9 -14 -5 -15 -2 -20 13
-20 12 0 22 -9 26 -22 10 -40 7 -58 -11 -58 -12 0 -18 -8 -19 -25 -2 -20 2
-24 16 -20 22 7 37 -11 59 -76 17 -47 17 -54 4 -64 -13 -10 -12 -15 12 -41 26
-26 28 -27 22 -7 -3 13 -1 26 4 29 5 3 9 -1 9 -8 0 -23 65 -141 75 -137 6 2 9
6 9 9 -1 3 -4 19 -7 35 -6 27 -5 28 5 8 7 -14 20 -23 35 -23 27 0 22 20 -5 21
-14 0 -13 2 3 9 11 5 16 10 10 11 -5 1 6 5 25 9 l35 7 -37 2 c-21 0 -38 -4
-41 -11 -3 -9 -9 -7 -20 7 -8 10 -12 25 -9 33 2 8 5 23 6 35 1 20 7 22 76 24
41 1 82 -1 90 -4 8 -3 27 -5 43 -4 19 2 27 -2 27 -13 0 -9 7 -16 15 -16 8 0
14 5 13 11 -2 6 2 13 8 16 7 2 12 -7 12 -22 0 -14 9 -35 21 -46 11 -11 21 -24
21 -29 0 -16 36 -12 50 5 7 8 23 15 37 15 14 0 21 4 18 10 -4 6 24 10 77 10
72 0 85 3 95 20 9 13 9 21 2 25 -6 4 -3 12 8 21 17 13 17 13 -1 14 -15 0 -17
3 -9 11 15 15 36 1 30 -20 -3 -11 2 -17 14 -18 27 -2 24 14 -8 43 -32 30 -25
42 9 14 32 -24 38 -18 38 39 0 38 -5 51 -31 75 -23 22 -27 31 -17 37 10 7 9 9
-4 9 -9 0 -20 5 -23 10 -10 16 32 12 49 -5 8 -9 13 -22 10 -30 -4 -8 -1 -15 5
-15 6 0 10 5 9 11 -2 6 3 14 10 16 6 3 12 -2 12 -10 0 -9 6 -18 13 -20 9 -4 8
-8 -3 -16 -8 -5 -11 -13 -7 -17 4 -4 1 -14 -6 -22 -10 -13 -9 -15 4 -10 9 3
22 2 30 -3 12 -8 12 -10 -1 -19 -8 -5 -10 -10 -4 -10 6 0 22 -15 34 -33 21
-30 27 -33 76 -34 30 -1 52 2 49 7 -3 5 9 5 26 0 45 -13 166 -22 190 -15 12 4
18 13 15 20 -4 13 16 28 40 30 6 0 39 26 74 58 65 58 80 67 80 45 0 -9 3 -10
8 -2 14 21 112 84 131 84 11 0 23 9 26 20 4 12 15 20 28 20 l21 0 -22 20 c-26
24 -28 40 -6 40 8 0 12 5 9 11 -5 7 -13 5 -24 -5 -22 -20 -36 -20 -68 1 -14
10 -35 19 -45 20 -33 5 -58 23 -52 37 6 15 -42 20 -52 5 -2 -4 -11 -6 -19 -3
-8 4 -12 10 -9 15 3 5 -5 9 -18 10 -13 1 -39 2 -58 3 -19 1 -39 -3 -43 -8 -6
-8 -10 -7 -14 2 -6 15 -139 17 -148 2 -3 -5 -14 -10 -23 -10 -10 0 -23 -14
-31 -32 -8 -18 -20 -39 -27 -45 -18 -19 -62 -33 -79 -27 -17 7 -20 24 -5 24 6
0 10 4 10 10 0 5 -7 6 -17 3 -11 -4 -14 -3 -9 5 4 7 17 12 30 12 13 0 31 9 42
21 16 17 16 22 4 29 -8 6 -29 10 -47 10 -17 0 -35 5 -38 10 -4 6 -11 8 -16 5
-5 -4 -19 -3 -31 1 -21 6 -21 7 -3 20 18 14 18 14 -1 15 -38 1 -139 25 -157
36 -5 3 1 12 14 19 22 12 21 13 -28 14 -47 0 -51 -2 -46 -21 4 -16 2 -20 -8
-17 -8 3 -14 10 -14 16 0 19 -13 25 -42 18 -21 -6 -24 -9 -12 -17 10 -6 6 -9
-16 -9 -22 0 -26 3 -15 10 25 15 8 19 -98 21 -72 2 -102 6 -102 14 0 16 -96
26 -127 14 -14 -5 -23 -5 -23 1 0 6 -9 10 -20 10 -11 0 -20 5 -20 10 0 6 -7
10 -15 10 -8 0 -15 -3 -15 -7z m-183 -264 c2 -12 -1 -18 -7 -14 -5 3 -10 16
-10 27 0 26 13 16 17 -13z m70 -11 c-3 -7 -5 -2 -5 12 0 14 2 19 5 13 2 -7 2
-19 0 -25z m1500 -34 c-3 -3 -12 -4 -19 -1 -8 3 -5 6 6 6 11 1 17 -2 13 -5z
m-1387 -19 c11 -13 8 -15 -15 -15 -23 0 -26 2 -15 15 7 8 14 15 15 15 1 0 8
-7 15 -15z m1387 -15 c-1 -19 -25 -36 -35 -25 -3 3 1 5 9 5 12 0 12 2 0 9 -16
10 -6 31 14 31 8 0 13 -9 12 -20z m-1460 4 c-3 -3 -12 -4 -19 -1 -8 3 -5 6 6
6 11 1 17 -2 13 -5z m911 -13 c-11 -18 -14 -18 -42 -4 -44 22 -44 23 7 23 44
0 46 -1 35 -19z m-468 -15 c0 -11 -19 -15 -25 -6 -3 5 1 10 9 10 9 0 16 -2 16
-4z m390 0 c0 -3 -4 -8 -10 -11 -5 -3 -10 -1 -10 4 0 6 5 11 10 11 6 0 10 -2
10 -4z m237 -11 c9 -24 -1 -27 -15 -5 -8 13 -8 20 -2 20 6 0 13 -7 17 -15z
m-642 -25 c3 -5 -1 -10 -9 -10 -8 0 -18 5 -21 10 -3 6 1 10 9 10 8 0 18 -4 21
-10z m-348 -34 c-4 -10 4 -17 26 -22 l32 -7 -25 -10 c-25 -11 -25 -11 9 -15
24 -2 37 1 43 12 12 21 34 20 42 -1 11 -27 -4 -31 -91 -26 -70 5 -82 8 -86 25
-4 13 1 22 16 28 21 8 21 9 -3 10 -20 0 -22 2 -10 10 23 15 53 12 47 -4z m43
4 c0 -5 -7 -10 -15 -10 -8 0 -15 5 -15 10 0 6 7 10 15 10 8 0 15 -4 15 -10z
m85 1 c3 -5 1 -12 -5 -16 -14 -9 -52 4 -45 16 8 12 42 12 50 0z m60 -6 c0 -5
-10 -11 -22 -13 -16 -2 -23 2 -23 13 0 11 7 15 23 13 12 -2 22 -7 22 -13z m80
5 c19 -8 19 -9 -2 -9 -12 -1 -25 4 -28 9 -7 12 2 12 30 0z m95 0 c0 -5 -7 -10
-15 -10 -8 0 -15 5 -15 10 0 6 7 10 15 10 8 0 15 -4 15 -10z m650 0 c0 -5 -5
-10 -11 -10 -5 0 -7 5 -4 10 3 6 8 10 11 10 2 0 4 -4 4 -10z m-820 -50 c0 -15
-7 -20 -25 -20 -18 0 -25 5 -25 20 0 15 7 20 25 20 18 0 25 -5 25 -20z m665
10 c8 -13 -5 -13 -25 0 -13 8 -13 10 2 10 9 0 20 -4 23 -10z m-625 -15 c0 -8
-4 -15 -10 -15 -5 0 -10 7 -10 15 0 8 5 15 10 15 6 0 10 -7 10 -15z m-179 -48
c-1 -12 -15 -9 -19 4 -3 6 1 10 8 8 6 -3 11 -8 11 -12z m62 6 c8 -7 -11 -33
-24 -33 -5 0 -9 9 -9 20 0 19 20 27 33 13z"/>
<path d="M7465 3260 c-3 -6 1 -7 9 -4 18 7 21 14 7 14 -6 0 -13 -4 -16 -10z"/>
<path d="M195 3218 c-2 -7 -13 -38 -25 -68 -11 -30 -20 -58 -20 -62 0 -16 19
-7 25 12 5 14 15 20 37 20 21 0 31 -6 35 -20 3 -11 11 -20 19 -20 10 0 6 19
-14 75 -25 69 -46 93 -57 63z m25 -37 c0 -5 3 -16 6 -25 4 -12 0 -16 -16 -16
-16 0 -20 4 -16 16 3 9 6 20 6 25 0 5 5 9 10 9 6 0 10 -4 10 -9z"/>
<path d="M300 3155 c0 -43 4 -75 10 -75 6 0 10 32 10 75 0 43 -4 75 -10 75 -6
0 -10 -32 -10 -75z"/>
<path d="M990 3206 c0 -19 -4 -22 -23 -19 -44 9 -71 -42 -47 -88 8 -14 20 -18
50 -17 l40 1 0 74 c0 42 -4 73 -10 73 -5 0 -10 -11 -10 -24z m-2 -67 c2 -15
-4 -31 -13 -39 -24 -20 -50 9 -41 45 9 36 50 32 54 -6z"/>
<path d="M1307 3159 c-15 -40 -25 -74 -23 -77 8 -7 26 9 26 24 0 9 11 14 34
14 25 0 35 -5 39 -20 5 -19 27 -29 27 -12 -1 25 -50 138 -62 140 -10 2 -23
-20 -41 -69z m56 1 c4 -16 0 -20 -20 -20 -13 0 -22 3 -20 8 2 4 7 15 10 25 8
22 22 15 30 -13z"/>
<path d="M1850 3220 c0 -5 5 -10 10 -10 6 0 10 5 10 10 0 6 -4 10 -10 10 -5 0
-10 -4 -10 -10z"/>
<path d="M2115 3218 c-2 -7 -13 -38 -25 -68 -11 -30 -20 -58 -20 -62 0 -16 19
-7 25 12 9 28 58 27 78 -2 26 -40 27 -15 0 60 -24 67 -47 91 -58 60z m29 -44
c10 -26 7 -34 -15 -34 -15 0 -19 4 -15 16 3 9 6 20 6 25 0 15 17 10 24 -7z"/>
<path d="M6775 3216 c-27 -6 -56 -15 -62 -19 -20 -12 -15 -27 7 -27 33 0 22
-19 -15 -26 -50 -9 -38 -27 24 -38 38 -7 58 -6 76 4 35 19 40 7 9 -23 -27 -27
-24 -52 5 -42 9 3 26 -2 37 -10 10 -8 39 -14 64 -14 l45 0 -24 20 c-14 11 -33
18 -43 16 -22 -6 -24 9 -2 17 8 3 13 10 9 15 -3 6 -12 8 -20 5 -10 -4 -16 5
-20 30 -8 40 -19 52 -55 59 -25 4 -25 4 3 6 20 1 27 6 27 21 0 11 -3 19 -7 19
-5 -1 -30 -6 -58 -13z m70 -66 c-3 -5 -11 -10 -16 -10 -6 0 -7 5 -4 10 3 6 11
10 16 10 6 0 7 -4 4 -10z"/>
<path d="M1548 3203 c-3 -10 -2 -40 1 -68 5 -39 10 -51 26 -53 16 -3 18 -1 8
9 -7 7 -13 27 -13 45 0 18 6 35 13 38 10 5 10 7 0 12 -7 3 -13 12 -13 20 0 20
-17 17 -22 -3z"/>
<path d="M2528 3203 c-3 -10 -2 -40 1 -68 5 -39 10 -51 26 -53 16 -3 18 -1 8
9 -7 7 -13 27 -13 45 0 18 6 35 13 38 10 5 10 7 0 12 -7 3 -13 12 -13 20 0 20
-17 17 -22 -3z"/>
<path d="M4465 3200 c-10 -11 -16 -22 -13 -25 3 -3 13 4 23 15 10 11 16 22 13
25 -3 3 -13 -4 -23 -15z"/>
<path d="M7466 3206 c10 -8 21 -12 24 -10 5 6 -21 24 -34 24 -6 0 -1 -6 10
-14z"/>
<path d="M356 3174 c-19 -18 -21 -65 -4 -82 17 -17 63 -15 79 5 15 18 16 18
-36 -3 -16 -6 -38 12 -31 25 4 6 23 11 42 11 23 0 34 5 34 14 0 20 -28 46 -50
46 -10 0 -26 -7 -34 -16z m62 -21 c2 -9 -7 -13 -27 -13 -30 0 -39 9 -24 24 11
10 46 3 51 -11z"/>
<path d="M460 3183 c0 -5 7 -17 15 -27 13 -17 13 -23 -1 -44 -19 -29 -8 -45
12 -17 14 19 16 19 28 3 23 -31 39 -21 20 10 -15 27 -15 31 1 55 20 31 11 35
-18 10 -18 -17 -19 -17 -28 0 -10 17 -29 24 -29 10z"/>
<path d="M582 3181 c-20 -12 -11 -45 13 -49 29 -6 41 -20 27 -34 -8 -8 -15 -8
-27 2 -17 14 -31 8 -20 -9 11 -19 63 -13 74 8 12 21 1 34 -36 45 -35 11 -28
30 8 22 22 -4 29 -2 27 7 -5 15 -48 20 -66 8z"/>
<path d="M691 3176 c-10 -12 -7 -14 16 -13 36 2 46 -17 11 -21 -69 -8 -55 -62
16 -60 l41 0 -3 42 c-3 22 -9 47 -14 54 -14 16 -53 15 -67 -2z m57 -58 c-8
-22 -36 -34 -50 -20 -10 10 -10 15 2 22 21 14 52 12 48 -2z"/>
<path d="M800 3133 c0 -63 17 -72 22 -10 2 34 7 42 23 42 16 0 21 -8 23 -42 4
-56 22 -55 22 1 0 51 -13 65 -58 64 -32 -1 -32 -1 -32 -55z"/>
<path d="M1040 3133 c0 -29 5 -53 10 -53 6 0 10 17 10 39 0 29 6 42 23 54 22
15 22 15 -10 15 l-33 -1 0 -54z"/>
<path d="M1113 3164 c-15 -24 -15 -29 -2 -53 11 -19 23 -26 44 -26 21 0 33 7
44 26 13 24 13 29 -2 53 -11 16 -27 26 -42 26 -15 0 -31 -10 -42 -26z m67 -13
c20 -38 -16 -74 -45 -45 -17 17 -18 25 -9 48 8 22 41 20 54 -3z"/>
<path d="M1430 3133 c0 -63 17 -72 22 -10 2 35 7 43 26 45 20 3 22 -1 22 -42
0 -25 5 -46 10 -46 15 0 12 86 -3 98 -7 6 -27 10 -45 10 -32 -1 -32 -1 -32
-55z"/>
<path d="M1620 3175 c-7 -8 -12 -26 -12 -40 0 -35 19 -55 53 -55 46 0 67 61
31 93 -23 21 -56 22 -72 2z m66 -32 c5 -19 2 -30 -10 -39 -32 -23 -60 3 -49
45 8 32 51 28 59 -6z"/>
<path d="M1730 3133 c0 -63 17 -72 22 -10 2 34 7 42 23 42 16 0 21 -8 23 -42
4 -56 22 -55 22 1 0 51 -13 65 -58 64 -32 -1 -32 -1 -32 -55z"/>
<path d="M1850 3135 c0 -30 5 -55 10 -55 6 0 10 25 10 55 0 30 -4 55 -10 55
-5 0 -10 -25 -10 -55z"/>
<path d="M1907 3172 c-33 -36 -13 -92 31 -92 37 0 52 17 52 57 0 49 -51 71
-83 35z m61 -38 c2 -22 -2 -33 -14 -38 -22 -8 -44 11 -44 39 0 28 9 37 35 33
14 -2 21 -12 23 -34z"/>
<path d="M2220 3133 c0 -29 5 -53 10 -53 6 0 10 17 10 39 0 29 6 42 23 54 22
15 22 15 -10 15 l-33 -1 0 -54z"/>
<path d="M2300 3175 c-10 -12 -6 -13 26 -8 29 5 36 3 32 -8 -2 -8 -17 -15 -31
-17 -32 -4 -53 -35 -34 -50 7 -6 31 -11 52 -10 l40 0 -3 42 c-3 22 -9 47 -14
54 -14 16 -53 15 -68 -3z m60 -59 c0 -18 -30 -30 -43 -17 -5 5 -6 14 -3 20 10
16 46 13 46 -3z"/>
<path d="M2410 3133 c0 -63 17 -72 22 -10 2 35 7 43 26 45 20 3 22 -1 22 -42
0 -25 5 -46 10 -46 15 0 12 86 -3 98 -7 6 -27 10 -45 10 -32 -1 -32 -1 -32
-55z"/>
<path d="M2594 3164 c-26 -39 -9 -78 35 -82 18 -2 38 1 44 7 16 16 2 25 -19
13 -12 -7 -25 -7 -37 -1 -26 14 -10 31 26 27 24 -2 33 1 35 15 9 48 -56 64
-84 21z m64 -11 c2 -9 -7 -13 -27 -13 -23 0 -29 4 -24 16 6 17 44 15 51 -3z"/>
<path d="M2711 3171 c-12 -21 -1 -34 37 -46 13 -4 21 -12 19 -18 -6 -18 -24
-19 -40 -2 -17 17 -30 7 -18 -14 5 -7 22 -11 42 -9 29 2 34 7 34 28 0 19 -7
26 -32 34 -45 12 -42 30 3 23 30 -5 34 -4 24 8 -17 21 -57 18 -69 -4z"/>
<path d="M6870 3178 c0 -9 5 -20 10 -23 13 -8 13 5 0 25 -8 13 -10 13 -10 -2z"/>
<path d="M5157 3173 c-12 -12 -7 -43 6 -43 8 0 13 9 12 20 -2 23 -9 33 -18 23z"/>
<path d="M6243 3173 c9 -2 25 -2 35 0 9 3 1 5 -18 5 -19 0 -27 -2 -17 -5z"/>
<path d="M6650 3150 c0 -5 4 -10 9 -10 6 0 13 5 16 10 3 6 -1 10 -9 10 -9 0
-16 -4 -16 -10z"/>
<path d="M5372 3142 c-40 -2 -70 -7 -68 -11 3 -4 29 -6 57 -3 37 3 50 2 45 -7
-4 -6 -15 -11 -24 -11 -23 0 -4 -15 38 -29 27 -9 32 -9 23 0 -10 10 -7 17 12
35 30 27 21 30 -83 26z"/>
<path d="M6275 3140 l-60 -7 55 -1 c30 -1 62 3 70 8 8 5 11 9 5 8 -5 -1 -37
-4 -70 -8z"/>
<path d="M7580 3131 c-7 -15 -7 -21 0 -21 12 0 25 28 17 36 -3 3 -10 -4 -17
-15z"/>
<path d="M6185 3110 c-3 -5 -1 -10 4 -10 6 0 11 5 11 10 0 6 -2 10 -4 10 -3 0
-8 -4 -11 -10z"/>
<path d="M453 2915 c0 -27 2 -38 4 -22 2 15 2 37 0 50 -2 12 -4 0 -4 -28z"/>
<path d="M1231 2913 c1 -26 4 -38 6 -26 3 15 13 23 31 25 19 2 27 9 27 23 0
15 -8 21 -32 23 l-33 3 1 -48z m54 22 c0 -5 -10 -11 -22 -13 -16 -2 -23 2 -23
13 0 11 7 15 23 13 12 -2 22 -7 22 -13z"/>
<path d="M1478 2950 c-5 -17 3 -80 11 -80 7 0 6 79 -2 86 -3 3 -7 0 -9 -6z"/>
<path d="M1668 2950 c-5 -17 3 -80 11 -80 7 0 6 79 -2 86 -3 3 -7 0 -9 -6z"/>
<path d="M1751 2913 c2 -46 2 -46 8 -13 l6 35 12 -32 c7 -18 16 -33 21 -33 5
0 14 15 20 33 l10 32 1 -32 c2 -51 21 -39 21 12 0 33 -4 45 -15 45 -8 0 -15
-4 -15 -9 0 -5 -5 -22 -11 -38 l-11 -28 -15 38 c-21 51 -33 47 -32 -10z"/>
<path d="M1949 2934 c-8 -50 0 -65 29 -62 23 2 27 8 27 33 0 22 -5 31 -20 34
-11 2 -23 8 -26 13 -4 6 -8 -3 -10 -18z m48 -20 c8 -21 -13 -42 -28 -27 -13
13 -5 43 11 43 6 0 13 -7 17 -16z"/>
<path d="M2063 2915 c0 -27 2 -38 4 -22 2 15 2 37 0 50 -2 12 -4 0 -4 -28z"/>
<path d="M154 2926 c-10 -26 1 -51 24 -54 12 -2 22 1 22 6 0 5 -8 9 -17 8 -12
-1 -18 6 -18 19 0 13 6 20 18 19 9 -1 17 2 17 7 0 15 -40 10 -46 -5z"/>
<path d="M220 2925 c-18 -22 -1 -50 31 -50 20 0 24 5 24 30 0 23 -5 31 -21 33
-11 2 -27 -4 -34 -13z m47 -11 c8 -21 -13 -42 -28 -27 -13 13 -5 43 11 43 6 0
13 -7 17 -16z"/>
<path d="M301 2903 c1 -36 2 -37 8 -8 3 17 13 30 21 30 8 0 18 -13 22 -30 6
-29 6 -29 5 5 -2 30 -6 35 -29 38 -26 3 -28 1 -27 -35z"/>
<path d="M379 2924 c-25 -30 27 -72 55 -44 8 9 4 10 -17 4 -26 -6 -28 -4 -25
17 2 18 9 23 26 22 13 -2 21 1 17 7 -9 15 -41 12 -56 -6z"/>
<path d="M482 2908 c3 -28 7 -33 31 -34 25 -1 27 2 26 35 -1 35 -2 35 -8 7 -9
-41 -31 -46 -31 -7 0 17 -5 31 -11 31 -6 0 -9 -14 -7 -32z"/>
<path d="M560 2905 c0 -19 5 -35 10 -35 6 0 10 16 10 35 0 19 -4 35 -10 35 -5
0 -10 -16 -10 -35z"/>
<path d="M602 2908 c-2 -36 0 -38 28 -38 28 0 30 3 30 35 0 19 -4 35 -10 35
-5 0 -10 -13 -10 -30 0 -42 -27 -40 -33 3 -4 31 -4 31 -5 -5z"/>
<path d="M722 2928 c-26 -26 1 -65 38 -53 16 5 20 14 18 33 -3 30 -35 41 -56
20z m46 -21 c4 -21 -27 -35 -38 -17 -12 19 0 42 19 38 9 -2 17 -11 19 -21z"/>
<path d="M834 2926 c-15 -39 22 -74 49 -47 9 9 5 11 -13 9 -19 -2 -25 2 -25
17 0 15 6 19 23 18 13 -2 21 1 17 7 -9 15 -45 12 -51 -4z"/>
<path d="M912 2908 c-2 -36 0 -38 28 -38 28 0 30 3 30 35 0 41 -17 47 -22 8
-5 -39 -26 -40 -31 -1 l-4 33 -1 -37z"/>
<path d="M991 2903 c1 -28 3 -31 6 -13 3 14 10 31 15 38 8 9 6 12 -6 12 -12 0
-16 -9 -15 -37z"/>
<path d="M1035 2930 c-8 -14 3 -30 21 -30 8 0 14 -5 14 -11 0 -7 -9 -9 -21 -6
-15 4 -19 3 -12 -4 14 -14 45 -8 51 9 2 7 -5 16 -17 19 -12 3 -21 10 -21 15 0
5 10 6 21 3 15 -5 19 -4 15 4 -9 14 -43 14 -51 1z"/>
<path d="M1110 2926 c-27 -33 18 -72 48 -42 13 13 14 20 6 34 -15 23 -38 26
-54 8z m43 -8 c6 -19 -3 -38 -18 -38 -7 0 -15 6 -18 13 -6 18 3 37 18 37 7 0
15 -6 18 -12z"/>
<path d="M1320 2920 c-9 -16 -8 -25 1 -36 13 -16 45 -19 54 -4 4 7 -2 9 -19 4
-16 -4 -26 -2 -26 5 0 6 12 11 26 11 19 0 25 5 22 18 -5 26 -44 27 -58 2z m45
0 c3 -5 -3 -10 -15 -10 -12 0 -18 5 -15 10 3 6 10 10 15 10 5 0 12 -4 15 -10z"/>
<path d="M1401 2903 c1 -36 2 -37 8 -8 3 17 13 30 21 30 8 0 18 -13 22 -30 6
-29 6 -29 5 5 -2 30 -6 35 -29 38 -26 3 -28 1 -27 -35z"/>
<path d="M1520 2920 c-9 -16 -8 -25 1 -36 14 -17 45 -19 55 -3 4 7 0 9 -14 5
-11 -4 -23 -2 -27 4 -4 6 4 10 20 10 20 0 26 4 23 18 -5 26 -44 27 -58 2z m45
0 c3 -5 -3 -10 -15 -10 -12 0 -18 5 -15 10 3 6 10 10 15 10 5 0 12 -4 15 -10z"/>
<path d="M1600 2924 c0 -9 9 -18 20 -21 11 -3 20 -10 20 -15 0 -6 -9 -8 -20
-5 -11 3 -20 1 -20 -5 0 -17 45 -4 48 15 2 12 -3 17 -17 17 -12 0 -21 5 -21
11 0 6 9 9 20 6 11 -3 18 -1 14 4 -9 15 -44 10 -44 -7z"/>
<path d="M1871 2922 c-13 -25 8 -56 35 -50 29 5 27 62 -3 66 -13 2 -26 -4 -32
-16z m46 -8 c8 -21 -13 -42 -28 -27 -13 13 -5 43 11 43 6 0 13 -7 17 -16z"/>
<path d="M2020 2918 c0 -13 5 -30 10 -38 7 -11 10 -5 10 23 0 20 -4 37 -10 37
-5 0 -10 -10 -10 -22z"/>
<path d="M2092 2923 c-19 -36 33 -76 54 -42 4 7 0 9 -14 5 -11 -4 -23 -2 -27
4 -4 6 4 10 20 10 20 0 26 4 23 18 -5 24 -44 28 -56 5z m43 -3 c3 -5 -3 -10
-15 -10 -12 0 -18 5 -15 10 3 6 10 10 15 10 5 0 12 -4 15 -10z"/>
<path d="M7120 2888 c-37 -10 -63 -28 -41 -28 7 0 9 -4 6 -10 -3 -5 -4 -14 -1
-19 9 -13 90 32 94 52 4 19 -7 20 -58 5z"/>
<path d="M3943 2843 c-3 -10 -10 -21 -15 -24 -5 -3 8 -17 28 -32 l37 -26 19
24 c19 24 24 51 11 58 -5 3 -23 8 -41 12 -26 5 -33 3 -39 -12z"/>
<path d="M7410 2815 c0 -9 6 -12 15 -9 9 4 15 0 15 -10 0 -8 -11 -18 -25 -22
-22 -5 -45 -30 -45 -47 0 -3 16 0 35 6 24 7 35 16 35 30 0 16 5 18 27 12 l27
-6 -19 23 c-35 41 -65 52 -65 23z"/>
<path d="M4770 2785 c-7 -9 -8 -15 -2 -15 5 0 12 7 16 15 3 8 4 15 2 15 -2 0
-9 -7 -16 -15z"/>
<path d="M4144 2776 c-5 -6 -34 -46 -62 -88 -51 -75 -52 -78 -28 -78 17 0 28
8 38 30 7 17 15 30 18 30 16 0 88 -63 115 -99 32 -43 45 -51 45 -26 0 8 -4 15
-10 15 -5 0 -10 5 -10 10 0 22 22 8 31 -20 6 -16 15 -28 19 -25 5 3 17 -6 28
-20 28 -35 48 -32 23 4 -12 16 -21 34 -21 41 0 14 -67 102 -85 113 -8 4 -12
14 -9 21 3 8 -11 25 -35 42 -22 16 -41 36 -43 45 -2 13 -6 14 -14 5z"/>
<path d="M818 2748 c-6 -17 2 -88 11 -88 7 0 7 88 -1 95 -3 3 -8 0 -10 -7z"/>
<path d="M1215 2744 c-20 -20 -15 -36 13 -49 28 -12 29 -29 2 -22 -11 3 -20 1
-20 -4 0 -13 34 -11 48 3 19 19 15 66 -7 78 -15 7 -24 6 -36 -6z m39 -12 c8
-13 -11 -35 -23 -28 -16 10 -14 36 3 36 8 0 17 -4 20 -8z"/>
<path d="M6950 2744 c0 -8 5 -12 10 -9 6 4 8 11 5 16 -9 14 -15 11 -15 -7z"/>
<path d="M697 2743 c-6 -11 4 -83 12 -83 3 0 6 18 6 39 -1 39 -9 60 -18 44z"/>
<path d="M943 2705 c0 -27 2 -38 4 -22 2 15 2 37 0 50 -2 12 -4 0 -4 -28z"/>
<path d="M1050 2740 c-8 -5 -23 -11 -33 -14 -22 -7 -20 -44 4 -59 29 -18 49
-1 49 43 0 22 -1 40 -2 39 -2 0 -10 -4 -18 -9z m0 -45 c0 -28 -12 -32 -30 -10
-14 16 -6 35 16 35 8 0 14 -10 14 -25z"/>
<path d="M1320 2710 c0 -22 5 -40 10 -40 6 0 10 11 10 25 0 16 6 25 15 25 9 0
15 -9 15 -25 0 -14 5 -25 11 -25 6 0 9 12 7 28 -2 19 -9 28 -25 30 -13 2 -23
8 -23 13 0 5 -4 9 -10 9 -5 0 -10 -18 -10 -40z"/>
<path d="M157 2723 c-4 -3 -7 -17 -7 -30 0 -26 25 -42 42 -25 7 7 4 10 -8 9
-13 -1 -20 6 -22 22 -3 20 0 23 17 18 12 -3 21 -1 21 4 0 10 -33 12 -43 2z"/>
<path d="M221 2716 c-9 -11 -10 -20 -1 -35 19 -36 64 -20 58 20 -4 28 -39 37
-57 15z m47 -18 c-2 -13 -10 -23 -18 -23 -8 0 -16 10 -18 23 -3 17 2 22 18 22
16 0 21 -5 18 -22z"/>
<path d="M301 2693 c1 -36 2 -36 8 -9 9 43 31 45 32 4 l1 -33 9 33 c11 37 30
38 41 1 6 -22 7 -21 5 6 -2 28 -5 30 -49 33 l-48 3 1 -38z"/>
<path d="M463 2700 c2 -31 5 -35 30 -36 25 -1 27 2 26 35 l-1 36 -9 -33 c-12
-39 -31 -37 -41 4 -6 27 -6 27 -5 -6z"/>
<path d="M541 2693 c1 -36 2 -36 8 -9 8 38 31 47 31 12 0 -14 5 -26 10 -26 6
0 10 11 10 25 0 38 28 32 33 -7 4 -32 4 -32 5 5 l2 37 -50 0 -50 0 1 -37z"/>
<path d="M741 2716 c-9 -11 -10 -20 -1 -36 13 -24 38 -23 53 1 23 37 -25 68
-52 35z m44 -21 c0 -28 -29 -25 -33 3 -3 19 0 23 15 20 10 -2 18 -12 18 -23z"/>
<path d="M878 2723 c12 -2 22 -8 22 -13 0 -5 -10 -10 -22 -12 -28 -4 -30 -32
-3 -35 11 -2 14 0 8 3 -7 3 -13 10 -13 15 0 15 22 10 37 -8 12 -16 13 -14 11
17 -3 31 -6 35 -33 37 -20 1 -23 0 -7 -4z"/>
<path d="M1091 2716 c-9 -11 -10 -20 -1 -35 11 -22 35 -28 45 -11 3 5 0 7 -8
4 -8 -3 -18 -1 -22 5 -4 7 4 11 20 11 20 0 26 4 23 18 -4 22 -41 27 -57 8z
m39 -6 c0 -5 -7 -10 -15 -10 -8 0 -15 5 -15 10 0 6 7 10 15 10 8 0 15 -4 15
-10z"/>
<path d="M1406 2714 c-8 -22 12 -56 31 -52 22 4 38 32 30 52 -8 21 -53 21 -61
0z m51 -9 c5 -16 -14 -38 -26 -31 -18 12 -13 48 6 44 9 -2 18 -7 20 -13z"/>
<path d="M1480 2700 c0 -16 5 -30 10 -30 6 0 10 11 10 24 0 13 6 27 13 29 6 3
2 6 -10 6 -19 1 -23 -4 -23 -29z"/>
<path d="M1560 2720 l25 -7 -28 -12 c-36 -14 -30 -35 9 -38 28 -1 30 1 26 33
-4 29 -8 34 -31 33 l-26 -1 25 -8z m12 -42 c-9 -9 -15 -9 -24 0 -9 9 -7 12 12
12 19 0 21 -3 12 -12z"/>
<path d="M1610 2716 c0 -8 9 -18 20 -21 11 -3 20 -11 20 -16 0 -6 -9 -7 -21
-4 -15 5 -19 4 -15 -4 10 -15 31 -14 46 4 10 12 7 17 -16 26 l-29 12 25 7 25
8 -27 1 c-18 1 -28 -4 -28 -13z"/>
<path d="M6877 2692 c-15 -10 -25 -23 -22 -29 2 -7 -3 -13 -13 -13 -11 0 -7
-5 12 -15 32 -17 45 -13 27 9 -9 11 -7 15 11 20 36 9 48 7 48 -9 0 -8 5 -15
10 -15 16 0 12 18 -12 45 -25 29 -24 29 -61 7z"/>
<path d="M4705 2680 c3 -5 8 -10 11 -10 2 0 4 5 4 10 0 6 -5 10 -11 10 -5 0
-7 -4 -4 -10z"/>
<path d="M4763 2679 c9 -5 17 -15 17 -20 0 -6 -4 -8 -8 -5 -4 2 -14 1 -22 -4
-11 -7 -4 -9 23 -8 20 1 37 3 37 6 0 7 -45 41 -55 41 -5 0 -2 -4 8 -10z"/>
<path d="M6005 2681 c-6 -11 9 -23 19 -14 9 9 7 23 -3 23 -6 0 -12 -4 -16 -9z"/>
<path d="M6265 2640 c3 -5 11 -10 16 -10 6 0 7 5 4 10 -3 6 -11 10 -16 10 -6
0 -7 -4 -4 -10z"/>
<path d="M7340 2640 c0 -5 7 -10 16 -10 8 0 12 5 9 10 -3 6 -10 10 -16 10 -5
0 -9 -4 -9 -10z"/>
<path d="M5992 2610 c-11 -17 -9 -20 13 -26 21 -5 23 -9 14 -21 -9 -10 -9 -17
-1 -25 9 -9 12 -9 12 -1 0 7 14 11 31 11 16 -1 38 6 47 15 15 16 14 17 -15 17
-23 0 -32 5 -36 21 -4 15 -11 20 -21 16 -9 -4 -16 -2 -16 3 0 16 -14 11 -28
-10z"/>
<path d="M7770 2627 c0 -3 12 -12 26 -22 15 -9 23 -12 20 -6 -7 11 -46 35 -46
28z"/>
<path d="M5120 2611 c0 -5 -8 -12 -19 -16 -13 -4 -17 -12 -13 -31 4 -21 9 -25
36 -22 23 2 31 8 30 24 0 12 -7 29 -17 38 -9 10 -17 13 -17 7z"/>
<path d="M7395 2610 c3 -5 8 -10 11 -10 2 0 4 5 4 10 0 6 -5 10 -11 10 -5 0
-7 -4 -4 -10z"/>
<path d="M7445 2610 c3 -5 11 -10 16 -10 6 0 7 5 4 10 -3 6 -11 10 -16 10 -6
0 -7 -4 -4 -10z"/>
<path d="M3992 2508 c-37 -107 -41 -134 -12 -100 16 19 70 162 70 185 0 4 -6
7 -13 7 -7 0 -27 -41 -45 -92z"/>
<path d="M6718 2593 c6 -2 18 -2 25 0 6 3 1 5 -13 5 -14 0 -19 -2 -12 -5z"/>
<path d="M4883 2570 c-29 -12 -29 -14 1 -33 22 -15 25 -15 38 0 11 14 10 15
-12 8 -25 -8 -25 -8 -6 14 20 22 15 25 -21 11z"/>
<path d="M7415 2560 c-18 -8 -17 -9 8 -9 16 -1 26 3 22 9 -3 6 -7 10 -8 9 -1
0 -11 -4 -22 -9z"/>
<path d="M5185 2550 c3 -5 8 -10 11 -10 2 0 4 5 4 10 0 6 -5 10 -11 10 -5 0
-7 -4 -4 -10z"/>
<path d="M6823 2533 c2 -22 -1 -33 -9 -33 -8 0 -11 6 -8 15 4 10 0 15 -11 15
-11 0 -15 -5 -12 -14 4 -9 -2 -17 -14 -21 -10 -4 -19 -10 -19 -15 0 -5 -14
-12 -31 -15 -24 -6 -28 -9 -18 -17 11 -7 11 -11 2 -15 -23 -9 -14 -21 32 -43
25 -12 43 -26 39 -31 -3 -5 8 -9 24 -9 29 0 72 35 72 58 0 7 6 12 14 12 8 0
17 17 21 43 12 65 12 69 -15 84 -22 14 -23 14 -7 0 17 -14 16 -15 -10 -14 -15
1 -34 9 -41 17 -11 13 -13 10 -9 -17z m2 -153 c-10 -11 -21 -17 -24 -14 -3 3
3 12 13 20 28 20 32 17 11 -6z"/>
<path d="M6635 2520 c-10 -11 -22 -17 -26 -14 -5 3 -16 1 -25 -4 -15 -8 -14
-12 10 -27 31 -20 50 -10 61 32 8 33 2 38 -20 13z"/>
<path d="M7460 2533 c0 -4 14 -17 30 -28 16 -11 30 -23 30 -27 0 -5 7 -8 15
-8 8 0 15 5 15 10 0 6 -6 10 -14 10 -7 0 -19 7 -26 16 -17 19 -50 37 -50 27z"/>
<path d="M4790 2505 c-14 -15 -18 -25 -11 -25 8 0 11 -6 7 -16 -5 -12 -2 -15
11 -9 10 4 26 10 36 12 11 4 16 11 13 20 -8 21 6 13 53 -29 22 -21 41 -44 41
-51 0 -7 13 -23 30 -35 34 -26 48 -29 25 -6 -9 9 -14 23 -10 32 3 8 0 21 -6
28 -8 10 -8 14 0 14 6 0 11 -4 11 -10 0 -5 5 -10 10 -10 25 0 3 35 -27 44 -18
6 -22 4 -17 -8 10 -27 -9 -18 -55 25 -24 22 -49 38 -57 35 -8 -3 -14 -1 -14 4
0 17 -16 11 -40 -15z"/>
<path d="M5375 2510 c3 -5 8 -10 11 -10 2 0 4 5 4 10 0 6 -5 10 -11 10 -5 0
-7 -4 -4 -10z"/>
<path d="M7005 2480 c-4 -6 -2 -17 4 -23 15 -15 25 -2 13 19 -7 12 -11 13 -17
4z"/>
<path d="M4376 2448 c3 -4 11 -5 19 -1 21 7 19 12 -4 10 -11 0 -18 -5 -15 -9z"/>
<path d="M6590 2446 c0 -13 28 -36 44 -36 15 0 4 19 -19 34 -21 14 -25 14 -25
2z"/>
<path d="M7079 2424 c-12 -14 -11 -16 5 -13 11 2 21 10 24 17 5 17 -13 15 -29
-4z"/>
<path d="M3922 2377 c-14 -17 -26 -67 -16 -67 18 1 54 48 48 64 -7 19 -18 20
-32 3z"/>
<path d="M6544 2375 c26 -19 42 -19 26 0 -7 8 -20 15 -29 15 -13 -1 -13 -3 3
-15z"/>
<path d="M7109 2357 c-29 -25 -44 -57 -27 -57 6 0 21 8 32 17 12 10 15 11 9 3
-7 -8 -13 -18 -13 -22 0 -12 68 -10 75 2 3 6 16 10 28 10 22 1 22 1 2 16 -11
8 -30 24 -43 34 -28 25 -31 25 -63 -3z"/>
<path d="M3976 2338 c-3 -13 -6 -30 -6 -38 1 -13 2 -13 9 0 16 27 22 60 13 60
-5 0 -12 -10 -16 -22z"/>
<path d="M6275 2312 c-20 -13 -10 -36 24 -56 29 -17 34 -17 28 -4 -3 9 -1 18
5 20 8 3 7 10 -1 26 -12 22 -37 28 -56 14z"/>
<path d="M5425 2290 c7 -24 7 -24 -8 -5 -29 38 -26 9 4 -39 17 -26 35 -64 42
-84 9 -29 18 -38 39 -40 l28 -3 -15 35 c-21 49 -98 166 -90 136z m43 -85 c-3
-3 -9 2 -12 12 -6 14 -5 15 5 6 7 -7 10 -15 7 -18z"/>
<path d="M7517 2291 c-4 -17 3 -27 31 -46 43 -29 52 -31 52 -9 0 11 5 14 18 9
34 -14 47 -10 49 15 1 14 0 18 -3 8 -3 -10 -13 -18 -22 -18 -13 0 -14 2 -4 9
19 11 -30 42 -78 48 -32 5 -38 2 -43 -16z"/>
<path d="M7210 2290 c-12 -8 -9 -10 13 -10 15 0 27 5 27 10 0 13 -20 13 -40 0z"/>
<path d="M6490 2270 c-12 -7 -12 -12 0 -35 10 -18 16 -22 22 -13 7 12 12 4 9
-16 -4 -18 11 -46 25 -46 16 0 18 11 5 26 -15 16 -22 64 -10 64 8 0 8 4 -1 15
-14 17 -29 19 -50 5z"/>
<path d="M7239 2270 c-9 -5 -33 -10 -55 -11 -21 -1 -54 -4 -73 -6 l-34 -6 37
-12 c46 -16 54 -24 37 -34 -10 -7 -10 -10 -1 -16 8 -5 16 -1 22 9 7 12 14 14
28 6 24 -13 33 -13 25 0 -3 6 0 10 9 10 8 0 16 -4 18 -9 4 -13 97 -16 126 -4
22 9 23 10 6 24 -13 11 -18 11 -21 2 -3 -7 -12 -13 -20 -13 -11 0 -14 7 -9 25
5 18 1 27 -13 35 -24 12 -61 13 -82 0z m64 -7 c-7 -2 -21 -2 -30 0 -10 3 -4 5
12 5 17 0 24 -2 18 -5z m-3 -23 c12 -8 9 -10 -12 -10 -15 0 -30 5 -33 10 -8
13 25 13 45 0z"/>
<path d="M6350 2260 c0 -5 5 -10 10 -10 6 0 10 5 10 10 0 6 -4 10 -10 10 -5 0
-10 -4 -10 -10z"/>
<path d="M6417 2213 c-6 -33 9 -77 24 -68 5 4 8 12 6 18 -2 7 2 19 10 28 12
14 12 19 -2 33 -23 23 -32 20 -38 -11z"/>
<path d="M7567 2209 c7 -7 15 -10 18 -7 3 3 -2 9 -12 12 -14 6 -15 5 -6 -5z"/>
<path d="M7075 2201 c-3 -5 -1 -12 5 -16 5 -3 10 1 10 9 0 18 -6 21 -15 7z"/>
<path d="M6352 2188 c-14 -14 -16 -28 -3 -28 9 0 24 30 18 36 -2 2 -9 -2 -15
-8z"/>
<path d="M6380 2190 c0 -5 5 -10 11 -10 5 0 7 5 4 10 -3 6 -8 10 -11 10 -2 0
-4 -4 -4 -10z"/>
<path d="M6620 2179 c-11 -19 -10 -20 9 -9 22 11 29 30 11 30 -5 0 -14 -9 -20
-21z"/>
<path d="M7230 2160 c0 -5 4 -10 10 -10 19 0 -3 -30 -26 -36 -13 -3 -28 -12
-34 -19 -9 -11 -2 -17 37 -28 45 -13 48 -13 51 4 2 11 10 19 18 19 8 0 14 5
14 10 0 6 -5 9 -11 8 -6 -2 -15 7 -20 20 -5 13 -5 22 1 22 6 0 10 5 10 10 0 6
-11 10 -25 10 -14 0 -25 -4 -25 -10z"/>
<path d="M6680 2155 c0 -3 7 -14 16 -23 15 -14 16 -14 13 3 -4 17 -29 35 -29
20z"/>
<path d="M6132 2133 c-18 -4 -22 -10 -20 -34 2 -25 6 -29 31 -29 35 0 70 18
61 31 -3 5 0 16 6 24 11 13 7 15 -21 14 -19 -1 -44 -4 -57 -6z"/>
<path d="M7354 2097 c-10 -5 -34 -26 -52 -46 -48 -53 -60 -119 -13 -72 12 12
24 21 29 21 4 0 22 21 41 45 18 25 41 45 51 45 15 0 12 -6 -12 -32 -17 -18
-35 -33 -39 -33 -5 0 -16 -10 -24 -22 -9 -13 -12 -23 -6 -23 5 0 13 5 17 11 5
8 9 8 14 -1 5 -9 16 0 35 29 33 49 56 56 25 7 -22 -37 -17 -48 17 -35 23 8 46
45 56 90 6 25 6 25 -57 26 -35 0 -72 -4 -82 -10z"/>
<path d="M7537 2054 c-3 -20 0 -24 19 -24 29 0 31 21 5 37 -16 10 -20 9 -24
-13z"/>
<path d="M5605 2020 c3 -5 13 -10 21 -10 8 0 12 5 9 10 -3 6 -13 10 -21 10 -8
0 -12 -4 -9 -10z"/>
<path d="M6828 2003 c7 -3 16 -2 19 1 4 3 -2 6 -13 5 -11 0 -14 -3 -6 -6z"/>
<path d="M6250 1991 c0 -5 9 -7 20 -4 11 3 20 7 20 9 0 2 -9 4 -20 4 -11 0
-20 -4 -20 -9z"/>
<path d="M6788 1993 c7 -3 16 -2 19 1 4 3 -2 6 -13 5 -11 0 -14 -3 -6 -6z"/>
<path d="M6620 1886 c0 -16 37 -46 57 -46 17 0 16 28 -1 46 -19 18 -56 18 -56
0z"/>
<path d="M6820 1880 c0 -5 -7 -10 -16 -12 -14 -3 -14 -6 3 -27 25 -31 53 -23
46 13 -5 23 -33 46 -33 26z"/>
<path d="M160 1845 c-7 -8 -10 -18 -6 -22 3 -3 6 -1 6 5 0 7 9 12 20 12 27 0
25 -16 -5 -36 -36 -24 -32 -44 8 -43 l32 2 -29 4 -29 5 29 23 c24 19 27 27 18
41 -15 25 -29 27 -44 9z"/>
<path d="M1437 1848 c-9 -5 -17 -14 -17 -20 0 -9 3 -9 12 0 7 7 18 12 25 12
22 0 14 -26 -12 -40 -36 -19 -32 -40 8 -39 23 1 26 3 10 6 -28 5 -29 14 -3 31
39 24 16 73 -23 50z"/>
<path d="M1517 1848 c-32 -17 -16 -88 20 -88 18 0 36 38 29 65 -7 27 -26 36
-49 23z m31 -40 c-4 -39 -25 -48 -34 -14 -7 29 1 46 22 46 11 0 14 -9 12 -32z"/>
<path d="M1597 1848 c-9 -5 -17 -14 -17 -20 0 -9 3 -9 12 0 7 7 18 12 25 12
22 0 14 -26 -12 -40 -36 -19 -32 -40 8 -39 23 1 26 3 10 6 -28 5 -29 14 -3 31
39 24 16 73 -23 50z"/>
<path d="M236 1841 c-3 -4 6 -6 19 -3 32 6 32 -13 0 -34 -36 -23 -32 -44 8
-43 23 1 26 3 10 6 -28 5 -29 14 -3 31 29 18 26 52 -4 52 -14 0 -27 -4 -30 -9z"/>
<path d="M390 1840 c0 -5 -9 -10 -19 -10 -24 0 -34 -26 -20 -51 6 -13 18 -19
32 -17 18 2 23 11 25 46 2 25 -1 42 -7 42 -6 0 -11 -4 -11 -10z m0 -46 c0 -31
-23 -28 -28 4 -2 15 2 22 12 22 11 0 16 -9 16 -26z"/>
<path d="M595 1840 c-3 -5 -15 -10 -25 -10 -23 0 -36 -36 -20 -55 7 -8 23 -15
36 -15 22 0 24 4 24 45 0 45 -4 54 -15 35z m2 -35 c5 -16 -14 -38 -26 -31 -18
12 -13 48 6 44 9 -2 18 -7 20 -13z"/>
<path d="M980 1808 c0 -40 3 -48 19 -48 41 0 56 61 16 69 -11 2 -23 8 -27 15
-4 6 -8 -10 -8 -36z m47 -3 c5 -16 -14 -38 -26 -31 -18 12 -13 48 6 44 9 -2
18 -7 20 -13z"/>
<path d="M1270 1841 c0 -5 -10 -11 -22 -13 -42 -6 -30 -68 13 -68 16 0 19 8
19 45 0 25 -2 45 -5 45 -3 0 -5 -4 -5 -9z m-2 -43 c-4 -27 -23 -34 -32 -13 -8
21 1 35 20 35 10 0 14 -8 12 -22z"/>
<path d="M1666 1841 c-4 -5 4 -7 16 -3 18 4 20 2 14 -13 -4 -11 -2 -22 6 -26
10 -6 10 -11 1 -20 -9 -9 -16 -9 -29 2 -15 12 -17 12 -12 -1 2 -8 16 -15 29
-15 21 0 24 5 27 43 3 39 1 42 -22 42 -14 0 -27 -4 -30 -9z"/>
<path d="M431 1816 c-9 -11 -10 -20 -1 -35 12 -23 27 -26 50 -10 12 8 10 9 -7
4 -12 -3 -24 -1 -28 5 -4 6 4 10 20 10 20 0 26 4 23 18 -4 22 -41 27 -57 8z
m39 -6 c0 -5 -7 -10 -15 -10 -8 0 -15 5 -15 10 0 6 7 10 15 10 8 0 15 -4 15
-10z"/>
<path d="M632 1813 c-18 -33 24 -74 43 -43 3 5 0 7 -8 4 -8 -3 -18 -1 -22 5
-4 7 4 11 20 11 20 0 26 4 23 18 -5 24 -44 28 -56 5z m38 -3 c0 -5 -7 -10 -15
-10 -8 0 -15 5 -15 10 0 6 7 10 15 10 8 0 15 -4 15 -10z"/>
<path d="M724 1821 c14 -5 16 -10 8 -15 -7 -4 -17 -16 -22 -27 -10 -17 -7 -19
22 -18 18 1 25 3 16 6 -22 6 -23 17 -3 33 23 19 18 30 -12 29 -24 0 -25 -2 -9
-8z"/>
<path d="M781 1816 c-9 -11 -10 -20 -1 -35 11 -22 35 -28 45 -11 3 5 0 7 -8 4
-8 -3 -18 -1 -22 5 -4 7 4 11 20 11 20 0 26 4 23 18 -4 22 -41 27 -57 8z m39
-6 c0 -5 -7 -10 -15 -10 -8 0 -15 5 -15 10 0 6 7 10 15 10 8 0 15 -4 15 -10z"/>
<path d="M861 1798 c2 -30 2 -31 6 -5 2 15 11 27 19 27 8 0 14 -11 15 -27 l1
-28 7 25 c10 34 34 31 43 -5 6 -29 6 -29 5 5 -2 34 -3 35 -49 38 l-48 3 1 -33z"/>
<path d="M1061 1793 c1 -28 3 -31 6 -13 3 14 10 31 15 38 8 9 6 12 -6 12 -12
0 -16 -9 -15 -37z"/>
<path d="M1105 1810 c-7 -23 10 -50 30 -50 20 0 37 27 30 50 -4 13 -15 20 -30
20 -15 0 -26 -7 -30 -20z m45 -15 c0 -15 -6 -25 -14 -25 -16 0 -25 19 -18 38
8 22 32 13 32 -13z"/>
<path d="M1307 1823 c-4 -3 -7 -17 -7 -29 0 -27 36 -43 54 -24 8 9 6 11 -11 6
-12 -4 -24 -2 -28 4 -4 6 4 10 18 10 30 0 40 10 26 27 -12 14 -41 18 -52 6z
m43 -13 c0 -5 -7 -10 -15 -10 -8 0 -15 5 -15 10 0 6 7 10 15 10 8 0 15 -4 15
-10z"/>
<path d="M6755 1800 c3 -5 15 -10 26 -10 10 0 19 5 19 10 0 6 -12 10 -26 10
-14 0 -23 -4 -19 -10z"/>
<path d="M6360 1764 c0 -8 5 -12 10 -9 6 3 10 10 10 16 0 5 -4 9 -10 9 -5 0
-10 -7 -10 -16z"/>
<path d="M3831 1741 c-1 -15 -6 -21 -15 -18 -9 4 -16 -3 -20 -16 -6 -23 4 -40
11 -19 3 6 9 10 14 6 12 -7 22 19 16 48 l-4 23 -2 -24z"/>
<path d="M5790 1735 c7 -9 15 -13 17 -11 7 7 -7 26 -19 26 -6 0 -6 -6 2 -15z"/>
<path d="M4652 1733 c-6 -2 -10 -9 -6 -14 3 -5 1 -9 -5 -9 -6 0 -8 -6 -5 -13
2 -7 -4 -22 -16 -32 -26 -24 -26 -38 1 -30 18 6 20 4 14 -14 -3 -12 -2 -21 3
-21 6 0 13 -12 17 -27 l7 -28 19 25 c10 14 19 30 19 36 0 6 18 28 41 48 22 21
38 43 36 49 -9 28 -86 46 -125 30z"/>
<path d="M3811 1633 c0 -10 4 -27 9 -38 7 -16 9 -13 9 18 1 20 -3 37 -9 37 -5
0 -10 -8 -9 -17z"/>
<path d="M7527 1643 c-7 -11 4 -23 41 -42 15 -8 22 -8 22 -1 0 6 -11 15 -24
20 -13 5 -26 14 -28 21 -3 9 -6 10 -11 2z"/>
<path d="M4582 1599 c-7 -11 -11 -23 -9 -25 7 -7 29 24 25 36 -2 6 -9 1 -16
-11z"/>
<path d="M7445 1520 c3 -5 8 -10 11 -10 2 0 4 5 4 10 0 6 -5 10 -11 10 -5 0
-7 -4 -4 -10z"/>
<path d="M6790 1490 c-14 -26 -12 -61 4 -83 13 -16 14 -16 21 10 15 55 15 81
0 87 -8 3 -19 -3 -25 -14z"/>
<path d="M7400 1489 c0 -23 21 -48 52 -58 l33 -12 -40 41 c-43 44 -45 45 -45
29z"/>
<path d="M6377 1470 c3 -11 9 -20 13 -20 5 0 6 9 3 20 -3 11 -9 20 -13 20 -5
0 -6 -9 -3 -20z"/>
<path d="M7008 1363 c7 -3 16 -2 19 1 4 3 -2 6 -13 5 -11 0 -14 -3 -6 -6z"/>
<path d="M0 1048 l0 -308 1025 0 1025 0 -6 73 c-3 39 -10 108 -14 152 -8 86 4
142 14 65 7 -52 26 -257 26 -277 0 -11 428 -13 2490 -13 1370 0 2490 4 2490 8
0 4 -109 143 -243 308 l-242 299 -1450 1 c-798 0 -1458 -1 -1467 -3 -12 -3
-19 -19 -24 -51 -3 -26 -14 -86 -24 -134 -9 -48 -15 -90 -12 -93 3 -3 30 -5
61 -6 31 0 65 -5 76 -10 14 -6 -5 -8 -60 -6 l-80 2 -12 -50 c-16 -73 -16 -125
1 -125 8 0 18 5 21 10 10 15 25 12 19 -4 -3 -8 -19 -18 -35 -21 -21 -5 -31
-14 -35 -33 -12 -55 -14 -59 -25 -39 -8 13 -7 22 1 32 7 8 16 43 20 77 5 35
12 85 16 111 l7 48 -59 -3 -59 -3 -1 -35 c-1 -99 -4 -121 -15 -114 -8 4 -9 30
-4 80 l7 74 -164 0 -164 0 -26 -53 c-24 -50 -25 -55 -11 -88 14 -33 15 -33 29
-15 10 14 17 17 25 9 7 -7 1 -14 -20 -23 -34 -14 -51 -7 -51 21 0 29 -13 23
-46 -21 -16 -22 -32 -40 -36 -40 -16 0 -7 20 21 52 38 44 91 128 91 146 0 11
-31 13 -165 10 l-165 -2 0 -29 c0 -44 -16 -65 -72 -93 -55 -28 -52 -47 7 -37
20 3 35 0 40 -7 10 -16 -3 -26 -17 -12 -7 7 -17 8 -29 1 -14 -7 -26 -4 -49 12
-24 18 -32 20 -44 9 -16 -13 -12 -35 5 -25 5 4 9 2 9 -3 0 -20 -30 -21 -40 -2
-7 13 -22 20 -43 21 -28 1 -26 3 18 14 112 28 135 37 165 61 20 17 30 35 30
53 l0 28 -207 7 c-230 7 -373 21 -388 38 -7 7 -1 9 20 4 45 -10 378 -27 470
-24 l80 3 -67 32 c-85 41 -184 57 -313 50 -94 -5 -239 -35 -277 -57 -39 -22
-43 -14 -46 98 -2 59 -1 104 2 101 4 -3 11 -43 16 -89 5 -46 11 -84 13 -86 2
-2 39 5 83 16 232 60 466 42 582 -44 32 -23 35 -23 215 -19 147 4 185 8 200
21 16 15 17 14 11 -1 -6 -16 12 -17 220 -17 124 0 226 3 226 8 0 4 9 60 20
125 11 65 20 123 20 128 0 5 -703 10 -1805 11 l-1805 3 0 -307z m423 143 c14
-11 17 -32 17 -107 0 -86 -2 -94 -22 -105 -27 -14 -155 -24 -192 -15 l-26 6 0
114 c0 62 3 116 8 120 13 13 197 2 215 -13z m249 8 c3 -9 9 -9 25 0 12 6 60
11 107 11 68 0 86 -3 86 -14 0 -31 -30 -46 -91 -46 -52 0 -59 -2 -59 -20 0
-18 7 -20 62 -20 75 0 98 -16 98 -70 0 -54 -25 -72 -109 -78 -75 -5 -121 12
-121 43 0 12 16 15 75 15 68 0 75 2 75 20 0 18 -7 20 -60 20 -69 0 -100 21
-100 68 l0 27 -65 -3 c-56 -3 -65 -6 -65 -23 0 -16 7 -19 49 -19 46 0 48 -1
43 -25 -4 -22 -9 -25 -49 -25 -37 0 -44 -3 -41 -17 2 -14 15 -19 61 -21 44 -2
59 -7 67 -23 17 -30 4 -39 -58 -39 -65 0 -122 14 -134 32 -4 7 -8 52 -8 100 0
79 2 88 22 102 27 19 184 23 190 5z m448 -7 c0 -30 -22 -42 -77 -42 -46 0 -53
-3 -53 -20 0 -17 7 -20 48 -20 44 0 47 -2 47 -25 0 -23 -3 -25 -47 -25 -41 0
-48 -3 -48 -20 0 -18 7 -20 54 -20 43 0 56 -4 67 -21 12 -18 14 -9 11 73 -5
126 0 132 112 137 69 2 86 0 86 -11 0 -30 -25 -47 -75 -50 l-50 -3 0 -60 0
-60 57 -3 c45 -2 60 -7 68 -23 19 -35 3 -42 -84 -35 -44 4 -90 6 -101 5 -11
-1 -58 -2 -103 -3 -109 -1 -122 11 -122 121 0 65 3 77 25 98 22 22 32 25 105
25 70 0 80 -2 80 -18z m1987 -3 c64 -11 76 -23 54 -57 -6 -10 -11 -6 -19 17
l-11 31 -85 0 c-51 0 -86 4 -86 10 0 13 68 13 147 -1z m-184 -6 c-7 -2 -19 -2
-25 0 -7 3 -2 5 12 5 14 0 19 -2 13 -5z m340 -29 c25 -8 52 -23 59 -32 7 -9 9
-14 3 -11 -45 22 -65 31 -100 43 -22 8 -33 15 -24 15 8 1 36 -6 62 -15z m-968
-30 c-27 -7 -63 -13 -80 -13 -24 1 -21 4 20 14 28 7 64 13 80 13 24 0 19 -3
-20 -14z m1746 -31 c6 -40 4 -83 -3 -83 -4 0 -8 7 -8 15 0 8 -2 15 -4 15 -2 0
-11 3 -20 6 -12 4 -16 0 -16 -15 0 -12 -4 -21 -10 -21 -5 0 -10 20 -10 45 0
45 0 45 35 45 19 0 35 -3 36 -7z m309 -37 c0 -37 -4 -45 -22 -49 -29 -8 -50
11 -46 42 2 18 10 27 26 29 12 2 22 8 22 13 0 5 5 9 10 9 6 0 10 -20 10 -44z
m150 4 c0 -36 3 -40 25 -40 18 0 25 5 25 19 0 26 25 44 50 36 23 -7 28 -50 6
-62 -8 -4 -40 -6 -70 -5 l-56 4 0 44 c0 24 5 44 10 44 6 0 10 -18 10 -40z
m425 -13 c0 -42 -12 -50 -17 -12 -4 32 -23 33 -23 3 0 -19 -7 -24 -35 -28 -19
-3 -41 -4 -47 -2 -21 7 -15 32 10 43 l22 10 -23 -5 c-15 -3 -22 0 -19 7 2 7
15 12 28 12 19 0 25 -6 27 -27 2 -16 8 -28 14 -28 6 0 8 12 5 29 -7 35 -5 37
30 35 25 -1 28 -4 28 -37z m-778 16 c3 -7 -3 -9 -16 -6 -16 4 -21 1 -21 -16 0
-26 10 -26 58 0 23 13 29 19 14 16 -15 -4 -22 -1 -19 6 2 7 15 12 28 12 19 0
25 -6 27 -27 4 -38 22 -36 22 2 0 21 5 30 16 30 11 0 14 -5 9 -17 -4 -10 -9
-25 -12 -35 -5 -17 -65 -29 -85 -17 -7 4 -20 3 -31 -2 -14 -8 -23 -6 -38 7
-11 10 -19 12 -19 6 0 -7 -4 -12 -10 -12 -5 0 -10 14 -10 30 0 17 5 30 10 30
6 0 10 -5 10 -11 0 -6 7 -3 16 6 18 18 45 17 51 -2z m267 11 c22 -8 20 -51 -2
-63 -37 -20 -70 27 -40 57 14 14 20 14 42 6z m272 -34 c1 -26 1 -28 -3 -7 -6
34 -33 36 -33 2 0 -14 -4 -25 -10 -25 -5 0 -10 16 -10 36 0 33 2 35 28 32 23
-3 27 -8 28 -38z m92 11 c7 -47 -6 -71 -39 -71 -17 0 -28 4 -25 9 3 5 15 7 26
4 12 -3 20 0 20 6 0 7 -6 11 -12 10 -30 -4 -38 3 -38 29 0 36 8 44 40 40 18
-2 26 -10 28 -27z m220 17 c30 -30 -4 -77 -41 -57 -20 11 -23 55 -4 62 21 9
32 8 45 -5z m312 2 c0 -5 -2 -10 -4 -10 -3 0 -8 5 -11 10 -3 6 -1 10 4 10 6 0
11 -4 11 -10z m267 -37 c-3 -10 -5 -2 -5 17 0 19 2 27 5 18 2 -10 2 -26 0 -35z
m-185 11 c-3 -17 -8 -22 -15 -15 -7 7 -6 15 3 26 17 20 18 19 12 -11z m45 -11
c-3 -10 -5 -4 -5 12 0 17 2 24 5 18 2 -7 2 -21 0 -30z m255 10 c-3 -16 -7 -22
-10 -15 -4 13 4 42 11 42 2 0 2 -12 -1 -27z m49 8 c-6 -10 -7 -21 -3 -25 3 -4
-1 -4 -11 0 -9 3 -17 14 -17 23 0 12 2 13 9 3 7 -11 9 -11 14 2 4 9 9 16 12
16 3 0 1 -8 -4 -19z m104 9 c-3 -5 -11 -10 -16 -10 -6 0 -7 5 -4 10 3 6 11 10
16 10 6 0 7 -4 4 -10z m-518 -22 c-3 -8 -6 -5 -6 6 -1 11 2 17 5 13 3 -3 4
-12 1 -19z m30 -10 c-3 -7 -5 -2 -5 12 0 14 2 19 5 13 2 -7 2 -19 0 -25z m60
0 c-3 -7 -5 -2 -5 12 0 14 2 19 5 13 2 -7 2 -19 0 -25z m40 0 c-3 -7 -5 -2 -5
12 0 14 2 19 5 13 2 -7 2 -19 0 -25z m63 11 c-7 -11 -14 -18 -17 -15 -8 8 5
36 17 36 7 0 7 -6 0 -21z m263 1 c3 -11 1 -20 -4 -20 -5 0 -9 9 -9 20 0 11 2
20 4 20 2 0 6 -9 9 -20z m84 -12 c-3 -7 -5 -2 -5 12 0 14 2 19 5 13 2 -7 2
-19 0 -25z m60 0 c-3 -7 -5 -2 -5 12 0 14 2 19 5 13 2 -7 2 -19 0 -25z m-273
6 c3 -8 2 -12 -4 -9 -6 3 -10 10 -10 16 0 14 7 11 14 -7z m256 5 c0 -15 -18
-19 -23 -6 -3 8 1 14 9 14 8 0 14 -4 14 -8z m-3090 -58 c0 -32 -6 -56 -17 -69
-20 -23 -37 -31 -40 -19 -2 4 0 7 5 8 22 2 32 27 32 75 0 30 5 54 10 54 6 0
10 -22 10 -49z m480 -127 c0 -37 -5 -51 -29 -75 -16 -16 -38 -29 -49 -29 -24
0 -36 26 -22 48 8 15 9 14 10 -5 0 -33 17 -37 45 -9 45 45 30 139 -26 158 -8
3 -9 9 -4 18 6 10 16 5 42 -23 27 -31 33 -45 33 -83z m13 95 c-4 -13 -9 -17
-15 -11 -11 11 -3 32 12 32 4 0 6 -9 3 -21z m194 -72 c-2 -7 -12 5 -21 27 -23
54 -20 68 5 22 11 -21 18 -43 16 -49z m-1247 49 c0 -8 -8 -14 -17 -14 -10 0
-22 0 -28 -2 -25 -6 -85 1 -85 11 0 6 15 8 44 4 28 -5 46 -3 50 4 10 16 36 13
36 -3z m624 5 c3 -4 -1 -17 -9 -27 -14 -18 -14 -18 -15 9 0 26 13 36 24 18z
m731 -1 c3 -5 -3 -10 -15 -10 -12 0 -18 5 -15 10 3 6 10 10 15 10 5 0 12 -4
15 -10z m-420 -10 c-3 -5 -12 -10 -20 -10 -8 0 -17 5 -20 10 -4 6 5 10 20 10
15 0 24 -4 20 -10z m-842 -14 c6 -16 -2 -28 -14 -20 -12 7 -11 34 0 34 5 0 11
-6 14 -14z m-2043 -18 c0 -20 -16 -32 -25 -18 -3 5 -19 7 -35 3 -26 -5 -30 -2
-30 16 0 18 5 20 45 19 35 -2 45 -6 45 -20z m37 9 c0 -7 -6 -18 -14 -25 -11
-10 -13 -8 -13 13 0 14 6 25 13 25 8 0 14 -6 14 -13z m39 -3 c0 -9 5 -19 13
-22 10 -3 13 1 9 15 -4 16 0 20 24 21 15 0 26 -4 23 -9 -4 -5 -1 -9 4 -9 6 0
11 5 11 10 0 6 4 10 10 10 5 0 9 -11 8 -24 -2 -18 -6 -23 -17 -17 -8 5 -29 4
-48 -1 -18 -5 -38 -6 -43 -3 -12 8 -13 45 -1 45 5 0 8 -7 7 -16z m144 4 c0 -9
3 -9 12 0 16 16 28 15 28 -3 0 -8 4 -15 9 -15 5 0 11 7 15 15 11 29 46 11 46
-24 0 -8 -100 -4 -108 4 -3 3 -11 0 -19 -6 -10 -9 -13 -6 -13 15 0 16 5 26 15
26 8 0 15 -5 15 -12z m153 -8 c-3 -11 -9 -20 -14 -20 -5 0 -9 9 -9 20 0 11 6
20 14 20 9 0 12 -7 9 -20z m105 -3 c-3 -25 -36 -35 -50 -15 -7 10 -11 10 -15
0 -6 -16 -23 -5 -23 16 0 14 10 18 46 20 42 1 45 0 42 -21z m40 11 c9 -9 12
-9 12 0 0 7 5 12 10 12 11 0 14 -33 3 -43 -3 -4 -13 -2 -20 5 -11 9 -17 9 -24
-3 -6 -10 -9 -7 -9 14 0 29 9 34 28 15z m100 -5 c16 -16 17 -16 20 0 2 9 12
17 23 17 16 0 18 -3 9 -19 -7 -14 -6 -21 3 -24 6 -2 -10 -4 -36 -4 -28 0 -43
4 -35 8 9 6 8 10 -5 15 -9 3 -17 10 -17 15 0 14 20 10 38 -8z m95 1 c-3 -9 0
-20 8 -26 11 -7 9 -8 -6 -6 -24 4 -35 48 -11 48 10 0 13 -6 9 -16z m62 -24 c3
0 10 10 15 23 10 22 10 22 7 -3 -1 -18 -8 -25 -22 -25 -14 0 -21 7 -22 25 -3
25 -3 25 7 3 5 -13 12 -23 15 -23z m90 13 c2 -24 -9 -31 -20 -13 -3 5 -12 7
-20 3 -10 -3 -15 2 -15 17 0 32 53 25 55 -7z m35 7 c0 -11 -4 -20 -10 -20 -5
0 -10 9 -10 20 0 11 5 20 10 20 6 0 10 -9 10 -20z m43 0 c-3 -11 -9 -20 -13
-20 -4 0 -10 9 -13 20 -4 15 0 20 13 20 13 0 17 -5 13 -20z m67 9 c0 -3 -6
-13 -13 -23 -12 -17 -14 -16 -24 7 -11 23 -10 25 13 23 13 0 24 -4 24 -7z
m820 -9 c0 -5 -4 -10 -9 -10 -6 0 -13 5 -16 10 -3 6 1 10 9 10 9 0 16 -4 16
-10z m375 -32 c6 -6 -5 -8 -29 -6 -22 2 -41 9 -44 15 -4 15 56 7 73 -9z"/>
<path d="M280 1084 l0 -65 43 3 42 3 3 63 3 62 -46 0 -45 0 0 -66z"/>
<path d="M3990 1076 c0 -10 9 -16 21 -16 24 0 21 23 -4 28 -10 2 -17 -3 -17
-12z"/>
<path d="M4300 1055 c-14 -16 -5 -35 16 -35 15 0 20 35 5 44 -5 3 -14 -1 -21
-9z"/>
<path d="M4570 1040 c0 -15 5 -20 18 -18 9 2 17 10 17 18 0 8 -8 16 -17 18
-13 2 -18 -3 -18 -18z"/>
<path d="M4810 1030 c0 -5 5 -10 10 -10 6 0 10 5 10 10 0 6 -4 10 -10 10 -5 0
-10 -4 -10 -10z"/>
<path d="M4180 1030 c0 -5 5 -10 10 -10 6 0 10 5 10 10 0 6 -4 10 -10 10 -5 0
-10 -4 -10 -10z"/>
<path d="M4380 1040 c0 -15 5 -20 18 -18 9 2 17 10 17 18 0 8 -8 16 -17 18
-13 2 -18 -3 -18 -18z"/>
<path d="M4725 1050 c-8 -14 3 -30 21 -30 8 0 14 9 14 20 0 21 -24 28 -35 10z"/>
<path d="M4960 1040 c0 -11 7 -20 15 -20 8 0 15 9 15 20 0 11 -7 20 -15 20 -8
0 -15 -9 -15 -20z"/>
<path d="M750 885 c0 -8 5 -15 10 -15 6 0 10 7 10 15 0 8 -4 15 -10 15 -5 0
-10 -7 -10 -15z"/>
<path d="M7012 1328 c6 -18 28 -21 28 -4 0 9 -7 16 -16 16 -9 0 -14 -5 -12
-12z"/>
<path d="M7540 1201 c0 -18 35 -71 48 -71 6 0 12 4 12 9 0 5 3 16 6 25 4 11 1
16 -11 16 -11 0 -15 5 -11 15 4 11 -1 15 -19 15 -14 0 -25 -4 -25 -9z"/>
<path d="M7620 1171 c0 -6 5 -13 11 -17 7 -4 8 -9 0 -17 -12 -12 5 -51 20 -42
15 10 10 25 -8 26 -15 0 -15 2 -3 7 17 8 20 33 5 44 -14 11 -25 10 -25 -1z"/>
<path d="M7570 910 c-9 -6 -10 -10 -3 -10 6 0 15 5 18 10 8 12 4 12 -15 0z"/>
<path d="M6355 680 c-3 -5 -1 -10 4 -10 6 0 11 5 11 10 0 6 -2 10 -4 10 -3 0
-8 -4 -11 -10z"/>
<path d="M7780 214 c0 -5 5 -15 11 -21 8 -8 4 -16 -15 -28 -14 -10 -26 -24
-26 -31 0 -24 14 -15 38 22 22 33 22 38 8 52 -9 9 -16 12 -16 6z"/>
<path d="M5609 188 c-1 -7 0 -17 1 -23 1 -5 6 -39 12 -75 6 -36 15 -71 20 -77
12 -15 78 -17 78 -3 0 6 9 10 20 10 11 0 20 -4 20 -10 0 -5 6 -10 14 -10 14 0
10 30 -12 90 -10 28 -7 45 11 58 28 21 20 39 -20 45 -20 4 -40 4 -44 2 -4 -3
1 -30 12 -60 10 -30 19 -62 18 -72 0 -10 -5 -2 -11 17 -5 19 -16 40 -25 47 -8
6 -12 16 -8 22 3 6 0 11 -8 11 -8 0 -22 9 -32 20 -20 22 -44 26 -46 8z"/>
<path d="M3410 164 c-14 -36 -13 -49 3 -35 10 8 17 7 25 -1 14 -14 16 2 6 40
-8 29 -22 28 -34 -4z"/>
<path d="M3470 155 c0 -19 5 -35 10 -35 6 0 10 6 10 13 0 8 3 7 10 -3 5 -8 12
-11 16 -7 4 4 3 12 -4 19 -7 7 -8 17 -1 30 6 11 6 18 0 18 -5 0 -12 -6 -14
-12 -4 -10 -6 -10 -6 0 -2 29 -21 9 -21 -23z"/>
<path d="M3549 181 c10 -6 11 -13 2 -29 -16 -29 -14 -32 17 -31 21 0 23 2 9 7
-16 7 -16 9 -3 27 22 29 20 35 -11 35 -20 0 -24 -3 -14 -9z"/>
<path d="M3600 155 c0 -19 5 -35 10 -35 6 0 10 6 10 14 0 8 6 17 13 19 10 4
10 6 0 6 -19 1 -16 19 5 24 10 3 6 5 -10 6 -25 1 -28 -2 -28 -34z"/>
<path d="M3707 183 c-4 -3 -7 -17 -7 -30 0 -27 26 -41 43 -23 9 9 8 11 -8 8
-12 -2 -21 3 -23 15 -2 12 3 17 18 17 12 0 18 5 15 10 -7 11 -28 13 -38 3z"/>
<path d="M3781 158 c-6 -17 -8 -34 -5 -37 4 -3 9 0 11 7 4 10 8 10 19 1 16
-13 18 -1 8 39 -9 31 -20 28 -33 -10z"/>
<path d="M3840 153 c1 -33 2 -35 12 -19 11 19 11 19 24 1 13 -17 14 -15 14 18
0 33 -3 37 -25 37 -22 0 -25 -4 -25 -37z m35 17 c3 -5 -1 -10 -10 -10 -9 0
-13 5 -10 10 3 6 8 10 10 10 2 0 7 -4 10 -10z"/>
<path d="M3921 158 c-12 -33 -6 -52 8 -29 6 9 11 10 15 2 15 -24 24 -9 13 24
-13 43 -22 44 -36 3z"/>
<path d="M3980 155 c0 -34 13 -47 23 -22 4 10 6 10 6 0 1 -7 6 -13 11 -13 6 0
10 17 9 38 -1 32 -2 34 -8 12 l-7 -25 -8 23 c-11 34 -26 26 -26 -13z"/>
<path d="M4098 155 c5 -42 22 -47 22 -6 0 16 6 32 13 34 6 3 1 6 -13 6 -24 1
-26 -2 -22 -34z"/>
<path d="M4157 183 c-4 -3 -7 -17 -7 -30 0 -27 26 -41 43 -23 9 9 8 11 -8 8
-14 -2 -20 3 -20 17 0 14 6 19 19 17 11 -2 15 1 11 7 -7 12 -28 14 -38 4z"/>
<path d="M4229 171 c6 -10 6 -23 0 -33 -7 -12 -4 -15 14 -15 19 0 23 5 23 32
0 27 -4 33 -23 33 -18 0 -21 -4 -14 -17z"/>
<path d="M4299 181 c10 -6 11 -13 2 -29 -15 -29 -14 -32 12 -32 17 0 19 2 7
10 -12 7 -12 12 -2 22 19 19 14 38 -10 38 -17 0 -19 -3 -9 -9z"/>
<path d="M160 155 c0 -14 4 -24 10 -20 5 3 7 12 3 20 -6 17 22 21 30 5 3 -6 4
-5 3 2 -1 7 -12 14 -24 16 -18 3 -22 -2 -22 -23z"/>
<path d="M482 150 c0 -19 2 -27 5 -17 2 9 2 25 0 35 -3 9 -5 1 -5 -18z"/>
<path d="M1070 165 c-10 -12 -10 -15 2 -15 8 0 15 7 15 15 0 8 -1 15 -2 15 -2
0 -8 -7 -15 -15z"/>
<path d="M1701 161 c-28 -21 -23 -51 9 -51 16 0 20 6 20 35 0 19 -1 35 -2 35
-2 0 -14 -9 -27 -19z m19 -20 c0 -6 -4 -13 -10 -16 -5 -3 -10 1 -10 9 0 9 5
16 10 16 6 0 10 -4 10 -9z"/>
<path d="M2706 171 c-4 -5 -2 -20 3 -33 9 -21 10 -21 10 10 1 32 -3 39 -13 23z"/>
<path d="M792 145 c0 -16 2 -22 5 -12 2 9 2 23 0 30 -3 6 -5 -1 -5 -18z"/>
<path d="M1020 146 c0 -31 6 -34 13 -6 3 11 1 23 -4 26 -5 3 -9 -6 -9 -20z"/>
<path d="M2232 140 c0 -19 2 -27 5 -17 2 9 2 25 0 35 -3 9 -5 1 -5 -18z"/>
<path d="M3105 160 c-3 -5 -1 -10 4 -10 6 0 11 5 11 10 0 6 -2 10 -4 10 -3 0
-8 -4 -11 -10z"/>
<path d="M237 154 c-7 -8 3 -34 13 -34 9 0 8 26 -1 35 -3 3 -8 2 -12 -1z"/>
<path d="M270 145 c0 -8 2 -15 4 -15 2 0 6 7 10 15 3 8 1 15 -4 15 -6 0 -10
-7 -10 -15z"/>
<path d="M324 152 c-9 -5 -8 -11 2 -20 12 -11 14 -9 14 8 0 22 0 23 -16 12z"/>
<path d="M446 152 c-3 -5 1 -18 9 -28 14 -18 14 -18 15 3 0 23 -15 39 -24 25z"/>
<path d="M517 145 c-4 -8 -3 -16 1 -19 4 -3 9 4 9 15 2 23 -3 25 -10 4z"/>
<path d="M632 140 c0 -14 2 -19 5 -12 2 6 2 18 0 25 -3 6 -5 1 -5 -13z"/>
<path d="M699 149 c-9 -6 -2 -9 23 -9 20 0 39 -5 41 -10 3 -6 4 -5 3 2 -3 16
-50 28 -67 17z"/>
<path d="M828 153 c-10 -2 -18 -12 -17 -21 0 -11 2 -12 6 -4 2 6 11 12 19 12
8 0 14 5 14 10 0 6 -1 9 -2 9 -2 -1 -11 -3 -20 -6z"/>
<path d="M958 153 c-10 -2 -18 -12 -17 -21 0 -11 2 -12 6 -4 2 6 11 12 19 12
8 0 14 5 14 10 0 6 -1 9 -2 9 -2 -1 -11 -3 -20 -6z"/>
<path d="M995 149 c-4 -6 -5 -12 -2 -15 2 -3 7 2 10 11 7 17 1 20 -8 4z"/>
<path d="M1102 140 c0 -14 2 -19 5 -12 2 6 2 18 0 25 -3 6 -5 1 -5 -13z"/>
<path d="M1122 140 c0 -14 2 -19 5 -12 2 6 2 18 0 25 -3 6 -5 1 -5 -13z"/>
<path d="M1254 139 c0 -10 7 -17 16 -16 21 1 21 33 0 33 -9 0 -16 -8 -16 -17z"/>
<path d="M1412 140 c0 -14 2 -19 5 -12 2 6 2 18 0 25 -3 6 -5 1 -5 -13z"/>
<path d="M1560 156 c0 -4 7 -14 15 -22 8 -9 15 -11 15 -6 0 5 -7 15 -15 22 -8
7 -15 9 -15 6z"/>
<path d="M1604 148 c-3 -5 -1 -15 6 -21 10 -9 11 -9 6 0 -4 7 2 13 16 15 l23
3 -22 7 c-13 3 -26 2 -29 -4z"/>
<path d="M1743 143 c-3 -7 -2 -17 2 -23 8 -13 35 -13 35 1 0 5 -4 7 -10 4 -5
-3 -10 -1 -10 4 0 14 47 14 55 1 4 -6 -1 -7 -11 -3 -11 4 -15 3 -11 -4 9 -15
86 -10 96 6 6 10 10 9 14 -3 7 -17 37 -22 37 -6 0 6 -6 9 -12 8 -7 -2 -13 4
-12 12 1 18 -53 25 -73 9 -8 -8 -13 -8 -13 -1 0 14 -81 10 -87 -5z m137 -13
c0 -5 -4 -10 -10 -10 -5 0 -10 5 -10 10 0 6 5 10 10 10 6 0 10 -4 10 -10z"/>
<path d="M1950 150 c0 -5 6 -10 13 -10 9 0 8 -3 -2 -9 -10 -6 -10 -10 -1 -16
16 -10 32 8 24 28 -7 18 -34 24 -34 7z"/>
<path d="M2007 153 c-22 -21 8 -49 34 -31 11 8 10 9 -3 4 -10 -3 -18 -1 -18 4
0 6 7 10 16 10 8 0 12 5 9 10 -7 11 -28 13 -38 3z"/>
<path d="M2060 141 c0 -25 18 -37 33 -22 9 9 8 11 -5 6 -12 -5 -18 -2 -18 8 0
9 8 18 18 20 13 4 11 5 -5 6 -17 1 -23 -5 -23 -18z"/>
<path d="M2111 143 c0 -12 3 -24 9 -28 17 -10 58 6 63 26 7 25 -9 24 -30 -1
-22 -26 -31 -25 -36 3 -4 22 -4 22 -6 0z"/>
<path d="M2212 140 c0 -14 2 -19 5 -12 2 6 2 18 0 25 -3 6 -5 1 -5 -13z"/>
<path d="M2259 138 c5 -14 7 -29 4 -32 -4 -3 -2 -6 4 -6 6 0 14 7 17 16 8 21
8 39 -1 31 -3 -4 -12 -2 -20 5 -11 9 -12 7 -4 -14z"/>
<path d="M2330 141 c0 -25 18 -37 33 -21 9 9 9 11 -2 8 -21 -5 -25 20 -4 25
14 4 13 5 -4 6 -17 1 -23 -5 -23 -18z"/>
<path d="M2380 141 c0 -11 4 -22 10 -26 15 -9 60 6 60 21 0 20 18 17 23 -3 4
-17 5 -17 6 0 0 9 5 17 10 17 5 0 12 -8 14 -17 3 -13 5 -12 6 5 1 21 -2 23
-47 20 -27 -2 -49 -7 -48 -13 1 -5 -3 -10 -9 -10 -5 0 -9 6 -9 13 1 6 -2 12
-7 12 -5 0 -9 -9 -9 -19z"/>
<path d="M2568 153 c-10 -2 -18 -12 -17 -21 0 -11 2 -12 6 -4 2 6 11 12 19 12
8 0 14 5 14 10 0 6 -1 9 -2 9 -2 -1 -11 -3 -20 -6z"/>
<path d="M2762 140 c0 -14 2 -19 5 -12 2 6 2 18 0 25 -3 6 -5 1 -5 -13z"/>
<path d="M2852 140 c0 -14 2 -19 5 -12 2 6 2 18 0 25 -3 6 -5 1 -5 -13z"/>
<path d="M2896 144 c-3 -7 -1 -16 4 -19 6 -4 10 -2 10 4 0 5 8 11 18 13 14 3
13 5 -5 10 -14 4 -24 1 -27 -8z"/>
<path d="M2991 146 c-8 -9 -11 -19 -7 -23 3 -3 6 0 6 8 0 12 2 12 10 -1 12
-19 19 -10 11 13 -6 17 -8 18 -20 3z"/>
<path d="M3183 149 c-13 -4 -23 -14 -22 -21 0 -10 2 -10 6 0 2 6 9 12 14 12 6
0 7 -4 4 -10 -3 -5 -1 -10 4 -10 6 0 11 8 11 18 1 13 4 12 14 -7 12 -21 14
-22 20 -5 4 10 4 15 0 11 -4 -4 -12 0 -18 7 -8 10 -18 12 -33 5z"/>
<path d="M593 143 c9 -2 15 -9 12 -14 -4 -5 -1 -9 4 -9 6 0 11 7 11 15 0 9 -9
15 -22 14 -18 -1 -19 -2 -5 -6z"/>
<path d="M1215 141 c-3 -5 -2 -12 3 -15 5 -3 9 1 9 9 0 17 -3 19 -12 6z"/>
<path d="M1311 134 c0 -11 3 -14 6 -6 3 7 2 16 -1 19 -3 4 -6 -2 -5 -13z"/>
<path d="M1360 135 c-9 -10 -9 -15 -1 -15 6 0 11 5 11 10 0 6 5 10 11 10 5 0
7 -4 4 -10 -3 -5 -1 -10 4 -10 6 0 11 7 11 15 0 8 -6 15 -14 15 -7 0 -19 -7
-26 -15z"/>
<path d="M1460 133 c0 -11 3 -14 8 -7 4 6 14 14 22 17 10 4 8 6 -7 6 -16 1
-23 -5 -23 -16z"/>
<path d="M1511 147 c2 -1 12 -9 22 -16 15 -12 17 -12 11 3 -3 9 -13 16 -22 16
-8 0 -13 -1 -11 -3z"/>
<path d="M2731 134 c0 -11 3 -14 6 -6 3 7 2 16 -1 19 -3 4 -6 -2 -5 -13z"/>
<path d="M3263 143 c9 -2 23 -2 30 0 6 3 -1 5 -18 5 -16 0 -22 -2 -12 -5z"/>
<path d="M558 123 c6 -2 18 -2 25 0 6 3 1 5 -13 5 -14 0 -19 -2 -12 -5z"/>
<path d="M7684 79 c2 -20 8 -45 14 -55 10 -17 11 -17 11 6 0 14 -6 39 -14 55
l-15 30 4 -36z"/>
</g>
</svg>
