<?xml version="1.0" standalone="no"?>
<!DOCTYPE svg PUBLIC "-//W3C//DTD SVG 20010904//EN"
 "http://www.w3.org/TR/2001/REC-SVG-20010904/DTD/svg10.dtd">
<svg version="1.0" xmlns="http://www.w3.org/2000/svg"
 width="1672.000000pt" height="1664.000000pt" viewBox="0 0 1672.000000 1664.000000"
 preserveAspectRatio="xMidYMid meet">

<g transform="translate(0.000000,1664.000000) scale(0.100000,-0.100000)"
fill="#000000" stroke="none">
<path d="M6820 15494 c0 -45 -8 -90 -26 -140 -14 -42 -24 -81 -21 -87 3 -7 36
-20 73 -30 150 -40 214 -76 214 -121 0 -27 45 -72 81 -81 25 -6 29 -2 52 47
55 118 61 135 63 178 1 25 7 58 13 74 13 33 18 161 7 194 -8 25 -26 30 -26 8
0 -8 -11 -28 -25 -43 -21 -24 -26 -26 -34 -13 -11 16 -33 20 -113 23 -25 1
-50 5 -54 10 -15 14 -33 6 -46 -20 -16 -32 -56 -35 -73 -6 -14 24 -65 73 -76
73 -5 0 -9 -30 -9 -66z"/>
<path d="M5120 13662 c0 -136 7 -149 76 -137 27 5 73 9 102 9 74 -1 87 -16 84
-99 -2 -70 6 -81 26 -38 15 34 15 48 0 91 -11 30 -11 35 6 48 28 20 17 101
-19 131 -14 13 -33 23 -41 23 -9 0 -35 11 -58 25 -44 26 -128 55 -158 55 -16
0 -18 -12 -18 -108z"/>
<path d="M9135 13439 c-22 -6 -58 -15 -80 -21 -22 -6 -55 -13 -72 -15 -18 -2
-43 -7 -55 -12 -38 -13 -106 -13 -130 1 -68 38 -158 49 -228 27 -19 -5 -78
-12 -130 -13 -92 -4 -95 -5 -95 -27 0 -21 -5 -24 -37 -25 -21 -1 -38 3 -38 7
0 5 5 9 10 9 11 0 57 39 49 41 -41 12 -100 12 -168 -2 -29 -6 -66 -8 -82 -5
-27 5 -78 -8 -144 -38 -16 -7 -49 -12 -72 -10 -34 3 -44 0 -52 -15 -12 -21
-105 -55 -128 -47 -8 3 -11 1 -8 -4 3 -5 -18 -25 -47 -44 -52 -34 -55 -34
-148 -32 -65 2 -106 -2 -130 -12 -19 -8 -52 -14 -72 -14 -21 1 -38 -3 -38 -9
0 -5 -9 -9 -19 -9 -11 0 -21 -9 -25 -24 -6 -23 -63 -55 -128 -71 -16 -4 -28
-11 -28 -15 0 -5 -8 -11 -19 -15 -10 -3 -29 -14 -41 -25 -16 -14 -27 -17 -35
-10 -6 5 -15 6 -19 2 -4 -4 -27 -14 -52 -22 -24 -8 -44 -19 -44 -25 -1 -15
-31 -59 -47 -68 -7 -4 -13 -18 -13 -29 0 -12 -3 -18 -7 -15 -3 4 -12 2 -19 -4
-9 -7 -19 -7 -32 0 -13 7 -32 6 -63 -3 -51 -16 -146 -62 -154 -76 -6 -10 -87
-6 -105 5 -13 8 -90 -13 -90 -25 0 -19 -53 -70 -72 -70 -27 0 -68 -45 -68 -73
0 -18 -16 -30 -83 -61 -99 -48 -157 -91 -157 -117 0 -10 5 -19 10 -19 21 0 9
-16 -25 -34 -33 -18 -50 -41 -22 -30 8 3 19 -1 25 -9 9 -11 5 -17 -23 -30 -19
-9 -41 -30 -50 -46 -14 -28 -14 -31 2 -40 23 -13 15 -19 -29 -24 -53 -6 -99
-37 -113 -76 -11 -33 -45 -60 -77 -61 -10 0 -18 -5 -18 -11 0 -5 -4 -8 -9 -4
-6 3 -14 -3 -20 -13 -11 -20 1 -47 20 -47 7 0 14 -6 16 -12 3 -7 -1 -13 -7
-13 -8 0 -11 -10 -7 -28 5 -23 0 -31 -26 -50 -59 -40 -99 -79 -89 -86 6 -3 13
-29 17 -56 7 -53 -5 -83 -30 -74 -7 3 -16 0 -21 -7 -4 -7 -2 -15 4 -17 7 -2
12 -11 13 -20 0 -11 2 -12 6 -4 9 23 31 12 38 -18 7 -32 -7 -60 -30 -60 -6 0
-23 -17 -36 -37 -13 -21 -37 -44 -54 -53 -74 -37 -108 -98 -86 -154 5 -13 0
-34 -14 -60 -14 -26 -25 -70 -29 -116 -16 -181 -17 -207 -1 -236 20 -38 19
-44 -11 -111 -22 -49 -25 -68 -20 -119 4 -49 1 -69 -15 -98 -10 -20 -19 -48
-19 -63 0 -25 -14 -81 -46 -183 -7 -25 -16 -56 -18 -70 -3 -14 -15 -52 -26
-85 -18 -52 -19 -69 -11 -129 10 -69 4 -108 -28 -191 -5 -11 -3 -30 2 -43 8
-16 7 -33 -1 -56 -7 -18 -12 -49 -12 -69 0 -35 3 -39 48 -59 130 -58 161 -74
215 -107 114 -70 141 -95 152 -135 8 -29 19 -41 43 -52 40 -16 46 -32 33 -80
-9 -33 -8 -40 13 -61 13 -13 26 -40 29 -61 4 -33 -8 -181 -17 -208 -2 -6 0
-30 5 -55 5 -24 13 -84 18 -133 9 -81 12 -91 40 -117 17 -15 31 -34 31 -41 1
-24 45 -46 110 -53 95 -11 116 -10 143 8 21 13 25 26 30 89 5 66 31 165 46
178 3 3 7 28 7 57 1 32 10 69 23 94 12 23 20 44 17 46 -2 3 5 23 17 46 12 24
20 57 20 80 -2 37 30 105 57 122 15 9 12 35 -4 35 -7 0 -16 12 -19 28 -5 22 2
35 39 72 24 25 44 53 44 62 0 8 7 21 15 28 8 7 15 18 15 25 0 7 6 18 14 24 9
8 11 22 6 51 -5 29 -3 43 6 51 8 6 14 18 14 25 0 8 4 14 8 14 18 0 51 37 58
66 4 16 27 47 51 68 74 65 103 97 103 112 0 24 41 72 71 85 16 6 29 15 29 20
0 5 5 9 11 9 16 0 41 29 34 40 -3 5 1 10 9 10 9 0 16 7 16 15 0 8 10 16 23 17
26 2 48 5 62 8 6 2 15 4 20 5 10 1 62 29 130 69 40 24 46 43 12 38 -15 -1 -17
2 -12 19 5 14 3 19 -4 15 -5 -4 -17 6 -25 22 -14 27 -14 31 5 51 l20 21 -30 6
c-17 4 -31 8 -31 9 0 2 12 17 28 33 15 17 37 44 50 61 13 17 30 31 38 31 21 0
-15 37 -41 42 -12 2 -19 10 -17 20 3 18 -35 28 -66 17 -13 -5 -25 -3 -32 6
-17 21 -3 36 28 29 23 -5 25 -3 12 8 -21 18 -19 27 12 68 14 19 28 46 30 60 3
27 -5 29 -57 16 -18 -5 -25 -2 -25 9 0 8 6 15 14 15 7 0 19 7 26 15 7 8 23 15
37 15 13 0 22 4 19 9 -4 5 0 11 6 14 10 3 10 7 0 19 -7 9 -11 22 -10 29 4 15
-57 30 -70 17 -6 -6 -12 -6 -16 0 -3 6 3 13 14 17 11 3 20 11 20 16 0 5 8 9
18 9 17 1 52 22 52 32 0 3 -12 8 -28 11 -39 8 -84 49 -76 70 3 9 12 17 20 17
8 0 14 7 14 15 0 8 -7 15 -15 15 -8 0 -15 7 -15 15 0 8 6 15 13 15 6 0 27 14
44 30 18 17 39 30 45 29 23 -4 70 21 65 34 -2 6 -18 12 -35 12 -16 0 -34 3
-38 7 -10 10 -55 -2 -76 -20 -10 -8 -18 -12 -18 -9 0 4 -12 2 -27 -4 -45 -17
-143 -38 -143 -31 0 12 64 80 85 90 11 5 36 12 56 16 20 3 49 18 65 31 16 14
39 25 52 25 27 0 17 -2 82 13 38 8 75 9 120 3 36 -4 135 -10 220 -12 262 -7
393 -15 435 -26 22 -5 57 -11 77 -13 21 -1 73 -6 116 -10 54 -5 113 -2 193 10
111 17 200 15 223 -4 6 -5 49 -14 96 -19 95 -12 298 -60 375 -90 50 -19 128
-37 360 -88 245 -52 292 -65 362 -100 40 -19 75 -39 78 -44 6 -9 51 -23 113
-34 25 -4 32 -2 32 10 0 9 9 18 20 21 11 3 20 11 20 18 0 29 175 22 194 -8 8
-13 15 -11 43 10 26 20 33 22 33 10 0 -11 8 -15 30 -12 16 2 50 -2 74 -9 29
-9 58 -11 87 -5 72 13 103 21 114 29 8 6 113 30 132 30 2 0 3 4 3 10 0 5 -6 7
-14 4 -8 -3 -17 0 -21 6 -4 6 -1 9 7 8 7 -2 12 2 11 9 -4 19 100 65 140 61
l36 -3 -18 -23 c-10 -14 -29 -25 -44 -25 -15 -1 -27 -5 -27 -9 0 -5 -7 -8 -15
-8 -20 0 -19 -17 3 -41 11 -11 26 -17 34 -14 9 4 19 2 23 -4 3 -6 -1 -11 -9
-11 -11 0 -16 -9 -16 -26 0 -17 -6 -28 -20 -31 -23 -6 -25 -16 -7 -31 10 -8
16 -6 25 9 8 12 23 19 42 19 19 0 34 7 42 20 7 11 19 20 26 20 7 0 11 4 7 10
-10 16 68 80 82 66 10 -10 -7 -38 -21 -33 -10 4 -15 -8 -19 -43 -5 -39 -13
-56 -46 -88 -64 -63 -164 -130 -207 -138 -21 -3 -44 -10 -50 -15 -6 -5 -36
-10 -67 -11 -31 -1 -57 -6 -57 -10 0 -4 -17 -6 -39 -4 -21 2 -58 -3 -82 -11
-33 -12 -51 -13 -78 -4 -49 14 -135 23 -154 15 -9 -3 -13 -12 -11 -19 7 -17
33 -22 219 -40 33 -3 94 -11 136 -17 73 -11 77 -10 121 16 24 14 58 27 74 29
46 6 53 9 186 99 15 10 29 18 32 18 2 0 24 19 48 43 32 31 65 85 126 209 72
145 86 169 110 174 47 10 52 13 52 31 0 11 21 32 52 52 42 28 63 35 107 36 31
1 65 5 77 9 37 12 120 -35 256 -146 16 -12 30 -30 33 -39 4 -10 15 -21 26 -24
10 -4 17 -10 15 -14 -3 -4 3 -22 11 -40 12 -23 18 -29 24 -19 7 10 9 9 9 -4 0
-19 52 -65 88 -79 13 -5 26 -18 29 -28 2 -10 15 -24 27 -30 25 -14 76 -90 76
-114 0 -9 8 -21 18 -26 28 -15 119 -192 147 -286 9 -33 25 -82 35 -110 10 -27
26 -95 35 -150 10 -55 21 -116 27 -135 5 -19 14 -75 19 -125 5 -49 11 -110 13
-135 20 -191 21 -282 6 -415 -6 -55 -13 -136 -16 -180 -2 -44 -16 -154 -30
-244 -27 -177 -34 -251 -23 -251 15 0 30 30 64 131 19 57 44 122 54 144 11 22
27 80 36 129 9 49 23 105 32 125 9 20 17 55 19 79 2 23 12 86 23 140 29 138
45 388 36 562 -8 170 -9 266 -1 278 9 14 -23 120 -59 198 -33 71 -37 93 -51
297 -6 101 -33 204 -64 247 -12 16 -18 34 -15 40 3 6 -3 23 -15 39 -24 35 -50
104 -50 136 0 25 -45 85 -63 85 -7 0 -13 13 -14 28 -1 15 -18 54 -37 87 -20
32 -36 64 -36 70 0 15 -55 67 -62 60 -8 -9 -66 64 -85 107 -9 20 -27 42 -40
49 -12 7 -23 18 -23 25 0 11 -21 53 -96 193 -7 13 -17 27 -21 30 -13 9 -77
112 -79 127 -3 16 -58 96 -78 113 -9 8 -16 18 -16 23 0 9 -25 42 -104 136 -34
41 -124 112 -142 112 -3 0 -27 18 -52 40 -25 22 -49 39 -54 38 -14 -5 -82 63
-112 110 -33 52 -101 119 -146 142 -19 10 -49 31 -66 48 -17 16 -67 46 -110
67 -43 20 -111 52 -150 71 -39 19 -76 34 -82 34 -6 0 -40 13 -75 29 -36 16
-82 33 -103 37 -22 4 -52 17 -69 29 -16 12 -42 25 -56 29 -15 3 -50 22 -79 41
-29 19 -54 35 -56 35 -2 0 -34 20 -72 45 -60 38 -80 46 -153 55 -46 6 -111 17
-144 24 l-60 13 -12 -28 c-7 -18 -22 -31 -40 -34 -15 -4 -33 -8 -39 -10 -20
-6 -84 21 -114 47 -16 14 -50 31 -77 37 -26 7 -55 15 -63 18 -8 3 -24 7 -35 8
-11 1 -27 4 -35 7 -8 3 -33 2 -55 -3z m-461 -75 c18 -7 22 -34 5 -34 -17 0
-49 20 -49 30 0 11 21 13 44 4z m-609 -27 c23 -18 12 -37 -23 -37 -15 0 -36
-7 -46 -15 -11 -8 -30 -15 -43 -15 -34 0 -31 38 5 50 15 6 34 14 42 19 22 14
43 13 65 -2z m-224 -220 c-1 -12 -15 -9 -19 4 -3 6 1 10 8 8 6 -3 11 -8 11
-12z m-917 -353 c4 -10 -1 -25 -10 -35 -9 -10 -14 -25 -11 -33 3 -8 -1 -17 -9
-20 -8 -3 -14 -16 -14 -30 0 -26 -16 -36 -61 -36 -18 0 -33 -7 -41 -20 -17
-26 -28 -25 -28 3 1 27 35 71 50 62 5 -3 10 2 10 13 0 11 7 25 15 32 13 10 19
10 33 -4 10 -9 22 -13 25 -9 12 11 7 23 -9 23 -12 0 -15 6 -10 23 3 12 6 28 6
35 0 18 47 15 54 -4z m790 -49 c4 -10 -1 -15 -14 -15 -20 0 -26 11 -13 23 10
11 20 8 27 -8z m111 -36 c4 -11 4 -23 1 -27 -15 -14 -47 -7 -61 14 -13 20 -13
23 3 27 36 10 51 6 57 -14z m-1368 -21 c-3 -8 -6 -5 -6 6 -1 11 2 17 5 13 3
-3 4 -12 1 -19z m1118 2 c3 -5 1 -10 -4 -10 -6 0 -11 5 -11 10 0 6 2 10 4 10
3 0 8 -4 11 -10z m45 0 c0 -5 -2 -10 -4 -10 -3 0 -8 5 -11 10 -3 6 -1 10 4 10
6 0 11 -4 11 -10z m547 -25 c-16 -16 -37 -20 -37 -7 0 13 14 29 30 34 21 7 25
-9 7 -27z m-1089 -197 c2 -9 -6 -18 -18 -21 -28 -7 -25 -26 6 -37 31 -12 27
-34 -7 -38 -22 -3 -49 -26 -49 -43 0 -4 10 -9 21 -11 12 -2 27 -11 33 -20 15
-24 -18 -47 -66 -48 -41 0 -45 4 -24 26 11 10 12 22 6 43 -4 16 -6 32 -2 35 3
3 0 6 -6 6 -20 0 -13 27 11 47 12 10 33 33 46 51 23 34 44 38 49 10z m1245
-21 c-3 -5 -10 -4 -15 1 -6 6 -7 16 -3 22 6 9 9 9 16 -1 4 -7 5 -17 2 -22z
m-1969 7 c7 -19 -10 -35 -67 -64 -38 -18 -67 -18 -67 2 0 6 7 8 15 4 9 -3 24
3 35 14 11 11 20 17 20 14 0 -3 10 6 23 20 26 30 33 32 41 10z m2001 6 c3 -5
1 -10 -4 -10 -6 0 -11 5 -11 10 0 6 2 10 4 10 3 0 8 -4 11 -10z m1145 -60 c0
-5 -8 -10 -17 -10 -15 0 -16 2 -3 10 19 12 20 12 20 0z m-1097 -39 c7 -27 0
-31 -27 -18 -17 8 -20 14 -12 24 16 18 33 16 39 -6z m-1513 -8 c0 -20 -70 -83
-97 -89 -25 -5 -31 -2 -35 14 -6 21 18 52 39 52 6 0 24 7 39 15 31 16 54 19
54 8z m710 -23 c0 -5 -4 -10 -10 -10 -5 0 -10 5 -10 10 0 6 5 10 10 10 6 0 10
-4 10 -10z m334 -9 c8 -12 -13 -27 -47 -35 -33 -8 -70 1 -61 15 3 5 9 7 12 5
4 -2 18 2 32 10 29 15 56 18 64 5z m474 -41 c11 -18 9 -22 -20 -40 -18 -11
-37 -20 -41 -20 -4 0 -29 -9 -54 -21 -25 -11 -51 -18 -59 -15 -23 9 -16 36 12
46 14 6 40 21 58 35 19 14 40 23 49 20 8 -4 18 -2 22 4 9 16 19 13 33 -9z
m-995 -16 c-6 -15 -53 -20 -53 -5 0 10 13 16 41 18 12 1 16 -3 12 -13z m-919
-21 c-7 -2 -10 -12 -7 -23 3 -13 -3 -23 -24 -33 -30 -16 -84 -72 -82 -84 5
-24 -25 -70 -51 -80 -22 -8 -30 -19 -36 -49 -4 -21 -20 -56 -36 -78 -15 -21
-28 -48 -28 -60 0 -12 -11 -42 -24 -68 -14 -29 -19 -52 -15 -61 6 -10 -10 -34
-56 -81 -65 -66 -87 -77 -118 -53 -15 10 -16 16 -5 40 7 15 19 25 25 22 19 -7
36 33 30 69 -3 17 -3 25 0 19 13 -34 34 10 39 82 2 35 12 84 21 98 4 6 1 7 -8
2 -7 -5 -26 -8 -42 -7 -23 2 -28 -1 -23 -13 8 -21 -47 -72 -86 -80 -15 -4 -28
-12 -28 -18 0 -8 -4 -7 -12 1 -7 7 -22 12 -35 12 -12 0 -27 8 -32 18 -10 16
-10 16 -11 -2 0 -11 -3 -17 -6 -13 -11 11 8 49 22 43 8 -3 14 0 14 5 0 6 9 9
20 6 21 -5 27 11 11 28 -5 6 -12 28 -16 50 -5 33 -2 46 15 68 12 15 28 27 36
27 8 0 14 6 14 14 0 40 94 73 122 42 9 -10 20 -11 40 -4 16 6 28 13 29 16 2
20 8 44 11 46 2 1 29 21 60 45 42 31 64 42 85 39 22 -2 28 -8 27 -25 0 -13 3
-23 7 -23 16 0 94 44 119 67 17 16 27 20 35 12 7 -8 6 -13 -1 -16z m204 -15
c17 -35 19 -84 3 -74 -12 8 -53 -8 -72 -26 -8 -8 -31 -24 -51 -37 -21 -12 -38
-27 -38 -33 0 -20 -74 -88 -97 -88 -14 0 -40 -18 -67 -47 -37 -38 -46 -44 -52
-30 -9 25 103 164 156 192 14 8 57 43 95 80 39 36 75 70 80 75 17 15 31 11 43
-12z m-672 -24 c-1 -20 -5 -24 -21 -20 -11 3 -24 6 -30 6 -10 0 35 39 46 40 4
0 6 -11 5 -26z m1749 17 c3 -5 1 -12 -4 -15 -12 -8 -41 3 -41 15 0 12 37 12
45 0z m-295 -10 c0 -10 -17 -24 -35 -28 -5 -1 -20 -5 -32 -9 -19 -5 -23 -2
-23 14 0 11 6 23 13 25 22 9 77 7 77 -2z m-413 -14 c38 -14 35 -35 -12 -68
-44 -32 -50 -49 -16 -49 9 0 26 -7 37 -15 10 -8 30 -15 43 -15 22 0 22 -1 9
-22 -22 -33 -65 -44 -88 -23 -17 15 -21 15 -49 1 -16 -9 -41 -16 -55 -16 -14
0 -28 -4 -31 -10 -3 -5 -19 -10 -34 -10 -15 0 -32 -5 -38 -11 -6 -6 -21 -9
-34 -7 -22 3 -20 6 20 32 59 38 75 54 91 95 10 24 11 36 3 38 -25 9 2 41 55
64 59 27 63 27 99 16z m1453 -16 c0 -17 33 -21 56 -6 33 21 64 19 64 -4 0 -15
-10 -20 -49 -26 -30 -4 -56 -14 -68 -27 -39 -44 -131 -74 -211 -70 -29 2 -32
5 -27 25 5 18 1 26 -16 33 -21 10 -21 11 15 32 20 12 49 22 65 22 15 0 31 4
37 9 8 9 39 14 112 19 12 1 22 -2 22 -7z m-2443 -7 c-3 -3 -12 -4 -19 -1 -8 3
-5 6 6 6 11 1 17 -2 13 -5z m1453 -59 c0 -7 -99 -73 -118 -79 -12 -4 -22 -12
-22 -17 0 -5 -7 -9 -17 -9 -9 0 -14 3 -10 6 3 4 -1 13 -9 22 -19 18 -12 25 46
42 25 7 50 19 55 26 16 18 75 25 75 9z m-765 -15 c5 -7 -87 -95 -142 -137 -17
-12 -41 -23 -54 -25 -14 -2 -38 -14 -53 -26 -16 -12 -37 -22 -47 -22 -32 0
-22 34 16 54 20 11 45 34 56 53 11 18 24 31 28 28 9 -5 55 27 93 66 20 20 32
24 62 21 20 -2 38 -8 41 -12z m1349 -17 c8 -21 1 -27 -21 -18 -21 10 -29 12
-45 14 -7 1 -2 8 11 15 28 16 47 12 55 -11z m663 -110 c2 -6 -3 -13 -12 -16
-10 -5 -15 0 -15 14 0 21 21 22 27 2z m93 -23 c0 -5 -5 -10 -11 -10 -5 0 -7 5
-4 10 3 6 8 10 11 10 2 0 4 -4 4 -10z m-1389 -30 c10 -6 19 -17 19 -25 0 -19
9 -19 48 0 30 15 82 12 82 -5 0 -4 -14 -13 -32 -19 -18 -6 -41 -20 -53 -30
-30 -27 -73 -33 -80 -10 -4 11 -3 24 1 30 5 9 -6 10 -40 7 -45 -5 -63 6 -29
19 9 4 25 15 35 25 21 21 23 21 49 8z m-1671 -20 c0 -5 -4 -10 -10 -10 -5 0
-10 5 -10 10 0 6 5 10 10 10 6 0 10 -4 10 -10z m2916 -38 c-4 -3 -14 2 -24 12
-16 18 -16 18 6 6 13 -6 21 -14 18 -18z m-2296 0 c0 -16 -42 -34 -53 -23 -8 8
-6 11 6 11 9 0 17 5 17 10 0 6 7 10 15 10 8 0 15 -3 15 -8z m2240 -18 c0 -9
-11 -14 -35 -14 -42 0 -45 12 -7 26 31 12 42 9 42 -12z m-206 -40 c10 -26 7
-34 -14 -34 -13 0 -20 7 -20 18 0 33 23 44 34 16z m-2768 -30 c-3 -9 -6 -18
-6 -20 0 -7 -36 -4 -44 3 -3 4 4 13 16 20 31 17 41 16 34 -3z m144 -18 c0 -18
-19 -33 -53 -41 -24 -6 -26 -5 -21 11 13 38 74 62 74 30z m3098 -7 c11 0 12
-2 5 -6 -7 -2 -13 -13 -13 -23 0 -24 -11 -31 -38 -23 -13 3 -22 13 -22 24 0
20 43 55 48 39 2 -5 11 -10 20 -11z m2692 -35 c0 -17 -22 -14 -28 4 -2 7 3 12
12 12 9 0 16 -7 16 -16z m-2390 -34 c0 -5 -4 -10 -10 -10 -5 0 -10 5 -10 10 0
6 5 10 10 10 6 0 10 -4 10 -10z m-715 -50 c-20 -22 -40 -26 -50 -10 -6 9 55
41 64 34 2 -2 -4 -13 -14 -24z m212 -40 c12 0 24 -4 27 -9 10 -16 -19 -30 -74
-35 -30 -4 -50 -4 -43 0 16 7 5 34 -16 34 -10 0 -5 7 14 19 26 15 33 16 50 5
11 -8 29 -14 42 -14z m207 -48 c7 -11 -62 -82 -80 -82 -22 0 -12 23 14 35 24
11 29 25 10 25 -7 1 -2 7 12 15 29 17 37 18 44 7z m1087 -43 l24 -20 -40 6
c-46 8 -49 10 -40 24 10 17 30 13 56 -10z m-251 -241 c0 -13 -32 -6 -37 9 -3
7 3 9 16 6 12 -3 21 -10 21 -15z m1024 -183 c3 -9 0 -15 -9 -15 -8 0 -15 7
-15 15 0 8 4 15 9 15 5 0 11 -7 15 -15z m-5377 -12 c2 -6 -5 -13 -17 -16 -22
-6 -23 -5 -14 18 7 17 25 16 31 -2z m5423 13 c0 -2 -7 -7 -16 -10 -8 -3 -12
-2 -9 4 6 10 25 14 25 6z m-4074 -893 c-10 -10 -19 5 -10 18 6 11 8 11 12 0 2
-7 1 -15 -2 -18z"/>
<path d="M5364 13339 c-22 -30 -37 -80 -26 -91 16 -16 44 34 40 73 -2 26 -5
29 -14 18z"/>
<path d="M5845 12320 c-3 -5 -1 -10 4 -10 6 0 11 5 11 10 0 6 -2 10 -4 10 -3
0 -8 -4 -11 -10z"/>
<path d="M5392 11603 c-13 -5 -42 -55 -42 -73 0 -11 40 -13 55 -2 6 4 18 19
27 33 23 36 1 59 -40 42z"/>
<path d="M5042 9254 c2 -5 -7 -20 -19 -33 -23 -24 -23 -25 -3 -55 14 -22 40
-39 92 -61 104 -43 197 -138 207 -214 2 -16 32 -41 42 -36 14 9 11 49 -6 71
-8 10 -15 31 -15 45 0 18 -17 44 -52 81 -45 46 -134 120 -157 130 -4 2 -17 18
-30 36 -13 18 -26 31 -29 28 -3 -3 -11 -1 -19 6 -8 6 -13 7 -11 2z"/>
<path d="M7545 9080 c3 -5 8 -10 11 -10 2 0 4 5 4 10 0 6 -5 10 -11 10 -5 0
-7 -4 -4 -10z"/>
<path d="M7421 9066 l-24 -13 26 0 c14 0 28 6 31 13 7 17 -2 17 -33 0z"/>
<path d="M7345 9051 c3 -6 -4 -15 -15 -21 -11 -6 -18 -15 -16 -19 7 -11 -29
-43 -51 -45 -34 -3 -90 -29 -102 -48 -14 -23 1 -58 27 -59 9 0 28 -2 42 -4 14
-3 50 -2 80 1 45 4 58 10 65 27 8 16 25 25 70 34 57 11 63 11 115 -13 39 -19
63 -24 85 -19 58 12 265 18 265 7 0 -14 82 -10 87 3 2 6 -3 20 -11 30 -14 19
-15 19 -28 2 -12 -16 -15 -16 -36 -1 l-23 16 21 23 c12 13 17 25 12 29 -5 3
-47 3 -93 1 -55 -3 -107 1 -149 11 -98 23 -100 23 -106 13 -3 -5 -9 -7 -14 -4
-5 3 -12 0 -16 -6 -3 -6 -1 -15 6 -19 9 -5 9 -9 1 -14 -6 -4 -28 3 -49 16 -20
12 -41 21 -47 20 -5 -2 -15 5 -22 14 -7 10 -13 14 -13 10 0 -5 -11 -1 -25 8
-26 17 -70 22 -60 7z"/>
<path d="M8612 8934 c-12 -8 -22 -19 -22 -25 0 -17 39 -9 50 10 19 36 9 41
-28 15z"/>
<path d="M8471 8924 c0 -11 3 -14 6 -6 3 7 2 16 -1 19 -3 4 -6 -2 -5 -13z"/>
<path d="M8490 8920 c0 -15 38 -32 45 -20 3 5 3 15 0 20 -8 13 -45 13 -45 0z"/>
<path d="M8101 8911 c-14 -4 -26 -11 -28 -17 -5 -16 46 -47 68 -41 10 3 20 0
23 -7 3 -7 8 -6 16 4 9 11 13 12 17 3 6 -16 32 -17 68 -3 23 9 25 13 15 25 -7
8 -16 13 -20 10 -5 -3 -11 -1 -14 4 -3 5 -15 7 -25 4 -11 -3 -34 2 -52 11 -18
9 -35 16 -38 15 -3 -1 -17 -4 -30 -8z"/>
<path d="M8020 8885 c7 -8 17 -15 22 -15 6 0 5 7 -2 15 -7 8 -17 15 -22 15 -6
0 -5 -7 2 -15z"/>
<path d="M8728 8882 c-10 -2 -18 -7 -19 -10 0 -4 -2 -15 -4 -26 -9 -46 34
-100 73 -91 12 3 33 -2 46 -10 13 -9 30 -13 39 -9 16 6 46 -7 77 -33 20 -18
16 -50 -8 -55 -14 -3 -13 -5 2 -21 10 -9 21 -15 26 -12 5 3 10 -1 13 -7 3 -10
10 -8 23 5 16 15 17 20 5 39 -12 19 -11 20 8 15 16 -4 21 0 21 13 0 20 -49 60
-73 60 -18 0 -57 51 -57 73 0 25 -26 38 -84 40 -38 1 -58 7 -63 18 -4 8 -16
13 -25 11z"/>
<path d="M8336 8819 c-27 -29 -28 -30 -10 -44 30 -22 108 -38 207 -44 18 -1
27 -7 27 -17 0 -9 6 -14 13 -11 7 3 24 -4 38 -14 13 -10 29 -19 35 -19 7 0 24
-16 38 -35 31 -40 55 -45 74 -15 7 12 17 18 22 15 6 -4 17 1 26 10 15 14 14
18 -8 39 -14 12 -27 28 -29 35 -3 7 -20 15 -39 17 -18 2 -43 12 -54 22 -48 42
-74 52 -100 41 -20 -9 -33 -7 -73 11 -105 49 -128 50 -167 9z"/>
<path d="M4441 8714 c-18 -13 -25 -14 -31 -4 -5 9 -9 9 -14 1 -4 -6 1 -14 11
-17 10 -3 29 -10 42 -15 26 -11 28 -10 31 11 6 43 -3 49 -39 24z"/>
<path d="M4237 8713 c-4 -3 -7 -11 -7 -17 0 -6 5 -5 12 2 6 6 9 14 7 17 -3 3
-9 2 -12 -2z"/>
<path d="M5334 8684 l-32 -25 24 -85 c25 -91 53 -156 69 -161 39 -11 57 78 29
142 -10 22 -17 43 -16 47 5 20 -21 108 -31 108 -7 -1 -26 -12 -43 -26z"/>
<path d="M8850 8694 c0 -8 5 -12 10 -9 6 3 10 10 10 16 0 5 -4 9 -10 9 -5 0
-10 -7 -10 -16z"/>
<path d="M8880 8659 c0 -12 5 -19 12 -17 18 6 20 25 3 31 -10 5 -15 0 -15 -14z"/>
<path d="M7260 8650 c0 -5 5 -10 10 -10 6 0 10 5 10 10 0 6 -4 10 -10 10 -5 0
-10 -4 -10 -10z"/>
<path d="M7309 8643 c-1 -5 -1 -11 0 -15 0 -5 -4 -8 -11 -8 -6 0 -4 -6 7 -13
14 -11 15 -16 5 -22 -10 -6 -9 -9 1 -17 10 -6 10 -11 3 -14 -16 -7 -4 -54 13
-54 13 0 13 3 3 15 -16 20 -6 19 25 -1 31 -20 33 -38 3 -31 -12 3 -29 2 -39
-4 -14 -7 -17 -6 -13 4 3 8 -2 17 -11 21 -11 4 -19 -2 -25 -20 -6 -14 -19 -28
-29 -31 -11 -3 -22 -12 -25 -21 -3 -10 -9 -23 -12 -30 -4 -8 0 -10 13 -5 16 6
17 5 3 -12 -11 -14 -12 -19 -2 -22 6 -3 12 -13 12 -24 0 -12 5 -16 15 -13 8 4
15 2 15 -4 0 -13 59 -21 63 -9 1 5 10 3 18 -5 8 -9 34 -19 56 -23 23 -3 44
-13 47 -21 3 -8 13 -14 22 -14 17 0 115 -97 135 -132 5 -10 18 -18 27 -18 10
0 23 -5 29 -11 9 -9 18 -4 37 16 14 15 26 30 26 33 0 2 -18 21 -41 41 -61 54
-59 103 3 116 18 4 40 13 48 20 60 48 159 80 175 55 3 -5 11 -7 18 -5 19 7 31
-6 64 -75 70 -142 195 -203 315 -151 57 25 131 98 164 163 32 64 37 68 93 68
41 0 48 -4 110 -67 37 -38 75 -80 86 -95 20 -27 70 -44 80 -28 6 10 -12 51
-27 61 -4 3 -12 19 -17 36 -7 24 -5 32 11 42 17 10 20 9 25 -9 4 -15 11 -20
24 -17 11 3 23 -1 27 -9 5 -9 15 -12 25 -8 9 3 14 10 11 15 -9 14 49 10 76 -6
42 -24 51 -28 56 -23 8 9 -18 58 -28 51 -6 -3 -5 4 1 15 8 14 17 19 29 15 29
-10 1 13 -50 41 -26 14 -58 26 -71 26 -14 0 -30 7 -37 15 -7 8 -16 12 -22 9
-5 -3 -16 0 -24 7 -9 7 -35 14 -58 16 -22 2 -74 8 -115 15 -55 8 -82 8 -104 0
-22 -8 -45 -8 -95 3 -37 7 -114 19 -172 25 -58 7 -121 14 -140 17 -61 8 -457
5 -482 -3 -13 -4 -44 -7 -70 -6 -25 2 -49 -2 -53 -8 -3 -5 -14 -10 -23 -10
-15 0 -15 2 -2 11 11 7 1 9 -38 7 -28 -2 -52 0 -52 4 0 3 -13 9 -30 13 -16 4
-30 11 -30 15 0 5 6 7 14 4 8 -3 17 0 21 6 9 15 -13 40 -36 40 -11 0 -19 4
-19 10 0 23 -48 63 -51 43z m975 -238 c22 -23 6 -59 -28 -63 -52 -6 -79 49
-33 68 32 13 44 12 61 -5z m416 -42 c0 -7 -5 -13 -11 -13 -5 0 -8 4 -5 9 3 5
-4 11 -15 14 -12 3 -18 10 -15 16 9 13 46 -8 46 -26z m25 18 c3 -5 1 -12 -5
-16 -5 -3 -10 1 -10 9 0 18 6 21 15 7z"/>
<path d="M9005 8590 c3 -5 8 -10 11 -10 2 0 4 5 4 10 0 6 -5 10 -11 10 -5 0
-7 -4 -4 -10z"/>
<path d="M4040 8445 c-7 -8 -23 -15 -37 -15 -13 0 -26 -7 -29 -15 -4 -8 -17
-15 -29 -15 -13 0 -30 -7 -39 -15 -8 -8 -27 -15 -43 -15 -15 0 -39 -9 -53 -20
-14 -11 -31 -20 -39 -20 -16 0 -64 -37 -133 -102 -28 -27 -54 -48 -58 -48 -18
0 -120 -126 -160 -198 -24 -42 -50 -83 -57 -90 -7 -7 -13 -20 -13 -28 0 -8
-17 -56 -38 -107 -22 -50 -53 -141 -71 -202 -17 -60 -36 -117 -41 -126 -10
-18 -25 -89 -22 -102 1 -4 -6 -24 -17 -45 -32 -65 -71 -207 -110 -402 -12 -59
-26 -241 -24 -303 1 -45 9 -56 60 -81 57 -30 93 -66 93 -95 0 -39 -11 -49 -37
-36 -13 7 -20 15 -16 18 3 4 -1 7 -10 7 -10 0 -17 4 -17 8 0 7 -22 18 -145 73
-16 7 -34 14 -40 14 -5 1 -36 13 -68 28 -64 30 -79 32 -109 16 -42 -22 -108
-226 -107 -328 0 -31 9 -87 20 -126 11 -38 24 -90 30 -115 6 -25 22 -97 36
-160 14 -63 32 -122 38 -130 7 -8 11 -21 9 -28 -1 -7 0 -8 2 -3 3 6 25 -10 48
-35 58 -60 76 -59 75 7 -2 46 -4 50 -29 56 -15 3 -34 16 -41 29 -11 21 -10 26
7 38 16 13 22 11 49 -12 17 -15 48 -35 70 -45 22 -10 50 -33 62 -51 12 -19 40
-42 62 -52 36 -16 57 -44 43 -58 -10 -11 -49 -6 -105 13 -30 11 -58 17 -61 14
-3 -4 -6 -25 -6 -48 0 -78 51 -100 177 -76 34 7 45 5 58 -9 42 -47 -4 -100
-87 -100 -40 0 -126 31 -138 49 -3 5 -16 12 -28 16 -21 6 -23 5 -13 -13 14
-27 58 -63 130 -106 64 -39 74 -57 70 -132 -1 -21 3 -51 9 -66 7 -18 8 -28 1
-30 -7 -2 -5 -20 5 -48 18 -52 20 -71 5 -50 -8 11 -8 9 -2 -10 4 -14 7 -40 6
-57 -1 -22 3 -33 12 -33 11 0 13 -8 8 -32 -3 -19 -2 -30 3 -25 9 8 10 12 13
40 1 8 4 7 11 -3 8 -13 10 -13 10 2 0 9 4 20 10 23 5 3 7 0 4 -9 -7 -18 30
-99 41 -89 4 5 5 0 1 -11 -3 -10 -2 -24 2 -30 21 -27 42 -99 33 -110 -7 -8 -4
-15 8 -23 11 -7 20 -29 25 -59 3 -27 13 -52 24 -60 15 -12 15 -13 -9 -14 -14
0 -29 -3 -33 -8 -4 -4 -17 -7 -29 -8 -12 0 -54 -6 -94 -13 -64 -11 -75 -11
-101 4 -28 17 -30 17 -70 -12 -43 -32 -40 -31 -278 -58 -66 -7 -138 -18 -160
-24 -50 -13 -311 -55 -419 -67 -22 -2 -63 -6 -91 -10 -75 -8 -365 -8 -624 1
-201 6 -240 5 -360 -14 -117 -17 -350 -58 -445 -76 -260 -51 -487 -81 -519
-69 -15 6 -16 -138 -16 -1867 l0 -1874 -35 -23 c-19 -12 -35 -27 -35 -33 0 -5
-5 -7 -11 -4 -7 5 -10 -37 -8 -134 l2 -141 4151 0 4151 0 -75 38 c-41 20 -77
40 -80 43 -3 3 -20 11 -37 18 -22 9 -33 20 -33 33 0 18 2 19 18 7 9 -8 20 -18
23 -22 3 -5 8 -8 10 -6 14 8 99 -20 185 -62 l101 -49 134 0 134 0 -40 21 c-22
12 -47 27 -55 34 -19 17 -216 129 -295 168 -33 16 -67 33 -75 38 -8 4 -67 35
-130 67 -63 33 -133 70 -155 82 -22 13 -59 33 -81 45 -23 12 -52 31 -63 42
l-22 20 22 6 c13 4 36 -3 60 -19 21 -13 45 -24 53 -24 8 0 17 -4 20 -9 5 -8
84 -47 241 -120 130 -61 286 -141 338 -174 29 -18 84 -50 122 -71 39 -22 91
-54 118 -72 42 -30 54 -34 113 -34 78 0 76 7 -16 71 -30 21 -92 65 -138 99
-45 33 -84 60 -87 60 -2 0 -32 20 -67 44 -54 37 -135 86 -273 166 -16 10 -57
34 -90 53 -33 20 -82 48 -110 63 -27 15 -92 53 -143 85 -51 33 -101 59 -111
59 -10 0 -34 -21 -55 -47 -84 -109 -110 -142 -177 -231 -38 -50 -76 -92 -83
-92 -26 0 -48 30 -134 185 -49 88 -101 183 -117 210 -15 28 -88 163 -163 300
-359 665 -432 794 -548 970 -95 143 -499 744 -803 1192 -201 297 -505 717
-606 838 -65 77 -200 283 -267 405 -122 224 -202 390 -237 496 -53 157 -56
245 -12 371 16 46 39 96 50 112 12 16 21 33 21 38 0 4 12 26 27 48 49 70 101
185 95 208 -3 12 -7 16 -9 10 -3 -7 -10 -10 -17 -7 -6 2 -25 -9 -41 -26 -16
-16 -35 -30 -42 -30 -8 0 -16 -7 -19 -15 -4 -9 -19 -15 -35 -15 -16 0 -29 -3
-29 -8 0 -4 -28 -16 -62 -27 -35 -11 -69 -25 -76 -32 -7 -7 -20 -13 -27 -13
-9 0 -12 -6 -9 -15 4 -10 -2 -18 -17 -24 -19 -7 -25 -5 -31 10 -5 12 -13 16
-23 13 -23 -9 -58 25 -44 43 18 21 5 15 -26 -11 -32 -28 -27 -50 10 -36 21 8
24 6 30 -21 4 -17 4 -33 1 -36 -3 -4 -6 3 -6 15 0 23 -14 29 -25 12 -9 -14
-27 -12 -50 6 -16 12 -18 18 -7 34 6 10 8 22 3 25 -5 3 -7 14 -4 25 4 16 2 19
-11 14 -12 -5 -15 -2 -10 11 4 10 1 21 -7 25 -11 7 -10 10 4 16 9 3 24 1 32
-6 8 -7 15 -9 15 -4 0 17 -15 31 -41 37 -25 6 -54 50 -44 67 3 5 -3 13 -12 19
-10 6 -13 11 -8 12 6 1 15 2 20 3 53 8 111 46 70 46 -8 0 -15 3 -15 8 0 4 -16
7 -35 8 -19 0 -35 -3 -35 -8 0 -14 -30 -9 -36 7 -4 10 -14 13 -29 9 -13 -3
-26 -1 -29 5 -4 5 -14 7 -22 4 -9 -3 -20 0 -24 7 -7 11 -11 11 -23 1 -13 -10
-19 -8 -36 10 -16 18 -21 19 -21 7 0 -10 -9 -15 -25 -15 -14 0 -25 3 -25 8 0
5 5 9 11 9 5 0 7 5 4 10 -5 8 -11 7 -20 0 -18 -15 -64 16 -65 43 0 9 -6 17
-13 17 -9 0 -14 12 -15 30 0 22 4 30 16 30 15 0 15 2 2 10 -8 5 -10 10 -5 10
6 0 4 4 -4 9 -11 7 -12 13 -3 23 6 8 7 19 3 26 -5 9 -11 5 -19 -13 -11 -24
-14 -25 -28 -11 -19 19 -35 20 -53 4 -11 -11 -13 -10 -7 5 3 10 6 20 6 23 0 2
7 1 15 -2 8 -4 15 -2 15 4 0 6 -6 13 -12 15 -8 3 -7 6 4 6 9 1 20 10 23 21 4
14 15 20 36 20 16 0 29 -4 29 -10 0 -15 36 -12 50 5 7 8 18 15 24 14 32 -4 39
1 20 15 -22 17 -19 22 19 31 23 6 32 2 60 -29 27 -29 36 -33 46 -23 11 10 13
8 9 -9 -3 -12 -1 -29 4 -38 10 -17 34 -22 40 -7 2 4 13 12 26 15 17 6 22 3 22
-9 0 -13 -6 -16 -21 -12 -13 3 -19 1 -16 -6 2 -7 11 -11 21 -9 9 2 16 -2 16
-8 0 -5 -7 -10 -15 -10 -30 0 -14 -16 43 -42 31 -15 68 -29 82 -33 14 -3 34
-10 45 -14 118 -47 117 -47 270 -47 83 1 157 5 165 11 8 5 35 11 60 13 25 2
51 8 58 14 7 6 16 8 20 4 4 -4 -1 -14 -12 -21 -18 -14 -16 -52 3 -41 5 3 12
-6 15 -20 5 -18 12 -24 22 -20 9 3 20 6 26 6 6 0 6 6 -2 15 -7 8 -18 15 -25
15 -19 0 -24 24 -9 44 17 25 44 13 44 -19 0 -28 12 -32 30 -10 7 8 9 15 5 15
-4 0 -2 6 4 14 7 8 8 16 3 18 -12 4 -23 88 -12 88 5 0 10 -5 12 -12 2 -6 20
-11 39 -10 28 0 31 -1 19 -11 -21 -16 -24 -78 -4 -70 11 4 14 -1 10 -22 -4
-20 2 -34 20 -52 24 -24 26 -33 28 -129 1 -57 -1 -104 -4 -104 -3 0 -11 5 -18
12 -8 8 -10 2 -9 -27 2 -21 8 -40 14 -42 7 -3 10 4 6 19 -3 17 -2 19 5 9 5 -7
8 -40 7 -72 -1 -33 2 -62 7 -65 5 -3 4 -12 -3 -20 -6 -8 -8 -14 -3 -14 5 0 2
-5 -6 -11 -13 -8 -13 -9 2 -7 9 2 16 -1 15 -7 -1 -5 -5 -9 -9 -7 -16 5 -7 -34
17 -76 13 -23 20 -40 15 -37 -10 6 -1 -64 10 -80 4 -5 13 -32 20 -60 7 -27 30
-83 52 -123 21 -41 38 -80 38 -88 0 -8 4 -14 8 -14 5 0 13 -10 19 -22 10 -23
60 -87 111 -143 15 -17 32 -38 37 -46 33 -52 69 -105 74 -109 3 -3 33 -38 66
-79 33 -41 74 -89 90 -106 17 -18 48 -53 69 -78 52 -62 142 -152 207 -207 29
-25 64 -58 78 -74 56 -64 80 -82 108 -80 16 1 23 -6 27 -30 4 -17 10 -26 14
-21 15 20 38 14 50 -14 9 -20 18 -27 30 -24 12 3 18 -2 19 -17 2 -21 30 -63
48 -71 5 -2 9 -8 7 -14 -2 -5 2 -4 9 2 7 7 24 12 38 12 24 -2 24 -2 4 -6 -19
-4 -21 -8 -12 -24 5 -11 15 -19 22 -18 20 3 47 -12 47 -27 0 -8 9 -19 20 -26
11 -7 20 -18 20 -25 0 -13 38 -28 47 -19 4 3 21 -10 38 -30 29 -32 36 -35 66
-29 25 4 30 3 19 -4 -13 -9 -13 -11 3 -11 9 0 17 -7 17 -16 0 -14 3 -14 15 -4
12 10 15 9 15 -6 1 -28 102 -94 124 -82 10 5 25 6 34 2 26 -11 52 -12 58 -2 4
5 -3 12 -15 15 -12 3 -21 10 -21 15 0 5 6 8 13 5 6 -2 18 3 25 12 12 14 13 13
9 -6 -3 -15 1 -23 17 -28 l21 -6 -22 -9 c-25 -10 -30 -26 -10 -33 6 -3 2 -6
-10 -6 -13 -1 -23 3 -23 9 0 5 -7 7 -16 3 -29 -11 13 -26 56 -20 30 4 37 2 33
-9 -3 -8 0 -21 6 -28 13 -15 -1 -32 -18 -21 -5 3 -13 0 -17 -6 -10 -17 16 -28
43 -18 33 12 34 12 23 -16 -8 -20 -6 -29 10 -45 25 -25 25 -28 -2 -32 -12 -2
-24 -9 -26 -17 -3 -10 0 -12 13 -7 10 3 25 1 34 -6 14 -12 15 -11 2 5 -13 16
-12 19 8 24 12 3 20 11 18 17 -3 6 2 17 9 24 12 10 14 10 14 -2 0 -22 61 -16
82 9 16 20 17 19 14 -8 -2 -16 -9 -33 -17 -38 -12 -8 -12 -11 2 -22 9 -6 14
-22 13 -35 -3 -14 1 -22 11 -22 8 0 15 -7 15 -15 0 -18 -26 -9 -34 11 -7 17
-26 19 -26 2 0 -6 9 -21 20 -33 11 -11 21 -32 23 -45 4 -22 9 -25 46 -24 48 2
60 9 43 26 -7 7 -12 21 -12 33 1 20 1 20 12 0 11 -19 11 -19 19 0 7 19 8 19 8
-2 1 -16 6 -20 21 -16 11 3 20 0 20 -6 0 -5 7 -8 16 -4 13 5 15 2 9 -17 -5
-15 -4 -20 4 -16 6 4 11 3 11 -3 0 -6 11 -6 30 -1 25 7 32 5 41 -12 7 -12 18
-18 29 -15 11 3 17 -1 16 -12 -1 -10 8 -17 22 -19 16 -3 22 -8 18 -19 -5 -12
-1 -14 14 -10 11 3 20 1 20 -5 0 -6 7 -8 15 -4 9 3 19 -3 25 -14 6 -11 17 -20
26 -20 8 0 17 -7 20 -15 4 -8 12 -15 18 -15 7 0 22 -13 34 -30 13 -16 29 -30
37 -30 8 0 15 -4 15 -10 0 -5 9 -10 20 -10 11 0 20 -5 20 -11 0 -6 5 -9 12 -7
7 3 22 -9 33 -26 18 -27 26 -31 63 -28 39 2 42 0 42 -24 0 -14 4 -23 10 -19 6
3 10 1 10 -5 0 -5 25 -21 55 -35 60 -26 77 -40 88 -69 6 -14 11 -16 19 -8 11
11 58 -4 58 -20 0 -18 -2 -23 -11 -20 -16 4 -32 -51 -20 -70 18 -30 13 -50
-11 -46 -18 2 -24 -3 -26 -20 -3 -18 -8 -23 -23 -19 -12 3 -22 0 -26 -9 -3
-10 -15 -12 -37 -9 -42 8 -86 28 -86 40 0 5 -4 4 -9 -4 -7 -10 -4 -19 7 -28
15 -12 15 -12 -3 -6 -11 3 -23 11 -26 15 -3 5 -20 10 -37 10 -17 1 -29 5 -26
10 6 9 5 9 -48 12 -20 2 -48 10 -63 20 -14 9 -31 14 -37 10 -6 -4 -8 -3 -5 3
4 7 -8 13 -28 17 -20 4 -35 13 -35 21 0 7 -11 22 -25 33 -14 11 -25 27 -25 36
0 9 -6 16 -14 16 -8 0 -19 14 -25 30 -5 17 -15 30 -20 30 -6 0 -11 5 -11 11 0
5 4 7 10 4 6 -3 7 1 4 9 -3 9 -10 16 -15 16 -4 0 -16 14 -26 30 -14 24 -23 30
-40 25 -13 -3 -23 -1 -23 5 0 5 6 10 13 10 7 1 4 6 -6 15 -11 7 -25 11 -33 8
-8 -3 -14 0 -14 6 0 6 -7 8 -15 5 -8 -4 -15 -1 -15 5 0 6 5 11 10 11 6 0 10 4
10 8 0 5 -10 8 -21 8 -14 -1 -30 12 -46 37 -24 38 -24 39 -3 44 23 6 22 28 -1
28 -8 0 -17 5 -21 10 -4 6 -8 1 -8 -10 0 -17 -2 -17 -10 -5 -6 10 -10 11 -10
3 0 -23 -50 -15 -60 9 -5 13 -20 37 -35 53 -15 17 -37 42 -51 58 -13 15 -34
27 -47 26 l-22 0 23 -16 c12 -8 22 -19 22 -24 0 -5 34 -41 75 -81 41 -40 75
-76 75 -81 0 -4 12 -19 28 -33 15 -14 71 -68 124 -120 54 -52 102 -94 108 -94
5 0 10 -6 10 -13 0 -12 53 -67 65 -67 11 0 35 -28 35 -40 0 -6 36 -47 80 -92
44 -44 80 -83 80 -85 0 -10 122 -137 230 -240 30 -28 61 -58 68 -65 37 -38 55
-49 82 -51 26 -2 27 -3 13 -19 -14 -16 -14 -18 0 -24 23 -8 49 20 40 43 -6 16
-5 17 9 2 9 -8 18 -24 22 -35 3 -10 3 -2 0 18 -2 20 0 39 6 43 5 3 10 1 10 -5
0 -7 7 -10 15 -6 10 4 15 -1 15 -14 0 -22 15 -27 24 -7 5 9 7 9 12 0 3 -7 10
-13 15 -13 6 0 6 7 0 19 -6 10 -7 21 -3 25 3 4 -1 4 -10 1 -18 -7 -33 9 -23
25 5 8 11 7 21 -1 12 -10 16 -8 20 9 4 12 11 19 20 15 16 -6 19 13 3 22 -12 8
34 35 60 35 23 1 59 31 44 37 -7 3 -13 9 -13 14 0 4 7 6 15 3 8 -3 25 6 40 22
18 19 25 23 25 11 0 -19 16 -31 31 -21 7 4 1 16 -17 31 -26 23 -27 25 -6 19
13 -5 22 -3 22 3 0 6 6 11 14 11 9 0 12 -8 8 -26 -4 -20 -1 -25 9 -22 18 6 25
48 9 58 -8 5 -6 11 5 20 10 8 15 9 15 1 0 -6 4 -11 10 -11 15 0 50 33 50 47 0
7 6 13 14 13 8 0 18 9 21 21 4 11 9 18 12 15 3 -2 21 4 40 15 19 11 52 21 74
22 44 2 46 5 22 22 -9 7 -13 17 -9 23 11 18 20 15 31 -10 12 -27 35 -35 35
-13 0 10 -5 15 -14 12 -10 -4 -13 3 -12 23 1 29 16 55 16 29 1 -10 5 -8 15 5
15 19 15 19 15 -2 0 -12 4 -22 10 -22 5 0 7 8 3 18 -5 13 -3 14 7 5 7 -6 19
-9 26 -6 7 3 20 -2 29 -10 17 -17 20 -37 6 -37 -5 0 -12 -11 -15 -25 -6 -24
-46 -55 -46 -36 0 5 7 11 15 15 20 7 19 40 -2 57 -14 12 -16 12 -11 -1 8 -24
-29 -90 -47 -84 -8 4 -15 2 -15 -4 0 -5 7 -12 15 -16 22 -8 18 -25 -10 -38
-20 -9 -22 -14 -14 -29 8 -16 6 -19 -11 -19 -11 0 -20 -4 -20 -9 0 -5 -25 -12
-55 -16 -39 -4 -55 -11 -55 -22 0 -24 -25 -9 -26 16 -1 13 -8 27 -15 32 -22
14 -33 11 -19 -6 6 -8 9 -19 5 -25 -3 -5 1 -18 11 -27 12 -12 13 -18 4 -21 -6
-2 -17 1 -23 7 -18 18 -27 13 -27 -19 0 -16 -4 -30 -10 -30 -5 0 -7 -6 -4 -14
5 -12 -27 -30 -48 -27 -5 1 -8 -6 -8 -14 0 -8 -4 -15 -10 -15 -5 0 -12 -11
-16 -25 -3 -14 -10 -22 -15 -19 -5 3 -10 -3 -10 -13 -1 -10 -2 -25 -3 -33 0
-8 -10 -15 -21 -16 -55 -2 -61 -4 -45 -14 8 -5 12 -12 8 -15 -8 -9 -48 13 -48
26 0 6 -4 8 -9 4 -5 -3 -12 -1 -16 5 -3 5 -12 10 -18 10 -7 0 -3 -7 7 -15 19
-15 19 -15 1 -28 -20 -16 -12 -39 10 -30 8 3 15 0 15 -5 0 -15 -18 -24 -25
-13 -3 6 -13 7 -21 4 -15 -5 -15 -7 0 -15 9 -5 16 -14 16 -20 0 -9 -3 -9 -12
0 -20 20 -40 15 -33 -8 5 -16 2 -20 -17 -20 -40 0 -51 -20 -25 -44 12 -12 33
-37 46 -56 32 -47 74 -85 112 -100 27 -11 33 -11 40 2 17 31 97 130 173 215
72 80 116 139 186 243 68 100 161 232 170 240 4 3 20 25 37 50 39 57 64 116
57 135 -4 9 0 12 14 8 14 -3 23 4 35 30 10 19 17 42 17 50 0 8 7 17 15 21 8 3
15 11 15 17 0 6 8 19 18 28 9 9 25 32 34 51 98 205 121 283 55 190 -16 -22
-33 -40 -38 -40 -5 0 -9 -6 -9 -14 0 -7 -7 -19 -15 -26 -8 -7 -15 -21 -15 -32
0 -10 -10 -23 -22 -28 -13 -5 -17 -9 -9 -9 11 -1 8 -7 -7 -24 -12 -13 -19 -26
-15 -30 3 -4 -1 -15 -9 -24 -10 -11 -15 -32 -13 -53 l3 -35 -19 24 c-10 13
-19 19 -19 13 0 -16 -38 -21 -50 -7 -13 15 -21 125 -9 125 4 0 10 -6 12 -12 3
-8 6 -6 6 5 1 17 21 25 21 7 0 -5 13 -8 30 -7 16 1 30 3 30 4 0 1 -4 12 -9 26
-5 13 -5 30 -1 37 6 9 3 18 -8 27 -15 11 -14 12 11 13 24 0 32 9 28 33 0 4 4
7 10 7 8 0 8 4 0 13 -8 10 -4 19 19 36 17 12 28 26 25 32 -10 15 6 51 20 45 9
-3 11 2 8 17 -5 17 -3 20 7 10 10 -9 18 -6 36 15 19 20 22 28 12 35 -9 6 -8 7
5 3 11 -3 20 0 24 10 7 19 48 58 121 115 29 23 60 55 68 73 47 92 188 152 208
88 7 -20 20 -211 36 -507 6 -104 17 -296 25 -425 8 -129 20 -373 25 -542 l11
-308 65 -160 c35 -88 92 -245 125 -348 57 -177 84 -257 148 -432 15 -42 38
-120 50 -175 45 -201 52 -231 71 -300 11 -38 26 -96 35 -128 l16 -57 1304 0
c718 0 1305 2 1305 5 0 3 -35 37 -77 77 -114 108 -223 221 -223 233 0 16 67
65 88 65 13 0 22 9 26 26 10 36 19 121 20 169 1 22 5 43 11 47 7 5 6 8 -1 8
-5 0 -11 19 -13 42 -1 24 -9 54 -18 68 -24 37 -135 150 -147 150 -6 0 -22 6
-36 13 -14 7 -59 23 -100 36 -41 12 -86 29 -100 36 -27 14 -110 23 -126 13
-21 -14 -36 9 -29 43 4 19 11 39 15 44 15 20 50 192 56 278 3 48 10 90 15 93
5 3 9 17 9 32 1 37 42 187 68 245 12 27 22 53 22 58 0 6 16 35 35 65 19 30 35
56 35 59 0 16 74 110 128 163 94 92 179 134 219 109 7 -4 32 1 55 12 24 11 36
20 28 21 -16 0 -25 50 -9 50 5 0 9 -7 9 -16 0 -14 3 -14 15 -4 13 10 15 9 15
-8 0 -11 8 -23 18 -25 15 -4 15 -5 0 -6 -22 -1 -27 -36 -12 -88 7 -24 9 -43 6
-43 -3 0 -1 -5 6 -12 7 -7 12 -18 12 -26 0 -8 11 -25 26 -38 14 -13 22 -24 18
-24 -3 0 -1 -7 6 -15 10 -12 9 -15 -8 -15 -18 0 -19 -3 -10 -47 6 -27 19 -57
29 -69 23 -24 25 -44 5 -44 -11 0 -13 -7 -6 -30 5 -16 6 -30 2 -30 -4 0 0 -6
8 -13 8 -7 17 -28 18 -47 5 -48 19 -70 43 -67 19 2 55 -43 75 -93 3 -8 12 -27
20 -42 8 -14 14 -34 14 -44 0 -10 10 -28 22 -41 17 -18 18 -23 6 -23 -9 0 -31
27 -51 63 -19 34 -40 61 -46 60 -6 -2 -15 7 -21 18 -14 25 -5 53 12 43 8 -5 8
-1 -2 12 -8 10 -16 21 -17 23 -6 9 -33 -23 -33 -38 0 -22 23 -71 33 -71 4 0 7
-7 7 -15 0 -8 5 -15 10 -15 6 0 10 -8 10 -17 0 -10 9 -31 20 -48 12 -16 27
-45 35 -63 21 -48 74 -112 88 -106 14 5 98 -70 116 -104 7 -13 25 -25 41 -28
21 -5 27 -11 23 -22 -5 -12 -1 -14 15 -10 15 4 22 1 24 -13 4 -26 22 -25 26 1
2 12 -2 20 -10 20 -17 0 -58 53 -63 82 -3 11 -14 27 -25 35 -11 8 -17 19 -14
25 5 8 -6 9 -34 5 -39 -5 -57 5 -29 17 9 3 7 9 -5 19 -10 8 -18 18 -18 23 0 5
-7 22 -15 38 -8 15 -12 32 -9 37 9 16 -24 57 -48 61 -13 2 -22 6 -20 11 1 4 2
18 2 32 0 14 5 25 11 25 5 0 8 -4 5 -9 -6 -10 16 -21 42 -21 13 0 11 4 -6 20
-26 24 -28 37 -7 37 8 0 15 -4 15 -9 0 -4 9 -8 20 -8 17 0 18 3 8 25 -12 27
-24 32 -30 13 -3 -7 -12 -4 -27 11 -13 13 -20 29 -17 38 4 9 2 21 -3 27 -21
26 -60 104 -54 109 3 4 0 13 -6 21 -7 8 -10 20 -6 26 3 5 1 10 -4 10 -6 0 -11
9 -11 19 0 11 -5 23 -10 26 -20 12 -36 71 -38 135 -2 36 -7 66 -11 68 -5 2 -7
12 -4 22 3 11 -2 31 -11 45 -22 33 -20 62 4 68 11 3 20 11 20 17 0 7 -7 10
-17 6 -14 -6 -14 -3 3 15 10 12 14 19 8 16 -16 -9 -27 22 -14 38 6 7 10 26 8
42 -2 22 1 28 15 27 10 -1 16 3 14 10 -2 6 2 26 10 44 8 19 11 42 8 53 -4 10
-2 19 3 19 10 0 48 -70 44 -82 -1 -5 3 -8 9 -8 6 0 9 6 6 14 -3 7 1 23 10 35
13 20 13 24 -1 40 -9 10 -16 31 -14 48 2 31 -38 91 -79 119 -13 8 -23 19 -23
25 0 6 13 1 29 -10 16 -12 36 -21 45 -21 9 0 16 -3 16 -7 0 -5 13 -16 30 -25
28 -16 29 -16 35 3 8 25 29 19 33 -9 3 -19 52 -62 52 -44 0 4 -9 27 -20 50
-32 67 -25 79 22 37 15 -13 35 -43 44 -67 9 -24 24 -50 34 -58 9 -9 20 -33 24
-53 12 -63 49 -137 69 -137 9 0 17 -7 17 -15 0 -18 -2 -18 -43 -1 -40 16 -129
95 -121 107 3 5 10 7 15 4 5 -4 9 -1 9 4 0 6 -4 11 -10 11 -5 0 -10 8 -10 18
0 23 -46 67 -80 77 -14 4 -28 13 -32 18 -10 16 -7 -55 3 -75 7 -12 4 -18 -11
-23 -20 -6 -28 -35 -10 -35 6 0 9 -3 8 -7 -1 -5 1 -21 5 -38 4 -16 9 -57 11
-90 5 -69 20 -113 44 -131 13 -9 14 -15 4 -26 -13 -16 -6 -78 9 -78 5 0 9 -8
10 -17 0 -14 2 -13 9 5 10 23 4 52 -10 52 -4 0 -10 6 -13 14 -4 9 0 13 10 12
16 -3 52 -69 53 -98 0 -10 14 -24 30 -33 17 -9 30 -19 30 -24 0 -4 18 -36 40
-70 22 -34 41 -74 41 -89 l1 -27 7 30 c4 17 3 48 -1 70 -10 58 -10 115 2 115
6 0 10 -4 10 -9 0 -5 15 -26 34 -46 26 -27 38 -53 51 -108 9 -40 22 -83 30
-97 l14 -25 1 30 c0 17 -5 47 -11 68 -20 74 14 72 55 -4 15 -27 31 -49 36 -49
5 0 16 -16 25 -35 9 -19 23 -39 31 -46 8 -6 14 -16 14 -22 0 -6 -9 -1 -20 11
-28 29 -34 28 -14 -3 9 -14 20 -25 24 -25 5 0 12 -9 15 -21 4 -11 20 -36 37
-55 19 -22 28 -40 24 -51 -4 -9 -1 -20 6 -25 11 -6 11 -10 0 -16 -10 -7 -10
-16 0 -46 16 -47 34 -47 31 -1 -3 45 6 44 37 -3 14 -20 30 -41 37 -45 7 -4 13
-17 13 -27 0 -11 5 -20 10 -20 6 0 10 -10 10 -22 1 -13 7 -34 14 -46 11 -21
14 -22 28 -9 16 16 42 7 44 -15 0 -7 5 -22 9 -32 6 -13 4 -21 -3 -24 -15 -5
-15 -35 0 -50 7 -7 23 -12 38 -12 18 0 21 -3 11 -9 -11 -7 -10 -13 4 -34 9
-14 23 -28 31 -31 8 -3 14 -14 14 -25 0 -11 7 -26 15 -35 8 -8 15 -22 15 -32
0 -10 8 -26 17 -36 15 -16 15 -21 3 -28 -17 -11 -17 -11 42 -39 47 -22 47 -23
29 -43 -13 -14 -26 -18 -40 -13 -24 7 -29 -10 -6 -19 8 -3 15 -12 15 -21 0 -8
7 -15 15 -15 9 0 12 -6 8 -15 -3 -10 8 -29 30 -50 21 -21 41 -53 48 -78 7 -23
20 -49 30 -59 11 -9 19 -19 19 -21 0 -3 18 -33 40 -66 22 -33 40 -65 40 -70 0
-6 23 -36 51 -67 54 -59 109 -165 109 -208 l0 -26 621 0 621 0 -7 133 c-3 72
-10 152 -13 177 -6 40 -10 45 -32 45 -18 0 -26 -6 -28 -22 -2 -16 2 -23 12
-23 23 0 20 -16 -5 -34 -19 -13 -26 -13 -49 -1 -23 12 -40 33 -40 51 0 2 10 4
23 4 15 0 29 11 42 32 11 18 19 37 17 41 -1 4 6 11 15 14 24 9 43 35 38 51 -3
7 -1 21 4 30 11 21 -10 157 -29 191 -10 19 -11 17 -33 -74 -8 -33 -23 -76 -34
-95 -25 -44 -49 -47 -46 -5 1 17 2 46 3 65 1 19 -1 54 -5 77 -5 30 -4 48 5 58
7 9 10 18 6 22 -3 3 -6 1 -6 -6 0 -7 -15 -18 -34 -26 -21 -9 -41 -28 -53 -52
-22 -43 -43 -51 -67 -28 -21 21 -21 84 -1 91 30 12 15 32 -30 38 -38 6 -46 11
-51 34 -3 15 -9 34 -15 42 -20 32 -21 41 -5 65 17 26 42 25 32 -1 -3 -8 -1
-14 4 -14 6 0 10 7 10 15 0 28 33 35 75 16 l40 -18 27 25 c32 29 52 25 76 -17
15 -27 49 -47 60 -36 12 12 -27 71 -79 119 -33 31 -59 58 -59 61 0 3 13 -1 30
-10 16 -8 36 -15 44 -15 8 0 26 -14 39 -30 14 -17 28 -26 31 -21 11 17 -17 72
-41 82 -13 5 -22 13 -19 18 4 5 -2 17 -11 27 -16 16 -18 15 -27 -5 -10 -24
-31 -29 -22 -5 3 9 6 22 6 30 0 14 47 10 83 -8 21 -11 35 15 19 35 -6 6 -10
23 -10 37 -1 50 -12 175 -18 193 -5 15 -12 18 -35 13 -17 -3 -38 -1 -47 4 -9
5 -34 16 -54 24 -31 12 -38 20 -38 41 0 15 3 25 8 23 4 -2 33 -16 64 -32 31
-16 63 -26 71 -23 19 7 13 58 -8 73 -10 7 -14 17 -11 22 10 16 -24 72 -44 72
-9 0 -23 7 -30 15 -7 8 -16 12 -21 9 -5 -3 -9 1 -9 9 0 8 -12 17 -27 20 -16 3
-52 28 -80 55 -50 47 -68 71 -40 56 10 -6 10 -4 0 7 -7 7 -12 24 -12 39 1 16
3 19 6 7 2 -9 10 -17 18 -17 7 0 18 -7 25 -15 9 -11 16 -12 31 -2 14 9 21 9
31 -1 6 -6 19 -12 28 -12 8 0 33 -17 55 -36 l40 -36 9 30 c9 33 2 67 -13 58
-12 -8 -28 13 -37 49 -7 27 -6 29 9 16 29 -24 21 10 -15 60 -43 60 -89 100
-102 91 -6 -4 -36 -9 -66 -11 -30 -2 -61 -6 -69 -11 -8 -4 -23 2 -39 16 -26
25 -52 30 -68 14 -6 -6 -19 -1 -37 14 -28 24 -36 41 -14 34 6 -3 21 4 32 15
20 20 20 20 -15 12 -78 -17 -153 -6 -188 27 -15 14 -45 45 -67 69 -44 49 -91
80 -81 54 6 -16 -13 -55 -26 -55 -5 0 -8 6 -8 13 0 16 -47 40 -61 31 -14 -8
-67 15 -97 43 -14 13 -36 26 -49 29 -13 4 -23 10 -23 15 0 5 -7 9 -15 9 -9 0
-18 7 -21 15 -4 8 -10 13 -14 10 -5 -3 -36 12 -69 34 -33 21 -84 46 -113 55
-63 20 -136 54 -143 66 -3 5 -31 17 -63 26 -31 10 -65 24 -74 32 -10 8 -26 15
-37 16 -11 0 -36 14 -56 31 -53 42 -104 67 -90 45 3 -5 1 -10 -5 -10 -7 0 -10
7 -6 15 3 9 -3 19 -17 26 -12 7 -28 20 -35 30 -12 17 -111 69 -131 69 -6 0
-11 5 -11 10 0 6 -13 10 -28 10 -26 0 -72 28 -72 44 0 3 16 0 35 -8 20 -9 37
-11 40 -5 5 7 -18 21 -55 34 -3 1 -13 5 -24 10 -10 4 -37 8 -60 7 -106 -3
-151 0 -170 11 -19 10 -19 12 -3 15 37 8 7 42 -38 42 -33 0 -83 -28 -55 -31 8
-1 -7 -5 -35 -9 -37 -5 -66 -2 -110 11 -33 10 -81 18 -107 17 -25 0 -51 3 -57
6 -6 4 -11 1 -11 -6 0 -8 -14 -14 -35 -15 -38 -2 -114 -27 -155 -52 -52 -30
-137 -136 -171 -211 -11 -25 -25 -53 -30 -62 -5 -9 -12 -35 -15 -58 -4 -24
-12 -40 -21 -40 -7 0 -18 -11 -23 -25 -5 -14 -17 -28 -26 -32 -11 -4 -14 -13
-9 -31 5 -22 3 -24 -16 -19 -33 9 -49 -10 -49 -54 0 -29 -3 -37 -14 -33 -54
21 -120 -96 -145 -256 -4 -25 -10 -51 -15 -58 -4 -7 -1 -19 8 -28 20 -19 20
-54 1 -100 -8 -20 -22 -75 -31 -122 -9 -48 -22 -98 -29 -112 -15 -31 -55 -189
-53 -210 3 -18 -11 -104 -22 -145 -19 -70 -43 -141 -51 -150 -5 -5 -9 -41 -9
-80 0 -51 -6 -82 -20 -110 -11 -22 -20 -51 -20 -65 0 -14 -4 -31 -9 -38 -8
-13 -23 -4 -96 61 -32 29 -169 139 -216 175 -24 18 -66 49 -94 70 -27 21 -115
85 -195 141 -80 57 -150 110 -156 117 -6 8 -15 14 -19 14 -4 0 -30 16 -56 35
-27 19 -53 35 -58 35 -5 0 -11 7 -15 15 -3 8 -12 15 -19 15 -21 0 -67 39 -77
66 -8 21 -4 112 14 279 3 28 13 124 21 215 8 91 20 210 25 265 5 55 12 132 15
170 3 39 7 88 10 110 3 22 10 85 15 140 5 55 12 111 14 125 5 31 14 115 21
200 20 260 52 552 65 615 6 28 14 79 16 115 14 179 36 426 54 610 11 113 25
257 30 320 6 63 22 221 35 350 13 129 36 357 50 505 14 149 29 297 33 330 4
33 6 70 4 83 -4 26 -34 31 -31 5 1 -10 -5 -35 -15 -55 -9 -21 -16 -47 -16 -58
0 -11 -5 -20 -11 -20 -6 0 -8 -7 -5 -16 3 -8 -2 -27 -11 -41 -19 -29 -25 -48
-24 -80 0 -11 -6 -23 -13 -26 -8 -3 -17 -28 -21 -59 -4 -29 -12 -62 -18 -73
-6 -11 -11 -23 -12 -27 0 -3 -3 -10 -7 -14 -5 -4 -8 -15 -8 -25 0 -10 -11 -35
-25 -55 -27 -40 -31 -54 -15 -54 6 0 4 -10 -5 -23 -8 -13 -12 -27 -8 -30 3 -4
-2 -16 -12 -27 -10 -11 -14 -20 -9 -20 5 0 1 -5 -8 -11 -10 -5 -18 -15 -18
-22 0 -7 -6 -24 -14 -39 -8 -15 -12 -35 -10 -45 3 -10 -2 -27 -11 -38 -12 -16
-14 -17 -9 -2 8 21 -9 23 -26 2 -7 -8 -9 -15 -4 -15 5 0 10 -21 11 -46 2 -36
-1 -45 -12 -40 -18 6 -28 -27 -23 -75 3 -31 1 -34 -22 -33 -22 1 -26 -4 -28
-27 -2 -22 2 -29 15 -29 12 0 14 -3 6 -11 -8 -8 -18 -6 -37 6 -28 19 -34 35
-12 35 12 0 22 28 28 78 1 6 5 12 9 12 3 0 9 9 12 20 3 13 0 20 -8 20 -14 0
-30 -18 -30 -34 0 -5 -6 -11 -14 -14 -8 -3 -11 0 -8 5 3 5 2 15 -3 23 -7 11
-9 4 -8 -22 1 -21 5 -38 10 -38 4 0 8 -7 8 -16 0 -8 -4 -12 -10 -9 -6 4 -10
-6 -10 -24 0 -16 -4 -33 -10 -36 -6 -3 -7 1 -4 10 4 10 -2 24 -16 37 l-22 21
6 -21 c9 -26 -11 -65 -29 -59 -9 4 -12 -4 -11 -25 1 -34 -19 -50 -27 -21 -4
16 -6 15 -12 -4 -5 -17 -15 -23 -36 -23 -28 0 -47 -16 -34 -28 4 -4 10 -1 12
6 10 26 25 11 19 -19 -5 -26 -4 -30 8 -20 17 14 28 1 16 -18 -4 -8 -13 -10
-20 -6 -10 6 -12 0 -7 -25 9 -41 24 -60 48 -60 26 0 33 19 15 39 -17 19 -4 43
19 35 7 -3 16 -1 20 5 5 10 -7 15 -27 12 -18 -3 -6 17 13 22 16 4 20 12 17 39
-2 23 1 33 12 33 8 0 20 11 26 24 14 28 40 45 48 33 3 -5 -4 -19 -16 -31 -15
-17 -18 -25 -9 -34 9 -9 14 -8 21 3 15 24 20 6 14 -44 -5 -31 -13 -50 -25 -57
-11 -5 -19 -16 -19 -23 0 -8 -9 -16 -20 -19 -12 -3 -20 -14 -20 -26 0 -12 -7
-24 -15 -27 -10 -4 -15 -20 -15 -45 0 -33 -3 -39 -21 -39 -12 0 -18 4 -13 11
3 6 0 15 -7 20 -22 14 -33 10 -19 -6 7 -9 11 -18 8 -20 -8 -8 -36 5 -41 18 -2
7 -3 5 -2 -4 3 -18 -40 -43 -56 -34 -5 4 -9 1 -9 -6 0 -7 -2 -10 -5 -7 -11 11
7 58 22 58 12 0 12 2 -1 15 -20 20 -23 19 -30 -10 -6 -24 -26 -35 -26 -14 0 5
-4 7 -10 4 -16 -10 -12 -33 8 -38 14 -4 15 -5 1 -6 -9 0 -20 -12 -23 -26 -4
-14 -11 -25 -16 -25 -6 0 -10 -7 -10 -16 0 -11 5 -14 16 -10 9 3 27 9 42 13
21 5 24 3 19 -11 -4 -9 -1 -16 5 -16 7 0 6 -5 -2 -15 -11 -14 -7 -19 13 -16 4
0 7 -3 7 -9 0 -5 -4 -10 -10 -10 -5 0 -10 -7 -10 -15 0 -9 -9 -15 -24 -15 -13
0 -26 -6 -29 -12 -2 -7 -8 -10 -12 -6 -10 9 17 36 32 31 18 -6 26 16 8 23 -10
4 -12 11 -7 18 13 17 22 46 14 46 -4 0 -20 -11 -36 -25 -16 -14 -35 -26 -43
-26 -24 -3 -28 -4 -50 -24 -13 -11 -23 -27 -23 -37 0 -13 -8 -18 -31 -18 -25
0 -30 -3 -25 -17 4 -9 1 -20 -6 -25 -10 -6 -9 -8 3 -8 8 0 20 5 26 11 8 8 13
8 17 0 4 -6 1 -11 -7 -11 -8 0 -18 -7 -21 -16 -9 -22 -8 -24 9 -18 11 5 13 2
9 -9 -4 -13 -11 -14 -32 -6 -14 6 -32 15 -38 20 -15 12 -54 -9 -54 -28 0 -7
-3 -12 -7 -12 -20 3 -34 -2 -29 -10 4 -5 0 -12 -6 -14 -10 -4 -10 -6 0 -6 6
-1 12 -6 12 -12 0 -6 -10 -9 -22 -7 -13 2 -29 -4 -36 -12 -12 -13 -13 -13 -8
3 4 11 0 17 -10 17 -10 0 -14 -6 -11 -15 4 -8 2 -17 -3 -20 -6 -4 -10 1 -10
10 0 11 -7 14 -24 11 -20 -3 -23 0 -23 20 0 17 4 23 12 20 8 -3 16 2 19 10 9
24 8 26 -13 19 -15 -5 -19 -1 -18 14 0 11 4 18 8 15 4 -2 9 3 13 11 3 9 0 15
-10 15 -25 0 -42 23 -34 45 7 21 -12 70 -23 59 -3 -4 -14 -3 -24 1 -28 13 -63
15 -63 4 0 -5 7 -9 15 -9 8 0 15 -4 15 -10 0 -6 -9 -6 -25 0 -20 8 -25 6 -25
-6 0 -8 5 -12 10 -9 5 3 10 1 10 -4 0 -6 -4 -11 -9 -11 -5 0 -8 -11 -7 -25 0
-14 7 -25 14 -25 17 0 15 -37 -4 -48 -8 -5 -21 -20 -28 -33 -7 -13 -18 -23
-25 -21 -6 1 -14 -5 -18 -14 -5 -13 -10 -10 -32 14 -14 16 -33 39 -41 51 -14
20 -16 20 -27 5 -18 -25 -26 -11 -12 20 13 27 6 47 -11 30 -5 -5 -11 -21 -13
-34 -3 -18 -10 -24 -23 -22 -11 2 -26 4 -34 6 -9 1 -20 5 -26 9 -14 8 -24 -1
-24 -25 0 -10 -6 -18 -14 -18 -8 0 -17 -12 -20 -26 -5 -18 -12 -24 -22 -20 -9
3 -22 6 -30 6 -7 0 -12 6 -10 13 1 6 1 9 -1 5 -3 -5 -11 -8 -19 -8 -8 0 -11
-6 -8 -15 4 -8 10 -12 15 -9 5 3 9 1 9 -5 0 -5 -5 -11 -11 -13 -8 -3 -5 -10 6
-22 15 -15 16 -19 4 -27 -12 -8 -11 -12 4 -23 19 -15 20 -56 0 -75 -8 -7 -13
-8 -13 -1 0 5 -5 10 -12 10 -6 0 -4 -7 5 -18 21 -23 21 -32 2 -32 -14 0 -14
-3 1 -24 10 -17 21 -23 32 -19 9 4 3 -5 -14 -20 -38 -32 -54 -34 -54 -7 0 11
-4 20 -10 20 -5 0 -10 -4 -10 -10 0 -5 -7 -7 -15 -4 -8 4 -15 1 -15 -5 0 -6
-16 -26 -35 -44 -19 -17 -35 -35 -35 -39 0 -4 12 -9 28 -11 21 -4 19 -4 -7 -3
-30 1 -36 5 -43 34 -5 18 -15 32 -23 32 -8 0 -15 -2 -15 -5 0 -12 24 -55 32
-55 4 0 8 -7 8 -15 0 -8 -4 -15 -10 -15 -5 0 -10 6 -10 14 0 8 -8 14 -19 13
-11 0 -17 -6 -14 -14 3 -7 1 -13 -5 -13 -15 0 -24 -31 -13 -44 7 -9 4 -18 -11
-30 -15 -13 -22 -15 -28 -6 -6 9 -9 9 -15 0 -5 -8 -11 -6 -20 7 -13 17 -14 17
-21 -2 -9 -22 -29 -45 -39 -45 -4 0 -5 7 -1 15 5 14 -14 21 -39 15 -5 -2 -18
-2 -27 -2 -11 0 -18 -6 -18 -18 0 -10 -10 -22 -21 -25 -18 -6 -20 -13 -16 -41
3 -19 1 -36 -5 -40 -13 -8 -28 15 -21 33 4 11 -1 12 -21 7 -22 -5 -26 -3 -26
16 0 11 -4 18 -10 15 -17 -11 -12 -63 8 -68 14 -4 14 -6 -5 -12 -26 -8 -28
-22 -9 -47 16 -22 26 -23 26 -3 0 8 -5 15 -12 15 -27 0 4 13 36 15 37 2 69 21
60 36 -6 11 26 12 42 1 6 -4 13 -18 17 -30 5 -20 2 -23 -14 -19 -11 3 -19 0
-19 -8 0 -7 -8 -15 -17 -19 -10 -3 -24 -9 -32 -12 -9 -5 -11 -3 -6 6 5 9 4 11
-3 6 -15 -9 -16 -36 -2 -36 6 0 10 -11 10 -25 0 -14 -4 -25 -10 -25 -5 0 -10
7 -10 15 0 8 -4 15 -10 15 -5 0 -10 -4 -10 -10 0 -18 -21 -10 -45 18 -14 16
-22 34 -19 45 6 19 -12 24 -19 5 -3 -7 -6 -1 -6 14 -1 19 -9 31 -33 42 -23 12
-34 13 -39 5 -4 -6 -12 -8 -18 -5 -6 4 -11 0 -11 -9 0 -10 -7 -15 -17 -13 -21
4 -43 22 -43 37 0 5 -9 16 -20 24 -11 8 -17 17 -12 21 4 4 8 12 8 17 1 5 2 14
3 19 0 6 9 10 18 10 15 0 15 2 -2 14 -11 8 -25 12 -32 9 -7 -3 -13 0 -13 6 0
6 -4 11 -10 11 -5 0 -10 -7 -10 -15 0 -19 -21 -19 -46 0 -10 8 -31 15 -46 15
-29 0 -98 -29 -98 -41 0 -9 -37 -18 -45 -11 -15 16 -42 8 -68 -19 -16 -18 -35
-28 -45 -26 -15 4 -15 5 1 6 9 0 17 6 17 12 0 5 -5 7 -10 4 -6 -3 -17 1 -26 9
-9 9 -21 13 -27 9 -7 -3 -9 -3 -5 1 4 5 -1 16 -10 26 -12 12 -27 16 -55 12
-35 -4 -38 -7 -33 -28 6 -24 -7 -32 -30 -16 -14 9 -35 72 -28 83 3 5 -3 6 -12
2 -14 -5 -16 -1 -12 24 4 27 1 29 -21 28 -15 -2 -34 -6 -45 -10 -15 -7 -17 -5
-11 13 5 19 2 22 -20 22 -23 0 -25 -2 -14 -21 9 -17 8 -24 -4 -36 -13 -13 -17
-13 -36 6 -11 11 -19 26 -17 33 1 7 1 10 -1 6 -7 -12 -33 -10 -33 2 0 6 7 13
15 16 24 10 17 26 -7 20 l-23 -6 22 11 c18 9 25 8 38 -5 21 -20 31 -20 39 0 5
14 4 15 -8 5 -12 -10 -13 -8 -9 10 6 20 3 21 -22 15 -25 -6 -27 -5 -16 8 11
13 11 16 -2 16 -9 0 -19 -4 -22 -10 -3 -6 -12 -10 -18 -10 -8 0 -7 3 2 9 22
14 -34 61 -73 62 -26 0 -28 2 -11 8 17 7 15 9 -15 16 -19 4 -46 18 -59 32 -14
13 -27 20 -30 15 -3 -5 -14 -11 -23 -15 -13 -4 -18 -1 -19 11 0 11 -3 9 -10
-8 l-10 -25 -21 25 c-13 16 -18 19 -14 8 3 -11 0 -18 -8 -18 -8 0 -13 8 -12
17 0 9 -10 23 -24 30 -16 8 -19 13 -9 13 15 0 19 11 20 53 0 25 -28 67 -46 68
-8 1 -19 3 -25 4 -5 1 -14 3 -20 4 -5 0 -6 9 -3 19 6 15 5 16 -12 2 -17 -14
-18 -13 -12 3 3 9 2 17 -3 17 -6 0 -10 -4 -10 -10 0 -5 -5 -10 -11 -10 -5 0
-9 10 -7 23 3 19 -1 22 -29 19 -25 -2 -33 1 -33 12 0 9 -7 16 -15 16 -8 0 -15
-4 -15 -10 0 -5 -6 -9 -12 -7 -8 1 -13 -7 -12 -20 1 -13 -6 -23 -17 -26 -14
-4 -18 0 -16 17 1 11 6 24 11 27 5 4 -7 23 -27 42 -19 20 -32 39 -29 43 4 4
-3 1 -15 -5 -13 -6 -23 -16 -23 -21 0 -6 -7 -10 -16 -10 -8 0 -13 -4 -10 -9
10 -16 -5 -43 -18 -32 -6 5 -27 13 -46 18 -27 7 -35 15 -35 31 0 29 -22 42
-56 35 -30 -6 -47 15 -44 52 5 58 5 58 19 46 10 -8 16 -8 24 2 17 20 -5 37
-46 37 -18 0 -42 5 -54 11 -11 6 -22 8 -25 5 -11 -11 20 -36 43 -36 13 0 24
-5 24 -10 0 -6 -11 -8 -27 -4 -36 8 -35 8 -55 0 -10 -5 -18 -14 -18 -21 0 -8
-8 -11 -20 -8 -11 3 -17 9 -14 14 3 5 -2 9 -12 9 -13 0 -14 3 -4 15 7 8 10 22
6 30 -5 14 -8 14 -28 1 -22 -14 -23 -14 -25 11 -2 44 -63 75 -63 32 0 -11 -4
-18 -9 -15 -5 3 -8 21 -6 38 4 41 -23 73 -32 39 -3 -13 -13 -21 -27 -21 -20 1
-20 2 -3 14 9 7 17 20 17 29 0 10 6 13 19 10 23 -6 34 10 26 38 -4 13 -12 18
-22 15 -11 -5 -13 -2 -9 11 4 9 1 20 -6 25 -10 6 -10 8 0 8 6 0 12 5 12 10 0
17 -58 -18 -65 -39 -3 -10 -19 -24 -35 -31 -16 -6 -31 -19 -35 -27 -4 -12 -2
-13 7 -5 10 8 19 5 36 -13 20 -20 20 -24 5 -29 -9 -4 -19 -3 -22 2 -3 5 -16
14 -28 21 -14 7 -25 25 -29 46 -5 30 -9 34 -33 32 -14 -2 -34 -7 -43 -11 -22
-10 -52 0 -43 14 4 6 3 10 -2 9 -24 -4 -43 3 -43 15 0 12 -40 46 -54 46 -3 0
-10 -9 -16 -20 -9 -16 -8 -20 5 -20 8 0 15 7 15 15 0 13 5 11 23 -5 22 -21 22
-22 3 -36 -24 -17 -46 -18 -46 -2 0 6 -7 19 -16 29 -8 9 -16 31 -16 48 -1 17
-6 31 -13 31 -13 0 -14 48 -1 68 4 7 -3 14 -19 18 -17 4 -24 11 -21 20 4 11
-1 13 -18 8 -14 -3 -27 -1 -31 7 -5 8 -4 10 3 5 7 -4 12 -5 12 -3 0 3 -14 14
-31 25 -31 19 -31 20 -11 31 18 10 20 15 10 30 -7 12 -18 16 -31 13 -11 -3
-18 -1 -14 4 9 16 -18 42 -62 60 -27 11 -40 21 -37 30 3 7 -1 26 -9 41 -8 15
-15 34 -15 42 0 7 -12 24 -26 36 -22 19 -23 23 -10 34 12 10 13 16 3 32 -14
22 -27 25 -27 6 0 -7 -10 -21 -22 -31 -18 -15 -20 -16 -15 -2 4 9 2 16 -3 16
-6 0 -10 7 -10 15 0 9 -6 12 -15 9 -9 -4 -15 0 -15 7 -1 9 -4 8 -11 -3 -5 -10
-19 -18 -29 -18 -23 0 -24 4 -8 33 10 19 9 20 -4 9 -13 -10 -17 -10 -22 3 -3
9 -10 13 -16 10 -6 -4 -7 -11 -4 -17 5 -7 0 -9 -14 -6 -13 4 -20 2 -19 -6 4
-19 -36 -5 -66 24 -16 16 -26 33 -22 39 3 6 -2 12 -12 12 -10 1 -32 3 -49 4
-33 3 -33 5 -34 -92 0 -25 -4 -30 -18 -26 -13 3 -18 -2 -20 -20 -1 -19 4 -26
24 -31 15 -4 29 -5 32 -1 3 3 0 5 -6 5 -16 0 -4 27 15 34 11 5 13 2 9 -9 -6
-16 10 -52 29 -68 6 -5 3 -7 -7 -4 -9 3 -19 0 -21 -7 -7 -17 8 -40 21 -32 6 4
8 -2 5 -14 -6 -22 -23 -37 -23 -20 0 7 -6 8 -18 1 -10 -6 -28 -8 -40 -4 -17 4
-20 1 -15 -17 4 -16 0 -23 -16 -27 -11 -3 -21 -9 -21 -13 0 -10 -50 2 -50 13
0 15 -42 48 -56 43 -18 -7 -18 -4 6 36 19 33 14 68 -9 54 -6 -4 -11 -1 -11 7
0 7 -11 20 -25 27 -16 9 -22 17 -16 24 12 15 2 66 -14 66 -6 0 -20 9 -30 20
-14 16 -16 23 -7 32 7 7 12 17 12 22 0 6 -7 2 -15 -8 -13 -17 -15 -18 -21 -2
-3 9 -1 30 6 46 10 25 10 32 -4 45 -9 9 -14 21 -11 26 4 5 -2 6 -12 2 -17 -6
-17 -6 0 14 17 20 17 20 -8 18 -14 -2 -25 0 -25 5 0 9 30 24 43 22 4 -1 7 5 7
13 0 18 16 20 26 4 3 -6 0 -16 -7 -21 -11 -8 -10 -8 4 -4 10 3 27 1 37 -4 13
-7 21 -7 25 0 3 5 -1 10 -10 10 -9 0 -19 9 -22 20 -3 11 -14 20 -24 20 -11 0
-19 7 -19 18 0 13 -2 14 -9 4 -6 -10 -17 -11 -42 -5 -26 7 -36 16 -44 41 -5
18 -13 32 -17 32 -4 0 -8 6 -8 14 0 8 -6 17 -12 19 -10 4 -10 6 0 6 6 1 12 5
12 11 0 5 -15 7 -32 5 -18 -3 -27 -3 -20 1 6 3 12 14 12 25 0 10 4 19 8 19 4
0 9 10 9 22 2 18 0 20 -7 8 -5 -8 -10 -11 -10 -6 0 6 -7 1 -15 -10 -18 -23
-20 -2 -3 29 10 20 10 21 -6 8 -9 -8 -19 -11 -23 -8 -9 10 18 38 30 30 6 -4 8
0 4 10 -3 10 -2 17 3 17 6 0 10 5 10 11 0 6 -9 8 -22 3 -19 -6 -21 -5 -10 8
10 12 8 18 -8 33 -24 22 -25 32 -5 51 8 8 12 21 8 30 -5 13 -7 12 -18 -2 -11
-15 -12 -15 -18 5 -3 14 0 24 9 28 20 8 17 31 -6 43 -11 6 -20 18 -20 26 0 9
-5 12 -12 8 -9 -5 -9 -2 1 9 9 11 10 17 2 17 -6 0 -11 9 -11 20 0 15 -7 20
-24 20 -14 0 -28 5 -31 10 -3 6 1 10 9 10 8 0 23 16 32 35 9 19 21 35 26 35 5
0 6 5 3 10 -4 7 -14 3 -25 -10 -22 -26 -40 -26 -33 0 3 12 0 20 -7 20 -6 0
-10 6 -7 13 2 6 10 12 17 12 7 0 15 6 18 13 2 7 -2 10 -12 6 -17 -7 -22 11 -6
21 5 3 10 20 9 38 -2 73 5 207 11 207 4 0 4 146 0 212 -1 14 -7 15 -38 6 -20
-6 -73 -11 -117 -12 -75 -1 -84 2 -150 38 -38 22 -81 47 -95 57 -46 31 -115
47 -219 50 -88 3 -104 1 -112 -13 -5 -10 -16 -15 -23 -12 -8 3 -17 -3 -21 -15
-7 -22 -56 -51 -87 -51 -10 0 -18 -4 -18 -10 0 -5 -7 -10 -15 -10 -9 0 -28
-11 -43 -25 -15 -14 -32 -25 -39 -25 -6 0 -13 -5 -15 -11 -2 -6 -32 -12 -66
-14 -34 -2 -72 -11 -84 -19 -30 -21 -41 -20 -35 4 4 15 0 20 -15 20 -19 0 -20
1 -5 18 10 11 13 27 10 45 -5 23 -2 27 17 27 19 0 20 2 10 15 -10 12 -9 16 3
21 9 3 21 3 27 -1 6 -4 23 1 37 11 15 9 42 17 61 16 26 -1 35 3 39 18 3 10 12
21 20 24 21 8 6 26 -17 21 -14 -3 -20 2 -20 14 0 29 -22 42 -44 25 -26 -19
-42 -18 -26 1 11 13 9 19 -10 35 -31 27 -54 9 -46 -34 8 -44 -4 -59 -38 -47
-14 6 -29 18 -32 26 -7 18 14 48 27 39 5 -3 9 2 9 10 0 8 8 16 18 18 14 3 13
5 -6 10 -12 3 -20 2 -17 -2 9 -15 -56 -1 -96 20 -9 4 -43 8 -77 7 -55 -2 -60
0 -59 18 0 11 5 26 10 33 6 8 6 12 -1 12 -6 0 -14 -4 -17 -10 -3 -5 -11 -10
-16 -10 -6 0 -1 13 10 29 11 15 18 38 16 50 -5 29 4 51 22 51 11 0 13 7 8 29
-9 42 3 81 23 74 13 -4 12 -1 -3 10 -11 9 -15 17 -8 17 6 0 20 16 32 35 18 31
19 37 6 62 -21 39 -19 67 10 122 15 30 24 66 24 92 0 58 3 71 25 104 10 15 16
36 13 46 -3 10 -1 16 4 13 5 -3 12 3 15 13 3 10 10 26 15 35 5 10 9 24 9 32 0
8 16 42 36 77 19 35 38 77 41 94 6 31 50 102 78 125 21 18 65 111 65 139 0 12
7 29 15 37 21 22 19 33 -11 44 -35 14 -49 13 -64 -5z m-215 -1485 c3 -5 2 -10
-4 -10 -5 0 -13 5 -16 10 -3 6 -2 10 4 10 5 0 13 -4 16 -10z m70 -760 c-3 -5
-12 -7 -20 -3 -21 7 -19 13 6 13 11 0 18 -4 14 -10z m212 -55 c0 -8 -4 -15 -9
-15 -4 0 -8 5 -8 11 0 5 -4 7 -10 4 -5 -3 -10 -1 -10 4 0 6 8 11 18 11 10 0
19 -7 19 -15z m933 -85 c0 -5 -5 -10 -11 -10 -5 0 -7 5 -4 10 3 6 8 10 11 10
2 0 4 -4 4 -10z m-1813 -36 c13 -12 16 -39 16 -121 1 -91 -1 -106 -17 -115
-15 -8 -16 -12 -5 -20 11 -7 9 -8 -6 -6 -11 2 -26 16 -33 31 -7 15 -21 27 -30
27 -9 0 -28 3 -41 7 -20 5 -22 3 -17 -15 8 -25 -8 -37 -24 -17 -9 10 -9 23 -2
43 5 16 8 41 5 56 -7 33 14 58 82 97 28 16 46 29 42 29 -5 0 -5 5 -2 10 8 14
14 13 32 -6z m1908 6 c-3 -5 -13 -10 -21 -10 -8 0 -12 5 -9 10 3 6 13 10 21
10 8 0 12 -4 9 -10z m-9 -95 c1 -8 -2 -13 -7 -9 -5 3 -9 12 -9 21 0 19 13 9
16 -12z m34 -39 c0 -3 -4 -8 -10 -11 -5 -3 -10 -1 -10 4 0 6 5 11 10 11 6 0
10 -2 10 -4z m-6 -45 c12 -13 14 -21 6 -26 -6 -4 -12 -5 -13 -4 -1 2 -8 14
-15 27 -15 27 -2 29 22 3z m-1317 -373 c-3 -8 -6 -5 -6 6 -1 11 2 17 5 13 3
-3 4 -12 1 -19z m553 18 c0 -2 -7 -9 -15 -16 -13 -11 -14 -10 -9 4 5 14 24 23
24 12z m-147 -71 c-3 -9 -8 -14 -10 -11 -3 3 -2 9 2 15 9 16 15 13 8 -4z
m-362 -28 c-10 -9 -11 -8 -5 6 3 10 9 15 12 12 3 -3 0 -11 -7 -18z m127 -88
c-2 -6 -8 -10 -13 -10 -5 0 -11 4 -13 10 -2 6 4 11 13 11 9 0 15 -5 13 -11z
m1725 -6 c-3 -7 -9 -13 -14 -13 -5 0 -9 6 -9 13 0 8 6 14 14 14 8 0 12 -6 9
-14z m31 1 c3 -8 2 -12 -4 -9 -6 3 -10 10 -10 16 0 14 7 11 14 -7z m-1720 -19
c-4 -8 -12 -15 -20 -15 -8 0 -14 -5 -14 -12 0 -6 -3 -8 -7 -5 -7 8 25 47 38
47 5 0 6 -7 3 -15z m96 5 c0 -5 -4 -10 -10 -10 -5 0 -10 5 -10 10 0 6 5 10 10
10 6 0 10 -4 10 -10z m1640 -20 c0 -5 -5 -10 -11 -10 -5 0 -7 5 -4 10 3 6 8
10 11 10 2 0 4 -4 4 -10z m115 -30 c-3 -5 -11 -10 -16 -10 -6 0 -7 5 -4 10 3
6 11 10 16 10 6 0 7 -4 4 -10z m123 -18 c2 -7 -2 -10 -12 -6 -9 3 -16 11 -16
16 0 13 23 5 28 -10z m-307 -238 c14 -17 46 -18 52 -1 3 6 6 3 6 -8 1 -16 3
-17 11 -5 7 12 12 12 21 3 17 -17 -8 -46 -33 -40 -15 4 -16 2 -7 -14 7 -15 6
-19 -6 -19 -8 0 -15 -8 -15 -17 0 -15 -4 -13 -19 7 -11 13 -17 28 -15 32 3 4
-4 8 -15 8 -14 0 -21 6 -21 20 0 11 6 20 13 20 6 1 2 6 -11 13 -12 7 -20 16
-17 19 9 9 43 -2 56 -18z m5444 -74 c8 -13 -5 -13 -25 0 -13 8 -13 10 2 10 9
0 20 -4 23 -10z m-5473 -32 c-13 -13 -46 -2 -37 11 3 6 12 8 20 4 9 -3 15 1
16 8 0 12 2 12 6 1 3 -8 1 -18 -5 -24z m585 -4 c-3 -3 -12 -4 -19 -1 -8 3 -5
6 6 6 11 1 17 -2 13 -5z m4843 -39 c0 -8 -4 -15 -10 -15 -5 0 -7 7 -4 15 4 8
8 15 10 15 2 0 4 -7 4 -15z m-175 -65 c3 -6 -1 -7 -9 -4 -18 7 -21 14 -7 14 6
0 13 -4 16 -10z m-4210 -240 c3 -5 -3 -10 -14 -10 -12 0 -21 5 -21 10 0 6 6
10 14 10 8 0 18 -4 21 -10z m4215 -40 c0 -5 -7 -6 -17 -3 -11 4 -14 3 -9 -5 4
-7 2 -12 -4 -12 -8 0 -10 -10 -6 -27 4 -19 4 -23 -3 -14 -5 7 -13 11 -19 7 -5
-3 -13 1 -16 10 -10 26 -7 36 10 30 11 -4 15 -2 11 8 -4 10 2 16 16 18 25 5
37 1 37 -12z m-150 -15 c7 -9 8 -15 2 -15 -5 0 -12 7 -16 15 -3 8 -4 15 -2 15
2 0 9 -7 16 -15z m-3960 -20 c-7 -9 -15 -13 -17 -11 -7 7 7 26 19 26 6 0 6 -6
-2 -15z m4015 5 c3 -5 1 -10 -4 -10 -6 0 -11 5 -11 10 0 6 2 10 4 10 3 0 8 -4
11 -10z m-3908 -52 c-3 -8 -6 -5 -6 6 -1 11 2 17 5 13 3 -3 4 -12 1 -19z
m3933 -13 c7 0 15 -6 18 -12 2 -8 -5 -13 -16 -13 -20 0 -33 19 -31 48 0 13 2
13 8 -3 5 -11 14 -20 21 -20z m-48 -83 c-7 -2 -12 -12 -12 -23 0 -13 -7 -19
-22 -18 -18 1 -19 2 -5 6 14 4 16 8 6 19 -9 11 -8 14 4 14 8 0 18 8 22 18 6
14 8 14 13 3 3 -8 0 -17 -6 -19z m48 18 c0 -5 -4 -10 -10 -10 -5 0 -10 5 -10
10 0 6 5 10 10 10 6 0 10 -4 10 -10z m-600 -30 c0 -5 -7 -10 -16 -10 -8 0 -12
5 -9 10 3 6 10 10 16 10 5 0 9 -4 9 -10z m457 -12 c-3 -8 -6 -5 -6 6 -1 11 2
17 5 13 3 -3 4 -12 1 -19z m-455 -79 c-12 -5 -22 -15 -22 -24 0 -8 -4 -15 -8
-15 -12 0 -11 32 2 46 6 6 19 9 30 6 19 -5 18 -6 -2 -13z m440 -11 c-7 -7 -12
-8 -12 -2 0 14 12 26 19 19 2 -3 -1 -11 -7 -17z m-725 -30 c-3 -8 -6 -5 -6 6
-1 11 2 17 5 13 3 -3 4 -12 1 -19z m603 -10 c0 -6 -3 -8 -7 -5 -3 4 -13 1 -22
-6 -14 -11 -14 -10 -2 6 15 20 31 22 31 5z m-3033 -48 c-4 -16 0 -20 21 -21
26 -1 26 -1 -6 -12 -18 -5 -35 -8 -38 -5 -8 9 7 58 18 58 6 0 8 -9 5 -20z
m2788 -10 c3 -5 -1 -10 -9 -10 -9 0 -16 5 -16 10 0 6 4 10 9 10 6 0 13 -4 16
-10z m-2711 -47 c-9 -38 -24 -53 -24 -25 0 19 17 50 28 52 1 0 -1 -12 -4 -27z
m2540 8 c-12 -12 -23 -15 -29 -9 -11 10 10 28 34 28 11 0 9 -5 -5 -19z m-2632
-33 c-9 -9 -12 -7 -12 12 0 19 3 21 12 12 9 -9 9 -15 0 -24z m223 12 c3 -5 -1
-10 -10 -10 -9 0 -13 5 -10 10 3 6 8 10 10 10 2 0 7 -4 10 -10z m-129 -39 c-4
-5 7 -12 23 -16 l30 -6 -20 -20 c-22 -22 -52 -19 -43 5 3 8 0 17 -6 21 -9 6
-9 10 1 16 18 11 22 11 15 0z m-1031 -67 c-18 -19 -24 -18 -22 5 1 12 7 17 19
13 15 -3 15 -6 3 -18z m35 -20 c0 -14 -3 -14 -15 -4 -8 7 -15 14 -15 16 0 2 7
4 15 4 8 0 15 -7 15 -16z m3160 -4 c0 -5 -4 -10 -10 -10 -5 0 -10 5 -10 10 0
6 5 10 10 10 6 0 10 -4 10 -10z m-1760 -61 c0 -6 -4 -7 -10 -4 -5 3 -10 11
-10 16 0 6 5 7 10 4 6 -3 10 -11 10 -16z m244 -162 c4 4 4 -1 0 -12 -5 -11 -9
-14 -12 -7 -2 7 -13 12 -25 12 -18 0 -19 2 -7 10 9 5 19 5 26 0 6 -6 14 -7 18
-3z m-1689 -17 c3 -5 1 -10 -4 -10 -6 0 -11 5 -11 10 0 6 2 10 4 10 3 0 8 -4
11 -10z m12 -36 c-3 -3 -12 -4 -19 -1 -8 3 -5 6 6 6 11 1 17 -2 13 -5z m183
-114 c0 -5 -5 -10 -11 -10 -5 0 -7 5 -4 10 3 6 8 10 11 10 2 0 4 -4 4 -10z
m2069 -61 c-13 -26 -23 -18 -14 10 3 12 11 19 16 16 5 -4 5 -14 -2 -26z m41 2
c0 -5 -7 -11 -15 -15 -15 -5 -20 5 -8 17 9 10 23 9 23 -2z m190 -31 c0 -5 -7
-7 -15 -4 -8 4 -15 8 -15 10 0 2 7 4 15 4 8 0 15 -4 15 -10z m-2026 -35 c-4
-8 -10 -15 -15 -15 -5 0 -9 7 -9 15 0 8 7 15 15 15 9 0 12 -6 9 -15z m36 5 c0
-5 -4 -10 -10 -10 -5 0 -10 5 -10 10 0 6 5 10 10 10 6 0 10 -4 10 -10z m-47
-60 c-13 -5 -23 -14 -23 -20 0 -5 -4 -10 -10 -10 -14 0 -12 27 3 33 6 3 21 5
32 6 18 0 18 -1 -2 -9z m172 -148 c-19 -4 -50 25 -33 30 7 3 20 -3 30 -11 16
-14 17 -16 3 -19z m53 -17 c-3 -3 -9 2 -12 12 -6 14 -5 15 5 6 7 -7 10 -15 7
-18z m49 -27 c-3 -8 -6 -5 -6 6 -1 11 2 17 5 13 3 -3 4 -12 1 -19z m-93 -3
c-4 -8 -8 -15 -10 -15 -2 0 -4 7 -4 15 0 8 4 15 10 15 5 0 7 -7 4 -15z m1810
-441 c3 -8 2 -12 -4 -9 -6 3 -10 10 -10 16 0 14 7 11 14 -7z m4528 -16 c22
-18 81 -80 130 -138 126 -146 128 -149 128 -159 0 -5 6 -11 13 -14 9 -3 12
-16 9 -36 -2 -19 0 -31 7 -31 6 0 11 9 11 20 0 32 22 23 56 -23 33 -45 42 -65
48 -112 5 -38 16 -66 33 -83 7 -7 16 -25 19 -40 4 -15 16 -37 27 -50 15 -16
18 -25 10 -33 -8 -8 -27 -2 -67 21 -31 17 -61 28 -66 25 -13 -8 -32 4 -25 15
3 5 18 5 34 0 26 -7 27 -6 23 18 -3 14 -11 37 -18 51 -11 20 -11 26 1 35 12 9
12 14 0 30 -7 10 -18 15 -24 12 -14 -9 -65 49 -97 109 -40 75 -98 158 -102
146 -2 -6 11 -36 30 -67 62 -104 59 -98 41 -111 -23 -18 -26 -17 -46 18 -10
18 -20 29 -24 25 -9 -9 -33 14 -33 31 0 13 3 13 15 3 12 -10 15 -10 15 3 0 9
-10 19 -22 23 -13 4 -29 15 -36 25 -7 11 -17 19 -21 19 -14 0 -21 -30 -12 -48
5 -9 15 -31 21 -49 11 -29 60 -80 194 -198 31 -27 56 -53 56 -57 0 -22 -32 -1
-91 60 -36 37 -90 84 -120 104 -30 21 -66 55 -79 77 -14 22 -31 41 -37 41 -7
0 -13 4 -13 9 0 5 -16 20 -37 32 -29 18 -33 24 -19 29 15 5 14 8 -6 26 -13 12
-31 24 -40 27 -10 4 -18 13 -18 22 0 8 -4 15 -9 15 -12 0 -11 59 1 66 5 3 19
-1 31 -9 34 -22 88 -31 97 -17 6 9 14 8 33 -4 24 -16 25 -16 31 9 5 20 -1 37
-26 73 -18 25 -44 56 -58 69 -38 34 -14 27 32 -9z m154 5 c25 -8 33 -7 41 6 9
13 14 14 32 4 11 -7 31 -13 44 -13 13 0 67 -29 121 -65 54 -35 103 -62 107
-59 5 3 27 -9 50 -27 42 -33 62 -32 41 1 -17 28 0 25 28 -5 13 -14 61 -50 107
-81 45 -31 83 -59 83 -63 0 -5 11 -21 24 -36 14 -16 24 -31 23 -35 -3 -8 35
-82 51 -98 7 -8 20 -28 28 -45 9 -18 28 -44 42 -59 21 -23 23 -28 9 -28 -9 0
-17 6 -17 14 0 16 -27 29 -34 17 -5 -8 48 -90 65 -101 4 -3 4 -12 -1 -20 -11
-18 -39 10 -92 90 -20 30 -53 72 -72 93 -20 21 -36 42 -36 47 0 4 -13 14 -30
21 -16 8 -31 23 -32 34 -2 13 -11 20 -25 20 -14 0 -38 17 -63 44 -22 24 -40
42 -40 39 0 -16 59 -111 125 -203 20 -27 45 -65 57 -83 13 -20 26 -31 35 -28
8 3 11 1 8 -4 -5 -8 29 -64 92 -146 12 -17 23 -36 23 -42 0 -7 4 -12 8 -12 4
0 14 -16 21 -36 9 -24 22 -39 41 -46 19 -6 33 -22 44 -47 8 -21 33 -55 55 -77
23 -21 41 -44 41 -50 0 -7 6 -19 13 -26 17 -20 39 -59 34 -64 -8 -8 -67 53
-67 69 0 10 -5 17 -11 17 -5 0 -7 -4 -4 -10 3 -5 1 -10 -5 -10 -6 0 -8 10 -4
25 4 17 2 25 -7 25 -15 0 -59 39 -59 53 0 10 -41 63 -91 118 -43 48 -57 67
-64 88 -3 11 -24 43 -46 71 -21 27 -39 52 -39 55 0 14 -45 65 -57 65 -7 0 -13
7 -13 15 0 8 -7 15 -15 15 -8 0 -32 26 -54 59 -22 32 -47 61 -56 65 -9 3 -13
10 -10 16 3 5 0 10 -8 10 -7 0 -23 14 -35 30 -24 31 -48 41 -38 15 9 -24 -10
-17 -43 16 -17 17 -31 39 -31 50 0 11 -4 17 -10 14 -5 -3 -10 1 -10 10 0 9
-14 31 -32 48 -29 28 -33 30 -36 13 -2 -10 2 -22 10 -27 7 -5 9 -9 5 -9 -5 0
1 -16 13 -35 20 -32 21 -75 1 -75 -12 0 -35 52 -32 72 3 20 -38 74 -129 173
-63 68 -81 83 -127 104 -13 6 -23 19 -23 31 0 16 4 18 23 11 12 -4 36 -13 53
-18z m-696 -13 c0 -5 -4 -10 -10 -10 -5 0 -10 5 -10 10 0 6 5 10 10 10 6 0 10
-4 10 -10z m-4010 -30 c0 -11 -4 -20 -9 -20 -7 0 -8 17 -2 38 4 10 11 -2 11
-18z m4093 -40 c3 -11 1 -20 -4 -20 -5 0 -9 2 -9 4 0 2 -3 11 -6 20 -3 9 -2
16 4 16 5 0 12 -9 15 -20z m-4133 -41 c0 -6 -7 -17 -15 -25 -13 -14 -16 -14
-21 1 -4 10 -1 21 7 26 19 12 29 11 29 -2z m30 -13 c0 -8 -7 -16 -15 -20 -13
-4 -14 -2 -5 14 13 23 20 26 20 6z m4351 -158 c20 -25 25 -48 9 -48 -12 0 -31
35 -23 44 3 3 1 6 -5 6 -7 0 -12 5 -12 10 0 16 10 12 31 -12z m-318 -95 c9
-17 21 -35 27 -38 5 -3 10 -16 10 -28 0 -20 0 -20 -15 -1 -8 11 -15 14 -15 7
0 -7 -5 -13 -11 -13 -6 0 -8 9 -4 23 7 22 7 22 -8 2 -20 -26 -23 -21 -30 43
-4 34 -2 52 5 52 5 0 7 7 4 16 -3 9 -3 21 1 27 4 7 10 -3 13 -23 4 -19 14 -49
23 -67z m1575 -83 c9 -14 19 -27 22 -30 4 -3 12 -19 19 -37 7 -17 21 -39 32
-49 10 -9 19 -25 19 -34 0 -10 7 -23 15 -30 9 -7 13 -15 10 -18 -6 -6 -49 38
-120 123 -48 56 -75 103 -75 126 0 16 61 -23 78 -51z m-5815 -16 c-4 -10 -9
-12 -15 -6 -12 12 -1 35 12 27 5 -3 6 -13 3 -21z m4241 10 c21 -20 20 -43 -1
-66 -14 -16 -15 -21 -4 -27 8 -5 10 -14 7 -20 -4 -6 -4 -11 1 -11 4 0 8 -26 8
-59 0 -57 0 -58 -16 -32 -9 14 -18 37 -21 51 -4 14 -9 35 -11 47 -3 13 -1 25
4 28 5 4 7 11 4 16 -4 5 -2 9 4 9 6 0 6 11 0 32 -5 18 -9 36 -9 40 0 13 18 9
34 -8z m496 6 c0 -5 -5 -10 -11 -10 -5 0 -7 5 -4 10 3 6 8 10 11 10 2 0 4 -4
4 -10z m1485 -71 c11 -17 -1 -21 -15 -4 -8 9 -8 15 -2 15 6 0 14 -5 17 -11z
m-6350 -8 c3 -5 1 -12 -5 -16 -5 -3 -10 1 -10 9 0 18 6 21 15 7z m4405 -11 c0
-5 -2 -10 -4 -10 -3 0 -8 5 -11 10 -3 6 -1 10 4 10 6 0 11 -4 11 -10z m1975
-10 c3 -5 1 -10 -4 -10 -6 0 -11 5 -11 10 0 6 2 10 4 10 3 0 8 -4 11 -10z
m-208 -46 c18 -20 33 -40 33 -44 0 -4 7 -10 15 -14 8 -3 15 -10 15 -16 0 -11
-10 -5 -59 41 -30 27 -57 69 -45 69 4 0 23 -16 41 -36z m-237 -35 c42 -45 38
-57 -5 -15 -33 33 -41 46 -30 46 3 0 18 -14 35 -31z m715 -78 c-8 -8 -45 32
-45 48 1 11 8 7 25 -14 13 -16 22 -31 20 -34z m-565 24 c7 -9 8 -15 2 -15 -5
0 -12 7 -16 15 -3 8 -4 15 -2 15 2 0 9 -7 16 -15z m-150 -21 c12 -21 12 -27 1
-34 -9 -5 -11 -15 -6 -26 4 -11 11 -32 16 -48 8 -29 8 -29 -10 -10 -30 33 -41
60 -41 103 0 48 19 55 40 15z m-508 -26 c7 -13 11 -26 10 -30 -1 -4 10 -29 24
-55 15 -26 32 -58 38 -70 6 -12 20 -27 31 -33 23 -13 61 -87 50 -98 -9 -9 -45
35 -45 55 0 8 -4 12 -9 8 -6 -3 -14 3 -20 12 -10 17 -10 17 -11 1 0 -10 -4
-18 -10 -18 -5 0 -10 7 -10 16 0 9 -11 25 -25 36 -14 11 -25 28 -25 37 0 10
-12 30 -26 44 -23 24 -24 26 -7 36 17 10 16 10 -4 11 -28 0 -37 14 -18 30 8 7
15 19 15 26 0 22 28 16 42 -8z m1303 2 c3 -6 -1 -7 -9 -4 -18 7 -21 14 -7 14
6 0 13 -4 16 -10z m-506 -61 c33 -61 37 -95 5 -42 -9 15 -25 40 -35 55 -20 29
-24 48 -11 48 5 0 23 -27 41 -61z m-259 21 c0 -5 -2 -10 -4 -10 -3 0 -8 5 -11
10 -3 6 -1 10 4 10 6 0 11 -4 11 -10z m-395 -91 c12 -19 -5 -23 -22 -6 -16 16
-16 17 -1 17 9 0 20 -5 23 -11z m520 -28 c3 -5 1 -12 -5 -16 -5 -3 -10 1 -10
9 0 18 6 21 15 7z m-435 -89 c0 -8 7 -12 18 -10 10 2 16 11 14 21 -4 22 14 22
26 1 10 -18 -13 -54 -33 -54 -12 0 -39 29 -72 78 -35 50 -27 62 12 18 19 -22
35 -46 35 -54z m640 58 c0 -5 -2 -10 -4 -10 -3 0 -8 5 -11 10 -3 6 -1 10 4 10
6 0 11 -4 11 -10z m-162 -42 c7 -7 12 -21 12 -32 0 -20 -2 -19 -20 4 -11 14
-20 28 -20 33 0 11 15 8 28 -5z m-748 -30 c0 -4 16 -10 35 -14 39 -7 47 -24
12 -24 -13 0 -32 9 -42 20 -10 11 -26 22 -36 25 -11 4 -19 10 -19 15 0 4 11 3
25 -3 14 -7 25 -15 25 -19z m940 0 c0 -16 -3 -19 -11 -11 -6 6 -8 16 -5 22 11
17 16 13 16 -11z m-707 -34 c-5 -15 -25 -15 -24 -1 1 4 1 14 1 23 0 13 3 14
14 4 8 -6 12 -18 9 -26z m-43 -35 c0 -5 7 -9 15 -9 8 0 15 5 15 10 0 6 7 10
15 10 8 0 15 -5 15 -11 0 -7 9 -9 23 -5 18 4 25 -1 35 -24 7 -16 22 -32 33
-35 19 -6 27 -45 10 -45 -6 0 -45 22 -88 50 -43 27 -84 50 -91 50 -19 0 -42
25 -42 45 0 14 4 13 30 -5 17 -12 30 -26 30 -31z m150 35 c0 -8 -4 -12 -10 -9
-5 3 -10 10 -10 16 0 5 5 9 10 9 6 0 10 -7 10 -16z m620 -4 c0 -5 -2 -10 -4
-10 -3 0 -8 5 -11 10 -3 6 -1 10 4 10 6 0 11 -4 11 -10z m-571 -40 c6 0 11 -4
11 -10 0 -5 -3 -10 -7 -10 -11 0 -43 33 -43 44 0 6 7 3 14 -6 7 -10 18 -18 25
-18z m631 -62 c0 -12 -10 -9 -26 6 -20 21 -17 28 6 14 11 -7 20 -16 20 -20z
m-190 -8 c0 -5 -2 -10 -4 -10 -3 0 -8 5 -11 10 -3 6 -1 10 4 10 6 0 11 -4 11
-10z m4 -40 c18 0 49 -36 44 -52 -5 -14 -69 49 -67 67 0 5 3 4 6 -2 2 -7 10
-13 17 -13z m-437 4 c-3 -3 -12 -4 -19 -1 -8 3 -5 6 6 6 11 1 17 -2 13 -5z
m69 -21 c-7 -7 -26 7 -26 19 0 6 6 6 15 -2 9 -7 13 -15 11 -17z m35 -26 c8 -7
24 -24 33 -39 10 -16 24 -28 32 -28 8 0 11 -6 8 -15 -4 -10 0 -15 13 -15 25 0
35 -10 24 -24 -6 -7 3 -25 25 -50 25 -28 32 -42 24 -50 -7 -7 -21 1 -46 29
-19 22 -58 64 -86 93 -36 38 -47 56 -39 62 8 4 1 10 -21 14 -31 7 -32 8 -14
21 24 18 26 18 47 2z m319 -72 c0 -7 11 -24 25 -39 16 -17 19 -26 10 -26 -8 0
-26 20 -40 43 -28 50 -32 65 -10 47 8 -7 15 -18 15 -25z m-1573 -61 c-12 -12
-25 7 -19 28 l5 22 10 -22 c6 -12 7 -25 4 -28z m1457 -49 c13 -19 13 -23 2
-19 -8 3 -16 14 -19 25 -7 25 -3 24 17 -6z m206 -5 c0 -5 -2 -10 -4 -10 -3 0
-8 5 -11 10 -3 6 -1 10 4 10 6 0 11 -4 11 -10z m-860 -51 c0 -6 -4 -7 -10 -4
-5 3 -10 11 -10 16 0 6 5 7 10 4 6 -3 10 -11 10 -16z m740 -59 c25 -33 48 -59
53 -60 4 0 7 -6 7 -14 0 -7 7 -19 15 -26 8 -7 15 -17 15 -22 0 -5 -18 5 -40
23 -21 17 -38 34 -37 38 3 11 -46 61 -60 61 -8 0 -13 12 -13 30 0 17 3 30 8
30 4 -1 27 -27 52 -60z m-110 10 c0 -5 -2 -10 -4 -10 -3 0 -8 5 -11 10 -3 6
-1 10 4 10 6 0 11 -4 11 -10z m1006 -44 c15 -16 18 -26 6 -26 -4 0 -13 9 -20
20 -14 23 -7 26 14 6z m-1556 -56 c0 -5 -2 -10 -4 -10 -3 0 -8 5 -11 10 -3 6
-1 10 4 10 6 0 11 -4 11 -10z m1415 -120 c3 -5 1 -10 -4 -10 -6 0 -11 5 -11
10 0 6 2 10 4 10 3 0 8 -4 11 -10z m-3397 -72 c7 -9 3 -23 -13 -46 l-23 -33
-5 33 c-4 31 6 58 23 58 4 0 12 -6 18 -12z m42 8 c0 -11 -19 -15 -25 -6 -3 5
1 10 9 10 9 0 16 -2 16 -4z m242 -227 c15 -8 19 -8 14 0 -4 7 1 11 13 11 23 0
28 -15 8 -23 -8 -3 -26 -30 -41 -61 -35 -71 -40 -71 -89 -5 -25 34 -26 36 -8
51 45 38 69 45 103 27z m2098 -70 c0 -10 -12 -11 -34 -3 -25 10 -19 22 9 16
14 -2 25 -8 25 -13z m-1960 -24 c0 -8 -4 -15 -10 -15 -5 0 -10 7 -10 15 0 8 5
15 10 15 6 0 10 -7 10 -15z m2900 -55 c0 -5 -9 -10 -20 -10 -11 0 -20 5 -20
10 0 6 9 10 20 10 11 0 20 -4 20 -10z m-15444 -467 c-7 -18 -26 -17 -26 2 0 8
-5 15 -10 15 -17 0 -6 91 15 135 l20 40 3 -89 c2 -49 1 -95 -2 -103z m7949
127 c-3 -5 3 -10 14 -10 12 0 21 -4 21 -10 0 -15 -29 -12 -45 4 -14 13 -10 26
7 26 5 0 6 -4 3 -10z"/>
<path d="M13633 2513 c2 -5 13 -29 25 -55 23 -51 44 -72 34 -36 -6 26 -49 98
-58 98 -3 0 -3 -3 -1 -7z"/>
<path d="M13510 2490 c0 -5 5 -10 11 -10 5 0 7 5 4 10 -3 6 -8 10 -11 10 -2 0
-4 -4 -4 -10z"/>
<path d="M13540 2442 c0 -5 10 -17 21 -28 22 -19 22 -19 10 3 -12 24 -31 39
-31 25z"/>
<path d="M14180 2454 c0 -8 5 -12 10 -9 6 3 10 10 10 16 0 5 -4 9 -10 9 -5 0
-10 -7 -10 -16z"/>
<path d="M11045 8370 c-3 -5 -3 -10 2 -10 4 -1 -3 -7 -17 -15 -14 -8 -44 -14
-67 -15 -50 0 -143 -20 -143 -31 0 -4 -13 -10 -29 -14 -34 -7 -58 -30 -41 -40
5 -3 10 -25 10 -49 0 -41 -2 -43 -48 -65 -46 -22 -56 -24 -134 -37 -25 -4 -39
-13 -43 -25 -4 -11 -11 -16 -17 -13 -22 14 -163 10 -198 -4 -46 -19 -71 -29
-92 -36 -10 -3 -18 -15 -18 -26 0 -12 -4 -18 -10 -15 -17 11 -32 -5 -19 -21
13 -16 33 -19 24 -3 -4 6 2 13 14 16 12 3 21 14 22 27 1 15 3 16 6 5 3 -13 10
-15 31 -9 84 25 157 38 167 30 7 -6 15 -7 18 -3 4 3 7 -1 7 -10 0 -23 12 -21
30 3 16 22 45 26 54 8 3 -7 4 -1 1 15 -3 15 -1 27 5 27 5 0 10 -5 10 -11 0 -5
5 -7 10 -4 6 4 31 7 55 7 30 0 45 4 50 16 4 12 8 13 17 4 17 -17 38 -15 38 3
0 18 2 18 65 1 28 -7 85 -13 129 -14 43 -1 93 -6 110 -11 57 -17 125 -20 137
-5 18 22 48 18 42 -5 -8 -29 75 -40 138 -17 50 17 73 14 101 -14 10 -10 41
-20 77 -24 34 -4 61 -11 61 -17 0 -5 11 -14 25 -19 14 -5 25 -14 25 -19 0 -5
15 -18 33 -30 18 -11 60 -47 93 -80 69 -67 56 -68 129 11 31 35 38 62 25 98
-1 3 -2 13 -1 22 4 36 -31 87 -87 125 -81 55 -104 64 -144 52 -39 -11 -121 12
-141 41 -31 45 -152 62 -229 31 -34 -13 -60 -4 -56 18 2 11 16 17 45 19 25 2
48 11 58 23 17 18 17 19 -3 19 -11 0 -24 5 -27 10 -3 6 -14 10 -24 10 -10 0
-36 8 -57 17 -22 10 -43 18 -49 18 -5 1 -19 6 -30 12 -11 6 -38 14 -60 17 -22
4 -47 9 -57 12 -9 2 -19 0 -23 -6z m126 -40 c5 0 9 -4 9 -8 0 -5 -13 -9 -30
-9 -16 0 -30 3 -30 7 0 13 14 21 28 15 7 -3 18 -5 23 -5z m-134 -156 c-3 -3
-12 -4 -19 -1 -8 3 -5 6 6 6 11 1 17 -2 13 -5z m266 -8 c7 -17 -22 -31 -36
-17 -5 5 -6 14 -3 20 10 16 33 14 39 -3z m152 -96 c-3 -5 -13 -10 -21 -10 -8
0 -14 5 -14 10 0 6 9 10 21 10 11 0 17 -4 14 -10z"/>
<path d="M9067 8336 c-7 -19 45 -74 78 -82 21 -5 24 -3 18 12 -10 26 -35 54
-49 54 -7 0 -14 7 -18 15 -7 19 -22 19 -29 1z"/>
<path d="M5163 8058 c-16 -21 -43 -114 -43 -150 0 -35 31 -95 59 -115 16 -11
52 -75 65 -117 4 -10 9 -16 13 -13 11 11 12 61 1 74 -6 7 -7 13 -4 13 4 0 0
12 -8 28 -27 49 -58 161 -58 208 0 61 -10 91 -25 72z"/>
<path d="M8990 8060 c0 -5 5 -10 11 -10 5 0 7 5 4 10 -3 6 -8 10 -11 10 -2 0
-4 -4 -4 -10z"/>
<path d="M10530 7989 c0 -5 5 -7 10 -4 6 3 10 8 10 11 0 2 -4 4 -10 4 -5 0
-10 -5 -10 -11z"/>
<path d="M10601 7959 c-12 -5 -48 -7 -81 -4 -44 3 -60 0 -64 -11 -3 -7 -17
-14 -31 -14 -14 0 -25 -4 -25 -9 0 -5 -10 -11 -22 -14 -12 -4 -19 -9 -15 -13
7 -7 21 -9 117 -19 30 -3 69 -7 85 -9 17 -2 35 0 42 6 24 19 137 39 188 33 46
-6 49 -6 34 10 -9 9 -45 21 -85 26 -38 6 -81 14 -95 18 -14 4 -35 4 -48 0z"/>
<path d="M10724 7840 c-45 -4 -86 -10 -91 -13 -5 -3 -27 -7 -49 -8 -55 -2 -71
-7 -71 -23 0 -10 11 -13 41 -9 61 6 77 -11 85 -88 10 -101 49 -169 123 -219
50 -33 69 -40 109 -40 80 0 150 33 211 99 55 59 64 61 103 31 41 -31 66 -79
65 -123 -1 -23 6 -61 14 -85 19 -51 11 -72 -36 -95 -25 -12 -44 -14 -71 -7
-25 5 -39 4 -44 -3 -4 -6 -1 -13 5 -15 6 -2 9 -9 6 -17 -3 -7 -1 -16 5 -20 6
-3 11 -13 11 -21 0 -19 -49 -66 -61 -58 -5 3 -9 -4 -9 -14 0 -11 7 -23 16 -26
8 -3 13 -10 9 -15 -3 -5 -1 -12 4 -15 19 -12 70 7 120 45 28 21 59 39 69 39
13 0 14 2 4 9 -10 6 -4 10 18 15 48 9 50 8 50 -19 0 -23 2 -25 23 -14 12 7 32
23 44 36 12 12 26 23 31 23 4 0 14 17 21 38 8 20 30 51 50 68 l36 32 -23 19
-23 18 19 25 c14 18 21 44 23 85 2 66 -6 95 -28 95 -8 0 -11 -4 -8 -10 17 -28
-55 29 -79 62 -16 22 -34 37 -41 34 -7 -2 -35 11 -63 30 -28 19 -55 34 -60 34
-4 0 -46 18 -92 41 -68 33 -95 41 -149 43 -80 4 -136 13 -178 32 -17 8 -37 13
-45 13 -7 -1 -49 -5 -94 -9z m186 -120 c6 -12 4 -24 -6 -39 -20 -28 -61 -25
-81 6 -13 19 -12 24 5 41 23 23 68 19 82 -8z m445 -480 c-3 -5 -13 -10 -21
-10 -8 0 -14 5 -14 10 0 6 9 10 21 10 11 0 17 -4 14 -10z"/>
<path d="M10480 7800 c0 -5 5 -10 11 -10 5 0 7 5 4 10 -3 6 -8 10 -11 10 -2 0
-4 -4 -4 -10z"/>
<path d="M11696 7623 c-4 -5 -11 -8 -14 -8 -4 0 -17 -10 -30 -23 -17 -17 -20
-27 -13 -36 7 -9 7 -16 -2 -25 -9 -10 -8 -15 6 -26 13 -9 17 -20 12 -34 -4
-13 -2 -21 5 -21 18 0 40 26 40 47 0 11 5 24 11 30 20 20 20 103 0 103 -4 0
-11 -3 -15 -7z"/>
<path d="M11740 7590 c0 -5 5 -10 10 -10 6 0 10 5 10 10 0 6 -4 10 -10 10 -5
0 -10 -4 -10 -10z"/>
<path d="M5240 7474 c0 -8 5 -12 10 -9 6 4 8 11 5 16 -9 14 -15 11 -15 -7z"/>
<path d="M3730 7298 c0 -11 38 -10 44 1 3 5 -5 8 -19 7 -14 0 -25 -4 -25 -8z"/>
<path d="M10998 7263 c0 -5 -1 -23 -2 -41 -1 -24 3 -32 14 -30 8 1 22 -2 30
-6 9 -6 8 -1 -4 12 -12 14 -15 22 -7 22 7 0 11 6 8 13 -2 6 -9 11 -15 10 -6
-2 -9 4 -6 12 4 8 1 15 -5 15 -6 0 -12 -3 -13 -7z"/>
<path d="M3780 7251 c0 -5 5 -13 10 -16 6 -3 10 -2 10 4 0 5 -4 13 -10 16 -5
3 -10 2 -10 -4z"/>
<path d="M10880 7230 c0 -5 4 -10 9 -10 6 0 13 5 16 10 3 6 -1 10 -9 10 -9 0
-16 -4 -16 -10z"/>
<path d="M10955 7220 c-11 -17 5 -32 21 -19 8 6 14 15 14 20 0 12 -27 11 -35
-1z"/>
<path d="M5092 6837 c-9 -11 -10 -17 -2 -22 15 -9 23 -1 18 21 -3 15 -4 16
-16 1z"/>
<path d="M5100 6374 c0 -8 5 -12 10 -9 6 4 8 11 5 16 -9 14 -15 11 -15 -7z"/>
<path d="M8933 6207 c-44 -21 -61 -54 -23 -42 11 4 35 -1 53 -10 61 -31 127
-53 146 -48 22 5 109 -33 132 -59 10 -11 23 -16 33 -12 11 4 16 0 16 -14 0
-11 7 -22 15 -26 8 -3 14 -11 13 -18 -2 -7 3 -12 11 -10 7 1 18 -1 25 -6 6 -5
27 -10 47 -10 29 -1 38 3 42 19 4 13 0 22 -11 26 -9 4 -39 28 -67 54 -171 163
-315 215 -432 156z"/>
<path d="M8626 6141 c-3 -5 1 -14 8 -20 12 -10 13 -8 9 8 -6 23 -9 25 -17 12z"/>
<path d="M9755 6044 c-86 -26 -148 -43 -190 -52 -25 -5 -40 -13 -40 -22 0 -21
140 -21 177 0 22 12 32 13 62 2 20 -8 58 -15 84 -17 26 -2 61 -5 77 -7 27 -3
30 0 30 27 0 23 -9 35 -40 57 -46 31 -85 34 -160 12z"/>
<path d="M5180 6020 c0 -5 5 -10 10 -10 6 0 10 5 10 10 0 6 -4 10 -10 10 -5 0
-10 -4 -10 -10z"/>
<path d="M8875 5970 c3 -5 8 -10 11 -10 2 0 4 5 4 10 0 6 -5 10 -11 10 -5 0
-7 -4 -4 -10z"/>
<path d="M5195 5910 c3 -5 8 -10 11 -10 2 0 4 5 4 10 0 6 -5 10 -11 10 -5 0
-7 -4 -4 -10z"/>
<path d="M9550 5850 c0 -5 5 -10 10 -10 6 0 10 5 10 10 0 6 -4 10 -10 10 -5 0
-10 -4 -10 -10z"/>
<path d="M9696 5788 c-2 -11 -2 -26 0 -33 6 -16 34 -29 34 -16 0 5 18 11 40
15 45 7 45 21 2 38 -47 18 -70 17 -76 -4z"/>
<path d="M5300 5710 c0 -5 5 -10 10 -10 6 0 10 5 10 10 0 6 -4 10 -10 10 -5 0
-10 -4 -10 -10z"/>
<path d="M5310 5650 c0 -5 5 -10 11 -10 5 0 7 5 4 10 -3 6 -8 10 -11 10 -2 0
-4 -4 -4 -10z"/>
<path d="M5310 5610 c0 -5 5 -10 11 -10 5 0 7 5 4 10 -3 6 -8 10 -11 10 -2 0
-4 -4 -4 -10z"/>
<path d="M5335 5590 c-3 -5 -2 -10 4 -10 5 0 13 5 16 10 3 6 2 10 -4 10 -5 0
-13 -4 -16 -10z"/>
<path d="M5550 5510 c0 -5 7 -10 15 -10 8 0 15 5 15 10 0 6 -7 10 -15 10 -8 0
-15 -4 -15 -10z"/>
<path d="M5462 5480 c-16 -26 -15 -40 2 -40 15 0 29 41 18 52 -4 4 -13 -1 -20
-12z"/>
<path d="M5398 5453 c7 -3 16 -2 19 1 4 3 -2 6 -13 5 -11 0 -14 -3 -6 -6z"/>
<path d="M5392 5420 c7 -11 21 -23 31 -26 10 -3 16 -12 13 -19 -7 -19 4 -26
25 -15 11 6 20 6 23 1 4 -5 0 -11 -6 -14 -8 -3 -3 -9 12 -15 29 -11 46 -7 54
15 8 19 4 24 -21 27 -13 2 -17 10 -15 29 1 14 -2 28 -8 32 -5 3 -10 1 -10 -5
0 -6 -10 -8 -25 -4 -15 4 -25 2 -25 -5 0 -6 5 -12 10 -12 6 -1 15 -3 20 -4 6
-1 13 -3 18 -4 4 -1 -1 -8 -12 -16 -17 -13 -21 -11 -49 20 -33 38 -55 47 -35
15z"/>
<path d="M5660 5400 c0 -6 7 -13 15 -16 8 -4 12 -10 9 -15 -10 -17 13 -9 31
11 16 17 16 20 3 15 -9 -4 -26 -2 -37 5 -15 7 -21 7 -21 0z"/>
<path d="M5771 5384 c0 -11 3 -14 6 -6 3 7 2 16 -1 19 -3 4 -6 -2 -5 -13z"/>
<path d="M5860 5380 c0 -5 7 -10 15 -10 8 0 15 5 15 10 0 6 -7 10 -15 10 -8 0
-15 -4 -15 -10z"/>
<path d="M5647 5364 c-9 -9 4 -35 14 -28 5 3 9 12 9 20 0 14 -12 19 -23 8z"/>
<path d="M5567 5337 c-3 -9 -4 -24 0 -33 3 -9 0 -20 -8 -26 -10 -6 -6 -7 11
-2 33 9 33 7 17 45 -10 27 -15 30 -20 16z"/>
<path d="M5910 5342 c0 -7 -7 -12 -15 -12 -8 0 -15 -4 -15 -10 0 -5 7 -10 15
-10 17 0 32 27 21 37 -3 4 -6 1 -6 -5z"/>
<path d="M5955 5329 c-9 -14 -2 -20 14 -10 8 6 9 11 3 15 -6 3 -14 1 -17 -5z"/>
<path d="M5535 5310 c3 -5 8 -10 11 -10 2 0 4 5 4 10 0 6 -5 10 -11 10 -5 0
-7 -4 -4 -10z"/>
<path d="M5480 5300 c0 -5 5 -10 11 -10 5 0 7 5 4 10 -3 6 -8 10 -11 10 -2 0
-4 -4 -4 -10z"/>
<path d="M5500 5250 c0 -17 -4 -29 -9 -25 -5 3 -12 1 -16 -5 -3 -6 4 -10 18
-10 20 0 24 5 25 30 0 16 -4 32 -9 35 -5 4 -9 -8 -9 -25z"/>
<path d="M6053 5273 c-15 -5 -18 -43 -4 -43 5 0 11 11 13 25 3 14 5 25 4 24 0
0 -7 -3 -13 -6z"/>
<path d="M7857 5235 c-38 -12 -72 -27 -76 -34 -4 -7 -12 -11 -17 -10 -25 4
-40 -3 -49 -23 -21 -47 60 -55 175 -18 48 16 196 13 223 -4 12 -8 42 -17 67
-21 25 -4 70 -15 100 -25 94 -30 133 -40 175 -44 22 -2 48 -7 58 -11 9 -4 24
-5 32 -1 8 3 15 2 15 -3 0 -13 32 -7 67 12 25 13 34 14 45 4 7 -6 24 -13 38
-15 14 -1 41 -13 61 -27 20 -13 55 -28 77 -35 35 -9 113 -43 184 -81 10 -5 25
-9 33 -9 8 0 15 -4 15 -10 0 -5 16 -10 35 -10 19 0 35 -5 35 -11 0 -8 5 -8 15
1 11 9 15 9 15 1 0 -8 6 -9 18 -2 19 10 99 6 135 -8 13 -5 30 -6 38 -1 16 11
61 2 71 -14 5 -8 13 -7 28 2 31 19 43 15 36 -12 -4 -16 0 -30 10 -40 8 -9 12
-20 9 -26 -3 -6 4 -10 17 -9 25 0 71 17 51 18 -15 1 -18 21 -3 21 6 0 18 -9
27 -20 10 -11 23 -20 30 -20 7 0 13 -7 13 -16 0 -10 6 -14 14 -11 8 3 13 -1
12 -11 -1 -12 6 -16 21 -14 14 2 34 -7 50 -22 27 -25 23 -32 -14 -27 -19 3
-16 -23 7 -49 11 -12 17 -26 15 -30 -3 -4 2 -11 11 -14 9 -4 13 -2 8 5 -4 7
-1 10 7 7 8 -3 24 -1 37 3 14 6 21 5 17 0 -3 -5 -1 -12 4 -15 5 -4 12 3 16 14
7 22 20 26 30 10 8 -14 21 -13 37 3 16 16 88 30 88 16 0 -5 -5 -9 -11 -9 -5 0
-7 -4 -4 -10 3 -5 11 -10 16 -10 6 0 7 5 4 10 -4 6 7 9 29 8 29 -3 35 -6 30
-20 -4 -13 0 -18 15 -18 12 0 21 5 21 10 0 6 5 10 11 10 5 0 7 -5 3 -11 -3 -6
0 -16 7 -21 10 -7 7 -7 -8 -3 -16 4 -23 2 -23 -7 0 -13 34 -48 46 -48 13 0 44
-43 44 -60 0 -12 9 -17 30 -18 30 -1 40 11 20 23 -6 4 -10 12 -8 18 3 18 -12
57 -23 57 -18 0 -9 39 14 55 21 15 21 17 4 30 -12 9 -15 15 -7 20 6 4 9 13 6
21 -3 8 -1 14 4 14 6 0 10 -5 10 -12 0 -6 2 -9 5 -6 3 3 3 13 -1 22 -5 13 -13
16 -32 11 -23 -6 -24 -5 -11 11 12 15 12 18 0 22 -16 5 -94 73 -100 86 -2 5
-12 17 -23 28 -19 19 -20 19 -33 1 -13 -16 -14 -16 -15 -1 0 20 -56 62 -70 53
-12 -7 -42 13 -36 24 2 3 -13 5 -35 3 -29 -3 -40 0 -45 12 -3 9 -13 16 -22 16
-20 0 -162 70 -162 80 0 11 -62 39 -102 46 -55 10 -123 5 -169 -12 -65 -24
-107 -33 -175 -40 -63 -6 -87 1 -120 33 -10 10 -20 18 -23 19 -20 3 -59 24
-71 39 -26 31 -142 77 -220 87 -41 5 -167 11 -280 13 -226 5 -301 10 -309 23
-14 20 -142 50 -241 56 -19 1 -66 -8 -103 -19z m1671 -363 c5 -17 -25 -15 -31
2 -4 9 0 13 11 12 9 -2 18 -8 20 -14z m312 -126 c0 -2 3 -11 6 -20 5 -12 0
-16 -18 -16 -31 0 -41 10 -27 27 11 12 39 19 39 9z m184 -111 c-4 -8 -10 -15
-15 -15 -4 0 -6 7 -3 15 4 8 10 15 15 15 4 0 6 -7 3 -15z m26 -25 c0 -5 -2
-10 -4 -10 -3 0 -8 5 -11 10 -3 6 -1 10 4 10 6 0 11 -4 11 -10z"/>
<path d="M5536 5181 c-4 -5 -2 -12 3 -15 5 -4 12 -2 15 3 4 5 2 12 -3 15 -5 4
-12 2 -15 -3z"/>
<path d="M11111 5114 c0 -11 3 -14 6 -6 3 7 2 16 -1 19 -3 4 -6 -2 -5 -13z"/>
<path d="M6176 5072 c-2 -4 -1 -14 5 -22 7 -12 9 -10 9 8 0 23 -5 28 -14 14z"/>
<path d="M8717 4826 c-4 -10 7 -16 36 -21 23 -5 46 -7 51 -6 4 1 14 -3 21 -9
7 -6 20 -8 29 -4 11 4 16 1 16 -11 0 -11 5 -15 14 -12 8 3 22 -3 31 -13 12
-14 25 -17 56 -13 31 5 43 2 54 -13 8 -11 15 -15 15 -10 0 5 6 4 13 -2 7 -6
44 -14 82 -17 39 -3 83 -8 99 -11 28 -6 45 6 46 32 0 15 -45 34 -87 37 -17 1
-29 5 -26 10 3 6 -33 11 -58 9 -3 -1 -24 -3 -47 -6 -33 -4 -42 -2 -42 10 0 8
-5 12 -11 9 -11 -8 -49 27 -49 45 0 6 -4 9 -9 5 -10 -6 -119 -16 -166 -15 -16
0 -34 5 -39 10 -14 14 -23 12 -29 -4z"/>
<path d="M8625 4820 c3 -5 8 -10 11 -10 2 0 4 5 4 10 0 6 -5 10 -11 10 -5 0
-7 -4 -4 -10z"/>
<path d="M6818 4720 c-9 -6 -15 -17 -14 -25 3 -18 10 -19 34 -6 16 10 16 10
-1 11 -10 0 -15 5 -12 10 4 6 11 7 17 4 7 -4 8 -2 4 4 -8 14 -7 14 -28 2z"/>
<path d="M6870 4716 c0 -8 6 -17 13 -19 8 -4 6 -6 -4 -6 -17 -1 -25 -61 -8
-61 5 0 9 7 9 15 0 12 7 14 26 9 24 -6 25 -5 15 15 -7 12 -8 21 -2 21 5 0 7 9
4 20 -3 11 -10 20 -15 20 -5 0 -6 -4 -3 -10 3 -5 1 -10 -4 -10 -6 0 -11 5 -11
10 0 6 -4 10 -10 10 -5 0 -10 -6 -10 -14z"/>
<path d="M6990 4714 c0 -8 5 -12 10 -9 6 3 10 10 10 16 0 5 -4 9 -10 9 -5 0
-10 -7 -10 -16z"/>
<path d="M11060 4720 c0 -5 5 -10 11 -10 5 0 7 5 4 10 -3 6 -8 10 -11 10 -2 0
-4 -4 -4 -10z"/>
<path d="M7090 4695 c0 -8 5 -15 10 -15 6 0 10 7 10 15 0 8 -4 15 -10 15 -5 0
-10 -7 -10 -15z"/>
<path d="M9320 4686 c-14 -14 -13 -26 4 -26 8 0 17 -7 20 -16 5 -13 9 -14 22
-3 12 10 15 10 12 -1 -2 -8 10 -16 28 -20 25 -5 35 -2 53 16 26 27 9 45 -19
19 -17 -16 -19 -15 -29 4 -10 17 -16 19 -37 11 -22 -9 -25 -8 -20 8 7 21 -16
26 -34 8z"/>
<path d="M9425 4691 c-3 -5 -1 -12 5 -16 5 -3 10 1 10 9 0 18 -6 21 -15 7z"/>
<path d="M7010 4680 c0 -5 5 -10 11 -10 5 0 7 5 4 10 -3 6 -8 10 -11 10 -2 0
-4 -4 -4 -10z"/>
<path d="M7135 4680 c3 -5 8 -10 11 -10 2 0 4 5 4 10 0 6 -5 10 -11 10 -5 0
-7 -4 -4 -10z"/>
<path d="M7007 4653 c-4 -3 -2 -12 4 -20 9 -10 8 -18 -6 -33 -21 -23 -11 -47
13 -28 13 11 15 10 9 -4 -7 -21 -5 -21 47 -7 22 6 35 14 29 17 -5 4 -13 16
-17 27 -5 13 -10 15 -13 8 -7 -20 -43 4 -43 27 0 20 -11 26 -23 13z"/>
<path d="M9490 4650 c0 -5 5 -10 10 -10 6 0 10 -5 10 -11 0 -7 -10 -9 -25 -5
-14 4 -25 2 -25 -4 0 -5 23 -9 50 -9 39 1 54 -3 64 -17 12 -15 18 -17 37 -7
13 6 31 14 39 16 9 4 7 6 -7 6 -12 1 -25 6 -29 12 -3 6 -15 8 -26 6 -23 -6
-78 11 -78 24 0 5 -4 9 -10 9 -5 0 -10 -4 -10 -10z"/>
<path d="M10798 4643 c7 -3 16 -2 19 1 4 3 -2 6 -13 5 -11 0 -14 -3 -6 -6z"/>
<path d="M6946 4625 c-3 -8 -1 -15 4 -15 6 0 10 7 10 15 0 8 -2 15 -4 15 -2 0
-6 -7 -10 -15z"/>
<path d="M6975 4620 c-3 -5 1 -10 9 -10 9 0 16 5 16 10 0 6 -4 10 -9 10 -6 0
-13 -4 -16 -10z"/>
<path d="M10800 4620 c0 -5 5 -10 11 -10 5 0 7 5 4 10 -3 6 -8 10 -11 10 -2 0
-4 -4 -4 -10z"/>
<path d="M6728 4613 c7 -3 16 -2 19 1 4 3 -2 6 -13 5 -11 0 -14 -3 -6 -6z"/>
<path d="M10700 4601 c-12 -23 -3 -31 24 -21 14 4 16 9 8 14 -7 4 -10 12 -7
17 4 5 2 9 -4 9 -6 0 -15 -9 -21 -19z"/>
<path d="M10890 4589 c0 -5 5 -7 10 -4 6 3 10 8 10 11 0 2 -4 4 -10 4 -5 0
-10 -5 -10 -11z"/>
<path d="M6938 4573 c6 -2 12 -16 12 -29 0 -19 5 -24 24 -24 14 0 28 5 32 12
5 7 2 9 -9 5 -8 -3 -21 1 -27 9 -7 8 -9 14 -4 14 5 0 2 5 -6 10 -8 5 -19 9
-25 9 -5 0 -4 -3 3 -6z"/>
<path d="M10720 4494 c0 -8 5 -12 10 -9 6 4 8 11 5 16 -9 14 -15 11 -15 -7z"/>
<path d="M6980 4482 c-19 -16 -22 -23 -14 -32 9 -9 17 -9 32 -1 30 16 33 14
26 -15 -6 -24 -5 -25 15 -12 11 7 21 16 21 21 0 4 -5 5 -12 1 -8 -5 -9 0 -6
14 5 17 2 22 -12 22 -10 0 -20 5 -22 11 -2 6 -13 3 -28 -9z"/>
<path d="M7646 4435 c-3 -8 -1 -15 4 -15 6 0 10 7 10 15 0 8 -2 15 -4 15 -2 0
-6 -7 -10 -15z"/>
<path d="M7396 4413 c5 -5 12 -12 16 -18 4 -6 8 -2 8 8 0 9 -7 17 -17 17 -9 0
-12 -3 -7 -7z"/>
<path d="M7370 4379 c0 -5 5 -7 10 -4 6 3 10 8 10 11 0 2 -4 4 -10 4 -5 0 -10
-5 -10 -11z"/>
<path d="M10225 4380 c28 -12 37 -12 30 0 -3 6 -16 10 -28 9 -21 0 -21 -1 -2
-9z"/>
<path d="M7385 4301 c-6 -11 9 -23 19 -14 9 9 7 23 -3 23 -6 0 -12 -4 -16 -9z"/>
<path d="M9730 4016 c0 -2 9 -6 20 -9 11 -3 18 -1 14 4 -5 9 -34 13 -34 5z"/>
<path d="M12767 3813 c-2 -1 -39 -5 -83 -8 -43 -3 -106 -10 -138 -15 -33 -5
-62 -8 -64 -5 -7 7 -42 -14 -42 -25 0 -6 9 -19 20 -30 15 -15 25 -18 44 -10
13 5 27 6 30 3 5 -5 51 -10 156 -17 19 -1 40 1 46 6 7 5 24 4 38 -2 31 -11
109 -14 120 -3 8 8 31 13 65 15 13 0 44 8 70 18 62 22 148 16 242 -19 40 -15
75 -20 134 -18 75 1 200 -8 228 -18 6 -2 67 -9 135 -15 68 -5 133 -16 145 -22
12 -7 27 -11 32 -9 12 4 61 8 128 10 26 0 47 4 47 9 0 13 -49 31 -56 20 -4 -5
-13 -4 -22 5 -11 9 -34 13 -62 11 -24 -1 -53 2 -63 8 -17 9 -51 13 -169 22
-26 2 -52 7 -58 11 -13 8 -93 16 -200 18 -41 2 -79 5 -85 8 -5 3 -34 7 -64 8
-30 1 -57 4 -60 5 -3 2 -37 7 -76 10 -38 4 -90 11 -115 16 -40 8 -317 20 -323
13z"/>
<path d="M8150 3742 c0 -5 7 -16 16 -23 14 -12 16 -11 13 5 -4 20 -29 35 -29
18z"/>
<path d="M9361 3684 c0 -11 3 -14 6 -6 3 7 2 16 -1 19 -3 4 -6 -2 -5 -13z"/>
<path d="M8392 3668 c-16 -16 -15 -25 1 -25 7 0 13 9 13 19 0 21 1 21 -14 6z"/>
<path d="M14161 3666 c-16 -19 1 -29 54 -31 22 -1 47 -4 55 -7 16 -6 140 -23
245 -33 33 -4 74 -8 90 -11 33 -4 263 -17 283 -15 24 2 38 1 90 -5 38 -5 52
-3 52 6 0 8 -9 11 -25 8 -13 -3 -26 -2 -27 3 -2 4 -34 10 -73 13 -38 2 -88 9
-110 14 -22 6 -65 13 -95 16 -30 3 -68 8 -85 11 -16 2 -59 7 -95 10 -36 3 -81
8 -100 10 -19 3 -75 7 -125 10 -49 3 -97 8 -106 11 -9 2 -22 -2 -28 -10z"/>
<path d="M8945 3640 c-3 -5 -1 -10 4 -10 6 0 11 5 11 10 0 6 -2 10 -4 10 -3 0
-8 -4 -11 -10z"/>
<path d="M6588 3573 c7 -3 16 -2 19 1 4 3 -2 6 -13 5 -11 0 -14 -3 -6 -6z"/>
<path d="M9090 3569 c0 -12 29 -38 42 -39 13 0 -2 25 -22 38 -15 9 -20 9 -20
1z"/>
<path d="M15042 3568 c3 -7 20 -16 39 -20 34 -7 163 -27 208 -33 13 -1 27 -8
31 -15 4 -6 34 -13 66 -15 43 -2 58 -6 56 -16 -2 -8 5 -6 18 6 21 19 21 19 27
-3 4 -17 9 -20 24 -12 19 11 69 4 69 -9 0 -4 8 -7 18 -8 37 -3 117 -26 123
-35 4 -6 9 -6 14 1 5 9 10 9 21 0 9 -7 30 -9 55 -6 23 3 50 1 60 -4 11 -5 28
-14 40 -20 15 -7 25 -7 35 2 12 10 18 6 16 -12 0 -3 8 -11 19 -18 18 -11 21
-9 26 8 6 25 11 25 37 6 23 -17 58 -19 72 -5 8 8 25 6 56 -4 25 -9 61 -17 81
-18 21 -2 37 -6 37 -10 0 -5 4 -8 10 -8 5 0 7 6 4 13 -4 11 6 14 40 13 27 -1
48 -6 51 -13 2 -7 18 -13 35 -13 30 0 41 -14 18 -24 -9 -3 -8 -8 5 -16 9 -6
17 -18 17 -25 0 -8 4 -15 9 -15 5 0 8 18 6 40 -2 22 1 40 6 40 5 0 9 -9 9 -20
0 -11 4 -20 9 -20 5 0 11 9 14 20 6 25 27 27 27 3 0 -15 2 -16 10 -3 7 11 28
15 85 14 l75 0 0 53 c0 29 -1 53 -3 53 -1 0 -61 7 -132 16 -172 22 -167 21
-265 28 -47 4 -92 9 -100 11 -8 2 -82 11 -165 20 -82 8 -168 17 -190 20 -91 9
-194 17 -290 20 -56 2 -133 9 -171 15 -38 7 -98 13 -134 15 -36 2 -103 7 -149
10 -66 5 -82 3 -79 -7z"/>
<path d="M6655 3550 c3 -5 8 -10 11 -10 2 0 4 5 4 10 0 6 -5 10 -11 10 -5 0
-7 -4 -4 -10z"/>
<path d="M6715 3488 c6 -29 12 -32 18 -9 3 11 -1 22 -8 25 -9 3 -12 -2 -10
-16z"/>
<path d="M6800 3436 c0 -8 5 -18 11 -21 14 -9 59 3 59 16 0 6 -8 9 -19 6 -10
-2 -26 0 -35 5 -12 7 -16 5 -16 -6z"/>
<path d="M6882 3410 c0 -14 2 -19 5 -12 2 6 2 18 0 25 -3 6 -5 1 -5 -13z"/>
<path d="M6943 3338 c-19 -25 -24 -38 -14 -38 6 0 11 7 11 15 0 8 7 15 15 15
8 0 15 5 15 10 0 14 -16 12 -27 -2z"/>
<path d="M15938 3343 c7 -3 16 -2 19 1 4 3 -2 6 -13 5 -11 0 -14 -3 -6 -6z"/>
<path d="M16010 3340 c0 -5 4 -10 9 -10 6 0 13 5 16 10 3 6 -1 10 -9 10 -9 0
-16 -4 -16 -10z"/>
<path d="M7096 3281 c-3 -5 0 -11 7 -14 8 -3 14 1 14 9 0 16 -13 19 -21 5z"/>
<path d="M7040 3230 c0 -5 5 -10 10 -10 6 0 10 5 10 10 0 6 -4 10 -10 10 -5 0
-10 -4 -10 -10z"/>
<path d="M7074 3218 c7 -30 19 -48 35 -48 14 0 14 2 1 10 -17 11 -14 14 25 28
l30 10 -32 1 c-17 1 -38 4 -46 7 -10 3 -14 0 -13 -8z"/>
<path d="M7007 3189 c7 -7 15 -10 18 -7 3 3 -2 9 -12 12 -14 6 -15 5 -6 -5z"/>
<path d="M6980 3167 c0 -8 11 -27 25 -43 14 -16 25 -23 25 -16 0 6 -9 21 -20
32 -12 12 -18 25 -15 30 4 6 1 10 -4 10 -6 0 -11 -6 -11 -13z"/>
<path d="M14160 2900 c-23 -7 -23 -8 -3 -9 12 -1 35 -12 51 -26 16 -13 32 -22
35 -19 3 3 19 -7 36 -22 19 -16 45 -28 68 -30 21 -2 76 -8 123 -12 47 -5 86
-8 88 -7 9 8 -25 45 -41 45 -10 0 -35 9 -57 20 -22 11 -51 20 -65 20 -14 0
-28 6 -31 14 -8 21 -159 40 -204 26z"/>
<path d="M14682 2822 c-11 -11 -24 -17 -28 -14 -4 4 -4 1 0 -6 5 -9 12 -9 27
-2 25 14 42 4 34 -20 -8 -24 11 -35 60 -36 22 0 47 -2 55 -5 9 -2 15 2 15 11
0 11 -11 15 -47 13 -27 -1 -48 2 -48 6 0 4 -11 22 -24 40 -24 33 -24 33 -44
13z"/>
<path d="M14577 2793 c3 -7 10 -13 17 -13 6 0 21 -3 34 -6 12 -4 22 -2 22 3 0
5 -18 14 -39 19 -32 9 -38 8 -34 -3z"/>
<path d="M14940 2701 c0 -6 9 -11 21 -11 11 0 35 -8 52 -17 35 -20 33 -18 99
-68 32 -23 50 -31 54 -23 4 7 1 14 -7 17 -8 2 -26 17 -41 33 -40 43 -178 96
-178 69z"/>
<path d="M9090 2640 c0 -5 5 -10 11 -10 5 0 7 5 4 10 -3 6 -8 10 -11 10 -2 0
-4 -4 -4 -10z"/>
<path d="M14770 2628 c-13 -5 -26 -11 -29 -14 -6 -6 63 -66 121 -106 26 -18
49 -42 52 -53 3 -12 33 -45 67 -73 42 -36 55 -52 42 -52 -10 0 -24 5 -31 12
-9 9 -12 9 -12 0 0 -7 3 -12 8 -12 4 0 15 -14 24 -30 9 -17 24 -30 33 -30 8 0
15 -5 15 -11 0 -5 5 -7 11 -4 6 4 13 -2 16 -14 3 -12 8 -21 12 -21 3 0 12 -14
19 -30 8 -17 18 -28 23 -25 5 4 6 -1 3 -9 -4 -11 0 -16 15 -16 24 0 28 28 10
62 -9 17 -8 24 5 33 9 7 16 16 16 21 0 13 -29 36 -63 52 -15 6 -25 16 -22 22
3 5 19 3 40 -7 31 -15 36 -15 59 1 37 24 35 70 -4 104 -16 15 -30 30 -30 34 0
13 35 9 49 -4 10 -11 11 -10 6 3 -3 8 -27 32 -54 52 -43 33 -99 53 -176 62
-54 6 -95 18 -106 31 -6 8 -22 14 -36 14 -13 0 -32 4 -41 9 -10 5 -27 5 -42
-1z"/>
<path d="M14700 2610 c20 -13 33 -13 25 0 -3 6 -14 10 -23 10 -15 0 -15 -2 -2
-10z"/>
<path d="M8917 2416 c-4 -10 -5 -21 -2 -24 9 -9 17 6 13 25 -3 17 -4 17 -11
-1z"/>
<path d="M14879 2411 c7 -11 16 -21 22 -21 6 0 17 -7 26 -15 8 -9 17 -14 20
-11 7 7 -20 44 -37 50 -8 3 -21 9 -28 12 -11 5 -12 2 -3 -15z"/>
<path d="M8805 2360 c-3 -5 -1 -10 4 -10 6 0 11 5 11 10 0 6 -2 10 -4 10 -3 0
-8 -4 -11 -10z"/>
<path d="M8890 2330 c0 -5 5 -10 11 -10 5 0 7 5 4 10 -3 6 -8 10 -11 10 -2 0
-4 -4 -4 -10z"/>
<path d="M14960 2270 c0 -5 7 -10 16 -10 8 0 12 5 9 10 -3 6 -10 10 -16 10 -5
0 -9 -4 -9 -10z"/>
<path d="M15600 2164 c0 -4 14 -22 30 -41 24 -26 30 -30 30 -15 0 10 -10 28
-23 40 -23 22 -37 28 -37 16z"/>
<path d="M8517 2083 c-10 -9 -9 -23 2 -23 5 0 11 7 15 15 5 15 -5 20 -17 8z"/>
<path d="M15652 2069 c2 -7 10 -15 17 -17 8 -3 12 1 9 9 -2 7 -10 15 -17 17
-8 3 -12 -1 -9 -9z"/>
<path d="M8380 2039 c0 -5 5 -7 10 -4 6 3 10 8 10 11 0 2 -4 4 -10 4 -5 0 -10
-5 -10 -11z"/>
<path d="M8340 2025 c0 -8 5 -15 10 -15 6 0 10 7 10 15 0 8 -4 15 -10 15 -5 0
-10 -7 -10 -15z"/>
<path d="M8497 2033 c-9 -9 -9 -43 1 -43 4 0 8 11 8 25 2 27 1 29 -9 18z"/>
<path d="M8435 2020 c3 -5 8 -10 11 -10 2 0 4 5 4 10 0 6 -5 10 -11 10 -5 0
-7 -4 -4 -10z"/>
<path d="M13283 1995 c-1 -19 3 -38 8 -41 11 -6 12 46 1 63 -5 8 -8 -1 -9 -22z"/>
<path d="M8251 1944 c7 -9 14 -21 15 -28 1 -6 3 -15 4 -21 5 -23 -1 -35 -17
-36 -12 0 -13 -2 -5 -6 7 -3 19 1 28 7 25 22 3 99 -30 100 -5 0 -2 -7 5 -16z"/>
<path d="M8290 1953 c1 -29 55 -50 65 -26 4 11 0 14 -14 10 -12 -3 -22 1 -25
9 -6 15 -26 20 -26 7z"/>
<path d="M13286 1931 c-4 -7 -5 -15 -2 -18 9 -9 19 4 14 18 -4 11 -6 11 -12 0z"/>
<path d="M13407 1904 c-3 -6 -3 -28 0 -49 4 -25 9 -33 14 -23 9 16 -4 87 -14
72z"/>
<path d="M8317 1894 c-4 -4 -7 -14 -7 -23 0 -11 3 -12 11 -4 6 6 10 16 7 23
-2 6 -7 8 -11 4z"/>
<path d="M13280 1876 c0 -17 14 -29 23 -20 8 8 -3 34 -14 34 -5 0 -9 -6 -9
-14z"/>
<path d="M13270 1831 c0 -6 4 -12 8 -15 4 -2 7 -29 6 -59 -3 -57 13 -137 26
-137 14 0 2 203 -12 212 -17 10 -28 10 -28 -1z"/>
<path d="M13415 1790 c3 -5 8 -10 11 -10 2 0 4 5 4 10 0 6 -5 10 -11 10 -5 0
-7 -4 -4 -10z"/>
<path d="M15770 1651 c0 -7 7 -19 15 -27 19 -20 19 -5 0 20 -9 11 -15 14 -15
7z"/>
<path d="M13312 1579 c2 -18 10 -35 18 -37 12 -4 13 -3 2 10 -7 9 -10 22 -6
31 3 8 0 18 -6 22 -8 5 -10 -3 -8 -26z"/>
<path d="M13760 1480 c6 -11 13 -20 16 -20 2 0 0 9 -6 20 -6 11 -13 20 -16 20
-2 0 0 -9 6 -20z"/>
<path d="M13620 1476 c0 -8 5 -18 10 -21 6 -3 10 1 10 9 0 8 -4 18 -10 21 -5
3 -10 -1 -10 -9z"/>
<path d="M8318 1384 c-19 -19 -3 -46 55 -97 134 -118 342 -292 510 -426 105
-83 157 -128 157 -136 0 -18 -46 1 -92 38 -29 24 -69 54 -88 67 -19 13 -48 37
-65 52 -16 15 -36 28 -42 28 -7 0 -13 4 -13 9 0 5 -24 28 -52 50 -70 54 -106
83 -153 127 -22 20 -67 59 -100 87 -33 27 -62 53 -65 57 -3 4 -15 12 -27 19
-13 6 -23 17 -23 24 0 7 -10 18 -22 26 -20 12 -24 11 -45 -13 -13 -15 -23 -31
-23 -35 0 -21 219 -191 415 -321 61 -41 124 -84 140 -98 69 -56 235 -218 235
-229 0 -7 4 -13 9 -13 10 0 26 -39 18 -46 -2 -2 -26 17 -53 43 -58 56 -176
161 -219 195 -16 12 -37 30 -45 38 -8 8 -50 38 -93 65 -43 28 -106 70 -139 95
-33 25 -74 54 -90 64 -17 11 -44 32 -62 49 -42 40 -131 107 -141 107 -8 0 -28
-23 -45 -52 -9 -14 -3 -22 32 -45 24 -15 45 -30 48 -33 3 -3 13 -9 22 -15 170
-101 308 -203 356 -264 39 -49 103 -101 241 -194 93 -63 166 -129 194 -177 10
-17 15 -30 12 -30 -9 0 -153 98 -160 109 -6 11 -77 59 -116 80 -15 7 -85 71
-157 141 -71 70 -141 134 -155 141 -38 21 -207 135 -252 169 -22 17 -54 40
-71 51 l-32 20 -26 -31 c-14 -18 -26 -35 -26 -40 0 -4 42 -34 93 -65 94 -59
149 -100 213 -161 20 -18 50 -44 67 -56 16 -13 38 -31 48 -40 11 -10 21 -18
23 -18 2 0 37 -22 78 -49 41 -27 92 -59 114 -71 61 -34 258 -186 293 -226 41
-46 85 -113 79 -119 -2 -3 -18 8 -34 23 -48 47 -150 123 -324 242 -171 117
-247 173 -290 213 -58 55 -142 119 -247 190 -159 108 -146 103 -177 57 -32
-49 -32 -58 0 -70 14 -6 56 -33 92 -60 37 -28 90 -67 117 -87 73 -54 324 -223
330 -223 3 0 54 -33 113 -73 59 -39 114 -75 122 -79 8 -3 64 -45 123 -93 102
-82 206 -194 207 -223 0 -19 -48 8 -85 48 -16 18 -59 55 -95 83 -36 29 -76 62
-90 74 -14 13 -28 23 -31 23 -3 0 -19 11 -35 25 -16 14 -35 25 -41 25 -7 0
-13 4 -13 8 0 4 -30 26 -66 47 -36 22 -76 47 -90 55 -42 27 -289 195 -294 200
-3 3 -16 13 -30 22 -14 10 -47 33 -75 53 -158 112 -214 147 -232 141 -24 -8
-60 -55 -69 -90 -5 -21 -2 -26 19 -31 14 -4 33 -15 43 -26 9 -10 23 -19 29
-19 7 0 39 -18 71 -40 33 -22 63 -40 67 -40 4 0 38 -19 75 -43 37 -24 112 -67
167 -97 208 -111 502 -310 635 -429 45 -40 45 -40 128 -41 l82 0 1 43 c1 23 0
56 -1 72 -2 38 31 73 48 52 6 -7 16 -24 21 -37 6 -14 15 -32 21 -40 5 -8 16
-32 24 -52 13 -34 19 -38 51 -38 33 0 36 2 30 23 -4 12 -9 31 -11 42 -3 11 -9
29 -14 40 -4 11 -34 101 -65 200 -59 184 -103 285 -156 357 -16 23 -29 46 -29
52 -1 15 -36 56 -49 56 -5 0 -14 6 -18 13 -4 6 -26 25 -48 42 -22 16 -62 51
-89 77 -27 26 -52 48 -55 48 -4 0 -13 8 -22 18 -8 9 -46 44 -84 77 -38 33
-112 103 -166 155 -53 52 -118 108 -144 123 -26 15 -45 31 -41 34 10 11 127 3
147 -10 12 -7 19 -22 18 -37 -3 -53 0 -57 136 -174 44 -38 123 -113 176 -165
95 -95 134 -131 145 -131 10 0 -38 61 -96 124 -32 34 -82 93 -111 132 -129
171 -223 270 -262 278 -55 11 -212 18 -219 10z"/>
<path d="M13361 1368 c-1 -16 4 -28 9 -28 12 0 12 8 0 35 -8 18 -9 17 -9 -7z"/>
<path d="M13558 989 c-22 -24 -16 -40 25 -62 18 -10 48 -40 66 -68 52 -75 48
-76 -177 -65 -30 1 -100 -7 -156 -18 -129 -27 -158 -49 -158 -122 0 -60 16
-104 38 -104 13 0 14 -3 4 -15 -10 -12 -9 -15 4 -15 14 0 14 -3 -4 -22 -11
-12 -19 -29 -18 -37 2 -9 -3 -15 -9 -13 -20 3 -15 -33 7 -53 11 -10 20 -24 20
-32 0 -7 7 -13 15 -13 8 0 15 -6 15 -14 0 -8 14 -20 30 -28 17 -7 30 -16 30
-20 0 -4 7 -5 14 -2 10 4 20 -5 29 -28 8 -18 21 -39 30 -47 10 -7 17 -19 17
-27 0 -7 9 -15 20 -19 11 -3 28 -16 37 -29 10 -12 24 -21 31 -18 7 2 20 1 30
-3 17 -8 38 -12 77 -17 11 -2 22 -6 25 -10 3 -4 41 -16 84 -27 57 -14 85 -17
104 -10 14 5 38 7 54 4 17 -4 28 -2 28 4 0 6 9 11 20 11 27 0 154 55 178 78
16 14 25 15 38 3 5 -4 30 -11 55 -14 49 -7 69 4 69 34 0 10 6 24 14 32 13 12
12 18 -5 46 -10 17 -23 31 -29 31 -5 0 -10 6 -10 14 0 7 -6 19 -14 26 -8 6
-12 18 -9 26 3 9 -1 14 -12 14 -11 0 -15 5 -12 14 4 9 -2 17 -14 21 -10 4 -19
13 -19 22 0 8 -5 13 -12 11 -6 -2 -24 10 -39 27 -15 17 -40 37 -55 45 -15 8
-38 26 -51 38 -15 14 -30 21 -40 18 -13 -5 -14 -4 -3 9 10 13 9 15 -8 15 -11
0 -31 6 -46 14 -25 13 -25 14 -8 30 32 28 96 21 156 -18 30 -19 57 -39 60 -44
3 -6 25 -13 49 -17 23 -4 53 -15 67 -25 14 -9 33 -20 43 -23 9 -4 17 -11 17
-17 0 -5 7 -10 15 -10 9 0 18 -7 21 -15 4 -8 13 -15 20 -15 20 0 4 29 -58 105
-69 85 -89 105 -101 105 -6 0 -20 8 -31 19 -20 18 -78 41 -100 41 -6 -1 3 -12
19 -26 l30 -25 -29 11 c-17 6 -36 20 -43 30 -8 11 -22 20 -32 20 -10 0 -28 11
-41 25 -13 14 -31 25 -40 25 -9 0 -20 4 -25 9 -20 20 -177 111 -191 111 -8 0
-14 7 -14 15 0 8 -7 15 -15 15 -23 0 -64 47 -52 59 7 7 7 14 2 20 -6 4 -17 0
-27 -10z m286 -354 c-4 -8 -8 -15 -10 -15 -2 0 -4 7 -4 15 0 8 4 15 10 15 5 0
7 -7 4 -15z m276 5 c8 -5 11 -12 8 -16 -4 -3 -14 1 -23 10 -18 17 -9 21 15 6z
m-392 -196 l23 -15 -21 -26 c-25 -32 -25 -46 1 -100 12 -24 20 -46 17 -48 -2
-2 -33 4 -69 14 -87 23 -154 71 -99 71 23 0 27 28 9 61 -9 18 -6 22 20 32 17
6 31 18 31 25 0 17 53 8 88 -14z m122 -78 c0 -8 -4 -17 -9 -21 -12 -7 -24 12
-16 25 9 15 25 12 25 -4z"/>
<path d="M13629 960 c34 -22 45 -23 33 -4 -4 6 -20 14 -37 18 l-30 7 34 -21z"/>
<path d="M15615 870 c-4 -6 7 -16 23 -23 16 -6 27 -18 25 -24 -3 -8 4 -13 16
-13 28 0 27 6 -11 41 -35 31 -43 34 -53 19z"/>
<path d="M14130 844 c0 -8 5 -12 10 -9 6 4 8 11 5 16 -9 14 -15 11 -15 -7z"/>
<path d="M14245 180 c-3 -5 -1 -10 4 -10 6 0 11 5 11 10 0 6 -2 10 -4 10 -3 0
-8 -4 -11 -10z"/>
</g>
</svg>
