<?xml version="1.0" standalone="no"?>
<!DOCTYPE svg PUBLIC "-//W3C//DTD SVG 20010904//EN"
 "http://www.w3.org/TR/2001/REC-SVG-20010904/DTD/svg10.dtd">
<svg version="1.0" xmlns="http://www.w3.org/2000/svg"
 width="788.000000pt" height="784.000000pt" viewBox="0 0 788.000000 784.000000"
 preserveAspectRatio="xMidYMid meet">

<g transform="translate(0.000000,784.000000) scale(0.100000,-0.100000)"
fill="#000000" stroke="none">
<path d="M4004 7788 c-8 -55 -10 -66 -13 -70 -1 -2 -3 -23 -5 -47 -1 -25 -8
-47 -14 -49 -7 -2 -12 -12 -12 -22 0 -11 -4 -29 -9 -42 -11 -30 -47 -152 -60
-203 -5 -22 -16 -65 -24 -95 -59 -221 -90 -410 -66 -410 7 0 26 49 60 155 12
39 27 76 33 84 8 11 8 13 -2 7 -7 -4 -4 7 8 26 11 18 20 40 20 49 0 9 13 42
29 75 16 32 46 109 66 169 20 61 40 115 45 120 4 6 15 34 24 62 10 29 22 55
27 59 5 3 7 10 3 15 -3 5 -1 15 4 22 5 7 15 36 22 65 16 70 6 82 -70 82 l-58
0 -8 -52z"/>
<path d="M4804 6763 c-46 -4 -55 -9 -104 -58 -30 -30 -60 -55 -66 -55 -6 0
-18 -9 -25 -21 -13 -18 -17 -19 -41 -8 -15 6 -26 15 -24 18 5 7 -8 8 -246 13
-161 4 -216 0 -192 -15 17 -10 136 -37 190 -43 56 -7 70 -20 32 -29 -51 -11
-188 -21 -266 -20 -45 1 -85 -2 -88 -6 -3 -5 -16 -9 -29 -9 -13 0 -31 -10 -39
-22 -13 -18 -30 -24 -79 -29 -34 -4 -79 -10 -100 -14 -34 -7 -39 -5 -44 14 -4
16 -11 21 -24 18 -15 -4 -19 0 -19 18 0 23 -1 23 -29 9 -40 -20 -52 -36 -86
-118 -23 -54 -36 -72 -53 -74 -12 -2 -69 -32 -128 -68 -58 -35 -109 -64 -114
-64 -14 0 -121 -125 -127 -150 -8 -29 -74 -115 -148 -191 -51 -52 -55 -59 -55
-103 0 -26 -7 -57 -15 -70 -9 -13 -18 -40 -20 -60 -3 -20 -11 -49 -19 -65 -12
-23 -13 -60 -4 -237 8 -185 7 -284 -6 -349 -2 -11 -12 -58 -22 -105 -17 -83
-17 -88 1 -167 18 -74 22 -81 43 -78 25 3 25 2 40 30 11 20 11 20 12 -2 0 -12
-4 -24 -10 -28 -5 -3 -7 -12 -3 -20 3 -8 1 -15 -5 -15 -9 0 -16 -29 -25 -104
-3 -28 21 -66 42 -66 4 0 19 21 32 48 32 63 58 92 76 85 12 -5 14 -1 8 15 -6
19 -3 22 25 22 30 0 32 -2 25 -27 -4 -16 -8 -32 -9 -38 -5 -23 -37 -75 -47
-75 -8 0 -7 -5 1 -15 7 -8 8 -15 3 -15 -5 0 -10 -29 -10 -65 0 -36 -6 -71 -12
-79 -9 -10 -9 -20 -2 -34 8 -14 5 -22 -10 -35 -16 -15 -18 -21 -8 -40 29 -55
72 -76 83 -39 13 39 96 13 96 -31 0 -33 -14 -49 -36 -40 -17 6 -17 5 -5 -10 7
-9 19 -17 27 -17 7 0 17 -6 21 -13 4 -7 20 -20 34 -29 69 -44 22 -160 -75
-186 -39 -11 -49 -10 -102 14 -44 19 -107 147 -119 241 -7 55 -25 124 -36 137
-13 15 -51 -34 -45 -57 3 -12 11 -56 17 -97 6 -41 22 -99 35 -129 14 -29 32
-94 41 -143 16 -93 34 -128 65 -128 27 0 32 -42 14 -121 -9 -39 -16 -82 -16
-96 0 -13 -9 -41 -20 -63 -27 -54 -27 -111 2 -130 42 -29 136 -115 137 -126 1
-12 80 -92 104 -106 8 -4 18 -19 21 -33 6 -24 72 -94 89 -95 4 0 22 -15 38
-32 16 -18 37 -33 47 -33 19 -1 42 18 42 34 0 17 15 13 33 -7 19 -21 22 -42 7
-42 -5 0 -10 5 -10 10 0 6 -9 10 -20 10 -11 0 -20 -5 -20 -10 0 -6 6 -10 13
-9 6 1 20 -1 31 -6 12 -5 21 -3 27 6 6 10 9 10 9 2 0 -7 5 -13 11 -13 6 0 8 9
4 20 -5 15 0 23 19 31 24 11 24 13 8 26 -16 14 -16 14 1 9 10 -3 21 -6 23 -6
2 0 4 -12 4 -26 0 -15 4 -23 11 -19 6 4 13 -3 16 -15 4 -16 8 -18 14 -8 7 10
9 10 9 -2 0 -12 2 -12 9 -1 6 10 12 5 22 -18 8 -18 21 -30 29 -29 27 3 60 -13
61 -30 0 -15 1 -15 8 1 4 10 11 17 16 15 6 -2 11 7 13 20 2 12 8 22 13 22 5 0
8 -6 6 -12 -1 -8 9 -13 26 -13 15 1 27 -3 27 -8 0 -5 -13 -7 -30 -5 -16 3 -30
1 -30 -4 0 -4 7 -8 15 -8 8 0 15 -7 15 -15 0 -8 6 -15 14 -15 10 0 12 -7 8
-22 -3 -13 -1 -19 5 -15 15 9 93 -24 93 -40 0 -7 -7 -13 -16 -13 -8 0 -12 -4
-9 -10 3 -5 15 -10 26 -10 12 0 19 -7 19 -19 0 -15 5 -18 22 -13 14 3 19 2 14
-6 -5 -8 2 -12 19 -12 15 0 24 4 20 10 -4 6 7 10 25 10 21 0 29 4 24 12 -5 8
-2 9 10 5 10 -4 25 -7 33 -7 13 0 13 -3 3 -15 -7 -9 -21 -13 -31 -10 -11 4
-19 2 -19 -4 0 -6 -9 -11 -19 -11 -11 0 -32 -5 -48 -11 -28 -11 -28 -11 -5
-20 12 -4 22 -13 22 -18 0 -14 29 -21 36 -9 4 7 3 8 -4 4 -8 -5 -12 0 -12 13
0 11 9 25 19 31 26 14 28 13 34 -11 4 -15 2 -19 -9 -15 -19 7 -18 -9 4 -30 9
-10 18 -21 18 -26 1 -4 2 -11 3 -15 1 -5 6 -1 11 7 6 9 10 10 10 3 0 -21 -19
-24 -46 -7 -22 15 -27 15 -35 3 -14 -23 -10 -31 14 -25 12 3 17 3 11 0 -15 -6
-5 -46 10 -41 6 3 10 9 9 15 -1 5 4 13 12 16 8 3 15 1 15 -5 0 -6 4 -8 9 -5 5
4 12 0 14 -6 4 -10 6 -9 6 1 1 11 4 11 16 1 12 -10 15 -10 15 0 0 6 -9 14 -20
17 -11 3 -17 9 -14 14 8 14 52 11 57 -3 2 -7 8 -9 13 -5 5 5 1 13 -9 18 -9 6
-17 15 -17 22 0 7 -15 21 -34 31 -33 18 -51 49 -39 69 3 5 10 -1 17 -13 6 -13
15 -21 21 -19 5 2 9 6 9 9 -1 3 -5 15 -9 28 -4 13 -2 22 4 22 6 0 11 -9 11
-20 0 -10 8 -23 18 -29 16 -9 16 -11 -3 -25 -20 -15 -19 -15 6 -16 15 0 29 7
33 15 8 21 86 21 86 0 0 -17 17 -20 22 -4 2 7 17 8 41 4 27 -5 37 -12 37 -26
0 -22 -11 -24 -28 -7 -14 14 -17 11 -26 -22 -5 -17 -4 -21 2 -11 5 7 15 10 21
6 17 -10 41 14 41 41 0 27 3 28 32 13 17 -9 19 -8 16 8 -2 10 -10 17 -16 16
-7 -2 -12 3 -12 11 0 24 -28 26 -63 6 l-34 -20 -27 21 c-14 11 -26 16 -26 10
0 -6 -10 -11 -22 -11 -22 1 -23 1 -4 15 20 15 58 11 64 -6 2 -5 10 -9 18 -9 9
0 12 4 9 10 -3 5 3 10 14 10 11 0 23 5 26 10 4 6 12 7 18 3 6 -4 22 -8 35 -9
13 -2 30 -8 37 -14 8 -7 18 -9 23 -6 6 3 12 -4 15 -15 4 -15 11 -20 21 -16 9
4 16 2 16 -4 0 -5 11 -7 25 -5 14 3 23 1 20 -5 -4 -5 1 -9 9 -9 8 0 18 5 21
11 5 7 14 4 28 -8 11 -10 17 -13 14 -6 -4 6 -1 14 5 17 10 4 10 8 2 11 -16 8
-5 45 12 45 8 0 11 -6 8 -15 -5 -11 -2 -13 10 -9 10 4 18 0 22 -10 3 -9 12
-16 19 -16 7 0 16 -8 19 -17 6 -15 8 -15 17 -3 8 11 12 12 16 3 8 -20 23 -15
23 7 0 13 7 20 20 20 13 0 18 -5 14 -15 -4 -8 -2 -15 4 -15 6 0 12 6 15 13 3
8 11 3 25 -13 12 -14 21 -21 22 -16 0 6 6 1 14 -9 18 -25 10 -38 -15 -25 -28
16 -45 1 -20 -17 20 -14 20 -40 0 -28 -10 7 -58 -44 -59 -61 0 -7 -8 -15 -17
-18 -40 -15 -63 -32 -63 -44 0 -9 -6 -12 -15 -8 -9 3 -15 0 -15 -10 0 -11 -6
-13 -22 -8 -19 6 -21 4 -11 -7 16 -20 1 -43 -23 -35 -24 7 -48 -7 -42 -25 2
-7 -5 -24 -16 -37 -12 -13 -21 -29 -21 -35 0 -7 -7 -12 -16 -12 -8 0 -23 -8
-33 -17 -10 -11 -28 -16 -47 -14 -16 2 -32 0 -35 -5 -2 -4 -12 -6 -22 -3 -13
5 -14 4 -3 -4 9 -7 10 -12 2 -16 -6 -4 -9 -12 -6 -17 9 -14 -38 -29 -53 -16
-10 8 -10 12 0 18 17 11 5 21 -16 13 -9 -3 -13 -11 -10 -16 4 -6 -3 -5 -15 1
-12 7 -27 9 -34 5 -8 -5 -7 -2 2 9 10 13 17 15 27 6 11 -9 14 -8 14 4 0 21
-11 26 -35 17 -13 -5 -26 -2 -37 8 -14 12 -18 12 -18 2 0 -10 -3 -11 -11 -3
-8 8 -8 17 0 30 11 21 11 63 0 60 -4 -1 -19 11 -33 26 -16 17 -33 26 -41 23
-8 -3 -15 -1 -15 3 0 13 28 21 46 14 12 -4 15 -2 12 8 -3 8 -11 13 -17 12 -6
-2 -11 2 -11 7 0 6 -9 10 -21 10 -14 0 -19 -5 -16 -14 4 -10 1 -13 -9 -9 -7 3
-14 10 -14 15 0 6 -11 7 -25 4 -14 -4 -25 -3 -25 1 0 5 -4 14 -9 22 -8 12 -12
13 -25 1 -19 -15 -33 -6 -19 12 12 15 13 49 2 42 -4 -2 -10 2 -12 8 -3 8 -6 6
-6 -4 -1 -22 -21 -24 -21 -2 0 11 -5 14 -16 10 -9 -3 -25 4 -39 20 -15 16 -37
27 -57 29 -25 2 -34 8 -36 24 -2 11 -10 21 -18 21 -8 0 -14 5 -14 10 0 6 -7
10 -15 10 -8 0 -12 6 -9 13 3 8 -6 13 -28 15 -22 2 -39 11 -51 27 -10 14 -23
23 -28 19 -5 -3 -14 7 -19 21 -10 25 -30 30 -37 9 -4 -13 231 -256 240 -248 3
3 12 -7 20 -23 15 -27 510 -525 572 -575 51 -41 62 -41 92 0 15 20 55 67 90
104 35 36 63 70 63 75 0 4 12 22 26 38 14 17 36 50 49 75 12 25 30 60 40 78 9
18 15 42 12 54 -8 28 29 141 52 162 11 10 25 32 32 49 7 17 21 39 31 49 18 18
19 17 28 -7 13 -35 23 -31 15 5 -6 26 -3 31 21 42 16 7 39 23 53 36 13 12 31
22 40 22 9 0 35 20 58 44 39 41 120 89 150 89 7 0 38 24 68 54 46 46 60 54 90
53 3 0 18 11 33 25 15 14 37 28 50 31 12 4 23 10 23 15 1 5 3 14 4 19 1 6 3
15 4 20 0 6 8 10 16 10 7 0 19 8 24 18 6 9 11 14 11 10 0 -13 40 26 40 39 0 8
17 32 39 56 30 33 38 51 39 81 1 22 -4 46 -10 53 -8 10 -8 17 0 25 15 15 15
53 2 79 -9 16 -7 19 12 19 28 0 58 44 58 85 0 14 5 36 11 47 6 11 13 38 15 59
3 35 1 38 -18 36 -31 -3 -60 -29 -48 -41 16 -16 12 -26 -11 -26 -12 0 -19 -5
-16 -12 2 -7 10 -12 16 -11 6 2 11 -4 11 -12 0 -8 -7 -15 -15 -15 -14 0 -19
-12 -16 -32 0 -5 -8 -8 -19 -8 -22 0 -28 25 -7 33 6 3 2 6 -10 6 -37 2 -71 22
-77 47 -6 23 -15 28 -78 39 -21 3 -38 10 -38 14 0 13 -58 31 -101 31 -22 0
-39 -4 -39 -10 0 -16 -86 -12 -99 4 -21 25 -102 37 -262 39 -84 2 -160 6 -166
10 -7 5 -13 5 -13 0 0 -4 -12 -9 -27 -10 -63 -4 -108 -17 -127 -34 -11 -11
-28 -19 -38 -19 -10 0 -17 -3 -16 -7 1 -5 -11 -34 -26 -65 -19 -39 -34 -58
-46 -58 -10 0 -22 -9 -25 -20 -3 -11 -12 -20 -20 -20 -15 0 -28 -27 -19 -41
10 -18 -6 -30 -27 -19 -15 9 -19 7 -19 -5 0 -11 -4 -13 -12 -8 -7 4 -21 6 -31
4 -12 -1 -20 5 -24 18 -5 22 -23 25 -58 12 -17 -7 -18 -9 -3 -17 12 -7 14 -14
8 -24 -9 -13 -11 -13 -19 0 -8 12 -12 12 -29 -3 -18 -16 -21 -16 -35 -2 -11
10 -18 12 -22 4 -4 -5 1 -16 11 -23 16 -12 15 -14 -13 -18 -31 -4 -36 4 -19
31 6 9 5 12 -2 7 -6 -3 -13 -2 -17 4 -3 5 -18 11 -33 11 -17 1 -20 3 -10 6 14
3 16 9 8 22 -5 10 -6 22 -2 27 4 5 -2 2 -13 -7 -14 -11 -32 -15 -58 -12 -45 6
-53 16 -56 64 -1 18 -3 19 -16 9 -8 -7 -15 -9 -15 -4 0 5 -7 0 -15 -10 -12
-16 -15 -17 -15 -4 0 9 -3 18 -7 21 -5 2 -2 2 5 1 6 -2 12 1 12 6 0 6 6 10 13
10 21 0 9 71 -13 77 -15 4 -17 10 -10 33 7 24 4 33 -17 54 -20 20 -24 33 -21
60 3 24 0 32 -9 29 -7 -3 -13 2 -13 10 0 8 -6 15 -12 14 -35 -1 -46 5 -52 29
-5 19 -11 24 -26 19 -11 -3 -28 -1 -37 5 -17 11 -17 11 0 6 9 -3 17 -1 17 3 0
11 -29 23 -40 16 -10 -6 -8 60 2 70 3 4 12 -3 18 -15 10 -18 14 -20 21 -9 4 8
20 15 34 16 20 1 25 -3 25 -20 0 -12 9 -28 21 -35 18 -12 19 -11 10 7 -14 26
-14 34 2 25 9 -6 9 -5 0 8 -11 13 -9 15 17 16 17 0 28 -3 26 -7 -3 -3 4 -7 15
-7 12 0 19 7 20 21 0 19 1 19 9 -2 5 -13 16 -23 25 -23 11 0 13 4 6 18 -21 38
-31 83 -18 81 24 -3 37 1 37 12 0 5 -4 7 -10 4 -5 -3 -20 1 -32 11 -17 12 -18
15 -5 10 12 -4 17 -2 15 6 -3 7 -13 15 -23 17 -10 1 -29 14 -42 27 -30 30 -26
67 11 105 22 22 27 34 22 53 -4 17 -11 23 -21 20 -10 -4 -15 0 -15 11 0 11 5
15 15 11 8 -3 15 -1 15 4 0 13 -37 13 -45 0 -12 -20 -26 -10 -15 10 9 17 8 20
-8 20 -10 0 -23 5 -30 12 -7 7 -12 10 -13 7 -9 -63 -8 -69 16 -85 25 -16 34
-44 15 -44 -5 0 -10 -7 -10 -16 0 -9 -6 -14 -12 -11 -7 2 -12 14 -11 26 2 11
-1 21 -6 21 -5 0 -11 6 -14 13 -2 6 -2 2 0 -10 2 -16 -2 -23 -13 -23 -10 0
-15 3 -12 6 12 11 -28 39 -59 41 -26 2 -33 -2 -36 -20 l-4 -22 -8 23 c-4 14
-13 21 -21 18 -7 -3 -16 -1 -19 4 -10 16 -22 11 -28 -10 -3 -12 -14 -20 -25
-20 -14 0 -22 -8 -24 -22 -3 -20 -5 -19 -21 14 -9 20 -22 38 -28 40 -5 2 -8
10 -4 19 6 16 45 24 45 8 0 -6 -4 -8 -9 -4 -5 3 -12 1 -16 -5 -3 -5 1 -11 9
-11 25 -2 30 -4 44 -12 17 -11 15 -3 -6 33 -10 16 -22 27 -27 22 -4 -4 -5 10
-1 30 4 21 2 39 -4 43 -5 3 -10 -3 -10 -14 0 -12 -4 -21 -10 -21 -5 0 -10 11
-10 25 0 14 -4 25 -10 25 -5 0 -10 -5 -10 -11 0 -5 -4 -8 -9 -4 -5 3 -12 1
-16 -5 -4 -6 -11 -8 -16 -4 -6 3 -2 12 8 19 17 13 17 14 1 20 -13 5 -15 12 -8
30 6 16 6 27 -1 31 -6 3 -9 14 -6 24 2 9 0 25 -6 35 -8 14 -7 17 5 13 19 -8
30 0 48 36 8 15 25 32 38 37 12 5 25 16 29 25 3 9 13 14 24 11 12 -3 19 2 23
17 3 11 19 30 36 41 16 11 30 26 30 33 0 8 6 12 13 9 6 -2 12 -11 12 -21 0 -9
6 -20 13 -25 7 -4 10 -15 6 -24 -3 -10 -1 -17 5 -17 6 0 13 11 17 25 3 14 10
25 14 25 4 0 5 -11 2 -25 -3 -16 0 -25 8 -25 8 0 10 -8 6 -24 -7 -29 18 -56
36 -38 16 16 65 15 71 0 3 -9 8 -10 15 -3 12 12 -3 59 -16 51 -5 -3 -8 31 -7
74 1 78 1 80 -26 92 -16 7 -27 19 -27 28 1 8 -2 34 -6 56 -6 32 -12 41 -25 37
-11 -3 -16 3 -17 21 -1 15 2 26 7 26 5 0 9 -6 9 -12 0 -10 2 -10 9 0 4 7 6 24
3 38 -3 17 0 24 12 24 16 0 23 35 8 42 -5 2 -2 33 6 71 13 59 17 67 38 67 12
0 26 5 30 12 4 7 3 8 -4 4 -20 -12 -13 12 14 54 15 22 37 43 50 46 14 4 24 14
24 24 0 21 35 54 49 46 12 -8 52 13 64 32 4 6 14 12 21 12 38 0 84 42 57 52
-8 2 -17 91 -11 108 8 25 8 50 0 50 -5 0 -7 7 -4 15 4 8 -1 17 -9 21 -11 4
-15 18 -13 51 3 51 18 65 54 52 14 -6 37 -7 51 -4 14 2 55 7 91 10 101 9 123
16 152 46 14 14 24 15 54 9 50 -11 66 -30 66 -76 0 -22 4 -44 9 -50 14 -17
120 -16 153 1 15 8 32 15 37 15 11 0 142 62 149 71 13 16 121 63 173 75 64 15
64 15 143 -36 73 -48 143 -69 241 -74 84 -4 98 -2 148 20 30 14 55 29 55 33 0
16 86 101 103 101 9 0 17 -4 17 -10 0 -5 12 -21 27 -36 15 -15 37 -42 50 -61
13 -18 34 -49 47 -68 14 -20 27 -32 29 -28 3 5 -10 69 -29 143 -19 74 -36 167
-39 205 -7 83 -23 111 -132 228 -41 43 -82 96 -91 116 -9 20 -22 39 -28 43
-22 14 -139 102 -144 108 -9 12 -114 60 -129 60 -9 0 -27 9 -41 20 -14 11 -30
20 -36 20 -6 0 -17 7 -24 14 -6 8 -36 20 -67 27 -30 7 -60 18 -67 24 -31 30
-77 55 -100 55 -41 0 -106 37 -106 60 0 11 -4 20 -8 20 -5 0 -14 11 -21 23 -7
13 -18 24 -24 24 -7 0 -23 3 -37 5 -14 3 -48 3 -76 1z m-1669 -1862 c22 -10
46 -25 54 -34 7 -10 20 -17 27 -17 8 0 14 -4 14 -8 0 -5 12 -15 28 -23 61 -31
91 -62 98 -104 4 -22 7 -46 5 -52 -1 -7 3 -13 9 -13 5 0 10 -4 10 -10 0 -5 -6
-10 -14 -10 -8 0 -21 -6 -28 -13 -7 -8 -23 -13 -35 -12 -46 3 -74 55 -30 55
21 1 22 1 2 13 -11 7 -22 21 -23 31 -6 34 -36 65 -72 76 -19 5 -53 22 -75 37
-24 16 -55 28 -79 29 -32 1 -40 6 -43 23 -2 12 3 28 9 36 18 20 95 18 143 -4z
m-25 -144 c26 -7 54 -42 45 -57 -8 -13 -65 -40 -85 -40 -29 0 -49 24 -52 65
-2 35 0 40 22 45 14 4 30 4 35 0 6 -4 21 -10 35 -13z m650 -86 c0 -6 -4 -13
-10 -16 -5 -3 -10 1 -10 9 0 9 5 16 10 16 6 0 10 -4 10 -9z m65 -11 c3 -5 1
-10 -4 -10 -6 0 -11 5 -11 10 0 6 2 10 4 10 3 0 8 -4 11 -10z m-78 -62 c-3 -8
-6 -5 -6 6 -1 11 2 17 5 13 3 -3 4 -12 1 -19z m-587 -42 c0 -31 -28 -56 -40
-36 -5 8 -2 22 8 36 22 30 32 30 32 0z m-80 -119 c0 -19 -27 -53 -36 -44 -8 8
15 57 28 57 4 0 8 -6 8 -13z m209 -80 c0 -12 -4 -30 -8 -40 -6 -17 -8 -17 -26
7 -13 17 -22 22 -27 13 -11 -17 -18 -4 -11 22 3 13 11 20 19 17 8 -3 14 1 14
10 0 12 4 12 20 4 11 -6 20 -20 19 -33z m-129 -39 c0 -19 -2 -20 -10 -8 -13
19 -13 30 0 30 6 0 10 -10 10 -22z m285 12 c3 -5 1 -10 -4 -10 -6 0 -11 5 -11
10 0 6 2 10 4 10 3 0 8 -4 11 -10z m311 -307 c-4 -10 -13 -13 -29 -9 -12 4
-29 8 -36 10 -18 3 -26 22 -13 30 6 3 15 -1 22 -9 17 -21 27 -19 34 8 6 20 7
21 17 4 6 -10 8 -25 5 -34z m159 -3 c3 -5 1 -10 -4 -10 -6 0 -11 5 -11 10 0 6
2 10 4 10 3 0 8 -4 11 -10z m-254 -27 c7 -10 10 -15 5 -11 -5 4 -17 3 -26 -2
-15 -8 -17 -6 -13 10 7 25 16 25 34 3z m24 -42 c3 -5 1 -12 -5 -16 -13 -8 -13
-26 0 -45 9 -13 11 -13 20 0 8 12 10 11 10 -7 0 -12 5 -25 10 -28 6 -4 8 -10
5 -15 -3 -5 4 -11 15 -15 11 -3 20 -11 20 -17 0 -6 -6 -6 -15 2 -13 11 -15 8
-13 -20 3 -37 -16 -52 -25 -20 -3 11 -9 20 -14 19 -22 -4 -44 2 -38 10 3 5 18
8 34 6 24 -3 28 -1 24 16 -5 19 -33 27 -33 9 0 -5 -7 -10 -16 -10 -10 0 -12 5
-7 13 12 19 13 39 3 56 -8 14 -9 14 -10 -1 0 -11 -8 -18 -20 -18 -22 0 -27 15
-7 23 7 3 5 6 -5 6 -19 1 -26 21 -8 21 6 0 10 6 10 14 0 8 10 17 23 19 12 2
25 5 29 6 4 0 9 -3 13 -8z m75 -41 c0 -5 -2 -10 -4 -10 -3 0 -8 5 -11 10 -3 6
-1 10 4 10 6 0 11 -4 11 -10z m-160 -19 c0 -6 -4 -13 -10 -16 -5 -3 -10 1 -10
9 0 9 5 16 10 16 6 0 10 -4 10 -9z m200 -81 c-6 -12 -14 -19 -17 -17 -2 3 1
15 7 27 6 12 14 19 17 17 2 -3 -1 -15 -7 -27z m-160 6 c0 -3 -4 -8 -10 -11 -5
-3 -10 -1 -10 4 0 6 5 11 10 11 6 0 10 -2 10 -4z m70 -87 c0 -5 -7 -9 -15 -9
-15 0 -20 12 -9 23 8 8 24 -1 24 -14z m-23 -35 c-3 -3 -12 -4 -19 -1 -8 3 -5
6 6 6 11 1 17 -2 13 -5z m-13 -35 c-3 -5 -10 -7 -15 -3 -5 3 -7 10 -3 15 3 5
10 7 15 3 5 -3 7 -10 3 -15z m141 -39 c-3 -5 -10 -10 -16 -10 -5 0 -9 5 -9 10
0 6 7 10 16 10 8 0 12 -4 9 -10z m1102 -316 c3 -9 11 -13 19 -10 8 3 14 -4 16
-17 2 -14 11 -23 27 -25 18 -3 22 -8 18 -28 -5 -26 7 -42 18 -24 4 6 11 8 16
4 5 -3 7 -9 4 -14 -8 -14 47 -29 135 -36 47 -3 92 -10 101 -15 26 -13 167 -19
171 -7 4 12 58 18 58 7 0 -4 7 -14 15 -23 14 -13 13 -16 -4 -26 -16 -8 -21 -6
-26 11 -6 16 -10 18 -18 9 -9 -10 -9 -14 0 -17 8 -3 10 -15 6 -34 -3 -17 -1
-29 5 -29 5 0 18 -20 29 -45 10 -25 24 -45 31 -45 10 0 7 -11 -9 -37 -37 -61
-66 -86 -91 -80 -12 4 -27 2 -32 -2 -12 -10 -38 -14 -73 -12 -15 1 -21 6 -17
15 4 10 -1 15 -13 15 -10 0 -31 1 -48 3 -45 3 -70 -9 -83 -40 l-11 -27 5 30
c4 26 1 30 -21 31 -14 1 -25 -2 -25 -7 0 -14 -30 -11 -30 4 -1 6 -8 0 -16 -15
-17 -32 -28 -37 -19 -9 5 18 2 19 -29 14 -20 -3 -36 -2 -36 4 0 5 -12 10 -27
11 -15 1 -29 6 -32 10 -15 21 -72 52 -94 52 -14 0 -29 5 -32 11 -4 6 -13 8
-21 5 -7 -3 -20 2 -29 10 -18 19 -20 64 -2 65 10 0 10 2 0 6 -7 2 -13 12 -13
20 0 9 -6 13 -15 9 -13 -4 -14 -2 -5 14 6 11 15 20 21 20 6 0 7 -5 3 -11 -7
-12 13 -29 36 -29 11 0 11 3 2 12 -7 7 -12 22 -12 35 0 13 -5 23 -11 23 -5 0
-7 -4 -4 -10 3 -5 0 -10 -9 -10 -15 0 -16 16 -3 38 5 7 2 14 -7 18 -21 8 -20
24 2 25 11 0 12 2 4 6 -7 3 -19 -1 -28 -7 -25 -22 -34 8 -19 65 7 27 6 28 -7
17 -9 -7 -19 -24 -22 -37 -8 -32 -26 -32 -26 0 0 14 5 25 11 25 7 0 9 12 5 34
-6 32 -5 35 24 41 16 4 42 4 58 1 15 -3 41 1 57 8 42 19 115 18 122 0z m892
-17 c-1 -17 -2 -18 -6 -4 -2 9 -9 17 -14 17 -6 0 -7 5 -4 10 10 16 25 1 24
-23z m-379 -117 c0 -5 -4 -10 -10 -10 -5 0 -10 5 -10 10 0 6 5 10 10 10 6 0
10 -4 10 -10z m130 -40 c12 -7 12 -12 0 -34 -15 -29 -27 -27 -16 1 8 20 5 29
-6 26 -5 -2 -8 2 -8 7 0 12 10 13 30 0z m-2121 -271 c-19 -11 -24 -3 -8 14 8
9 16 11 18 5 2 -6 -3 -14 -10 -19z m87 10 c1 -9 -9 -22 -21 -27 -22 -10 -23
-9 -21 16 5 35 4 34 23 30 9 -2 17 -10 19 -19z m254 -80 c0 -5 -13 -9 -30 -9
-23 0 -28 3 -23 17 5 12 2 15 -10 10 -16 -6 -24 12 -11 26 7 7 74 -32 74 -44z
m193 -8 c10 -28 12 -28 34 -14 20 13 24 13 38 -1 15 -15 14 -16 -7 -16 -13 0
-30 -6 -37 -12 -10 -11 -14 -9 -22 5 -6 9 -15 15 -20 11 -6 -3 -9 2 -8 12 2
11 0 25 -4 32 -5 7 -3 12 3 12 7 0 17 -13 23 -29z m-168 9 c3 -5 1 -10 -4 -10
-6 0 -11 5 -11 10 0 6 2 10 4 10 3 0 8 -4 11 -10z m276 -68 c-6 -2 -11 -10
-11 -18 0 -17 -45 -47 -62 -41 -9 4 -7 6 4 6 12 1 15 9 13 36 -3 25 1 35 11
35 8 0 14 -7 14 -16 0 -14 2 -14 15 0 8 8 16 21 16 28 1 7 4 4 6 -7 3 -10 0
-21 -6 -23z m-121 8 c0 -5 -4 -10 -10 -10 -5 0 -10 5 -10 10 0 6 5 10 10 10 6
0 10 -4 10 -10z m-30 -13 c0 -5 7 -15 15 -23 34 -34 8 -47 -27 -14 -12 11 -30
20 -39 20 -22 0 -34 17 -17 23 20 8 68 4 68 -6z m178 -28 c-2 -6 -8 -10 -13
-10 -5 0 -11 4 -13 10 -2 6 4 11 13 11 9 0 15 -5 13 -11z m-118 -36 c0 -19
-13 -9 -16 12 -1 8 2 13 7 9 5 -3 9 -12 9 -21z m275 -5 c-7 -32 -6 -32 9 -13
l17 20 -3 -20 c-4 -25 -31 -26 -36 -2 -4 20 4 47 13 47 4 0 4 -15 0 -32z
m-186 -10 c12 -15 11 -18 -3 -18 -10 0 -16 8 -16 22 0 12 1 19 3 17 1 -2 9
-12 16 -21z m371 -10 c0 -4 -9 -8 -20 -8 -11 0 -20 -7 -20 -15 0 -8 -4 -15
-10 -15 -5 0 -10 6 -10 14 0 8 -6 17 -12 20 -7 3 -3 3 10 0 12 -3 22 -2 22 3
0 5 9 9 20 9 11 0 20 -4 20 -8z m-464 -16 c-3 -3 -1 -11 6 -19 6 -7 8 -16 4
-20 -9 -9 -13 -2 -22 31 -5 22 -4 27 5 21 7 -4 10 -10 7 -13z m354 -12 c0 -5
-4 -10 -10 -10 -5 0 -10 5 -10 10 0 6 5 10 10 10 6 0 10 -4 10 -10z m134 -19
c10 -15 -22 -20 -34 -5 -10 11 -9 14 8 14 12 0 23 -4 26 -9z m69 -8 c-7 -2
-21 -2 -30 0 -10 3 -4 5 12 5 17 0 24 -2 18 -5z m-313 -27 c0 -3 -4 -8 -10
-11 -5 -3 -10 -1 -10 4 0 6 5 11 10 11 6 0 10 -2 10 -4z m456 -17 c9 -15 -23
-10 -35 5 -10 12 -8 13 9 9 11 -3 23 -9 26 -14z m124 -19 c0 -5 -2 -10 -4 -10
-3 0 -8 5 -11 10 -3 6 -1 10 4 10 6 0 11 -4 11 -10z m-770 -224 c0 -2 -7 -9
-15 -16 -12 -10 -15 -10 -15 4 0 9 7 16 15 16 8 0 15 -2 15 -4z m235 -174 c-3
-3 -11 0 -18 7 -9 10 -8 11 6 5 10 -3 15 -9 12 -12z"/>
<path d="M3626 3925 c-3 -8 -1 -15 4 -15 6 0 10 7 10 15 0 8 -2 15 -4 15 -2 0
-6 -7 -10 -15z"/>
<path d="M3988 6638 c-55 -12 -63 -24 -15 -26 36 -2 87 16 87 29 0 10 -9 10
-72 -3z"/>
<path d="M3787 6634 c-13 -13 -7 -24 14 -24 11 0 19 5 17 12 -5 14 -22 21 -31
12z"/>
<path d="M3733 6613 c9 -2 23 -2 30 0 6 3 -1 5 -18 5 -16 0 -22 -2 -12 -5z"/>
<path d="M4187 5007 c-15 -10 -16 -15 -5 -29 9 -13 17 -15 28 -8 10 6 11 10 3
10 -7 0 -13 6 -13 14 0 8 6 17 13 19 6 3 7 6 1 6 -5 1 -18 -5 -27 -12z"/>
<path d="M3875 5000 c-3 -5 -1 -10 4 -10 6 0 11 5 11 10 0 6 -2 10 -4 10 -3 0
-8 -4 -11 -10z"/>
<path d="M4234 4987 c-3 -8 0 -26 5 -40 9 -22 8 -27 -5 -27 -8 0 -17 7 -20 15
-5 12 -10 13 -20 4 -9 -7 -14 -7 -14 -1 0 5 -9 12 -21 15 -12 3 -18 10 -15 15
5 8 -14 22 -28 22 -1 0 -3 -10 -3 -22 -1 -13 -10 -29 -20 -36 -16 -12 -15 -13
10 -6 23 5 29 3 34 -15 3 -11 9 -18 13 -16 5 3 12 -15 15 -40 4 -25 11 -45 16
-45 5 0 9 -5 9 -11 0 -6 -9 -8 -21 -4 -18 6 -19 4 -11 -12 5 -10 7 -24 5 -31
-3 -7 1 -20 8 -28 7 -8 14 -26 15 -40 1 -13 11 -50 20 -82 10 -31 18 -63 17
-70 -1 -16 57 -82 73 -82 7 0 43 -16 80 -35 63 -33 93 -39 164 -34 33 2 93
-12 113 -26 12 -8 29 -15 39 -15 10 0 18 -5 18 -11 0 -7 11 -9 30 -5 17 3 30
1 30 -4 0 -12 53 -1 58 12 2 4 14 8 27 8 13 0 25 4 27 8 4 11 97 65 171 99 31
14 57 32 57 39 0 7 9 15 19 19 11 3 23 15 26 26 4 10 11 19 16 19 5 0 9 7 9
15 0 17 29 34 48 28 6 -3 12 2 12 11 0 9 7 16 15 16 18 0 18 0 1 41 -7 19 -12
45 -10 59 12 90 11 95 -14 125 -28 34 -97 75 -127 75 -12 0 -27 6 -33 13 -19
18 -148 14 -206 -6 -34 -13 -65 -16 -100 -13 -28 3 -75 8 -104 11 -30 3 -57 7
-61 9 -4 3 -24 1 -45 -4 -26 -6 -53 -4 -84 5 -25 8 -49 12 -54 9 -4 -3 -13 -2
-20 2 -7 4 -26 8 -42 7 -17 0 -33 3 -36 6 -3 3 -22 14 -43 23 -30 15 -39 15
-43 5z m41 -56 c3 -5 1 -12 -5 -16 -5 -3 -10 1 -10 9 0 18 6 21 15 7z m55 5
c0 -9 -30 -14 -35 -6 -4 6 3 10 14 10 12 0 21 -2 21 -4z m-105 -116 c-3 -5
-12 -10 -18 -10 -7 0 -6 4 3 10 19 12 23 12 15 0z m565 6 c0 -3 -4 -8 -10 -11
-5 -3 -10 -1 -10 4 0 6 5 11 10 11 6 0 10 -2 10 -4z m-30 -149 c0 -20 -1 -20
-16 -5 -9 9 -13 21 -9 27 10 16 25 3 25 -22z m-74 -81 c10 -8 16 -17 13 -20
-3 -4 -17 2 -30 13 -27 23 -13 28 17 7z"/>
<path d="M3898 4953 c7 -3 16 -2 19 1 4 3 -2 6 -13 5 -11 0 -14 -3 -6 -6z"/>
<path d="M3920 4880 c0 -5 5 -10 11 -10 5 0 7 5 4 10 -3 6 -8 10 -11 10 -2 0
-4 -4 -4 -10z"/>
<path d="M5719 4820 c-42 -4 -83 -11 -90 -16 -8 -5 -30 -14 -49 -19 -32 -10
-35 -14 -38 -50 -1 -22 -5 -47 -9 -55 -22 -56 24 -306 77 -410 49 -97 125
-165 150 -135 9 11 16 11 38 0 26 -14 47 -11 24 4 -8 5 -1 8 18 8 16 0 31 2
33 4 1 2 12 26 25 52 12 26 26 46 31 43 13 -8 44 31 38 48 -3 8 0 19 7 25 7 6
11 22 9 35 -3 13 3 40 12 59 9 20 18 50 19 69 6 69 21 92 81 124 26 13 25 71
-1 106 -25 34 -101 83 -158 102 -49 17 -92 18 -217 6z m-81 -342 c10 -40 -2
-48 -30 -20 -18 17 -19 22 -7 36 21 23 27 20 37 -16z"/>
<path d="M4010 4800 c0 -5 5 -10 10 -10 6 0 10 5 10 10 0 6 -4 10 -10 10 -5 0
-10 -4 -10 -10z"/>
<path d="M3845 4760 c3 -5 10 -10 16 -10 5 0 9 5 9 10 0 6 -7 10 -16 10 -8 0
-12 -4 -9 -10z"/>
<path d="M3980 4738 c0 -19 2 -20 10 -8 13 19 13 30 0 30 -5 0 -10 -10 -10
-22z"/>
<path d="M3902 4534 c-2 -22 0 -24 12 -14 8 6 12 18 9 26 -8 22 -18 16 -21
-12z"/>
<path d="M3947 4229 c7 -7 15 -10 18 -7 3 3 -2 9 -12 12 -14 6 -15 5 -6 -5z"/>
<path d="M3991 4214 c0 -11 3 -14 6 -6 3 7 2 16 -1 19 -3 4 -6 -2 -5 -13z"/>
<path d="M3960 4185 c0 -8 5 -15 10 -15 6 0 10 7 10 15 0 8 -4 15 -10 15 -5 0
-10 -7 -10 -15z"/>
<path d="M4005 4170 c3 -5 8 -10 11 -10 2 0 4 5 4 10 0 6 -5 10 -11 10 -5 0
-7 -4 -4 -10z"/>
<path d="M4050 4152 c0 -12 19 -26 26 -19 2 2 -2 10 -11 17 -9 8 -15 8 -15 2z"/>
<path d="M5044 3993 c-3 -10 -10 -28 -16 -39 -6 -12 -8 -39 -5 -60 3 -22 9
-62 13 -91 9 -75 77 -141 131 -127 10 3 27 -3 38 -14 11 -10 26 -17 32 -15 6
2 18 -6 27 -18 12 -18 13 -24 2 -33 -23 -19 -27 -46 -8 -47 9 -1 34 -2 55 -3
25 -2 37 1 37 11 0 7 5 13 10 13 6 0 10 -4 10 -10 0 -5 16 -10 35 -10 24 0 33
-4 29 -13 -3 -8 4 -13 16 -14 12 -1 24 5 27 13 8 20 23 17 17 -3 -5 -17 -5
-17 6 0 6 9 9 20 7 25 -3 4 1 13 9 19 8 8 15 9 19 3 3 -6 13 -10 21 -10 12 0
15 12 13 53 -2 83 7 124 40 169 16 24 31 57 33 73 3 26 0 30 -19 27 -12 -2
-33 4 -46 12 -13 9 -26 14 -29 11 -3 -3 -32 -8 -63 -10 -52 -4 -60 -2 -81 20
-21 22 -32 25 -102 26 -65 2 -85 -2 -108 -18 -26 -18 -86 -43 -103 -43 -3 0
-5 21 -3 47 3 40 0 50 -18 61 -17 11 -21 10 -26 -5z m301 -173 c-3 -5 -11 -10
-16 -10 -6 0 -7 5 -4 10 3 6 11 10 16 10 6 0 7 -4 4 -10z m-75 -130 c0 -5 -9
-10 -21 -10 -11 0 -17 5 -14 10 3 6 13 10 21 10 8 0 14 -4 14 -10z m107 -106
c-3 -3 -12 -4 -19 -1 -8 3 -5 6 6 6 11 1 17 -2 13 -5z"/>
<path d="M3840 3680 c-12 -8 -11 -10 8 -10 12 0 22 5 22 10 0 13 -11 13 -30 0z"/>
<path d="M3943 3643 c9 -9 20 -13 24 -9 4 4 1 11 -7 16 -25 16 -35 11 -17 -7z"/>
<path d="M3981 3534 c0 -11 3 -14 6 -6 3 7 2 16 -1 19 -3 4 -6 -2 -5 -13z"/>
<path d="M5510 3530 c0 -5 5 -10 10 -10 6 0 10 5 10 10 0 6 -4 10 -10 10 -5 0
-10 -4 -10 -10z"/>
<path d="M4000 3471 c0 -5 5 -13 10 -16 6 -3 10 -2 10 4 0 5 -4 13 -10 16 -5
3 -10 2 -10 -4z"/>
<path d="M5550 3470 c0 -5 5 -10 10 -10 6 0 10 5 10 10 0 6 -4 10 -10 10 -5 0
-10 -4 -10 -10z"/>
<path d="M2638 3251 c-74 -19 -97 -39 -166 -141 -48 -71 -81 -109 -113 -129
-57 -35 -162 -128 -189 -166 -28 -40 -114 -96 -169 -111 -31 -8 -84 -24 -119
-34 -35 -11 -76 -17 -91 -14 -22 5 -34 0 -52 -19 -23 -23 -66 -39 -274 -99
-38 -11 -83 -24 -99 -29 -16 -5 -83 -9 -150 -9 -78 -1 -133 -6 -156 -15 -19
-7 -57 -21 -85 -31 -27 -9 -67 -25 -87 -35 -30 -14 -180 -57 -224 -63 -7 -1
-18 -6 -25 -12 -18 -13 -53 -28 -114 -49 -27 -10 -54 -22 -59 -26 -6 -5 -19
-9 -30 -9 -12 -1 -39 -8 -61 -16 -22 -8 -62 -21 -89 -29 -26 -8 -57 -22 -68
-32 -11 -10 -63 -40 -116 -68 l-97 -50 -3 -1032 -2 -1033 2354 0 2353 0 51 58
c123 140 172 215 172 262 l0 33 -24 -44 c-37 -71 -50 -89 -63 -89 -7 0 -13 -6
-13 -14 0 -8 -5 -18 -10 -21 -7 -4 -9 2 -4 19 8 35 -16 26 -40 -14 -9 -17 -21
-30 -27 -30 -5 0 -9 -7 -9 -15 0 -8 -4 -15 -10 -15 -5 0 -10 -7 -10 -15 0 -7
-6 -18 -13 -22 -8 -4 -16 -16 -20 -25 -6 -16 -37 -26 -37 -12 0 13 25 51 51
76 16 15 41 47 55 70 15 24 33 50 41 58 70 76 115 154 111 192 l-4 33 -14 -30
c-8 -16 -15 -32 -16 -33 -1 -2 -12 -1 -24 3 -18 6 -20 12 -14 38 4 18 17 46
30 63 30 39 32 114 2 114 -5 0 -7 -4 -4 -9 6 -8 -15 -21 -35 -21 -15 0 -11 20
16 76 18 38 23 62 19 81 -10 43 -14 46 -35 22 -15 -17 -20 -19 -24 -7 -7 16
21 88 34 88 12 0 22 27 16 43 -3 7 -18 18 -33 24 -82 35 -151 67 -282 130 -80
38 -162 77 -182 87 -74 33 -34 32 62 -2 47 -17 81 -31 195 -82 11 -5 51 -23
89 -40 38 -17 85 -42 104 -57 l34 -26 -3 84 c-2 46 1 115 5 153 l9 70 18 -23
c26 -32 24 -18 -6 42 -24 46 -49 78 -187 230 -45 50 -47 51 -103 52 l-56 0
-21 -49 c-21 -48 -21 -49 -2 -63 18 -15 18 -15 -3 -8 -13 3 -30 2 -38 -2 -14
-8 -14 -11 2 -25 10 -9 68 -42 128 -73 127 -66 181 -101 189 -122 4 -10 -14
-4 -51 18 -32 18 -99 54 -149 79 -50 26 -102 55 -116 64 -26 17 -58 13 -58 -8
0 -7 35 -29 78 -50 145 -69 267 -137 300 -169 44 -42 27 -45 -39 -6 -121 71
-343 180 -363 177 -12 -2 -21 -10 -21 -18 0 -16 1 -16 254 -137 104 -50 172
-88 187 -107 14 -15 23 -31 20 -33 -2 -3 -80 35 -173 84 -215 112 -312 154
-335 142 -25 -13 -30 -26 -19 -48 9 -16 8 -18 -7 -14 -11 2 -27 -5 -40 -19
-49 -53 -112 -138 -112 -150 0 -7 17 -33 36 -58 20 -25 52 -66 71 -92 19 -27
41 -48 48 -48 7 0 25 -10 39 -21 26 -21 27 -25 21 -80 -5 -41 -4 -59 4 -59 7
0 11 -24 9 -70 l-2 -70 -33 0 c-32 0 -37 7 -169 208 -75 114 -143 216 -151
227 -24 35 -217 327 -264 400 -149 234 -354 521 -484 677 -40 47 -106 130
-148 185 -41 54 -111 139 -155 189 -140 159 -251 318 -282 406 -38 111 -40
150 -10 237 15 43 46 106 68 141 23 35 39 67 36 71 -8 13 -50 9 -126 -10z
m2085 -1929 c9 -8 15 -17 13 -19 -6 -6 -100 46 -130 72 -16 14 -35 25 -43 25
-7 0 -13 5 -13 11 0 11 141 -62 173 -89z m-8 60 c-7 -8 -35 7 -35 18 0 6 7 6
20 -2 10 -7 17 -14 15 -16z m50 -92 c3 -5 1 -10 -4 -10 -6 0 -11 5 -11 10 0 6
2 10 4 10 3 0 8 -4 11 -10z m-185 -310 c0 -5 -4 -10 -9 -10 -6 0 -13 5 -16 10
-3 6 1 10 9 10 9 0 16 -4 16 -10z m46 -186 c-9 -9 -20 -14 -23 -10 -4 3 2 13
13 20 25 18 31 12 10 -10z m72 -180 c-27 -55 -48 -68 -48 -30 0 27 62 106 68
88 2 -6 -7 -32 -20 -58z m-104 41 c-6 -16 -24 -21 -24 -7 0 11 11 22 21 22 5
0 6 -7 3 -15z m-58 -40 c-11 -8 -25 -15 -30 -15 -6 0 -2 7 8 15 11 8 25 15 30
15 6 0 2 -7 -8 -15z m-46 -29 c0 -2 -7 -9 -15 -16 -13 -11 -14 -10 -9 4 5 14
24 23 24 12z m110 -45 c0 -5 -4 -11 -8 -13 -16 -7 -52 -67 -52 -88 0 -13 -8
-24 -20 -27 -11 -3 -20 -9 -20 -14 0 -5 -4 -9 -9 -9 -5 0 -7 9 -4 20 3 11 0
20 -6 20 -6 0 -11 8 -11 17 0 20 48 73 66 73 6 0 17 7 24 15 14 16 40 20 40 6z
m-124 -36 c-21 -16 -32 -13 -21 4 3 6 14 11 23 11 15 -1 15 -2 -2 -15z m242 7
c-30 -69 -54 -103 -70 -99 -13 4 -18 -1 -18 -14 0 -10 -7 -19 -15 -19 -8 0
-15 -5 -15 -12 0 -14 -60 -78 -72 -78 -5 0 -4 9 2 20 9 17 8 20 -11 20 -16 0
-19 4 -14 18 4 9 9 24 12 33 3 9 17 23 31 30 15 8 50 32 77 55 47 38 68 51 88
53 5 1 7 -2 5 -7z m-5 -118 c16 -6 12 -38 -7 -63 -9 -12 -7 -13 9 -7 41 17 55
18 55 6 0 -6 14 0 31 15 34 28 52 26 26 -3 -10 -10 -17 -22 -17 -25 0 -9 -37
-52 -75 -88 -27 -27 -31 -28 -42 -12 -7 9 -13 11 -13 5 0 -7 -6 -12 -14 -12
-17 0 -10 38 11 58 7 7 13 19 13 27 0 7 -19 -5 -42 -27 -23 -22 -44 -35 -46
-29 -2 6 -13 11 -24 11 -15 0 -18 4 -12 23 10 34 26 53 75 92 47 37 49 38 72
29z m50 -285 c-10 -17 -26 -37 -35 -43 -10 -6 -18 -16 -18 -22 0 -15 -25 -36
-33 -28 -9 9 84 124 99 124 3 0 -3 -14 -13 -31z m-123 5 c0 -8 -5 -12 -10 -9
-6 4 -8 11 -5 16 9 14 15 11 15 -7z"/>
<path d="M4196 3221 c-3 -5 1 -11 9 -15 9 -3 15 0 15 9 0 16 -16 20 -24 6z"/>
<path d="M7775 2868 c-71 -9 -127 -23 -151 -36 -12 -6 -43 -16 -70 -22 -27 -6
-71 -21 -99 -34 -27 -13 -66 -31 -86 -40 -20 -9 -42 -23 -50 -32 -7 -9 -40
-34 -74 -57 -98 -66 -180 -144 -266 -252 -94 -119 -169 -246 -226 -384 -19
-47 -47 -111 -61 -141 -14 -30 -25 -58 -24 -62 2 -10 -27 -77 -52 -117 -26
-41 -86 -208 -86 -237 0 -11 -4 -24 -9 -29 -5 -6 -19 -48 -31 -95 -31 -126
-50 -170 -71 -170 -10 0 -58 35 -107 78 -49 42 -125 107 -168 144 -44 38 -119
104 -169 149 -303 272 -424 363 -600 454 -70 37 -136 76 -146 88 -10 12 -33
49 -50 82 -18 33 -48 80 -68 104 -20 25 -39 49 -43 55 -5 7 -10 7 -17 1 -10
-10 -7 -58 23 -336 10 -96 21 -149 35 -177 35 -68 108 -262 162 -429 28 -87
126 -387 219 -668 92 -280 180 -554 196 -607 l28 -98 993 0 c893 0 993 2 993
16 0 8 -5 12 -10 9 -6 -3 -13 1 -16 9 -3 9 -17 16 -29 16 -15 0 -39 16 -63 42
l-40 42 24 31 c19 25 29 31 53 27 16 -2 32 1 35 7 4 6 18 11 32 11 19 0 24 5
25 28 1 15 0 32 -1 37 -1 6 -4 25 -7 44 l-6 34 43 -7 c24 -4 49 -11 55 -15 5
-5 27 -11 48 -15 l37 -7 0 70 c0 61 -3 72 -21 81 -11 7 -23 9 -26 6 -3 -3 -14
-1 -24 5 -14 7 -19 21 -19 52 0 50 -13 67 -51 67 -15 0 -40 5 -56 11 -15 7
-40 11 -55 10 -30 -1 -52 23 -63 72 -4 15 -12 27 -18 27 -6 0 -18 7 -28 16 -9
8 -29 17 -43 18 -34 4 -44 15 -26 26 12 8 11 13 -6 32 -32 35 -40 53 -22 45
12 -4 17 3 20 31 3 20 1 40 -4 43 -4 3 -9 23 -11 45 -1 21 -6 45 -10 51 -5 7
-6 17 -2 22 5 9 -16 77 -37 115 -8 15 -38 104 -38 114 0 2 5 0 11 -4 8 -5 10
1 7 20 -3 14 -1 29 4 32 5 3 6 14 3 24 -3 10 -1 21 5 25 5 3 10 19 10 34 0 19
12 40 37 64 20 21 40 37 45 37 4 0 8 7 8 15 0 8 9 19 21 25 33 18 62 51 88
100 13 25 27 47 31 50 12 8 32 79 25 90 -3 6 1 17 9 26 9 8 16 21 16 27 0 7
19 33 43 59 23 25 50 69 60 96 11 32 35 68 67 100 l50 50 0 371 0 371 -27 -2
c-16 -2 -50 -6 -78 -10z m-565 -2088 c0 -5 -5 -10 -11 -10 -5 0 -7 5 -4 10 3
6 8 10 11 10 2 0 4 -4 4 -10z m50 -49 c15 -29 12 -41 -9 -41 -14 0 -18 5 -14
20 3 12 0 20 -6 20 -7 0 -9 5 -6 10 10 16 23 12 35 -9z m50 -92 c0 -11 -4 -19
-10 -19 -5 0 -10 6 -10 13 0 9 -2 9 -9 -1 -6 -10 -10 -8 -14 9 -7 27 11 43 30
27 7 -6 13 -19 13 -29z m17 -24 c-8 -20 11 -29 28 -15 12 10 15 9 15 -4 0 -9
-5 -16 -11 -16 -5 0 -7 -5 -4 -11 4 -6 13 -8 20 -5 8 3 19 -1 25 -9 8 -10 7
-17 -6 -29 -15 -16 -18 -16 -35 0 -11 10 -19 12 -19 6 0 -19 -18 -14 -25 7 -3
11 -14 23 -24 26 -24 7 -17 37 12 52 30 15 30 15 24 -2z m346 -227 c9 -32 -12
-46 -53 -37 -19 4 -37 8 -40 8 -3 0 -7 13 -8 28 -2 15 -9 31 -15 35 -8 5 -7
11 2 21 11 14 18 12 61 -10 26 -14 51 -34 53 -45z"/>
<path d="M3547 2793 c-4 -3 -7 -11 -7 -17 0 -6 5 -5 12 2 6 6 9 14 7 17 -3 3
-9 2 -12 -2z"/>
<path d="M3443 2764 c10 -3 16 -12 13 -19 -5 -15 21 -42 31 -31 3 3 1 6 -5 6
-6 0 -12 10 -14 22 -2 14 -11 24 -23 25 -17 2 -17 1 -2 -3z"/>
<path d="M3800 2699 c0 -5 5 -7 10 -4 6 3 10 8 10 11 0 2 -4 4 -10 4 -5 0 -10
-5 -10 -11z"/>
<path d="M3528 2663 c7 -3 16 -2 19 1 4 3 -2 6 -13 5 -11 0 -14 -3 -6 -6z"/>
<path d="M3768 2649 c12 -11 20 -24 17 -30 -4 -5 1 -9 9 -9 11 0 16 9 16 30 0
27 -3 30 -32 30 l-32 0 22 -21z"/>
<path d="M3580 2626 c0 -9 5 -16 10 -16 6 0 10 4 10 9 0 6 -4 13 -10 16 -5 3
-10 -1 -10 -9z"/>
<path d="M3891 2621 c-10 -7 -10 -10 -1 -16 6 -4 16 -3 22 3 13 13 -4 23 -21
13z"/>
<path d="M3606 2591 c-6 -10 32 -47 39 -39 9 8 -5 36 -20 42 -8 3 -17 1 -19
-3z"/>
<path d="M3860 2580 c0 -5 5 -10 10 -10 6 0 10 5 10 10 0 6 -4 10 -10 10 -5 0
-10 -4 -10 -10z"/>
<path d="M3946 2531 c-4 -7 -5 -15 -2 -18 9 -9 19 4 14 18 -4 11 -6 11 -12 0z"/>
<path d="M3825 2520 c-3 -5 1 -10 10 -10 9 0 13 5 10 10 -3 6 -8 10 -10 10 -2
0 -7 -4 -10 -10z"/>
<path d="M3870 2459 c0 -5 5 -7 10 -4 6 3 10 8 10 11 0 2 -4 4 -10 4 -5 0 -10
-5 -10 -11z"/>
<path d="M4486 2445 c-3 -9 0 -15 9 -15 8 0 15 7 15 15 0 8 -4 15 -9 15 -5 0
-11 -7 -15 -15z"/>
<path d="M3965 2440 c-3 -5 -1 -10 4 -10 6 0 11 5 11 10 0 6 -2 10 -4 10 -3 0
-8 -4 -11 -10z"/>
<path d="M4668 2443 c7 -3 16 -2 19 1 4 3 -2 6 -13 5 -11 0 -14 -3 -6 -6z"/>
<path d="M4606 2401 c-3 -5 1 -11 9 -15 8 -3 15 -1 15 4 0 13 -18 22 -24 11z"/>
<path d="M4230 2365 c0 -8 5 -15 10 -15 6 0 10 7 10 15 0 8 -4 15 -10 15 -5 0
-10 -7 -10 -15z"/>
<path d="M4144 2325 c-3 -8 -4 -20 -1 -27 4 -8 6 -6 6 5 1 9 6 17 11 17 6 0
10 5 10 10 0 15 -20 12 -26 -5z"/>
<path d="M4100 2320 c0 -5 7 -10 15 -10 8 0 15 5 15 10 0 6 -7 10 -15 10 -8 0
-15 -4 -15 -10z"/>
<path d="M4705 2310 c3 -5 13 -10 21 -10 8 0 14 5 14 10 0 6 -9 10 -21 10 -11
0 -17 -4 -14 -10z"/>
<path d="M4785 2310 c4 -7 2 -16 -6 -22 -11 -7 -9 -8 6 -6 23 4 27 29 6 36 -9
3 -11 0 -6 -8z"/>
<path d="M4615 2140 c-3 -5 1 -10 9 -10 9 0 16 5 16 10 0 6 -4 10 -9 10 -6 0
-13 -4 -16 -10z"/>
<path d="M7800 1388 c-14 -4 -46 -12 -72 -19 -29 -7 -48 -17 -48 -26 0 -7 29
-32 64 -54 51 -32 66 -47 72 -72 6 -30 49 -107 59 -107 3 0 5 62 5 139 l0 139
-27 4 c-16 2 -39 0 -53 -4z"/>
<path d="M4836 243 c-6 -14 -5 -15 5 -6 7 7 10 15 7 18 -3 3 -9 -2 -12 -12z"/>
<path d="M4926 176 c-9 -19 -26 -43 -39 -53 -12 -10 -24 -29 -25 -43 -2 -14
-8 -26 -13 -28 -12 -5 -11 -32 1 -32 6 0 10 4 10 8 0 5 9 20 21 33 42 48 79
108 79 128 0 32 -16 25 -34 -13z"/>
<path d="M4946 50 c-27 -49 -27 -50 -6 -50 15 0 25 11 36 35 32 77 10 88 -30
15z"/>
<path d="M5005 10 c-3 -5 -1 -10 4 -10 6 0 11 5 11 10 0 6 -2 10 -4 10 -3 0
-8 -4 -11 -10z"/>
</g>
</svg>
