<?xml version="1.0" standalone="no"?>
<!DOCTYPE svg PUBLIC "-//W3C//DTD SVG 20010904//EN"
 "http://www.w3.org/TR/2001/REC-SVG-20010904/DTD/svg10.dtd">
<svg version="1.0" xmlns="http://www.w3.org/2000/svg"
 width="480.000000pt" height="360.000000pt" viewBox="0 0 480.000000 360.000000"
 preserveAspectRatio="xMidYMid meet">

<g transform="translate(0.000000,360.000000) scale(0.100000,-0.100000)"
fill="#000000" stroke="none">
<path d="M0 1800 l0 -1800 2400 0 2400 0 0 259 c0 156 -4 261 -10 263 -6 2 -6
18 0 43 6 24 10 657 10 1538 l0 1497 -2400 0 -2400 0 0 -1800z m2697 1278 c9
-7 13 -7 13 1 0 6 16 11 38 10 20 0 31 -3 25 -6 -7 -2 -13 -14 -14 -26 0 -22
0 -22 -10 1 -10 26 -33 20 -25 -6 9 -28 -9 -45 -43 -40 -33 5 -41 -8 -19 -30
10 -10 10 -15 -2 -22 -27 -17 -33 -11 -26 30 4 25 2 40 -4 40 -5 0 -10 -13
-10 -29 0 -16 -6 -34 -14 -40 -11 -10 -14 -38 -13 -122 0 -60 4 -109 7 -109 4
0 5 -17 3 -37 -1 -21 3 -40 10 -45 9 -6 9 -8 -2 -8 -17 0 -51 -38 -51 -57 0
-7 -6 -13 -12 -13 -9 0 -8 -3 2 -10 8 -5 11 -12 7 -17 -11 -11 -28 19 -23 40
3 11 0 17 -7 14 -17 -5 -21 -48 -5 -58 8 -5 8 -9 2 -9 -6 0 -11 -11 -11 -25 0
-15 5 -25 13 -25 8 0 14 11 14 26 0 14 4 23 10 19 6 -3 10 -15 10 -26 0 -10 7
-19 15 -19 19 0 19 -17 1 -36 -13 -12 -17 -12 -28 0 -11 11 -15 11 -25 -3 -8
-10 -12 -12 -13 -3 0 6 -6 12 -14 12 -9 0 -12 8 -8 25 2 14 8 25 13 25 5 0 4
11 -1 24 -7 20 -8 70 -1 129 2 15 20 6 26 -13 8 -26 22 -25 30 1 5 15 2 25 -9
31 -11 6 -14 17 -9 40 4 21 3 29 -5 24 -5 -3 -13 0 -15 6 -3 7 -6 3 -6 -9 -1
-25 -19 -34 -43 -21 -16 7 -18 3 -19 -29 -1 -21 -1 -44 0 -50 1 -7 -3 -13 -9
-13 -5 0 -10 6 -10 14 0 8 -7 16 -16 18 -12 2 -18 16 -20 43 -1 22 -7 66 -11
98 -5 32 -6 60 -2 63 5 3 6 11 2 19 -3 9 1 15 8 15 11 0 11 2 1 8 -9 6 -10 15
-3 33 9 21 10 21 11 4 0 -15 4 -12 17 13 14 29 21 33 45 30 19 -3 28 0 28 9 0
7 5 13 10 13 6 0 10 13 10 29 0 31 13 41 43 33 22 -6 22 -22 0 -22 -11 0 -14
-3 -7 -10 5 -5 19 -7 32 -4 16 5 22 14 22 33 0 24 4 27 42 28 23 1 48 -3 55
-9z m683 8 c0 -3 -4 -8 -10 -11 -5 -3 -10 -1 -10 4 0 6 5 11 10 11 6 0 10 -2
10 -4z m430 -17 c7 -11 9 -23 6 -26 -3 -4 -1 -12 5 -20 9 -10 8 -13 -1 -13
-10 0 -10 -3 0 -15 14 -17 0 -21 -17 -4 -7 7 -8 21 -3 40 7 23 5 31 -10 39
-13 7 -19 6 -24 -6 -3 -8 -10 -13 -15 -9 -6 3 -8 12 -4 20 8 22 51 18 63 -6z
m-890 -18 c0 -5 -7 -14 -15 -21 -16 -14 -18 -10 -9 14 6 17 24 22 24 7z m530
-12 c0 -11 -4 -17 -10 -14 -5 3 -10 13 -10 21 0 8 5 14 10 14 6 0 10 -9 10
-21z m95 -8 c-9 -16 -25 -3 -18 15 4 10 9 12 15 6 6 -6 7 -15 3 -21z m-1230
-21 c-3 -5 -10 -10 -16 -10 -5 0 -9 5 -9 10 0 6 7 10 16 10 8 0 12 -4 9 -10z
m457 -8 c-15 -5 -16 -34 -1 -49 6 -6 8 -17 3 -25 -9 -15 -21 18 -23 64 -1 22
2 26 16 21 11 -4 12 -8 5 -11z m221 -13 c4 -13 10 -18 18 -14 7 5 10 3 7 -5
-8 -24 -25 -21 -32 5 -8 33 -30 33 -24 0 3 -14 2 -28 -2 -30 -4 -3 -10 10 -12
28 -3 28 0 33 18 35 15 1 24 -5 27 -19z m590 9 c7 -7 13 -21 15 -32 3 -14 -1
-17 -13 -12 -9 3 -19 6 -21 6 -2 0 -4 11 -4 25 0 28 6 31 23 13z m-716 -50
c-2 -13 -4 -5 -4 17 -1 22 1 32 4 23 2 -10 2 -28 0 -40z m1190 30 c-3 -8 -6
-5 -6 6 -1 11 2 17 5 13 3 -3 4 -12 1 -19z m-1240 -20 c-3 -7 -5 -2 -5 12 0
14 2 19 5 13 2 -7 2 -19 0 -25z m-87 2 c0 -5 -5 -10 -11 -10 -5 0 -7 5 -4 10
3 6 8 10 11 10 2 0 4 -4 4 -10z m1087 -12 c-3 -8 -6 -5 -6 6 -1 11 2 17 5 13
3 -3 4 -12 1 -19z m-227 -40 c0 -4 5 -8 10 -8 6 0 10 6 9 13 -3 25 1 38 11 32
12 -7 9 -105 -2 -105 -5 0 -8 -13 -8 -30 0 -30 -15 -41 -22 -18 -6 18 3 58 13
58 5 0 9 7 9 16 0 10 -6 14 -15 10 -11 -4 -15 1 -15 19 0 14 -4 25 -10 25 -5
0 -10 8 -10 18 1 15 2 15 15 -2 8 -11 15 -23 15 -28z m-910 -5 c0 -20 -7 -31
-25 -39 -29 -14 -35 -9 -34 25 0 14 3 20 6 14 8 -21 43 -15 43 7 0 11 2 20 5
20 3 0 5 -12 5 -27z m50 12 c0 -8 -7 -15 -15 -15 -26 0 -18 20 13 29 1 1 2 -6
2 -14z m202 -46 c-1 -22 -3 -44 -6 -47 -3 -3 -6 19 -6 48 0 29 3 51 6 47 4 -3
6 -25 6 -48z m788 11 c0 -16 -4 -30 -10 -30 -5 0 -10 14 -10 30 0 17 5 30 10
30 6 0 10 -13 10 -30z m140 20 c0 -5 -5 -10 -11 -10 -5 0 -7 5 -4 10 3 6 8 10
11 10 2 0 4 -4 4 -10z m-880 -20 c0 -5 -7 -10 -15 -10 -8 0 -15 5 -15 10 0 6
7 10 15 10 8 0 15 -4 15 -10z m360 0 c0 -5 -7 -10 -15 -10 -8 0 -15 5 -15 10
0 6 7 10 15 10 8 0 15 -4 15 -10z m-200 -20 c0 -5 -4 -10 -10 -10 -5 0 -10 5
-10 10 0 6 5 10 10 10 6 0 10 -4 10 -10z m200 -15 c0 -8 -4 -15 -9 -15 -13 0
-22 16 -14 24 11 11 23 6 23 -9z m55 5 c8 -12 -5 -60 -16 -60 -5 0 -9 16 -9
35 0 33 12 46 25 25z m452 -15 c-15 -16 -19 -13 -11 9 3 9 10 13 15 10 5 -3 3
-11 -4 -19z m-1192 -5 c3 6 11 8 16 4 7 -4 5 -12 -4 -22 -8 -10 -17 -25 -20
-34 -11 -32 -27 -19 -27 23 0 35 2 39 14 30 10 -8 16 -9 21 -1z m-2465 -40 c0
-4 -7 -13 -15 -20 -13 -11 -15 -8 -15 13 0 19 4 25 15 21 8 -4 15 -10 15 -14z
m3150 10 c0 -5 -4 -10 -10 -10 -5 0 -10 5 -10 10 0 6 5 10 10 10 6 0 10 -4 10
-10z m320 -46 c-6 -16 -10 -44 -9 -64 3 -53 -2 -127 -8 -112 -2 6 -11 12 -19
12 -10 0 -14 -15 -14 -59 0 -33 5 -63 10 -66 6 -4 8 -12 4 -18 -3 -7 1 -4 9 6
8 10 12 28 9 40 -5 21 -5 22 15 4 20 -18 21 -18 36 3 11 16 21 20 36 15 12 -4
21 -2 21 4 0 6 7 8 15 5 9 -4 15 0 15 10 0 21 19 21 27 0 6 -16 -15 -37 -29
-28 -4 3 -8 -2 -8 -11 0 -11 -5 -15 -15 -11 -8 3 -15 1 -15 -4 0 -6 13 -10 29
-10 16 0 32 -6 34 -12 4 -10 8 -9 16 2 9 13 11 13 11 -3 0 -13 -7 -17 -32 -15
-25 2 -34 -2 -43 -20 -10 -19 -14 -20 -24 -8 -10 11 -8 16 6 25 17 10 16 10
-4 11 -12 0 -23 6 -26 13 -2 6 -8 0 -12 -15 -4 -16 -11 -28 -16 -28 -5 0 -9
-16 -9 -35 0 -26 -3 -33 -15 -29 -10 4 -15 0 -15 -15 0 -25 -22 -28 -44 -6
-14 15 -15 103 -2 237 2 22 -1 39 -8 42 -6 2 0 5 13 5 19 1 22 5 17 24 -4 12
-8 28 -10 35 -1 7 -8 18 -14 24 -21 21 -14 39 16 36 25 -3 27 0 30 36 3 34 5
37 18 24 12 -12 13 -20 4 -44z m200 13 c0 -9 -4 -17 -10 -19 -5 -1 -12 -30
-15 -63 -7 -66 -23 -106 -44 -113 -11 -4 -12 5 -6 44 4 27 11 51 16 52 5 2 9
19 9 38 0 19 5 34 10 34 6 0 10 16 10 36 0 31 2 34 15 20 8 -8 15 -21 15 -29z
m-1183 11 c-3 -8 -6 -5 -6 6 -1 11 2 17 5 13 3 -3 4 -12 1 -19z m63 8 c0 -10
-7 -12 -22 -8 -21 5 -21 6 -2 13 10 4 20 8 22 8 1 1 2 -5 2 -13z m-712 -19
c15 -12 16 -37 0 -37 -6 0 -20 -8 -31 -17 -20 -18 -20 -17 -14 15 7 33 -8 43
-30 21 -14 -14 -34 -3 -27 16 9 24 73 25 102 2z m1313 1 c4 -14 -5 -236 -10
-228 -5 12 -5 240 0 240 4 0 8 -6 10 -12z m106 -131 c-2 -23 -3 -1 -3 48 0 50
1 68 3 42 2 -26 2 -67 0 -90z m-724 44 c-13 -27 -23 -37 -31 -32 -7 4 -12 12
-11 17 1 5 -1 17 -5 27 -9 20 -1 47 13 47 6 0 8 -7 5 -15 -4 -10 0 -15 15 -15
16 0 21 7 22 28 1 22 2 23 6 5 2 -12 -4 -40 -14 -62z m-903 59 c0 -5 -5 -10
-11 -10 -5 0 -7 5 -4 10 3 6 8 10 11 10 2 0 4 -4 4 -10z m75 0 c3 -5 -1 -10
-10 -10 -9 0 -13 5 -10 10 3 6 8 10 10 10 2 0 7 -4 10 -10z m1872 -20 c2 -11
-2 -20 -7 -20 -6 0 -10 12 -10 27 0 29 12 24 17 -7z m-1977 -5 c0 -8 -8 -15
-19 -15 -10 0 -24 7 -31 15 -11 13 -8 15 19 15 21 0 31 -5 31 -15z m314 0 c3
-8 12 -15 21 -15 8 0 15 -6 15 -13 0 -8 -14 -13 -35 -14 -30 -1 -34 1 -24 13
9 11 7 14 -10 14 -12 0 -21 6 -21 15 0 9 9 15 24 15 13 0 26 -7 30 -15z m-254
-5 c0 -5 -9 -10 -20 -10 -11 0 -20 5 -20 10 0 6 9 10 20 10 11 0 20 -4 20 -10z
m-97 -35 c4 -8 2 -17 -3 -20 -6 -4 -10 3 -10 14 0 25 6 27 13 6z m447 -16 c0
-5 -4 -9 -10 -9 -5 0 -10 7 -10 16 0 8 5 12 10 9 6 -3 10 -10 10 -16z m-475 1
c-3 -5 -13 -10 -21 -10 -8 0 -14 5 -14 10 0 6 9 10 21 10 11 0 17 -4 14 -10z
m547 -13 c7 -8 19 -12 26 -9 6 2 12 -1 12 -7 0 -13 -22 -14 -35 -2 -6 5 -20 5
-34 0 -23 -9 -24 -10 -5 -24 15 -11 16 -14 4 -15 -9 0 -23 9 -32 20 -16 18
-16 20 5 35 26 18 42 19 59 2z m-392 -29 c0 -23 -3 -29 -9 -19 -8 12 -4 51 5
51 2 0 4 -15 4 -32z m-200 12 c0 -5 7 -10 15 -10 8 0 15 5 15 12 0 6 2 9 5 6
3 -3 3 -13 -1 -22 -8 -22 -37 -20 -52 4 -10 17 -10 20 3 20 8 0 15 -4 15 -10z
m740 0 c0 -5 -4 -10 -10 -10 -5 0 -10 -4 -10 -10 0 -5 7 -7 15 -4 8 4 15 1 15
-5 0 -6 -7 -11 -15 -11 -8 0 -15 -4 -15 -10 0 -5 5 -10 10 -10 6 0 10 -7 10
-15 0 -8 -4 -15 -10 -15 -5 0 -10 5 -10 11 0 6 -9 9 -20 6 -11 -3 -20 -2 -20
2 0 5 -9 18 -20 31 -24 28 -20 36 10 20 21 -11 34 -8 36 11 3 18 4 19 19 19 8
0 15 -4 15 -10z m274 -5 c17 -13 18 -15 3 -15 -9 0 -17 -6 -17 -13 0 -8 -7
-14 -15 -14 -18 0 -20 14 -2 20 8 3 6 10 -8 21 l-20 15 20 0 c11 0 29 -6 39
-14z m-1037 -34 c-2 -10 -11 -26 -21 -36 -15 -15 -19 -16 -26 -4 -6 9 -4 17 5
22 8 4 15 15 15 22 0 8 7 15 15 15 9 0 14 -8 12 -19z m190 -3 c-3 -8 -6 -5 -6
6 -1 11 2 17 5 13 3 -3 4 -12 1 -19z m169 -23 c3 -13 4 -30 1 -37 -3 -7 -6 -3
-6 10 -1 13 -5 21 -10 17 -12 -7 -24 12 -16 25 11 17 24 11 31 -15z m164 9 c0
-8 -4 -12 -10 -9 -5 3 -10 10 -10 16 0 5 5 9 10 9 6 0 10 -7 10 -16z m1540 12
c0 -11 -19 -15 -25 -6 -3 5 1 10 9 10 9 0 16 -2 16 -4z m387 -18 c-3 -8 -6 -5
-6 6 -1 11 2 17 5 13 3 -3 4 -12 1 -19z m-1297 2 c0 -5 -5 -10 -11 -10 -5 0
-7 5 -4 10 3 6 8 10 11 10 2 0 4 -4 4 -10z m1415 -24 c14 -15 25 -32 25 -39 0
-7 -8 -3 -18 9 -9 11 -29 25 -44 32 -32 13 -37 29 -8 27 10 -1 31 -14 45 -29z
m-2098 -23 c-3 -10 -5 -2 -5 17 0 19 2 27 5 18 2 -10 2 -26 0 -35z m577 31 c9
-24 7 -31 -5 -11 -6 9 -15 14 -21 11 -7 -4 -8 -2 -4 4 10 17 23 15 30 -4z
m1246 -4 c0 -11 -4 -20 -9 -20 -5 0 -7 9 -4 20 3 11 7 20 9 20 2 0 4 -9 4 -20z
m-1966 -22 c1 -20 -2 -24 -17 -20 -11 3 -16 10 -13 19 3 8 6 19 6 25 0 22 23
0 24 -24z m1663 10 c-3 -8 -6 -5 -6 6 -1 11 2 17 5 13 3 -3 4 -12 1 -19z m73
12 c0 -5 -4 -10 -10 -10 -5 0 -10 5 -10 10 0 6 5 10 10 10 6 0 10 -4 10 -10z
m270 -5 c0 -8 9 -15 20 -15 11 0 20 -4 20 -10 0 -5 -8 -10 -18 -10 -21 0 -58
-38 -65 -67 -4 -14 -5 -14 -6 5 -1 14 -10 26 -23 31 l-22 8 23 12 c17 10 26
10 37 0 12 -10 14 -6 14 25 0 20 5 36 10 36 6 0 10 -7 10 -15z m40 5 c0 -5 -4
-10 -10 -10 -5 0 -10 5 -10 10 0 6 5 10 10 10 6 0 10 -4 10 -10z m110 0 c0 -5
-2 -10 -4 -10 -3 0 -8 5 -11 10 -3 6 -1 10 4 10 6 0 11 -4 11 -10z m-1698 -32
c-9 -9 -12 -7 -12 12 0 19 3 21 12 12 9 -9 9 -15 0 -24z m1468 11 c0 -5 -4 -9
-10 -9 -5 0 -10 7 -10 16 0 8 5 12 10 9 6 -3 10 -10 10 -16z m-2340 -14 c0 -8
-6 -24 -12 -35 -10 -16 -10 -24 0 -40 11 -18 10 -20 -13 -20 -16 0 -25 -6 -25
-15 0 -8 4 -15 9 -15 5 0 9 -12 9 -26 0 -14 -5 -23 -12 -21 -14 6 -17 -56 -3
-65 7 -4 7 -11 -1 -21 -7 -8 -10 -22 -6 -31 5 -12 1 -15 -15 -13 -23 4 -41 17
-23 17 16 0 15 33 0 48 -9 9 -9 12 0 12 8 0 12 27 12 90 0 70 4 94 17 110 10
11 23 20 30 20 7 0 13 5 13 10 0 6 5 10 10 10 6 0 10 -7 10 -15z m756 -22 c15
-21 32 -39 36 -41 9 -4 11 -32 3 -32 -10 0 -45 40 -45 51 0 6 -7 9 -15 5 -9
-3 -15 0 -15 8 0 8 -3 21 -6 30 -11 29 13 17 42 -21z m-729 5 c-3 -8 -6 -5 -6
6 -1 11 2 17 5 13 3 -3 4 -12 1 -19z m253 -8 c0 -16 -4 -30 -9 -30 -5 0 -8 12
-6 28 4 34 4 32 10 32 3 0 5 -13 5 -30z m630 10 c0 -5 -4 -10 -9 -10 -6 0 -13
5 -16 10 -3 6 1 10 9 10 9 0 16 -4 16 -10z m1641 -20 c6 0 7 -5 4 -10 -4 -6
-12 -4 -21 5 -9 9 -12 20 -7 27 5 10 8 8 11 -4 2 -10 8 -18 13 -18z m-1426 10
c3 -5 -3 -10 -15 -10 -12 0 -18 5 -15 10 3 6 10 10 15 10 5 0 12 -4 15 -10z
m1352 -5 c1 -5 -10 -10 -26 -11 -23 -1 -27 2 -18 12 13 15 39 14 44 -1z m210
-21 c27 -26 3 -84 -29 -71 -8 3 -6 6 5 6 12 1 17 7 15 19 -2 9 -10 16 -16 15
-7 -2 -12 4 -12 12 0 9 -6 12 -15 9 -15 -6 -21 16 -8 29 8 9 43 -2 60 -19z
m-2660 -6 c-3 -8 -6 -5 -6 6 -1 11 2 17 5 13 3 -3 4 -12 1 -19z m423 7 c0 -8
-7 -15 -15 -15 -16 0 -20 12 -8 23 11 12 23 8 23 -8z m460 6 c0 -3 -6 -13 -13
-23 -10 -13 -20 -15 -47 -8 -32 7 -32 8 -8 9 19 1 26 5 22 15 -4 9 3 14 20 14
14 0 26 -3 26 -7z m1827 3 c-3 -3 -12 -4 -19 -1 -8 3 -5 6 6 6 11 1 17 -2 13
-5z m-2454 -121 c-4 -52 -2 -73 6 -73 9 0 9 -5 1 -20 -15 -29 -26 -18 -24 24
1 20 -2 36 -7 36 -5 0 -9 29 -9 65 0 62 1 65 20 53 17 -11 18 -20 13 -85z
m2501 81 c9 -25 7 -34 -8 -34 -8 0 -22 -7 -30 -16 -10 -9 -16 -11 -16 -4 0 14
20 35 40 43 10 3 7 6 -7 6 -28 1 -31 21 -4 21 10 0 22 -7 25 -16z m-2377 -21
c-15 -16 -17 -16 -17 -1 0 9 6 18 13 21 20 7 22 -2 4 -20z m-43 2 c-4 -8 -11
-15 -16 -15 -6 0 -5 6 2 15 7 8 14 15 16 15 2 0 1 -7 -2 -15z m1996 -5 c0 -5
-4 -10 -10 -10 -5 0 -10 5 -10 10 0 6 5 10 10 10 6 0 10 -4 10 -10z m-2330
-35 c0 -3 -9 -5 -20 -5 -11 0 -20 7 -20 15 0 13 4 14 20 5 11 -6 20 -13 20
-15z m183 10 c4 -8 1 -17 -6 -21 -7 -4 -9 -4 -5 1 4 4 3 14 -3 22 -7 8 -8 13
-1 13 5 0 12 -7 15 -15z m2599 -15 c-2 -16 -8 -30 -13 -30 -14 0 -11 48 4 53
6 3 12 6 13 6 0 1 -1 -12 -4 -29z m-2422 -10 c0 -37 -27 -93 -40 -85 -12 8
-13 35 -1 35 5 0 11 14 13 30 3 17 0 30 -6 30 -12 0 14 20 27 20 4 0 7 -14 7
-30z m-189 -89 c-1 -32 3 -62 8 -65 14 -9 3 -34 -19 -46 -17 -9 -18 -6 -15 34
1 24 5 49 9 54 3 6 -1 12 -11 14 -15 3 -15 4 1 21 17 17 17 18 -5 36 -15 12
-20 24 -15 36 6 18 8 18 28 -3 18 -17 21 -31 19 -81z m2639 74 c0 -16 -6 -25
-15 -25 -18 0 -18 5 -5 31 14 26 20 24 20 -6z m-2507 -15 c-3 -11 -9 -20 -14
-20 -10 0 -12 33 -3 43 12 12 22 -3 17 -23z m2097 20 c12 -8 11 -10 -7 -10
-13 0 -23 5 -23 10 0 13 11 13 30 0z m-2382 -14 c-7 -8 -15 -12 -17 -11 -5 6
10 25 20 25 5 0 4 -6 -3 -14z m2272 4 c0 -5 -5 -10 -11 -10 -5 0 -7 5 -4 10 3
6 8 10 11 10 2 0 4 -4 4 -10z m387 -22 c-3 -7 -5 -2 -5 12 0 14 2 19 5 13 2
-7 2 -19 0 -25z m163 22 c0 -5 -2 -10 -4 -10 -3 0 -8 5 -11 10 -3 6 -1 10 4
10 6 0 11 -4 11 -10z m-2342 -13 c-10 -8 -13 -18 -8 -27 5 -9 3 -20 -6 -28
-12 -11 -14 -9 -14 12 0 36 10 56 29 56 15 -1 15 -2 -1 -13z m2032 3 c0 -5 -4
-10 -10 -10 -5 0 -10 5 -10 10 0 6 5 10 10 10 6 0 10 -4 10 -10z m38 -2 c-6
-18 -28 -21 -28 -4 0 9 7 16 16 16 9 0 14 -5 12 -12z m315 -17 c27 3 47 -2 47
-11 0 -14 -27 -12 -33 3 -3 6 -6 0 -6 -15 -1 -30 -21 -40 -21 -10 0 9 -2 26
-4 37 -2 11 -1 14 1 7 3 -7 10 -12 16 -11z m-1006 -3 c-3 -8 -6 -5 -6 6 -1 11
2 17 5 13 3 -3 4 -12 1 -19z m-1087 -25 c0 -28 3 -34 10 -23 14 23 18 0 24
-142 3 -70 10 -136 15 -147 8 -14 8 -21 -2 -25 -9 -5 -9 -7 1 -12 6 -3 15 -23
18 -45 4 -21 11 -39 17 -39 6 0 7 -16 4 -40 -3 -22 -1 -40 4 -40 5 0 9 -9 9
-20 0 -14 -7 -20 -24 -20 -20 0 -23 -4 -18 -22 5 -19 7 -20 10 -5 5 23 19 22
27 -3 4 -11 10 -18 14 -16 4 3 9 -21 10 -52 1 -31 6 -61 12 -66 5 -6 9 -7 9
-3 0 4 10 -3 21 -14 13 -13 22 -34 21 -50 0 -16 3 -29 8 -29 5 0 10 -10 12
-22 2 -14 12 -24 28 -28 22 -5 25 -12 28 -53 3 -45 13 -59 27 -37 8 13 55 13
55 0 0 -5 -11 -10 -25 -10 -31 0 -34 -32 -5 -53 l20 -14 -20 -18 c-19 -18 -20
-17 -21 6 l0 24 -12 -25 c-11 -23 -12 -22 -15 24 -2 34 -11 59 -28 79 -13 15
-24 37 -24 48 0 10 -5 19 -11 19 -5 0 -8 -4 -5 -9 3 -5 -6 -8 -21 -8 -15 0
-29 -6 -31 -12 -7 -21 -22 -11 -22 16 0 21 3 24 12 15 17 -17 38 -15 38 3 0
10 -11 15 -35 15 -33 0 -35 2 -35 34 0 59 -22 89 -33 46 -3 -11 -10 -20 -17
-20 -7 0 -11 20 -10 58 1 65 -7 110 -24 131 -8 11 -8 15 3 19 10 3 11 6 1 12
-17 11 -4 44 15 36 8 -3 17 -1 20 4 4 6 -1 10 -9 10 -9 0 -16 8 -16 19 0 11
-4 23 -10 26 -5 3 -10 1 -10 -4 0 -19 -19 -12 -19 7 0 9 -2 39 -4 66 -2 33 1
50 10 53 7 3 12 19 12 37 -1 23 -3 25 -6 9 -5 -25 -5 -25 -27 -17 -12 5 -16
20 -16 61 0 33 4 52 10 48 6 -3 10 1 10 9 0 9 -7 16 -15 16 -12 0 -13 4 -6 19
7 12 7 30 1 52 -5 18 -6 35 -2 38 12 9 13 61 2 61 -15 0 -12 21 7 42 24 27 33
22 33 -19z m-770 17 c0 -5 -4 -10 -9 -10 -6 0 -13 5 -16 10 -3 6 1 10 9 10 9
0 16 -4 16 -10z m1991 -3 c-1 -4 -1 -16 -1 -27 0 -11 -4 -20 -10 -20 -5 0 -10
14 -10 31 0 17 5 29 11 27 6 -2 10 -7 10 -11z m103 -10 c-4 -12 -7 -34 -6 -48
1 -15 -4 -29 -12 -32 -9 -4 -16 -33 -21 -94 -4 -48 -11 -93 -17 -100 -5 -7 -7
-17 -3 -23 3 -5 2 -10 -3 -10 -5 0 -10 -22 -11 -50 -2 -59 -12 -89 -38 -113
-17 -14 -19 -26 -15 -69 5 -49 4 -51 -18 -45 -21 5 -22 4 -15 -39 4 -26 2 -44
-4 -44 -5 0 -12 6 -14 13 -3 6 -6 -9 -6 -35 -1 -40 -23 -101 -42 -118 -3 -3
-14 -21 -25 -40 -10 -19 -23 -38 -29 -42 -7 -5 -7 -8 0 -8 6 0 3 -5 -5 -10
-11 -7 -11 -10 -2 -10 9 0 10 -5 3 -18 -6 -10 -6 -24 -1 -32 5 -8 6 -18 3 -23
-3 -5 -9 -4 -13 3 -4 6 -15 13 -26 14 -12 2 -21 14 -25 35 -5 25 -2 34 15 47
12 9 17 17 11 22 -5 4 -11 16 -13 27 -2 16 -1 17 7 5 8 -12 12 -9 20 13 13 33
19 34 31 5 8 -19 9 -16 7 17 -2 35 -5 40 -24 38 -28 -3 -30 13 -3 20 17 4 18
9 10 37 -5 18 -7 36 -5 41 3 4 -2 15 -12 24 -14 14 -14 18 -2 26 10 6 10 9 2
9 -7 0 -13 5 -13 10 0 6 16 10 35 10 19 0 35 5 35 11 0 6 9 9 20 6 11 -3 20
-1 20 4 0 5 -10 10 -22 10 l-23 2 23 4 c12 2 22 10 22 18 0 7 8 16 17 19 22 9
7 22 -37 34 -19 6 -27 11 -17 11 20 1 56 38 57 59 0 6 6 12 13 12 9 0 12 10 9
30 -5 35 10 40 26 8 11 -23 11 -23 11 4 1 14 -5 28 -11 31 -9 3 -6 12 9 29 19
20 22 33 19 79 -2 30 -7 62 -11 73 -5 10 -4 21 2 25 6 3 13 16 17 29 4 12 12
22 17 22 5 0 9 17 9 38 0 47 1 48 45 49 32 1 35 -1 29 -20z m484 -5 c13 -20
13 -22 -7 -22 -11 0 -21 4 -21 9 0 5 -3 17 -7 27 -9 24 16 14 35 -14z m-1198
-2 c0 -5 -4 -10 -10 -10 -5 0 -10 5 -10 10 0 6 5 10 10 10 6 0 10 -4 10 -10z
m1558 -8 c2 -7 -3 -12 -12 -12 -9 0 -16 7 -16 16 0 17 22 14 28 -4z m-38 -2
c0 -5 -4 -10 -10 -10 -5 0 -10 5 -10 10 0 6 5 10 10 10 6 0 10 -4 10 -10z
m-2863 -32 c-3 -8 -6 -5 -6 6 -1 11 2 17 5 13 3 -3 4 -12 1 -19z m288 -21 c1
-21 -2 -40 -7 -43 -4 -3 -8 8 -8 25 0 16 -4 33 -10 36 -16 10 -11 27 7 23 12
-2 18 -14 18 -41z m1073 13 c6 0 13 6 15 13 3 6 6 2 6 -9 1 -14 -5 -21 -15
-20 -25 2 -35 -38 -16 -65 18 -25 24 -59 10 -59 -4 0 -8 -7 -8 -15 0 -8 -7
-15 -15 -15 -8 0 -15 -7 -15 -15 0 -10 -9 -15 -27 -14 -27 0 -27 1 -5 9 12 5
22 18 22 29 0 14 5 19 15 15 8 -4 15 -2 15 4 0 5 -6 12 -13 15 -9 3 -12 16 -9
35 l4 30 -46 -15 c-26 -9 -49 -13 -53 -10 -10 10 19 38 33 33 19 -7 44 21 37
41 -5 12 -2 15 10 10 9 -3 16 -3 16 1 -1 4 -1 14 0 22 1 12 4 12 15 -2 7 -10
18 -18 24 -18z m729 24 c-3 -3 -12 -4 -19 -1 -8 3 -5 6 6 6 11 1 17 -2 13 -5z
m494 -11 c1 -17 2 -17 6 0 2 9 8 17 13 17 4 0 6 -8 3 -19 -3 -10 0 -22 6 -25
5 -4 8 -13 5 -20 -3 -8 -1 -17 5 -21 18 -10 12 -25 -9 -25 -15 0 -20 -7 -20
-27 l0 -28 -15 29 c-8 15 -15 43 -15 60 0 18 -6 38 -12 44 -10 10 -10 15 2 22
22 14 30 12 31 -7z m-2266 -2 c3 -5 1 -12 -5 -16 -5 -3 -10 1 -10 9 0 18 6 21
15 7z m585 5 c0 -3 -4 -8 -10 -11 -5 -3 -10 -1 -10 4 0 6 5 11 10 11 6 0 10
-2 10 -4z m2017 -28 c-3 -7 -5 -2 -5 12 0 14 2 19 5 13 2 -7 2 -19 0 -25z
m-3121 -5 c-10 -10 -19 5 -10 18 6 11 8 11 12 0 2 -7 1 -15 -2 -18z m444 7 c0
-5 -2 -10 -4 -10 -3 0 -8 5 -11 10 -3 6 -1 10 4 10 6 0 11 -4 11 -10z m1190
-19 c0 -16 3 -38 6 -48 3 -10 -4 -3 -16 16 -21 33 -21 61 0 61 5 0 10 -13 10
-29z m657 -16 c0 -37 -2 -43 -13 -34 -17 14 -18 33 -2 59 7 11 13 20 14 20 1
0 1 -20 1 -45z m-2095 3 c-7 -7 -12 -8 -12 -2 0 6 3 14 7 17 3 4 9 5 12 2 2
-3 -1 -11 -7 -17z m198 -2 c0 -8 -5 -18 -10 -21 -7 -4 -7 -13 0 -26 7 -12 7
-19 1 -19 -6 0 -8 -7 -5 -15 4 -8 1 -15 -5 -15 -7 0 -11 21 -11 55 0 42 3 55
15 55 8 0 15 -6 15 -14z m253 -5 c3 -14 0 -17 -14 -14 -15 4 -17 8 -8 19 15
18 16 18 22 -5z m54 -3 c-3 -8 -6 -5 -6 6 -1 11 2 17 5 13 3 -3 4 -12 1 -19z
m880 0 c-3 -8 -6 -5 -6 6 -1 11 2 17 5 13 3 -3 4 -12 1 -19z m-1513 -7 c3 -4
-3 -16 -14 -26 -19 -18 -20 -17 -20 8 0 26 22 38 34 18z m376 -18 c0 -19 -3
-24 -10 -17 -6 6 -8 18 -4 27 9 24 14 21 14 -10z m-436 11 c12 -5 13 -10 5
-25 -8 -15 -6 -19 8 -20 12 -1 10 -3 -7 -8 -16 -5 -24 -13 -22 -24 2 -9 -1
-17 -6 -17 -5 0 -8 21 -7 48 4 61 2 57 29 46z m621 -14 c3 -5 1 -10 -4 -10 -6
0 -11 5 -11 10 0 6 2 10 4 10 3 0 8 -4 11 -10z m-468 -7 c-2 -5 -1 -30 3 -58
l7 -50 2 43 c2 67 18 49 20 -23 1 -39 -2 -65 -9 -65 -5 0 -10 9 -10 20 0 13
-5 18 -15 14 -12 -5 -14 6 -14 60 1 36 5 66 10 66 6 0 8 -3 6 -7z m151 -25
c-5 -32 -28 -35 -28 -4 0 17 5 26 16 26 10 0 14 -7 12 -22z m1179 -1 c-6 -20
-27 -19 -27 2 0 14 5 19 15 14 9 -3 14 -10 12 -16z m1070 -19 c-3 -7 -5 -2 -5
12 0 14 2 19 5 13 2 -7 2 -19 0 -25z m-2440 0 c-3 -8 -6 -5 -6 6 -1 11 2 17 5
13 3 -3 4 -12 1 -19z m573 12 c0 -5 -2 -10 -4 -10 -3 0 -8 5 -11 10 -3 6 -1
10 4 10 6 0 11 -4 11 -10z m111 3 c0 -5 2 -18 3 -30 2 -15 -3 -23 -13 -23 -11
0 -17 10 -18 30 -2 21 2 30 12 30 8 0 15 -3 16 -7z m1136 -25 c-3 -8 -6 -5 -6
6 -1 11 2 17 5 13 3 -3 4 -12 1 -19z m383 12 c0 -5 -5 -10 -11 -10 -5 0 -7 5
-4 10 3 6 8 10 11 10 2 0 4 -4 4 -10z m-830 -14 c0 -11 -19 -15 -25 -6 -3 5 1
10 9 10 9 0 16 -2 16 -4z m1311 -8 c1 -7 2 -20 3 -28 1 -8 -3 -21 -8 -27 -6
-9 -2 -13 13 -13 11 0 21 -4 21 -9 0 -5 -9 -7 -20 -4 -19 5 -21 2 -17 -50 2
-31 0 -62 -4 -69 -10 -14 -10 -14 -13 23 -2 14 -7 32 -11 39 -11 18 -6 114 6
118 5 2 9 10 9 18 0 17 20 19 21 2z m-2761 -29 c-14 -26 -18 -24 -12 6 2 14 8
22 13 19 5 -3 5 -14 -1 -25z m1870 21 c0 -5 -5 -10 -11 -10 -5 0 -7 5 -4 10 3
6 8 10 11 10 2 0 4 -4 4 -10z m-1615 -33 c1 -15 -3 -27 -7 -27 -4 0 -8 7 -8
15 0 8 -7 15 -15 15 -8 0 -15 7 -15 15 0 10 8 14 23 11 16 -2 22 -10 22 -29z
m255 12 c0 -14 -17 -10 -23 5 -4 10 -1 13 9 9 7 -3 14 -9 14 -14z m143 -21
c-2 -5 -8 -8 -14 -8 -11 0 -12 33 -2 44 8 8 23 -25 16 -36z m2167 32 c-12 -8
-12 -10 2 -15 9 -4 14 -13 11 -21 -4 -11 -9 -12 -19 -3 -20 16 -18 49 4 49 14
0 15 -2 2 -10z m-2870 -15 c0 -8 -4 -15 -10 -15 -5 0 -10 7 -10 15 0 8 5 15
10 15 6 0 10 -7 10 -15z m400 0 c0 -8 -7 -15 -15 -15 -13 0 -14 3 -3 15 16 18
18 18 18 0z m1950 1 c0 -8 -4 -18 -10 -21 -5 -3 -10 3 -10 14 0 12 5 21 10 21
6 0 10 -6 10 -14z m-1533 -33 c-3 -10 -5 -4 -5 12 0 17 2 24 5 18 2 -7 2 -21
0 -30z m-567 23 c0 -3 -4 -8 -10 -11 -5 -3 -10 -1 -10 4 0 6 5 11 10 11 6 0
10 -2 10 -4z m184 -11 c-4 -8 -8 -15 -10 -15 -2 0 -4 7 -4 15 0 8 4 15 10 15
5 0 7 -7 4 -15z m2726 0 c0 -8 -4 -15 -10 -15 -5 0 -10 7 -10 15 0 8 5 15 10
15 6 0 10 -7 10 -15z m-3166 -21 c17 -7 22 -44 6 -44 -5 0 -10 9 -10 20 0 13
-5 18 -15 14 -8 -4 -15 -1 -15 5 0 12 11 14 34 5z m2325 -35 c-13 -26 -19 -24
-19 6 0 17 4 23 15 19 11 -5 12 -11 4 -25z m561 21 c0 -5 -4 -10 -10 -10 -5 0
-10 5 -10 10 0 6 5 10 10 10 6 0 10 -4 10 -10z m-252 -24 c3 -12 -1 -17 -10
-14 -7 3 -15 13 -16 22 -3 12 1 17 10 14 7 -3 15 -13 16 -22z m-2428 -1 c0 -8
-4 -15 -10 -15 -5 0 -10 7 -10 15 0 8 5 15 10 15 6 0 10 -7 10 -15z m1399 8
c0 -5 -4 -17 -9 -28 -8 -18 -9 -17 -9 8 -1 15 4 27 9 27 6 0 10 -3 9 -7z m941
3 c0 -3 -4 -8 -10 -11 -5 -3 -10 -1 -10 4 0 6 5 11 10 11 6 0 10 -2 10 -4z
m125 -6 c-3 -5 -10 -10 -16 -10 -5 0 -9 5 -9 10 0 6 7 10 16 10 8 0 12 -4 9
-10z m492 -77 c-2 -16 -4 -5 -4 22 0 28 2 40 4 28 2 -13 2 -35 0 -50z m-857
21 c0 -26 -17 -33 -26 -9 -8 20 3 48 16 40 5 -3 10 -17 10 -31z m-2300 16 c0
-5 -7 -10 -16 -10 -8 0 -12 5 -9 10 3 6 10 10 16 10 5 0 9 -4 9 -10z m1690
-16 c0 -8 -4 -14 -10 -14 -5 0 -10 9 -10 21 0 11 5 17 10 14 6 -3 10 -13 10
-21z m-1520 -8 c0 -17 -14 -29 -23 -20 -8 8 3 34 14 34 5 0 9 -6 9 -14z m1582
-6 c0 -11 1 -24 2 -30 1 -5 -3 -11 -8 -12 -5 -2 -10 12 -12 30 -2 17 1 32 6
32 6 0 11 -9 12 -20z m-32 -20 c0 -16 -4 -30 -10 -30 -11 0 -14 43 -3 53 11
12 13 8 13 -23z m1027 -17 c-3 -10 -5 -2 -5 17 0 19 2 27 5 18 2 -10 2 -26 0
-35z m-1303 22 c-4 -8 -10 -15 -15 -15 -5 0 -9 7 -9 15 0 8 7 15 15 15 9 0 12
-6 9 -15z m1434 -18 c2 -15 -1 -27 -7 -27 -6 0 -11 6 -11 14 0 8 -3 22 -7 32
-4 12 -2 15 8 12 8 -2 15 -17 17 -31z m157 13 c3 -5 1 -10 -4 -10 -6 0 -11 5
-11 10 0 6 2 10 4 10 3 0 8 -4 11 -10z m95 0 c0 -5 -12 -10 -27 -9 l-28 1 25
8 c14 4 26 8 28 9 1 1 2 -3 2 -9z m-1604 -38 c1 -17 1 -18 -3 -3 -2 11 -14 22
-26 25 -18 3 -18 4 3 3 18 -2 25 -8 26 -25z m1092 -28 c2 -20 5 -41 8 -46 3
-4 -1 -8 -9 -8 -10 0 -14 15 -16 51 -2 57 13 60 17 3z m409 24 c-3 -8 -6 -5
-6 6 -1 11 2 17 5 13 3 -3 4 -12 1 -19z m103 -10 c-1 -28 -2 -30 -11 -15 -6
10 -8 25 -5 33 9 24 16 16 16 -18z m33 -42 c-8 -41 -18 -31 -17 17 2 59 5 66
14 36 4 -15 5 -38 3 -53z m-3288 44 c-3 -5 -10 -10 -16 -10 -5 0 -9 5 -9 10 0
6 7 10 16 10 8 0 12 -4 9 -10z m687 -52 c-6 -6 -12 -6 -16 1 -4 6 -2 11 3 11
6 0 12 12 12 28 l2 27 4 -29 c3 -16 0 -33 -5 -38z m2508 58 c0 -3 -4 -8 -10
-11 -5 -3 -10 -1 -10 4 0 6 5 11 10 11 6 0 10 -2 10 -4z m-2938 -63 c8 -10 6
-13 -6 -13 -12 0 -16 9 -15 33 1 21 3 25 6 12 3 -11 10 -26 15 -32z m2693 6
c8 -35 0 -49 -26 -49 -22 0 -25 20 -7 38 10 10 10 15 -1 21 -7 5 -11 14 -7 19
11 18 34 2 41 -29z m55 26 c0 -8 -4 -15 -10 -15 -5 0 -10 7 -10 15 0 8 5 15
10 15 6 0 10 -7 10 -15z m-133 -17 c-3 -8 -6 -5 -6 6 -1 11 2 17 5 13 3 -3 4
-12 1 -19z m-2540 -4 c-3 -3 -12 -4 -19 -1 -8 3 -5 6 6 6 11 1 17 -2 13 -5z
m-429 -28 c3 -15 0 -17 -14 -11 -11 4 -27 7 -36 7 -10 0 -18 6 -18 14 0 24 64
14 68 -10z m262 14 c0 -5 -5 -10 -11 -10 -5 0 -7 5 -4 10 3 6 8 10 11 10 2 0
4 -4 4 -10z m3030 0 c0 -5 -4 -10 -10 -10 -5 0 -10 5 -10 10 0 6 5 10 10 10 6
0 10 -4 10 -10z m-550 -30 c0 -5 -5 -10 -11 -10 -5 0 -7 5 -4 10 3 6 8 10 11
10 2 0 4 -4 4 -10z m-526 -15 c-6 -16 -34 -21 -34 -7 0 13 11 22 26 22 8 0 11
-6 8 -15z m753 -7 c-3 -8 -6 -5 -6 6 -1 11 2 17 5 13 3 -3 4 -12 1 -19z m96
-90 c8 -5 4 -8 -10 -8 -16 0 -21 4 -17 15 4 8 2 21 -4 28 -6 8 -6 20 1 37 11
23 11 22 15 -20 2 -24 9 -48 15 -52z m-3023 57 c0 -8 -7 -15 -15 -15 -8 0 -15
7 -15 15 0 8 7 15 15 15 8 0 15 -7 15 -15z m2927 -22 c-3 -10 -5 -4 -5 12 0
17 2 24 5 18 2 -7 2 -21 0 -30z m-30 -5 c-3 -8 -6 -5 -6 6 -1 11 2 17 5 13 3
-3 4 -12 1 -19z m-1602 2 c-3 -5 -11 -10 -16 -10 -6 0 -7 5 -4 10 3 6 11 10
16 10 6 0 7 -4 4 -10z m385 -22 c0 -18 -2 -20 -9 -8 -6 8 -7 18 -5 22 9 14 14
9 14 -14z m-1900 -4 c0 -9 -5 -14 -12 -12 -18 6 -21 28 -4 28 9 0 16 -7 16
-16z m2340 7 c0 -6 -4 -13 -10 -16 -5 -3 -10 1 -10 9 0 9 5 16 10 16 6 0 10
-4 10 -9z m580 -31 c0 -5 -2 -10 -4 -10 -3 0 -8 5 -11 10 -3 6 -1 10 4 10 6 0
11 -4 11 -10z m210 6 c0 -9 -30 -14 -35 -6 -4 6 3 10 14 10 12 0 21 -2 21 -4z
m-3145 -26 c-3 -5 -13 -6 -21 -3 -12 4 -13 8 -3 14 15 9 32 2 24 -11z m1915
10 c0 -5 -5 -10 -11 -10 -5 0 -7 5 -4 10 3 6 8 10 11 10 2 0 4 -4 4 -10z m235
0 c3 -5 1 -10 -4 -10 -6 0 -11 5 -11 10 0 6 2 10 4 10 3 0 8 -4 11 -10z m110
0 c3 -5 1 -10 -4 -10 -6 0 -11 5 -11 10 0 6 2 10 4 10 3 0 8 -4 11 -10z m715
-19 c0 -6 -4 -13 -10 -16 -5 -3 -10 1 -10 9 0 9 5 16 10 16 6 0 10 -4 10 -9z
m-2964 -38 c-11 -11 -19 6 -11 24 8 17 8 17 12 0 3 -10 2 -21 -1 -24z m-36 9
c0 -14 -11 -21 -26 -15 -21 8 -17 23 6 23 11 0 20 -4 20 -8z m3627 -29 c-3
-10 -5 -4 -5 12 0 17 2 24 5 18 2 -7 2 -21 0 -30z m-1987 13 c0 -9 -40 -13
-46 -5 -3 5 6 9 20 9 14 0 26 -2 26 -4z m1380 -6 c0 -5 -2 -10 -4 -10 -3 0 -8
5 -11 10 -3 6 -1 10 4 10 6 0 11 -4 11 -10z m174 -48 c4 -39 2 -57 -8 -68 -22
-21 -26 -17 -15 18 5 18 9 51 9 72 0 53 7 42 14 -22z m464 -3 c-3 -8 -7 -3
-11 10 -4 17 -3 21 5 13 5 -5 8 -16 6 -23z m-513 -9 c1 -14 -4 -20 -19 -19
-12 0 -15 3 -8 6 6 2 12 14 12 26 0 25 13 14 15 -13z m125 20 c0 -5 -4 -10
-10 -10 -5 0 -10 5 -10 10 0 6 5 10 10 10 6 0 10 -4 10 -10z m-1824 -57 c-3
-21 -26 -30 -26 -10 0 7 3 17 7 20 12 12 21 7 19 -10z m2244 -8 c0 -18 -5 -25
-20 -25 -11 0 -20 5 -20 10 0 6 7 10 15 10 8 0 15 7 15 15 0 8 2 15 5 15 3 0
5 -11 5 -25z m-2940 -15 c0 -5 -4 -10 -10 -10 -5 0 -10 5 -10 10 0 6 5 10 10
10 6 0 10 -4 10 -10z m2480 0 c0 -5 -4 -10 -10 -10 -5 0 -10 5 -10 10 0 6 5
10 10 10 6 0 10 -4 10 -10z m-2640 -25 c0 -8 -7 -15 -15 -15 -8 0 -15 7 -15
15 0 8 7 15 15 15 8 0 15 -7 15 -15z m192 -17 c-12 -12 -35 -1 -27 12 3 5 13
6 21 3 10 -4 12 -9 6 -15z m2398 12 c0 -5 -4 -10 -10 -10 -5 0 -10 5 -10 10 0
6 5 10 10 10 6 0 10 -4 10 -10z m66 -4 c8 -8 14 -19 14 -25 0 -6 5 -11 10 -11
6 0 10 -4 10 -10 0 -5 -9 -10 -20 -10 -11 0 -20 5 -20 11 0 6 -7 17 -15 25 -8
9 -15 20 -15 25 0 14 20 11 36 -5z m-3496 0 c0 -3 -4 -8 -10 -11 -5 -3 -10 -1
-10 4 0 6 5 11 10 11 6 0 10 -2 10 -4z m1820 -26 c-6 -11 -5 -21 3 -30 10 -10
8 -12 -6 -6 -10 3 -23 6 -28 6 -5 0 -9 11 -9 24 0 18 5 24 25 24 20 0 23 -4
15 -18z m772 -12 c-9 -9 -12 -7 -12 12 0 19 3 21 12 12 9 -9 9 -15 0 -24z
m-2555 -4 c-3 -3 -12 -4 -19 -1 -8 3 -5 6 6 6 11 1 17 -2 13 -5z m133 -8 c0
-17 -14 -29 -23 -20 -8 8 3 34 14 34 5 0 9 -6 9 -14z m860 -1 c0 -8 -4 -15
-10 -15 -5 0 -10 7 -10 15 0 8 5 15 10 15 6 0 10 -7 10 -15z m2430 5 c0 -5 -2
-10 -4 -10 -3 0 -8 5 -11 10 -3 6 -1 10 4 10 6 0 11 -4 11 -10z m-3185 -9 c3
-5 1 -12 -5 -16 -5 -3 -10 1 -10 9 0 18 6 21 15 7z m1708 -48 c-3 -8 2 -13 14
-13 15 0 20 -7 20 -30 0 -24 -5 -30 -22 -30 -13 0 -28 7 -35 15 -9 11 -10 15
0 15 6 0 11 12 10 28 -3 48 -1 59 9 43 5 -8 7 -20 4 -28z m1482 18 c-3 -6 -11
-11 -16 -11 -5 0 -4 6 3 14 14 16 24 13 13 -3z m-3445 -11 c0 -16 -7 -20 -30
-20 -39 0 -41 27 -2 33 15 2 28 5 30 6 1 0 2 -8 2 -19z m1651 -2 c1 -13 1 -29
0 -35 -1 -7 3 -13 10 -13 6 0 8 -7 5 -16 -4 -9 -1 -23 5 -30 9 -11 8 -14 -4
-14 -17 0 -21 -48 -5 -67 7 -9 7 -13 -1 -13 -6 0 -11 -4 -11 -10 0 -5 7 -10
15 -10 9 0 12 -6 9 -15 -9 -22 -19 -18 -32 10 -8 18 -20 25 -39 25 -26 1 -27
2 -10 14 12 9 14 16 8 21 -20 11 -12 25 15 25 14 0 23 4 19 10 -4 6 -10 8 -15
5 -5 -3 -11 -1 -15 5 -3 5 1 10 10 10 12 0 16 8 14 33 -3 54 1 87 11 87 6 0
11 -10 11 -22z m879 2 c0 -17 -2 -19 -14 -8 -14 13 -12 28 5 28 5 0 9 -9 9
-20z m1041 10 c5 0 9 -13 9 -30 0 -22 -4 -28 -15 -24 -10 4 -15 0 -15 -11 0
-9 -5 -13 -10 -10 -6 4 -8 11 -5 16 4 5 1 9 -4 9 -22 0 -10 20 12 21 l22 2
-22 4 c-13 2 -23 8 -23 12 0 14 14 22 28 16 7 -3 18 -5 23 -5z m-3744 -22 c-3
-8 -6 -5 -6 6 -1 11 2 17 5 13 3 -3 4 -12 1 -19z m323 1 c0 -5 -4 -9 -10 -9
-5 0 -10 7 -10 16 0 8 5 12 10 9 6 -3 10 -10 10 -16z m830 17 c0 -3 -4 -8 -10
-11 -5 -3 -10 -1 -10 4 0 6 5 11 10 11 6 0 10 -2 10 -4z m1640 -32 c0 -8 -5
-12 -10 -9 -6 4 -8 11 -5 16 9 14 15 11 15 -7z m-2695 -14 c4 -6 -6 -10 -22
-9 -25 0 -26 1 -8 9 11 5 21 9 22 9 1 1 5 -3 8 -9z m1035 0 c0 -5 -5 -10 -11
-10 -5 0 -7 5 -4 10 3 6 8 10 11 10 2 0 4 -4 4 -10z m830 -20 c0 -5 -4 -10 -9
-10 -6 0 -13 5 -16 10 -3 6 1 10 9 10 9 0 16 -4 16 -10z m1668 -2 c-2 -6 -10
-14 -16 -16 -7 -2 -10 2 -6 12 7 18 28 22 22 4z m-2558 -18 c0 -5 -2 -10 -4
-10 -3 0 -8 5 -11 10 -3 6 -1 10 4 10 6 0 11 -4 11 -10z m-1110 -10 c0 -5 -2
-10 -4 -10 -3 0 -8 5 -11 10 -3 6 -1 10 4 10 6 0 11 -4 11 -10z m85 0 c-3 -5
-22 -10 -41 -10 -19 0 -34 5 -34 10 0 6 18 10 41 10 24 0 38 -4 34 -10z m2682
-26 c1 -20 0 -22 -4 -6 -2 12 -9 22 -14 22 -5 0 -9 5 -9 11 0 25 25 0 27 -27z
m1413 15 c0 -11 -4 -18 -10 -14 -5 3 -7 12 -3 20 7 21 13 19 13 -6z m-1970
-14 c0 -8 0 -18 1 -22 0 -4 -4 -9 -10 -11 -6 -2 -11 8 -11 22 0 14 5 26 10 26
6 0 10 -7 10 -15z m1460 0 c-7 -8 -19 -15 -26 -15 -8 0 -14 7 -14 15 0 10 10
15 26 15 22 0 25 -2 14 -15z m-3626 -11 c5 -14 -37 -24 -66 -16 -19 5 -20 6
-4 17 21 16 64 14 70 -1z m934 -2 c2 -7 -3 -12 -12 -12 -9 0 -16 7 -16 16 0
17 22 14 28 -4z m2793 -22 c6 0 3 -7 -5 -16 -27 -26 -49 2 -23 30 10 12 13 12
15 0 2 -8 8 -14 13 -14z m79 5 c0 -8 -7 -15 -15 -15 -8 0 -15 7 -15 15 0 8 7
15 15 15 8 0 15 -7 15 -15z m210 0 c0 -8 -9 -15 -20 -15 -13 0 -18 5 -14 15 4
8 12 15 20 15 8 0 14 -7 14 -15z m-4066 -30 c-4 -8 -8 -15 -10 -15 -2 0 -4 7
-4 15 0 8 4 15 10 15 5 0 7 -7 4 -15z m2226 0 c-7 -8 -16 -15 -21 -15 -5 0 -9
7 -9 15 0 9 9 15 21 15 18 0 19 -2 9 -15z m728 3 c-3 -7 -11 -13 -18 -13 -7 0
-15 6 -17 13 -3 7 4 12 17 12 13 0 20 -5 18 -12z m19 -10 c-3 -8 -6 -5 -6 6
-1 11 2 17 5 13 3 -3 4 -12 1 -19z m1136 6 c9 -10 -4 -34 -19 -34 -8 0 -14 9
-14 20 0 19 19 27 33 14z m-4109 -30 c13 -5 14 -9 5 -20 -15 -19 -69 -18 -69
0 0 22 33 32 64 20z m981 -4 c3 -5 -1 -10 -9 -10 -9 0 -16 5 -16 10 0 6 4 10
9 10 6 0 13 -4 16 -10z m2830 0 c3 -5 1 -10 -4 -10 -6 0 -11 5 -11 10 0 6 2
10 4 10 3 0 8 -4 11 -10z m-1984 -9 c-8 -5 -20 -7 -28 -4 -21 8 -15 13 15 13
20 0 23 -3 13 -9z m1116 3 c-3 -3 -12 -4 -19 -1 -8 3 -5 6 6 6 11 1 17 -2 13
-5z m-587 -14 c0 -5 -5 -10 -11 -10 -5 0 -7 5 -4 10 3 6 8 10 11 10 2 0 4 -4
4 -10z m80 0 c0 -5 -4 -10 -10 -10 -5 0 -10 5 -10 10 0 6 5 10 10 10 6 0 10
-4 10 -10z m1630 -26 c0 -45 -22 -41 -25 4 -2 22 2 32 11 32 9 0 14 -12 14
-36z m-3360 -4 c0 -21 -15 -27 -25 -10 -7 12 2 30 16 30 5 0 9 -9 9 -20z m144
5 c4 -10 -1 -15 -14 -15 -11 0 -20 7 -20 15 0 8 6 15 14 15 8 0 16 -7 20 -15z
m1116 -1 c0 -9 -5 -14 -12 -12 -18 6 -21 28 -4 28 9 0 16 -7 16 -16z m310 6
c0 -5 -2 -10 -4 -10 -3 0 -8 5 -11 10 -3 6 -1 10 4 10 6 0 11 -4 11 -10z
m-2450 -15 c0 -8 -7 -15 -15 -15 -8 0 -15 7 -15 15 0 8 7 15 15 15 8 0 15 -7
15 -15z m80 5 c0 -5 -5 -10 -11 -10 -5 0 -7 5 -4 10 3 6 8 10 11 10 2 0 4 -4
4 -10z m1940 0 c0 -5 -9 -10 -21 -10 -11 0 -17 5 -14 10 3 6 13 10 21 10 8 0
14 -4 14 -10z m2310 -21 c0 -5 -7 -9 -15 -9 -8 0 -15 7 -15 15 0 9 6 12 15 9
8 -4 15 -10 15 -15z m-455 1 c-3 -5 -13 -10 -21 -10 -8 0 -14 5 -14 10 0 6 9
10 21 10 11 0 17 -4 14 -10z m235 0 c0 -5 -7 -10 -15 -10 -8 0 -15 5 -15 10 0
6 7 10 15 10 8 0 15 -4 15 -10z m-2130 -10 c0 -5 -5 -10 -11 -10 -5 0 -7 5 -4
10 3 6 8 10 11 10 2 0 4 -4 4 -10z m30 0 c0 -5 -5 -10 -11 -10 -5 0 -7 5 -4
10 3 6 8 10 11 10 2 0 4 -4 4 -10z m-66 -15 c-4 -8 -7 -15 -9 -15 -2 0 -5 7
-9 15 -3 9 0 15 9 15 9 0 12 -6 9 -15z m-1904 -5 c-20 -13 -40 -13 -40 0 0 6
12 10 28 10 21 0 24 -2 12 -10z m40 0 c0 -5 -4 -10 -10 -10 -5 0 -10 5 -10 10
0 6 5 10 10 10 6 0 10 -4 10 -10z m3340 -10 c0 -5 -8 -10 -17 -10 -15 0 -16 2
-3 10 19 12 20 12 20 0z m690 0 c0 -5 -4 -10 -10 -10 -5 0 -10 5 -10 10 0 6 5
10 10 10 6 0 10 -4 10 -10z m-2233 -22 c-3 -8 -6 -5 -6 6 -1 11 2 17 5 13 3
-3 4 -12 1 -19z m119 -4 c-3 -8 -1 -14 4 -14 6 0 10 -4 10 -10 0 -19 -17 -10
-28 14 -11 25 -6 40 10 30 5 -3 7 -12 4 -20z m1146 -20 c4 -54 -4 -71 -22 -49
-11 13 -11 21 -3 35 7 10 9 27 6 39 -3 11 -1 21 5 21 5 0 12 -21 14 -46z
m-3229 21 c4 -8 2 -17 -4 -21 -5 -3 -7 -14 -4 -25 5 -14 2 -19 -11 -19 -16 0
-16 -2 2 -21 16 -17 16 -22 4 -29 -10 -7 -11 -10 -2 -10 6 0 12 -7 12 -15 0
-16 -44 -20 -87 -9 -33 9 -18 24 23 24 21 0 33 4 29 10 -4 6 -10 8 -15 5 -5
-3 -12 0 -16 6 -5 8 -8 8 -14 0 -5 -9 -10 -8 -20 4 -11 13 -8 15 19 15 17 0
31 5 31 10 0 6 -9 10 -21 10 -33 0 -16 25 20 28 17 2 31 9 30 15 -4 36 13 52
24 22z m92 -18 c-11 -6 -21 -5 -28 2 -17 17 12 34 31 19 11 -10 10 -13 -3 -21z
m1095 23 c0 -5 -4 -10 -10 -10 -5 0 -10 5 -10 10 0 6 5 10 10 10 6 0 10 -4 10
-10z m562 -14 c14 -20 8 -37 -14 -46 -13 -5 -17 -9 -9 -9 10 -1 11 -4 2 -15
-8 -10 -9 -15 -1 -18 7 -2 5 -14 -5 -36 -12 -23 -23 -32 -41 -32 -13 0 -24 5
-24 11 0 6 -6 7 -12 2 -7 -4 -22 -7 -33 -8 -11 0 -19 -6 -17 -12 3 -19 -13
-16 -33 7 -19 21 -15 24 33 20 14 -1 22 4 22 13 0 10 7 13 20 10 14 -4 20 0
20 11 0 11 9 16 26 16 22 0 25 2 14 15 -9 11 -9 15 -1 15 7 0 9 5 6 10 -11 17
-37 11 -42 -10 -6 -21 -31 -25 -67 -11 -18 7 -16 9 12 19 18 6 31 17 30 24 -2
9 14 15 52 19 30 3 47 6 38 7 -10 1 -18 6 -18 12 0 11 32 1 42 -14z m958 4 c0
-5 -5 -10 -11 -10 -5 0 -7 5 -4 10 3 6 8 10 11 10 2 0 4 -4 4 -10z m-800 -15
c0 -10 -10 -15 -32 -15 l-33 1 30 14 c17 7 31 14 33 14 1 1 2 -6 2 -14z m2028
3 c-3 -7 -11 -13 -18 -13 -7 0 -15 6 -17 13 -3 7 4 12 17 12 13 0 20 -5 18
-12z m-1683 -8 c3 -5 1 -10 -4 -10 -6 0 -11 5 -11 10 0 6 2 10 4 10 3 0 8 -4
11 -10z m-2195 -25 c0 -8 -9 -15 -20 -15 -11 0 -20 7 -20 15 0 8 9 15 20 15
11 0 20 -7 20 -15z m84 0 c4 -11 -1 -15 -19 -15 -18 0 -23 4 -19 15 4 8 12 15
19 15 7 0 15 -7 19 -15z m916 5 c0 -5 -6 -10 -14 -10 -8 0 -18 5 -21 10 -3 6
3 10 14 10 12 0 21 -4 21 -10z m2780 -6 c0 -17 -22 -14 -28 4 -2 7 3 12 12 12
9 0 16 -7 16 -16z m-1758 -26 c-9 -9 -12 -7 -12 12 0 19 3 21 12 12 9 -9 9
-15 0 -24z m958 17 c0 -8 -7 -15 -15 -15 -8 0 -15 7 -15 15 0 8 7 15 15 15 8
0 15 -7 15 -15z m-1514 -8 c10 -10 -24 -20 -43 -13 -14 6 -15 9 -4 15 15 10
37 9 47 -2z m384 3 c0 -5 -10 -10 -22 -9 -22 0 -22 1 -3 9 11 5 21 9 23 9 1 1
2 -3 2 -9z m-1176 -15 c3 -8 1 -15 -4 -15 -6 0 -10 7 -10 15 0 8 2 15 4 15 2
0 6 -7 10 -15z m296 -7 c0 -5 -2 -8 -5 -8 -3 0 -16 0 -30 0 -15 0 -25 6 -25
14 0 10 8 12 30 7 17 -3 31 -9 30 -13z m1177 16 c-3 -3 -12 -4 -19 -1 -8 3 -5
6 6 6 11 1 17 -2 13 -5z m-2067 -24 c0 -11 -7 -20 -15 -20 -15 0 -21 21 -8 33
12 13 23 7 23 -13z m565 10 c3 -5 -1 -10 -10 -10 -9 0 -13 5 -10 10 3 6 8 10
10 10 2 0 7 -4 10 -10z m185 -5 c0 -8 -7 -15 -15 -15 -8 0 -15 7 -15 15 0 8 7
15 15 15 8 0 15 -7 15 -15z m893 -14 c-4 -15 3 -22 31 -31 20 -6 34 -16 30
-21 -3 -5 -14 -7 -25 -4 -11 4 -19 2 -19 -4 0 -6 -7 -11 -15 -11 -14 0 -20 12
-16 34 1 4 -3 14 -10 22 -12 15 -4 34 16 34 8 0 11 -7 8 -19z m2007 9 c0 -5
-7 -7 -15 -4 -8 4 -15 8 -15 10 0 2 7 4 15 4 8 0 15 -4 15 -10z m-2330 -10 c0
-5 -11 -12 -25 -16 -14 -3 -25 -13 -25 -22 0 -13 -3 -12 -14 3 -11 16 -17 17
-29 7 -12 -10 -16 -10 -21 3 -3 8 -15 15 -26 15 -12 0 -18 5 -15 10 8 13 155
13 155 0z m90 -5 c0 -9 -9 -15 -25 -15 -16 0 -25 6 -25 15 0 9 9 15 25 15 16
0 25 -6 25 -15z m45 5 c3 -5 1 -10 -4 -10 -6 0 -11 5 -11 10 0 6 2 10 4 10 3
0 8 -4 11 -10z m225 6 c0 -3 -4 -8 -10 -11 -5 -3 -10 -1 -10 4 0 6 5 11 10 11
6 0 10 -2 10 -4z m110 -6 c0 -5 -4 -10 -10 -10 -5 0 -10 5 -10 10 0 6 5 10 10
10 6 0 10 -4 10 -10z m105 0 c3 -5 1 -10 -4 -10 -6 0 -11 5 -11 10 0 6 2 10 4
10 3 0 8 -4 11 -10z m145 0 c0 -5 -2 -10 -4 -10 -3 0 -8 5 -11 10 -3 6 -1 10
4 10 6 0 11 -4 11 -10z m917 -22 c-3 -8 -6 -5 -6 6 -1 11 2 17 5 13 3 -3 4
-12 1 -19z m-3010 -10 c-3 -8 -6 -5 -6 6 -1 11 2 17 5 13 3 -3 4 -12 1 -19z
m163 6 c0 -8 -5 -12 -10 -9 -6 4 -8 11 -5 16 9 14 15 11 15 -7z m788 -2 c2 -7
-3 -12 -12 -12 -9 0 -16 7 -16 16 0 17 22 14 28 -4z m2347 -12 c-5 -8 -11 -8
-17 -2 -6 6 -7 16 -3 22 5 8 11 8 17 2 6 -6 7 -16 3 -22z m375 14 c0 -14 -3
-14 -15 -4 -8 7 -15 14 -15 16 0 2 7 4 15 4 8 0 15 -7 15 -16z m-3710 -4 c0
-5 -9 -10 -20 -10 -11 0 -20 5 -20 10 0 6 9 10 20 10 11 0 20 -4 20 -10z m930
0 c0 -5 -5 -10 -11 -10 -5 0 -7 5 -4 10 3 6 8 10 11 10 2 0 4 -4 4 -10z m270
0 c0 -5 10 -10 23 -11 18 -1 16 -3 -9 -10 -17 -5 -49 -5 -75 0 -30 6 -36 9
-17 10 15 1 30 6 33 11 3 6 15 10 26 10 10 0 19 -4 19 -10z m2727 -27 c-3 -10
-5 -4 -5 12 0 17 2 24 5 18 2 -7 2 -21 0 -30z m140 15 c-3 -8 -6 -5 -6 6 -1
11 2 17 5 13 3 -3 4 -12 1 -19z m133 7 c0 -8 -4 -15 -10 -15 -5 0 -10 7 -10
15 0 8 5 15 10 15 6 0 10 -7 10 -15z m-2722 -16 c-8 -4 -25 -5 -39 -2 l-24 7
25 6 c32 9 59 1 38 -11z m352 11 c0 -5 -5 -10 -11 -10 -5 0 -7 5 -4 10 3 6 8
10 11 10 2 0 4 -4 4 -10z m-850 -21 c0 -5 31 -9 70 -9 58 0 68 -3 64 -15 -7
-18 -70 -21 -76 -3 -2 6 -10 8 -17 4 -9 -6 -5 -12 14 -22 32 -16 75 -19 75 -4
0 15 37 12 43 -3 3 -8 -3 -20 -14 -28 -10 -7 -19 -19 -19 -26 0 -8 -13 -13
-34 -13 -30 0 -33 2 -28 26 4 24 3 25 -17 15 -11 -7 -21 -19 -21 -27 0 -11 -9
-14 -32 -12 -41 4 -46 21 -11 36 28 11 27 11 -12 10 -63 -1 -75 1 -75 15 0 14
37 17 57 4 14 -9 59 11 49 21 -4 3 -27 5 -51 3 -38 -2 -45 0 -45 16 0 15 8 19
40 20 22 1 40 -2 40 -8z m2640 1 c0 -5 -5 -10 -11 -10 -5 0 -7 5 -4 10 3 6 8
10 11 10 2 0 4 -4 4 -10z m-3855 -19 c-3 -6 -11 -8 -17 -5 -6 4 -5 9 3 15 16
10 23 4 14 -10z m105 -1 c0 -5 -2 -10 -4 -10 -3 0 -8 5 -11 10 -3 6 -1 10 4
10 6 0 11 -4 11 -10z m1290 0 c0 -5 -4 -10 -10 -10 -5 0 -10 5 -10 10 0 6 5
10 10 10 6 0 10 -4 10 -10z m37 4 c-3 -3 -12 -4 -19 -1 -8 3 -5 6 6 6 11 1 17
-2 13 -5z m239 -9 c-11 -8 -28 -15 -38 -15 -11 0 -18 -6 -17 -12 3 -28 -2 -35
-26 -35 -31 0 -35 32 -5 40 11 3 20 12 20 21 0 12 10 16 43 16 39 -1 41 -2 23
-15z m256 -15 c6 -37 -8 -62 -21 -40 -5 8 -8 18 -5 22 3 4 0 17 -6 28 -9 17
-8 20 9 20 13 0 20 -9 23 -30z m78 15 c0 -8 -4 -15 -10 -15 -5 0 -10 7 -10 15
0 8 5 15 10 15 6 0 10 -7 10 -15z m74 0 c-4 -8 -8 -15 -10 -15 -2 0 -4 7 -4
15 0 8 4 15 10 15 5 0 7 -7 4 -15z m-586 -27 c-3 -7 -22 -14 -44 -16 -31 -2
-36 0 -21 8 9 6 21 9 26 5 5 -3 12 -1 16 5 9 14 27 12 23 -2z m2816 -3 c4 -11
-1 -15 -19 -15 -24 0 -32 10 -18 23 11 12 31 8 37 -8z m-4274 -5 c12 -8 9 -10
-13 -10 -16 0 -26 4 -22 10 8 12 16 12 35 0z m1024 -11 c-3 -5 -10 -7 -15 -3
-5 3 -7 10 -3 15 3 5 10 7 15 3 5 -3 7 -10 3 -15z m931 -30 c0 -24 -1 -50 -3
-56 -7 -21 -32 -15 -32 7 0 11 4 20 8 20 9 0 9 41 -1 57 -8 12 3 25 17 20 6
-2 11 -23 11 -48z m-2048 35 c-3 -3 -12 -4 -19 -1 -8 3 -5 6 6 6 11 1 17 -2
13 -5z m1584 -7 c-7 -10 -7 -17 0 -24 8 -8 8 -13 0 -17 -6 -4 -11 -3 -11 3 0
6 -8 7 -17 4 -13 -5 -15 -2 -10 11 4 10 7 22 7 27 0 5 10 9 21 9 17 0 19 -3
10 -13z m1984 -27 c-5 -8 -11 -8 -17 -2 -6 6 -7 16 -3 22 5 8 11 8 17 2 6 -6
7 -16 3 -22z m-3485 -6 c0 -8 -10 -14 -25 -14 -23 0 -25 -2 -14 -21 15 -29 -1
-45 -30 -30 -25 14 -27 27 -4 35 14 6 15 9 4 15 -22 14 -4 29 34 29 23 0 35
-5 35 -14z m1084 1 c-4 -8 -14 -15 -23 -15 -14 0 -14 -2 -1 -10 8 -5 11 -12 7
-16 -10 -11 -49 -16 -45 -7 24 50 34 63 49 63 12 0 16 -5 13 -15z m293 -7 c-3
-8 -6 -5 -6 6 -1 11 2 17 5 13 3 -3 4 -12 1 -19z m1257 7 c-4 -8 -7 -15 -9
-15 -2 0 -5 7 -9 15 -3 9 0 15 9 15 9 0 12 -6 9 -15z m-1094 -5 c0 -5 -4 -10
-10 -10 -5 0 -10 5 -10 10 0 6 5 10 10 10 6 0 10 -4 10 -10z m955 1 c3 -5 1
-12 -5 -16 -5 -3 -10 1 -10 9 0 18 6 21 15 7z m1197 -16 c0 -5 -5 -11 -11 -13
-6 -2 -11 4 -11 13 0 9 5 15 11 13 6 -2 11 -8 11 -13z m-2552 -10 c0 -10 -10
-15 -32 -15 l-33 0 25 14 c33 19 40 19 40 1z m235 -15 c0 -9 -11 -16 -27 -18
-30 -4 -31 -2 -22 23 8 20 49 16 49 -5z m225 5 c0 -8 -7 -15 -15 -15 -8 0 -15
7 -15 15 0 8 7 15 15 15 8 0 15 -7 15 -15z m225 -5 c0 -7 -6 -15 -12 -17 -8
-3 -13 4 -13 17 0 13 5 20 13 18 6 -3 12 -11 12 -18z m-598 4 c-3 -3 -12 -4
-19 -1 -8 3 -5 6 6 6 11 1 17 -2 13 -5z m1723 -16 c0 -18 -2 -20 -9 -8 -6 8
-7 18 -5 22 9 14 14 9 14 -14z m-2000 -22 c0 -15 -47 -39 -61 -31 -5 4 -9 15
-9 25 0 13 9 20 28 22 33 4 42 1 42 -16z m1676 -13 c-11 -11 -17 4 -9 23 7 18
8 18 11 1 2 -10 1 -21 -2 -24z m-1576 12 c0 -10 -9 -14 -30 -12 -38 3 -39 14
-2 20 15 2 28 5 30 6 1 0 2 -6 2 -14z m-1117 -12 c-7 -17 -43 -27 -55 -15 -16
16 0 31 31 29 18 -1 27 -7 24 -14z m2017 13 c0 -3 -4 -8 -10 -11 -5 -3 -10 -1
-10 4 0 6 5 11 10 11 6 0 10 -2 10 -4z m2310 -6 c0 -5 -4 -10 -9 -10 -6 0 -13
5 -16 10 -3 6 1 10 9 10 9 0 16 -4 16 -10z m-3190 -30 c0 -5 -4 -10 -10 -10
-5 0 -10 5 -10 10 0 6 5 10 10 10 6 0 10 -4 10 -10z m524 -21 c-10 -16 -24 -9
-24 12 0 18 2 19 15 9 8 -7 12 -16 9 -21z m334 14 c-5 -25 -28 -28 -28 -4 0
12 6 21 16 21 9 0 14 -7 12 -17z m693 4 c-1 -4 -1 -14 -1 -22 0 -26 -15 -16
-16 10 -1 15 2 25 8 23 5 -2 9 -7 9 -11z m1723 -2 c3 -8 1 -15 -4 -15 -6 0
-10 7 -10 15 0 8 2 15 4 15 2 0 6 -7 10 -15z m-2474 -5 c0 -5 -4 -10 -10 -10
-5 0 -10 5 -10 10 0 6 5 10 10 10 6 0 10 -4 10 -10z m2755 -8 c-3 -3 -11 0
-18 7 -9 10 -8 11 6 5 10 -3 15 -9 12 -12z m-4715 -7 c0 -8 -9 -15 -20 -15
-11 0 -20 7 -20 15 0 8 9 15 20 15 11 0 20 -7 20 -15z"/>
<path d="M2570 2981 c0 -5 5 -13 10 -16 6 -3 10 -2 10 4 0 5 -4 13 -10 16 -5
3 -10 2 -10 -4z"/>
<path d="M2511 2924 c1 -33 0 -65 -4 -71 -9 -14 3 -54 15 -47 5 3 4 12 -3 20
-9 11 -8 14 3 14 20 0 21 83 1 119 -13 24 -14 22 -12 -35z"/>
<path d="M2440 2920 c-8 -5 -12 -11 -10 -14 3 -2 14 2 24 10 22 15 10 19 -14
4z"/>
<path d="M2556 2888 c1 -13 3 -29 3 -35 1 -7 4 -13 9 -13 11 0 7 63 -5 67 -5
2 -9 -7 -7 -19z"/>
<path d="M2401 2854 c0 -11 3 -14 6 -6 3 7 2 16 -1 19 -3 4 -6 -2 -5 -13z"/>
<path d="M3605 2710 c-3 -5 1 -10 10 -10 9 0 13 5 10 10 -3 6 -8 10 -10 10 -2
0 -7 -4 -10 -10z"/>
<path d="M1520 2465 c0 -8 5 -15 10 -15 6 0 10 7 10 15 0 8 -4 15 -10 15 -5 0
-10 -7 -10 -15z"/>
<path d="M2389 2173 c0 -10 -2 -28 -3 -41 -2 -13 1 -25 6 -28 4 -3 8 15 8 40
0 43 -9 67 -11 29z"/>
<path d="M2400 1910 c0 -5 7 -10 15 -10 8 0 15 5 15 10 0 6 -7 10 -15 10 -8 0
-15 -4 -15 -10z"/>
<path d="M2412 1881 c-11 -7 -11 -9 1 -14 16 -6 27 0 27 15 0 10 -11 10 -28
-1z"/>
<path d="M2440 1831 c0 -5 -3 -17 -7 -27 -4 -11 -2 -15 7 -12 20 6 33 48 15
48 -8 0 -15 -4 -15 -9z"/>
<path d="M2465 1621 c-7 -12 12 -24 25 -16 11 7 4 25 -10 25 -5 0 -11 -4 -15
-9z"/>
<path d="M2532 1520 c0 -14 2 -19 5 -12 2 6 2 18 0 25 -3 6 -5 1 -5 -13z"/>
<path d="M2530 1473 c0 -10 4 -14 8 -8 4 6 11 13 16 18 5 4 2 7 -7 7 -10 0
-17 -8 -17 -17z"/>
<path d="M3537 1863 c-12 -11 -8 -23 8 -23 8 0 15 7 15 15 0 16 -12 20 -23 8z"/>
<path d="M3497 1693 c-4 -3 -7 -11 -7 -17 0 -6 5 -5 12 2 6 6 9 14 7 17 -3 3
-9 2 -12 -2z"/>
<path d="M2745 1230 c3 -5 8 -10 11 -10 2 0 4 5 4 10 0 6 -5 10 -11 10 -5 0
-7 -4 -4 -10z"/>
<path d="M1432 688 c6 -18 28 -21 28 -4 0 9 -7 16 -16 16 -9 0 -14 -5 -12 -12z"/>
</g>
</svg>
