<?xml version="1.0" standalone="no"?>
<!DOCTYPE svg PUBLIC "-//W3C//DTD SVG 20010904//EN"
 "http://www.w3.org/TR/2001/REC-SVG-20010904/DTD/svg10.dtd">
<svg version="1.0" xmlns="http://www.w3.org/2000/svg"
 width="225.000000pt" height="225.000000pt" viewBox="0 0 225.000000 225.000000"
 preserveAspectRatio="xMidYMid meet">

<g transform="translate(0.000000,225.000000) scale(0.100000,-0.100000)"
fill="#000000" stroke="none">
<path d="M1040 1729 c-80 -16 -227 -45 -328 -64 -192 -36 -215 -44 -232 -75
-24 -44 -30 -24 255 -840 74 -212 84 -227 166 -252 35 -10 68 -4 386 77 502
126 488 121 507 197 8 37 -4 66 -148 340 -67 128 -164 314 -215 413 -51 99
-105 192 -122 208 -38 35 -78 35 -269 -4z m249 4 c15 -14 351 -670 351 -687 0
-12 -865 -214 -874 -205 -2 2 -22 56 -44 119 -22 63 -79 223 -127 355 -55 153
-84 247 -80 262 4 16 17 26 48 34 72 19 650 137 678 138 15 1 36 -7 48 -16z
m385 -828 c-3 -8 4 -20 15 -27 25 -15 27 -28 6 -28 -8 0 -15 5 -15 10 0 6 -4
10 -10 10 -5 0 -7 -7 -4 -15 4 -9 0 -15 -9 -15 -10 0 -13 7 -10 20 4 13 -1 26
-12 34 -13 9 -15 15 -7 20 7 4 12 2 12 -3 0 -6 5 -11 10 -11 6 0 10 7 10 16 0
8 4 13 10 9 5 -3 7 -12 4 -20z m-54 -65 c0 -4 -8 -11 -17 -15 -23 -8 -80 55
-60 67 8 5 14 -2 20 -21 8 -33 37 -51 37 -23 0 9 -4 24 -9 32 -6 8 -7 18 -4
23 5 9 33 -45 33 -63z m-77 -17 c14 -19 -3 -16 -25 4 -22 19 -36 10 -18 -12
10 -12 10 -15 -3 -15 -8 0 -18 12 -22 27 -3 15 -12 31 -18 35 -9 6 -9 8 1 8 7
0 24 -7 37 -16 14 -9 25 -12 25 -6 0 6 -5 14 -10 17 -6 4 -7 11 -3 18 4 6 10
-1 16 -18 5 -17 14 -36 20 -42z m-123 22 c0 -8 9 -24 20 -35 11 -11 16 -20 11
-20 -5 0 -15 -2 -23 -5 -9 -4 -14 4 -15 22 0 15 -9 33 -19 40 -17 12 -16 13 4
13 13 0 22 -6 22 -15z m-163 -50 l21 -55 -21 0 c-17 0 -27 12 -44 55 l-21 55
21 0 c17 0 27 -12 44 -55z m68 35 c-9 -14 13 -50 31 -50 11 0 14 6 10 18 -5
14 -3 13 9 -3 14 -18 14 -20 -2 -27 -28 -10 -65 -9 -58 2 10 17 -5 50 -23 51
-14 0 -13 2 3 9 27 12 37 12 30 0z m-180 -40 c15 -33 22 -39 40 -34 15 4 24 0
28 -10 5 -12 -4 -18 -34 -26 -23 -6 -43 -9 -46 -7 -11 11 -41 105 -36 111 15
15 31 3 48 -34z m-71 -27 c24 -26 42 -51 39 -56 -3 -5 -20 -6 -38 -3 -23 5
-38 2 -48 -9 -9 -8 -23 -15 -32 -15 -13 0 -16 10 -13 58 3 53 11 68 40 71 4 1
27 -20 52 -46z m-155 -6 c-11 -24 -9 -28 21 -53 32 -27 32 -28 10 -36 -16 -6
-28 -4 -40 7 -23 21 -33 19 -25 -5 5 -16 2 -20 -17 -20 -19 0 -27 9 -41 49
-21 60 -21 58 2 64 13 3 21 -2 26 -17 7 -20 7 -20 18 6 6 15 20 29 31 30 28 5
28 4 15 -25z"/>
<path d="M955 1612 c6 -5 28 -21 50 -36 47 -33 20 -28 -60 10 -59 28 -72 24
-21 -7 20 -11 36 -24 36 -28 0 -5 -25 -4 -57 1 -41 6 -58 6 -64 -3 -4 -8 -19
-9 -43 -5 -30 6 -35 4 -30 -9 5 -12 -2 -15 -30 -15 -29 0 -36 -4 -34 -16 2
-11 -8 -21 -32 -29 -30 -10 -32 -13 -16 -22 16 -9 15 -12 -14 -30 -32 -20 -32
-21 -11 -28 16 -5 20 -12 16 -23 -18 -43 -17 -51 4 -45 18 5 21 1 21 -26 0
-28 2 -31 24 -25 19 4 28 0 41 -20 13 -19 21 -23 30 -16 8 7 26 5 56 -5 24 -8
114 -23 199 -34 176 -22 257 -47 295 -93 35 -41 41 -31 8 15 -45 63 -128 94
-341 126 -154 23 -242 73 -242 137 0 100 205 138 349 65 35 -17 93 -39 129
-47 81 -19 119 -40 130 -73 l8 -25 27 26 c35 36 35 64 0 73 -43 10 -93 36 -88
45 8 13 -90 70 -162 95 -38 13 -95 35 -128 49 -33 15 -55 23 -50 18z m250
-124 c35 -16 31 -29 -5 -17 -16 6 -30 15 -30 20 0 12 4 11 35 -3z"/>
<path d="M1130 997 c0 -4 4 -17 10 -27 12 -22 46 -16 53 10 4 14 -2 19 -29 22
-19 2 -34 0 -34 -5z"/>
<path d="M1209 1003 c-6 -35 -5 -53 4 -50 14 4 21 57 7 57 -5 0 -11 -3 -11 -7z"/>
<path d="M1082 984 c-7 -8 -23 -14 -35 -15 -12 0 -31 -3 -42 -5 -11 -3 -29 -7
-40 -9 -11 -2 -22 -4 -25 -5 -3 -1 -8 -2 -12 -1 -5 0 -8 -3 -8 -9 0 -5 -7 -7
-15 -4 -8 4 -15 2 -15 -4 0 -5 -11 -7 -25 -4 -14 2 -32 -1 -40 -8 -8 -6 -18
-9 -24 -6 -17 11 -39 -5 -34 -25 8 -28 21 -33 39 -14 9 9 24 13 35 10 12 -4
21 -1 25 8 3 9 16 13 35 11 22 -3 29 1 30 14 0 10 3 12 6 5 7 -20 43 -16 44 5
0 10 3 12 6 5 2 -7 9 -13 15 -13 6 0 8 7 4 15 -3 8 -1 15 4 15 6 0 10 -5 10
-11 0 -6 10 -9 23 -7 12 2 21 9 19 17 -3 12 0 12 12 2 22 -19 46 -7 39 19 -7
27 -15 31 -31 14z m18 -24 c0 -5 -4 -10 -10 -10 -5 0 -10 5 -10 10 0 6 5 10
10 10 6 0 10 -4 10 -10z"/>
<path d="M1017 750 c3 -11 12 -20 19 -20 17 0 18 12 2 28 -18 18 -27 15 -21
-8z"/>
</g>
</svg>
